G75*
%MOIN*%
%OFA0B0*%
%FSLAX25Y25*%
%IPPOS*%
%LPD*%
%AMOC8*
5,1,8,0,0,1.08239X$1,22.5*
%
%ADD10C,0.01000*%
%ADD11C,0.00606*%
%ADD12R,0.05200X0.09200*%
%ADD13R,0.14573X0.09061*%
%ADD14R,0.03550X0.03943*%
%ADD15R,0.06699X0.07498*%
%ADD16R,0.05518X0.06306*%
%ADD17R,0.04337X0.04731*%
%ADD18R,0.03156X0.03943*%
%ADD19R,0.07498X0.06699*%
%ADD20R,0.06306X0.05518*%
%ADD21R,0.04731X0.04337*%
%ADD22R,0.03943X0.03156*%
%ADD23C,0.00500*%
%ADD24R,0.05400X0.02600*%
%ADD25R,0.02600X0.05400*%
%ADD26R,0.06699X0.04337*%
%ADD27R,0.24809X0.21660*%
D10*
X0014000Y0001750D02*
X0339000Y0001750D01*
X0339302Y0001754D01*
X0339604Y0001765D01*
X0339905Y0001783D01*
X0340206Y0001808D01*
X0340507Y0001841D01*
X0340806Y0001881D01*
X0341104Y0001928D01*
X0341402Y0001983D01*
X0341697Y0002044D01*
X0341991Y0002113D01*
X0342284Y0002189D01*
X0342574Y0002272D01*
X0342863Y0002362D01*
X0343149Y0002459D01*
X0343433Y0002562D01*
X0343714Y0002673D01*
X0343992Y0002790D01*
X0344268Y0002914D01*
X0344540Y0003045D01*
X0344809Y0003182D01*
X0345075Y0003325D01*
X0345337Y0003475D01*
X0345596Y0003632D01*
X0345850Y0003794D01*
X0346101Y0003963D01*
X0346347Y0004137D01*
X0346590Y0004318D01*
X0346827Y0004504D01*
X0347061Y0004696D01*
X0347289Y0004894D01*
X0347513Y0005097D01*
X0347731Y0005305D01*
X0347945Y0005519D01*
X0348153Y0005737D01*
X0348356Y0005961D01*
X0348554Y0006189D01*
X0348746Y0006423D01*
X0348932Y0006660D01*
X0349113Y0006903D01*
X0349287Y0007149D01*
X0349456Y0007400D01*
X0349618Y0007654D01*
X0349775Y0007913D01*
X0349925Y0008175D01*
X0350068Y0008441D01*
X0350205Y0008710D01*
X0350336Y0008982D01*
X0350460Y0009258D01*
X0350577Y0009536D01*
X0350688Y0009817D01*
X0350791Y0010101D01*
X0350888Y0010387D01*
X0350978Y0010676D01*
X0351061Y0010966D01*
X0351137Y0011259D01*
X0351206Y0011553D01*
X0351267Y0011848D01*
X0351322Y0012146D01*
X0351369Y0012444D01*
X0351409Y0012743D01*
X0351442Y0013044D01*
X0351467Y0013345D01*
X0351485Y0013646D01*
X0351496Y0013948D01*
X0351500Y0014250D01*
X0351500Y0189250D01*
X0351496Y0189552D01*
X0351485Y0189854D01*
X0351467Y0190155D01*
X0351442Y0190456D01*
X0351409Y0190757D01*
X0351369Y0191056D01*
X0351322Y0191354D01*
X0351267Y0191652D01*
X0351206Y0191947D01*
X0351137Y0192241D01*
X0351061Y0192534D01*
X0350978Y0192824D01*
X0350888Y0193113D01*
X0350791Y0193399D01*
X0350688Y0193683D01*
X0350577Y0193964D01*
X0350460Y0194242D01*
X0350336Y0194518D01*
X0350205Y0194790D01*
X0350068Y0195059D01*
X0349925Y0195325D01*
X0349775Y0195587D01*
X0349618Y0195846D01*
X0349456Y0196100D01*
X0349287Y0196351D01*
X0349113Y0196597D01*
X0348932Y0196840D01*
X0348746Y0197077D01*
X0348554Y0197311D01*
X0348356Y0197539D01*
X0348153Y0197763D01*
X0347945Y0197981D01*
X0347731Y0198195D01*
X0347513Y0198403D01*
X0347289Y0198606D01*
X0347061Y0198804D01*
X0346827Y0198996D01*
X0346590Y0199182D01*
X0346347Y0199363D01*
X0346101Y0199537D01*
X0345850Y0199706D01*
X0345596Y0199868D01*
X0345337Y0200025D01*
X0345075Y0200175D01*
X0344809Y0200318D01*
X0344540Y0200455D01*
X0344268Y0200586D01*
X0343992Y0200710D01*
X0343714Y0200827D01*
X0343433Y0200938D01*
X0343149Y0201041D01*
X0342863Y0201138D01*
X0342574Y0201228D01*
X0342284Y0201311D01*
X0341991Y0201387D01*
X0341697Y0201456D01*
X0341402Y0201517D01*
X0341104Y0201572D01*
X0340806Y0201619D01*
X0340507Y0201659D01*
X0340206Y0201692D01*
X0339905Y0201717D01*
X0339604Y0201735D01*
X0339302Y0201746D01*
X0339000Y0201750D01*
X0014000Y0201750D01*
X0013698Y0201746D01*
X0013396Y0201735D01*
X0013095Y0201717D01*
X0012794Y0201692D01*
X0012493Y0201659D01*
X0012194Y0201619D01*
X0011896Y0201572D01*
X0011598Y0201517D01*
X0011303Y0201456D01*
X0011009Y0201387D01*
X0010716Y0201311D01*
X0010426Y0201228D01*
X0010137Y0201138D01*
X0009851Y0201041D01*
X0009567Y0200938D01*
X0009286Y0200827D01*
X0009008Y0200710D01*
X0008732Y0200586D01*
X0008460Y0200455D01*
X0008191Y0200318D01*
X0007925Y0200175D01*
X0007663Y0200025D01*
X0007404Y0199868D01*
X0007150Y0199706D01*
X0006899Y0199537D01*
X0006653Y0199363D01*
X0006410Y0199182D01*
X0006173Y0198996D01*
X0005939Y0198804D01*
X0005711Y0198606D01*
X0005487Y0198403D01*
X0005269Y0198195D01*
X0005055Y0197981D01*
X0004847Y0197763D01*
X0004644Y0197539D01*
X0004446Y0197311D01*
X0004254Y0197077D01*
X0004068Y0196840D01*
X0003887Y0196597D01*
X0003713Y0196351D01*
X0003544Y0196100D01*
X0003382Y0195846D01*
X0003225Y0195587D01*
X0003075Y0195325D01*
X0002932Y0195059D01*
X0002795Y0194790D01*
X0002664Y0194518D01*
X0002540Y0194242D01*
X0002423Y0193964D01*
X0002312Y0193683D01*
X0002209Y0193399D01*
X0002112Y0193113D01*
X0002022Y0192824D01*
X0001939Y0192534D01*
X0001863Y0192241D01*
X0001794Y0191947D01*
X0001733Y0191652D01*
X0001678Y0191354D01*
X0001631Y0191056D01*
X0001591Y0190757D01*
X0001558Y0190456D01*
X0001533Y0190155D01*
X0001515Y0189854D01*
X0001504Y0189552D01*
X0001500Y0189250D01*
X0001500Y0014250D01*
X0001504Y0013948D01*
X0001515Y0013646D01*
X0001533Y0013345D01*
X0001558Y0013044D01*
X0001591Y0012743D01*
X0001631Y0012444D01*
X0001678Y0012146D01*
X0001733Y0011848D01*
X0001794Y0011553D01*
X0001863Y0011259D01*
X0001939Y0010966D01*
X0002022Y0010676D01*
X0002112Y0010387D01*
X0002209Y0010101D01*
X0002312Y0009817D01*
X0002423Y0009536D01*
X0002540Y0009258D01*
X0002664Y0008982D01*
X0002795Y0008710D01*
X0002932Y0008441D01*
X0003075Y0008175D01*
X0003225Y0007913D01*
X0003382Y0007654D01*
X0003544Y0007400D01*
X0003713Y0007149D01*
X0003887Y0006903D01*
X0004068Y0006660D01*
X0004254Y0006423D01*
X0004446Y0006189D01*
X0004644Y0005961D01*
X0004847Y0005737D01*
X0005055Y0005519D01*
X0005269Y0005305D01*
X0005487Y0005097D01*
X0005711Y0004894D01*
X0005939Y0004696D01*
X0006173Y0004504D01*
X0006410Y0004318D01*
X0006653Y0004137D01*
X0006899Y0003963D01*
X0007150Y0003794D01*
X0007404Y0003632D01*
X0007663Y0003475D01*
X0007925Y0003325D01*
X0008191Y0003182D01*
X0008460Y0003045D01*
X0008732Y0002914D01*
X0009008Y0002790D01*
X0009286Y0002673D01*
X0009567Y0002562D01*
X0009851Y0002459D01*
X0010137Y0002362D01*
X0010426Y0002272D01*
X0010716Y0002189D01*
X0011009Y0002113D01*
X0011303Y0002044D01*
X0011598Y0001983D01*
X0011896Y0001928D01*
X0012194Y0001881D01*
X0012493Y0001841D01*
X0012794Y0001808D01*
X0013095Y0001783D01*
X0013396Y0001765D01*
X0013698Y0001754D01*
X0014000Y0001750D01*
D11*
X0126303Y0180884D02*
X0327091Y0180884D01*
X0330634Y0177341D01*
X0330634Y0075372D01*
X0331421Y0074585D01*
X0350319Y0074585D01*
X0351500Y0075766D01*
X0351500Y0198207D01*
X0345988Y0203719D01*
X0128665Y0203719D01*
X0125909Y0200963D01*
X0125909Y0199388D01*
X0125909Y0181278D01*
X0126303Y0180884D01*
X0125909Y0181379D02*
X0351500Y0181379D01*
X0351500Y0181984D02*
X0125909Y0181984D01*
X0125909Y0182588D02*
X0351500Y0182588D01*
X0351500Y0183193D02*
X0125909Y0183193D01*
X0125909Y0183798D02*
X0351500Y0183798D01*
X0351500Y0184403D02*
X0125909Y0184403D01*
X0125909Y0185008D02*
X0351500Y0185008D01*
X0351500Y0185612D02*
X0125909Y0185612D01*
X0125909Y0186217D02*
X0351500Y0186217D01*
X0351500Y0186822D02*
X0125909Y0186822D01*
X0125909Y0187427D02*
X0351500Y0187427D01*
X0351500Y0188032D02*
X0125909Y0188032D01*
X0125909Y0188636D02*
X0351500Y0188636D01*
X0351500Y0189241D02*
X0125909Y0189241D01*
X0125909Y0189846D02*
X0351500Y0189846D01*
X0351500Y0190451D02*
X0125909Y0190451D01*
X0125909Y0191056D02*
X0351500Y0191056D01*
X0351500Y0191661D02*
X0125909Y0191661D01*
X0125909Y0192265D02*
X0351500Y0192265D01*
X0351500Y0192870D02*
X0125909Y0192870D01*
X0125909Y0193475D02*
X0351500Y0193475D01*
X0351500Y0194080D02*
X0125909Y0194080D01*
X0125909Y0194685D02*
X0351500Y0194685D01*
X0351500Y0195289D02*
X0125909Y0195289D01*
X0125909Y0195894D02*
X0351500Y0195894D01*
X0351500Y0196499D02*
X0125909Y0196499D01*
X0125909Y0197104D02*
X0351500Y0197104D01*
X0351500Y0197709D02*
X0125909Y0197709D01*
X0125909Y0198313D02*
X0351393Y0198313D01*
X0350788Y0198918D02*
X0125909Y0198918D01*
X0125909Y0199523D02*
X0350184Y0199523D01*
X0349579Y0200128D02*
X0125909Y0200128D01*
X0125909Y0200733D02*
X0348974Y0200733D01*
X0348369Y0201337D02*
X0126284Y0201337D01*
X0126889Y0201942D02*
X0347764Y0201942D01*
X0347160Y0202547D02*
X0127494Y0202547D01*
X0128099Y0203152D02*
X0346555Y0203152D01*
X0351500Y0180774D02*
X0327200Y0180774D01*
X0327805Y0180169D02*
X0351500Y0180169D01*
X0351500Y0179564D02*
X0328410Y0179564D01*
X0329015Y0178959D02*
X0351500Y0178959D01*
X0351500Y0178355D02*
X0329620Y0178355D01*
X0330225Y0177750D02*
X0351500Y0177750D01*
X0351500Y0177145D02*
X0330634Y0177145D01*
X0330634Y0176540D02*
X0351500Y0176540D01*
X0351500Y0175935D02*
X0330634Y0175935D01*
X0330634Y0175331D02*
X0351500Y0175331D01*
X0351500Y0174726D02*
X0330634Y0174726D01*
X0330634Y0174121D02*
X0351500Y0174121D01*
X0351500Y0173516D02*
X0330634Y0173516D01*
X0330634Y0172911D02*
X0351500Y0172911D01*
X0351500Y0172307D02*
X0330634Y0172307D01*
X0330634Y0171702D02*
X0351500Y0171702D01*
X0351500Y0171097D02*
X0330634Y0171097D01*
X0330634Y0170492D02*
X0351500Y0170492D01*
X0351500Y0169887D02*
X0330634Y0169887D01*
X0330634Y0169283D02*
X0351500Y0169283D01*
X0351500Y0168678D02*
X0330634Y0168678D01*
X0330634Y0168073D02*
X0351500Y0168073D01*
X0351500Y0167468D02*
X0330634Y0167468D01*
X0330634Y0166863D02*
X0351500Y0166863D01*
X0351500Y0166258D02*
X0330634Y0166258D01*
X0330634Y0165654D02*
X0351500Y0165654D01*
X0351500Y0165049D02*
X0330634Y0165049D01*
X0330634Y0164444D02*
X0351500Y0164444D01*
X0351500Y0163839D02*
X0330634Y0163839D01*
X0330634Y0163234D02*
X0351500Y0163234D01*
X0351500Y0162630D02*
X0330634Y0162630D01*
X0330634Y0162025D02*
X0351500Y0162025D01*
X0351500Y0161420D02*
X0330634Y0161420D01*
X0330634Y0160815D02*
X0351500Y0160815D01*
X0351500Y0160210D02*
X0330634Y0160210D01*
X0330634Y0159606D02*
X0351500Y0159606D01*
X0351500Y0159001D02*
X0330634Y0159001D01*
X0330634Y0158396D02*
X0351500Y0158396D01*
X0351500Y0157791D02*
X0330634Y0157791D01*
X0330634Y0157186D02*
X0351500Y0157186D01*
X0351500Y0156581D02*
X0330634Y0156581D01*
X0330634Y0155977D02*
X0351500Y0155977D01*
X0351500Y0155372D02*
X0330634Y0155372D01*
X0330634Y0154767D02*
X0351500Y0154767D01*
X0351500Y0154162D02*
X0330634Y0154162D01*
X0330634Y0153557D02*
X0351500Y0153557D01*
X0351500Y0152953D02*
X0330634Y0152953D01*
X0330634Y0152348D02*
X0351500Y0152348D01*
X0351500Y0151743D02*
X0330634Y0151743D01*
X0330634Y0151138D02*
X0351500Y0151138D01*
X0351500Y0150533D02*
X0330634Y0150533D01*
X0330634Y0149929D02*
X0351500Y0149929D01*
X0351500Y0149324D02*
X0330634Y0149324D01*
X0330634Y0148719D02*
X0351500Y0148719D01*
X0351500Y0148114D02*
X0330634Y0148114D01*
X0330634Y0147509D02*
X0351500Y0147509D01*
X0351500Y0146905D02*
X0330634Y0146905D01*
X0330634Y0146300D02*
X0351500Y0146300D01*
X0351500Y0145695D02*
X0330634Y0145695D01*
X0330634Y0145090D02*
X0351500Y0145090D01*
X0351500Y0144485D02*
X0330634Y0144485D01*
X0330634Y0143880D02*
X0351500Y0143880D01*
X0351500Y0143276D02*
X0330634Y0143276D01*
X0330634Y0142671D02*
X0351500Y0142671D01*
X0351500Y0142066D02*
X0330634Y0142066D01*
X0330634Y0141461D02*
X0351500Y0141461D01*
X0351500Y0140856D02*
X0330634Y0140856D01*
X0330634Y0140252D02*
X0351500Y0140252D01*
X0351500Y0139647D02*
X0330634Y0139647D01*
X0330634Y0139042D02*
X0351500Y0139042D01*
X0351500Y0138437D02*
X0330634Y0138437D01*
X0330634Y0137832D02*
X0351500Y0137832D01*
X0351500Y0137228D02*
X0330634Y0137228D01*
X0330634Y0136623D02*
X0351500Y0136623D01*
X0351500Y0136018D02*
X0330634Y0136018D01*
X0330634Y0135413D02*
X0351500Y0135413D01*
X0351500Y0134808D02*
X0330634Y0134808D01*
X0330634Y0134204D02*
X0351500Y0134204D01*
X0351500Y0133599D02*
X0330634Y0133599D01*
X0330634Y0132994D02*
X0351500Y0132994D01*
X0351500Y0132389D02*
X0330634Y0132389D01*
X0330634Y0131784D02*
X0351500Y0131784D01*
X0351500Y0131179D02*
X0330634Y0131179D01*
X0330634Y0130575D02*
X0351500Y0130575D01*
X0351500Y0129970D02*
X0330634Y0129970D01*
X0330634Y0129365D02*
X0351500Y0129365D01*
X0351500Y0128760D02*
X0330634Y0128760D01*
X0330634Y0128155D02*
X0351500Y0128155D01*
X0351500Y0127551D02*
X0330634Y0127551D01*
X0330634Y0126946D02*
X0351500Y0126946D01*
X0351500Y0126341D02*
X0330634Y0126341D01*
X0330634Y0125736D02*
X0351500Y0125736D01*
X0351500Y0125131D02*
X0330634Y0125131D01*
X0330634Y0124527D02*
X0351500Y0124527D01*
X0351500Y0123922D02*
X0330634Y0123922D01*
X0330634Y0123317D02*
X0351500Y0123317D01*
X0351500Y0122712D02*
X0330634Y0122712D01*
X0330634Y0122107D02*
X0351500Y0122107D01*
X0351500Y0121502D02*
X0330634Y0121502D01*
X0330634Y0120898D02*
X0351500Y0120898D01*
X0351500Y0120293D02*
X0330634Y0120293D01*
X0330634Y0119688D02*
X0351500Y0119688D01*
X0351500Y0119083D02*
X0330634Y0119083D01*
X0330634Y0118478D02*
X0351500Y0118478D01*
X0351500Y0117874D02*
X0330634Y0117874D01*
X0330634Y0117269D02*
X0351500Y0117269D01*
X0351500Y0116664D02*
X0330634Y0116664D01*
X0330634Y0116059D02*
X0351500Y0116059D01*
X0351500Y0115454D02*
X0330634Y0115454D01*
X0330634Y0114850D02*
X0351500Y0114850D01*
X0351500Y0114245D02*
X0330634Y0114245D01*
X0330634Y0113640D02*
X0351500Y0113640D01*
X0351500Y0113035D02*
X0330634Y0113035D01*
X0330634Y0112430D02*
X0351500Y0112430D01*
X0351500Y0111826D02*
X0330634Y0111826D01*
X0330634Y0111221D02*
X0351500Y0111221D01*
X0351500Y0110616D02*
X0330634Y0110616D01*
X0330634Y0110011D02*
X0351500Y0110011D01*
X0351500Y0109406D02*
X0330634Y0109406D01*
X0330634Y0108801D02*
X0351500Y0108801D01*
X0351500Y0108197D02*
X0330634Y0108197D01*
X0330634Y0107592D02*
X0351500Y0107592D01*
X0351500Y0106987D02*
X0330634Y0106987D01*
X0330634Y0106382D02*
X0351500Y0106382D01*
X0351500Y0105777D02*
X0330634Y0105777D01*
X0330634Y0105173D02*
X0351500Y0105173D01*
X0351500Y0104568D02*
X0330634Y0104568D01*
X0330634Y0103963D02*
X0351500Y0103963D01*
X0351500Y0103358D02*
X0330634Y0103358D01*
X0330634Y0102753D02*
X0351500Y0102753D01*
X0351500Y0102149D02*
X0330634Y0102149D01*
X0330634Y0101544D02*
X0351500Y0101544D01*
X0351500Y0100939D02*
X0330634Y0100939D01*
X0330634Y0100334D02*
X0351500Y0100334D01*
X0351500Y0099729D02*
X0330634Y0099729D01*
X0330634Y0099124D02*
X0351500Y0099124D01*
X0351500Y0098520D02*
X0330634Y0098520D01*
X0330634Y0097915D02*
X0351500Y0097915D01*
X0351500Y0097310D02*
X0330634Y0097310D01*
X0330634Y0096705D02*
X0351500Y0096705D01*
X0351500Y0096100D02*
X0330634Y0096100D01*
X0330634Y0095496D02*
X0351500Y0095496D01*
X0351500Y0094891D02*
X0330634Y0094891D01*
X0330634Y0094286D02*
X0351500Y0094286D01*
X0351500Y0093681D02*
X0330634Y0093681D01*
X0330634Y0093076D02*
X0351500Y0093076D01*
X0351500Y0092472D02*
X0330634Y0092472D01*
X0330634Y0091867D02*
X0351500Y0091867D01*
X0351500Y0091262D02*
X0330634Y0091262D01*
X0330634Y0090657D02*
X0351500Y0090657D01*
X0351500Y0090052D02*
X0330634Y0090052D01*
X0330634Y0089448D02*
X0351500Y0089448D01*
X0351500Y0088843D02*
X0330634Y0088843D01*
X0330634Y0088238D02*
X0351500Y0088238D01*
X0351500Y0087633D02*
X0330634Y0087633D01*
X0330634Y0087028D02*
X0351500Y0087028D01*
X0351500Y0086423D02*
X0330634Y0086423D01*
X0330634Y0085819D02*
X0351500Y0085819D01*
X0351500Y0085214D02*
X0330634Y0085214D01*
X0330634Y0084609D02*
X0351500Y0084609D01*
X0351500Y0084004D02*
X0330634Y0084004D01*
X0330634Y0083399D02*
X0351500Y0083399D01*
X0351500Y0082795D02*
X0330634Y0082795D01*
X0330634Y0082190D02*
X0351500Y0082190D01*
X0351500Y0081585D02*
X0330634Y0081585D01*
X0330634Y0080980D02*
X0351500Y0080980D01*
X0351500Y0080375D02*
X0330634Y0080375D01*
X0330634Y0079771D02*
X0351500Y0079771D01*
X0351500Y0079166D02*
X0330634Y0079166D01*
X0330634Y0078561D02*
X0351500Y0078561D01*
X0351500Y0077956D02*
X0330634Y0077956D01*
X0330634Y0077351D02*
X0351500Y0077351D01*
X0351500Y0076747D02*
X0330634Y0076747D01*
X0330634Y0076142D02*
X0351500Y0076142D01*
X0351271Y0075537D02*
X0330634Y0075537D01*
X0331074Y0074932D02*
X0350666Y0074932D01*
D12*
X0049970Y0158841D03*
X0040870Y0158841D03*
X0031770Y0158841D03*
D13*
X0040870Y0183242D03*
D14*
G36*
X0296314Y0058530D02*
X0294539Y0055457D01*
X0291126Y0057428D01*
X0292901Y0060501D01*
X0296314Y0058530D01*
G37*
G36*
X0305004Y0057832D02*
X0303229Y0054759D01*
X0299816Y0056730D01*
X0301591Y0059803D01*
X0305004Y0057832D01*
G37*
G36*
X0300055Y0065009D02*
X0298280Y0061936D01*
X0294867Y0063907D01*
X0296642Y0066980D01*
X0300055Y0065009D01*
G37*
X0312760Y0073187D03*
X0320240Y0073187D03*
X0316500Y0065313D03*
G36*
X0329771Y0054759D02*
X0327996Y0057832D01*
X0331409Y0059803D01*
X0333184Y0056730D01*
X0329771Y0054759D01*
G37*
G36*
X0338461Y0055457D02*
X0336686Y0058530D01*
X0340099Y0060501D01*
X0341874Y0057428D01*
X0338461Y0055457D01*
G37*
G36*
X0334720Y0061936D02*
X0332945Y0065009D01*
X0336358Y0066980D01*
X0338133Y0063907D01*
X0334720Y0061936D01*
G37*
G36*
X0327996Y0040668D02*
X0329771Y0043741D01*
X0333184Y0041770D01*
X0331409Y0038697D01*
X0327996Y0040668D01*
G37*
G36*
X0332945Y0033491D02*
X0334720Y0036564D01*
X0338133Y0034593D01*
X0336358Y0031520D01*
X0332945Y0033491D01*
G37*
G36*
X0336686Y0039970D02*
X0338461Y0043043D01*
X0341874Y0041072D01*
X0340099Y0037999D01*
X0336686Y0039970D01*
G37*
X0316500Y0033187D03*
X0312760Y0025313D03*
X0320240Y0025313D03*
G36*
X0298280Y0036564D02*
X0300055Y0033491D01*
X0296642Y0031520D01*
X0294867Y0034593D01*
X0298280Y0036564D01*
G37*
G36*
X0294539Y0043043D02*
X0296314Y0039970D01*
X0292901Y0037999D01*
X0291126Y0041072D01*
X0294539Y0043043D01*
G37*
G36*
X0303229Y0043741D02*
X0305004Y0040668D01*
X0301591Y0038697D01*
X0299816Y0041770D01*
X0303229Y0043741D01*
G37*
D15*
G36*
X0122978Y0032927D02*
X0118241Y0028190D01*
X0112940Y0033491D01*
X0117677Y0038228D01*
X0122978Y0032927D01*
G37*
G36*
X0115060Y0025009D02*
X0110323Y0020272D01*
X0105022Y0025573D01*
X0109759Y0030310D01*
X0115060Y0025009D01*
G37*
X0077098Y0011750D03*
X0065902Y0011750D03*
G36*
X0032677Y0020272D02*
X0027940Y0025009D01*
X0033241Y0030310D01*
X0037978Y0025573D01*
X0032677Y0020272D01*
G37*
G36*
X0024759Y0028190D02*
X0020022Y0032927D01*
X0025323Y0038228D01*
X0030060Y0033491D01*
X0024759Y0028190D01*
G37*
G36*
X0020022Y0110573D02*
X0024759Y0115310D01*
X0030060Y0110009D01*
X0025323Y0105272D01*
X0020022Y0110573D01*
G37*
G36*
X0027940Y0118491D02*
X0032677Y0123228D01*
X0037978Y0117927D01*
X0033241Y0113190D01*
X0027940Y0118491D01*
G37*
X0065902Y0131750D03*
X0077098Y0131750D03*
G36*
X0110323Y0123228D02*
X0115060Y0118491D01*
X0109759Y0113190D01*
X0105022Y0117927D01*
X0110323Y0123228D01*
G37*
G36*
X0118241Y0115310D02*
X0122978Y0110573D01*
X0117677Y0105272D01*
X0112940Y0110009D01*
X0118241Y0115310D01*
G37*
D16*
G36*
X0100292Y0101929D02*
X0096390Y0105831D01*
X0100848Y0110289D01*
X0104750Y0106387D01*
X0100292Y0101929D01*
G37*
G36*
X0105581Y0096640D02*
X0101679Y0100542D01*
X0106137Y0105000D01*
X0110039Y0101098D01*
X0105581Y0096640D01*
G37*
X0075240Y0116750D03*
X0067760Y0116750D03*
G36*
X0038250Y0106637D02*
X0042152Y0110539D01*
X0046610Y0106081D01*
X0042708Y0102179D01*
X0038250Y0106637D01*
G37*
G36*
X0032961Y0101348D02*
X0036863Y0105250D01*
X0041321Y0100792D01*
X0037419Y0096890D01*
X0032961Y0101348D01*
G37*
G36*
X0037669Y0047110D02*
X0041571Y0043208D01*
X0037113Y0038750D01*
X0033211Y0042652D01*
X0037669Y0047110D01*
G37*
G36*
X0042958Y0041821D02*
X0046860Y0037919D01*
X0042402Y0033461D01*
X0038500Y0037363D01*
X0042958Y0041821D01*
G37*
X0067760Y0026750D03*
X0075240Y0026750D03*
G36*
X0104500Y0037363D02*
X0100598Y0033461D01*
X0096140Y0037919D01*
X0100042Y0041821D01*
X0104500Y0037363D01*
G37*
G36*
X0109789Y0042652D02*
X0105887Y0038750D01*
X0101429Y0043208D01*
X0105331Y0047110D01*
X0109789Y0042652D01*
G37*
D17*
G36*
X0098321Y0052727D02*
X0095255Y0049661D01*
X0091911Y0053005D01*
X0094977Y0056071D01*
X0098321Y0052727D01*
G37*
G36*
X0093589Y0047995D02*
X0090523Y0044929D01*
X0087179Y0048273D01*
X0090245Y0051339D01*
X0093589Y0047995D01*
G37*
X0074846Y0041750D03*
X0068154Y0041750D03*
G36*
X0052477Y0044929D02*
X0049411Y0047995D01*
X0052755Y0051339D01*
X0055821Y0048273D01*
X0052477Y0044929D01*
G37*
G36*
X0047745Y0049661D02*
X0044679Y0052727D01*
X0048023Y0056071D01*
X0051089Y0053005D01*
X0047745Y0049661D01*
G37*
G36*
X0044929Y0090773D02*
X0047995Y0093839D01*
X0051339Y0090495D01*
X0048273Y0087429D01*
X0044929Y0090773D01*
G37*
G36*
X0049661Y0095505D02*
X0052727Y0098571D01*
X0056071Y0095227D01*
X0053005Y0092161D01*
X0049661Y0095505D01*
G37*
X0068154Y0101750D03*
X0074846Y0101750D03*
G36*
X0090523Y0098571D02*
X0093589Y0095505D01*
X0090245Y0092161D01*
X0087179Y0095227D01*
X0090523Y0098571D01*
G37*
G36*
X0095255Y0093839D02*
X0098321Y0090773D01*
X0094977Y0087429D01*
X0091911Y0090495D01*
X0095255Y0093839D01*
G37*
G36*
X0134005Y0122589D02*
X0137071Y0119523D01*
X0133727Y0116179D01*
X0130661Y0119245D01*
X0134005Y0122589D01*
G37*
G36*
X0129273Y0127321D02*
X0132339Y0124255D01*
X0128995Y0120911D01*
X0125929Y0123977D01*
X0129273Y0127321D01*
G37*
G36*
X0134273Y0132321D02*
X0137339Y0129255D01*
X0133995Y0125911D01*
X0130929Y0128977D01*
X0134273Y0132321D01*
G37*
G36*
X0139273Y0137321D02*
X0142339Y0134255D01*
X0138995Y0130911D01*
X0135929Y0133977D01*
X0139273Y0137321D01*
G37*
G36*
X0144273Y0142321D02*
X0147339Y0139255D01*
X0143995Y0135911D01*
X0140929Y0138977D01*
X0144273Y0142321D01*
G37*
G36*
X0149273Y0147321D02*
X0152339Y0144255D01*
X0148995Y0140911D01*
X0145929Y0143977D01*
X0149273Y0147321D01*
G37*
G36*
X0154273Y0152321D02*
X0157339Y0149255D01*
X0153995Y0145911D01*
X0150929Y0148977D01*
X0154273Y0152321D01*
G37*
G36*
X0159273Y0157321D02*
X0162339Y0154255D01*
X0158995Y0150911D01*
X0155929Y0153977D01*
X0159273Y0157321D01*
G37*
G36*
X0164273Y0162321D02*
X0167339Y0159255D01*
X0163995Y0155911D01*
X0160929Y0158977D01*
X0164273Y0162321D01*
G37*
G36*
X0169005Y0157589D02*
X0172071Y0154523D01*
X0168727Y0151179D01*
X0165661Y0154245D01*
X0169005Y0157589D01*
G37*
G36*
X0164005Y0152589D02*
X0167071Y0149523D01*
X0163727Y0146179D01*
X0160661Y0149245D01*
X0164005Y0152589D01*
G37*
G36*
X0159005Y0147589D02*
X0162071Y0144523D01*
X0158727Y0141179D01*
X0155661Y0144245D01*
X0159005Y0147589D01*
G37*
G36*
X0154005Y0142589D02*
X0157071Y0139523D01*
X0153727Y0136179D01*
X0150661Y0139245D01*
X0154005Y0142589D01*
G37*
G36*
X0149005Y0137589D02*
X0152071Y0134523D01*
X0148727Y0131179D01*
X0145661Y0134245D01*
X0149005Y0137589D01*
G37*
G36*
X0144005Y0132589D02*
X0147071Y0129523D01*
X0143727Y0126179D01*
X0140661Y0129245D01*
X0144005Y0132589D01*
G37*
G36*
X0139005Y0127589D02*
X0142071Y0124523D01*
X0138727Y0121179D01*
X0135661Y0124245D01*
X0139005Y0127589D01*
G37*
D18*
G36*
X0128033Y0132431D02*
X0125801Y0134663D01*
X0128587Y0137449D01*
X0130819Y0135217D01*
X0128033Y0132431D01*
G37*
G36*
X0123033Y0127431D02*
X0120801Y0129663D01*
X0123587Y0132449D01*
X0125819Y0130217D01*
X0123033Y0127431D01*
G37*
G36*
X0119413Y0131051D02*
X0117181Y0133283D01*
X0119967Y0136069D01*
X0122199Y0133837D01*
X0119413Y0131051D01*
G37*
G36*
X0124413Y0136051D02*
X0122181Y0138283D01*
X0124967Y0141069D01*
X0127199Y0138837D01*
X0124413Y0136051D01*
G37*
G36*
X0133033Y0137431D02*
X0130801Y0139663D01*
X0133587Y0142449D01*
X0135819Y0140217D01*
X0133033Y0137431D01*
G37*
G36*
X0129413Y0141051D02*
X0127181Y0143283D01*
X0129967Y0146069D01*
X0132199Y0143837D01*
X0129413Y0141051D01*
G37*
G36*
X0138033Y0142431D02*
X0135801Y0144663D01*
X0138587Y0147449D01*
X0140819Y0145217D01*
X0138033Y0142431D01*
G37*
G36*
X0134413Y0146051D02*
X0132181Y0148283D01*
X0134967Y0151069D01*
X0137199Y0148837D01*
X0134413Y0146051D01*
G37*
G36*
X0143033Y0147431D02*
X0140801Y0149663D01*
X0143587Y0152449D01*
X0145819Y0150217D01*
X0143033Y0147431D01*
G37*
G36*
X0139413Y0151051D02*
X0137181Y0153283D01*
X0139967Y0156069D01*
X0142199Y0153837D01*
X0139413Y0151051D01*
G37*
G36*
X0148033Y0152431D02*
X0145801Y0154663D01*
X0148587Y0157449D01*
X0150819Y0155217D01*
X0148033Y0152431D01*
G37*
G36*
X0144413Y0156051D02*
X0142181Y0158283D01*
X0144967Y0161069D01*
X0147199Y0158837D01*
X0144413Y0156051D01*
G37*
G36*
X0149413Y0161051D02*
X0147181Y0163283D01*
X0149967Y0166069D01*
X0152199Y0163837D01*
X0149413Y0161051D01*
G37*
G36*
X0153033Y0157431D02*
X0150801Y0159663D01*
X0153587Y0162449D01*
X0155819Y0160217D01*
X0153033Y0157431D01*
G37*
G36*
X0158033Y0162431D02*
X0155801Y0164663D01*
X0158587Y0167449D01*
X0160819Y0165217D01*
X0158033Y0162431D01*
G37*
G36*
X0154413Y0166051D02*
X0152181Y0168283D01*
X0154967Y0171069D01*
X0157199Y0168837D01*
X0154413Y0166051D01*
G37*
G36*
X0080801Y0083837D02*
X0083033Y0086069D01*
X0085819Y0083283D01*
X0083587Y0081051D01*
X0080801Y0083837D01*
G37*
G36*
X0077181Y0080217D02*
X0079413Y0082449D01*
X0082199Y0079663D01*
X0079967Y0077431D01*
X0077181Y0080217D01*
G37*
G36*
X0063587Y0082449D02*
X0065819Y0080217D01*
X0063033Y0077431D01*
X0060801Y0079663D01*
X0063587Y0082449D01*
G37*
G36*
X0059967Y0086069D02*
X0062199Y0083837D01*
X0059413Y0081051D01*
X0057181Y0083283D01*
X0059967Y0086069D01*
G37*
X0060059Y0071750D03*
X0054941Y0071750D03*
G36*
X0060801Y0063837D02*
X0063033Y0066069D01*
X0065819Y0063283D01*
X0063587Y0061051D01*
X0060801Y0063837D01*
G37*
G36*
X0057181Y0060217D02*
X0059413Y0062449D01*
X0062199Y0059663D01*
X0059967Y0057431D01*
X0057181Y0060217D01*
G37*
G36*
X0079967Y0066069D02*
X0082199Y0063837D01*
X0079413Y0061051D01*
X0077181Y0063283D01*
X0079967Y0066069D01*
G37*
X0082941Y0071750D03*
X0088059Y0071750D03*
G36*
X0083587Y0062449D02*
X0085819Y0060217D01*
X0083033Y0057431D01*
X0080801Y0059663D01*
X0083587Y0062449D01*
G37*
D19*
X0131500Y0066152D03*
X0131500Y0077348D03*
X0162917Y0032939D03*
X0176697Y0032939D03*
X0190476Y0032939D03*
X0204256Y0032939D03*
X0218035Y0032939D03*
X0231815Y0032939D03*
X0245594Y0032939D03*
X0245594Y0021742D03*
X0231815Y0021742D03*
X0218035Y0021742D03*
X0204256Y0021742D03*
X0190476Y0021742D03*
X0176697Y0021742D03*
X0162917Y0021742D03*
X0011500Y0066152D03*
X0011500Y0077348D03*
D20*
X0026500Y0075490D03*
X0026500Y0068010D03*
X0116500Y0068010D03*
X0116500Y0075490D03*
X0162917Y0066514D03*
X0162917Y0059033D03*
X0176697Y0059033D03*
X0190476Y0059033D03*
X0190476Y0066514D03*
X0176697Y0066514D03*
X0204256Y0066514D03*
X0204256Y0059033D03*
X0218035Y0059033D03*
X0218035Y0066514D03*
X0231815Y0066514D03*
X0231815Y0059033D03*
X0245594Y0059033D03*
X0245594Y0066514D03*
D21*
X0245594Y0090923D03*
X0245594Y0097616D03*
X0235752Y0097616D03*
X0235752Y0090923D03*
X0225909Y0090923D03*
X0216067Y0090923D03*
X0216067Y0097616D03*
X0225909Y0097616D03*
X0206224Y0097616D03*
X0206224Y0090923D03*
X0196382Y0090923D03*
X0196382Y0097616D03*
X0186539Y0097616D03*
X0176697Y0097616D03*
X0176697Y0090923D03*
X0186539Y0090923D03*
X0101500Y0075096D03*
X0101500Y0068404D03*
X0041500Y0068404D03*
X0041500Y0075096D03*
D22*
X0071500Y0083191D03*
X0071500Y0088309D03*
X0071500Y0060309D03*
X0071500Y0055191D03*
X0176697Y0119270D03*
X0176697Y0124388D03*
X0186539Y0124388D03*
X0186539Y0119270D03*
X0196382Y0119270D03*
X0196382Y0124388D03*
X0206224Y0124388D03*
X0206224Y0119270D03*
X0216067Y0119270D03*
X0216067Y0124388D03*
X0225909Y0124388D03*
X0225909Y0119270D03*
X0235752Y0119270D03*
X0235752Y0124388D03*
X0245594Y0124388D03*
X0245594Y0119270D03*
D23*
X0321673Y0172408D02*
X0322158Y0171923D01*
X0322720Y0171529D01*
X0323342Y0171239D01*
X0324005Y0171062D01*
X0324689Y0171002D01*
X0325373Y0171062D01*
X0326036Y0171239D01*
X0326657Y0171529D01*
X0327220Y0171923D01*
X0327705Y0172408D01*
X0328099Y0172970D01*
X0328389Y0173592D01*
X0328566Y0174255D01*
X0328626Y0174939D01*
X0328566Y0175623D01*
X0328389Y0176286D01*
X0328099Y0176907D01*
X0327705Y0177470D01*
X0327220Y0177955D01*
X0326657Y0178349D01*
X0326036Y0178639D01*
X0325373Y0178816D01*
X0324689Y0178876D01*
X0324005Y0178816D01*
X0323342Y0178639D01*
X0322720Y0178349D01*
X0322158Y0177955D01*
X0321673Y0177470D01*
X0321279Y0176907D01*
X0320989Y0176286D01*
X0320812Y0175623D01*
X0320752Y0174939D01*
X0320812Y0174255D01*
X0320989Y0173592D01*
X0321279Y0172970D01*
X0321673Y0172408D01*
X0321841Y0172241D02*
X0327537Y0172241D01*
X0327937Y0172739D02*
X0321441Y0172739D01*
X0321155Y0173238D02*
X0328223Y0173238D01*
X0328427Y0173736D02*
X0320951Y0173736D01*
X0320817Y0174235D02*
X0328561Y0174235D01*
X0328608Y0174733D02*
X0320770Y0174733D01*
X0320778Y0175232D02*
X0328600Y0175232D01*
X0328537Y0175730D02*
X0320841Y0175730D01*
X0320974Y0176229D02*
X0328404Y0176229D01*
X0328182Y0176727D02*
X0321195Y0176727D01*
X0321502Y0177226D02*
X0327875Y0177226D01*
X0327450Y0177724D02*
X0321928Y0177724D01*
X0322541Y0178223D02*
X0326837Y0178223D01*
X0325726Y0178722D02*
X0323652Y0178722D01*
X0322416Y0171742D02*
X0326962Y0171742D01*
X0326045Y0171244D02*
X0323333Y0171244D01*
X0336500Y0020687D02*
X0337184Y0020627D01*
X0337847Y0020450D01*
X0338469Y0020160D01*
X0339031Y0019766D01*
X0339516Y0019281D01*
X0339910Y0018719D01*
X0340200Y0018097D01*
X0340377Y0017434D01*
X0340437Y0016750D01*
X0340377Y0016066D01*
X0340200Y0015403D01*
X0339910Y0014781D01*
X0339516Y0014219D01*
X0339031Y0013734D01*
X0338469Y0013340D01*
X0337847Y0013050D01*
X0337184Y0012873D01*
X0336500Y0012813D01*
X0335816Y0012873D01*
X0335153Y0013050D01*
X0334531Y0013340D01*
X0333969Y0013734D01*
X0333484Y0014219D01*
X0333090Y0014781D01*
X0332800Y0015403D01*
X0332623Y0016066D01*
X0332563Y0016750D01*
X0332623Y0017434D01*
X0332800Y0018097D01*
X0333090Y0018719D01*
X0333484Y0019281D01*
X0333969Y0019766D01*
X0334531Y0020160D01*
X0335153Y0020450D01*
X0335816Y0020627D01*
X0336500Y0020687D01*
X0334607Y0020195D02*
X0338393Y0020195D01*
X0339100Y0019696D02*
X0333900Y0019696D01*
X0333426Y0019198D02*
X0339574Y0019198D01*
X0339918Y0018699D02*
X0333082Y0018699D01*
X0332849Y0018201D02*
X0340151Y0018201D01*
X0340305Y0017702D02*
X0332695Y0017702D01*
X0332603Y0017204D02*
X0340397Y0017204D01*
X0340433Y0016705D02*
X0332567Y0016705D01*
X0332611Y0016207D02*
X0340389Y0016207D01*
X0340281Y0015708D02*
X0332719Y0015708D01*
X0332891Y0015210D02*
X0340109Y0015210D01*
X0339860Y0014711D02*
X0333140Y0014711D01*
X0333491Y0014213D02*
X0339509Y0014213D01*
X0339002Y0013714D02*
X0333998Y0013714D01*
X0334799Y0013216D02*
X0338201Y0013216D01*
X0020437Y0016750D02*
X0020377Y0016066D01*
X0020200Y0015403D01*
X0019910Y0014781D01*
X0019516Y0014219D01*
X0019031Y0013734D01*
X0018469Y0013340D01*
X0017847Y0013050D01*
X0017184Y0012873D01*
X0016500Y0012813D01*
X0015816Y0012873D01*
X0015153Y0013050D01*
X0014531Y0013340D01*
X0013969Y0013734D01*
X0013484Y0014219D01*
X0013090Y0014781D01*
X0012800Y0015403D01*
X0012623Y0016066D01*
X0012563Y0016750D01*
X0012623Y0017434D01*
X0012800Y0018097D01*
X0013090Y0018719D01*
X0013484Y0019281D01*
X0013969Y0019766D01*
X0014531Y0020160D01*
X0015153Y0020450D01*
X0015816Y0020627D01*
X0016500Y0020687D01*
X0017184Y0020627D01*
X0017847Y0020450D01*
X0018469Y0020160D01*
X0019031Y0019766D01*
X0019516Y0019281D01*
X0019910Y0018719D01*
X0020200Y0018097D01*
X0020377Y0017434D01*
X0020437Y0016750D01*
X0020433Y0016705D02*
X0012567Y0016705D01*
X0012611Y0016207D02*
X0020389Y0016207D01*
X0020281Y0015708D02*
X0012719Y0015708D01*
X0012891Y0015210D02*
X0020109Y0015210D01*
X0019860Y0014711D02*
X0013140Y0014711D01*
X0013491Y0014213D02*
X0019509Y0014213D01*
X0019002Y0013714D02*
X0013998Y0013714D01*
X0014799Y0013216D02*
X0018201Y0013216D01*
X0020397Y0017204D02*
X0012603Y0017204D01*
X0012695Y0017702D02*
X0020305Y0017702D01*
X0020151Y0018201D02*
X0012849Y0018201D01*
X0013082Y0018699D02*
X0019918Y0018699D01*
X0019574Y0019198D02*
X0013426Y0019198D01*
X0013900Y0019696D02*
X0019100Y0019696D01*
X0018393Y0020195D02*
X0014607Y0020195D01*
X0016500Y0182813D02*
X0015816Y0182873D01*
X0015153Y0183050D01*
X0014531Y0183340D01*
X0013969Y0183734D01*
X0013484Y0184219D01*
X0013090Y0184781D01*
X0012800Y0185403D01*
X0012623Y0186066D01*
X0012563Y0186750D01*
X0012623Y0187434D01*
X0012800Y0188097D01*
X0013090Y0188719D01*
X0013484Y0189281D01*
X0013969Y0189766D01*
X0014531Y0190160D01*
X0015153Y0190450D01*
X0015816Y0190627D01*
X0016500Y0190687D01*
X0017184Y0190627D01*
X0017847Y0190450D01*
X0018469Y0190160D01*
X0019031Y0189766D01*
X0019516Y0189281D01*
X0019910Y0188719D01*
X0020200Y0188097D01*
X0020377Y0187434D01*
X0020437Y0186750D01*
X0020377Y0186066D01*
X0020200Y0185403D01*
X0019910Y0184781D01*
X0019516Y0184219D01*
X0019031Y0183734D01*
X0018469Y0183340D01*
X0017847Y0183050D01*
X0017184Y0182873D01*
X0016500Y0182813D01*
X0014815Y0183208D02*
X0018185Y0183208D01*
X0018991Y0183707D02*
X0014009Y0183707D01*
X0013498Y0184205D02*
X0019502Y0184205D01*
X0019855Y0184704D02*
X0013145Y0184704D01*
X0012894Y0185202D02*
X0020106Y0185202D01*
X0020279Y0185701D02*
X0012721Y0185701D01*
X0012611Y0186199D02*
X0020389Y0186199D01*
X0020432Y0186698D02*
X0012568Y0186698D01*
X0012602Y0187196D02*
X0020398Y0187196D01*
X0020307Y0187695D02*
X0012693Y0187695D01*
X0012846Y0188193D02*
X0020154Y0188193D01*
X0019922Y0188692D02*
X0013078Y0188692D01*
X0013421Y0189190D02*
X0019579Y0189190D01*
X0019108Y0189689D02*
X0013892Y0189689D01*
X0014591Y0190187D02*
X0018409Y0190187D01*
X0016514Y0190686D02*
X0016486Y0190686D01*
D24*
X0279876Y0130884D03*
X0279876Y0127734D03*
X0279876Y0124585D03*
X0279876Y0121435D03*
X0279876Y0118285D03*
X0279876Y0115136D03*
X0279876Y0111986D03*
X0279876Y0108837D03*
X0313676Y0108837D03*
X0313676Y0111986D03*
X0313676Y0115136D03*
X0313676Y0118285D03*
X0313676Y0121435D03*
X0313676Y0124585D03*
X0313676Y0127734D03*
X0313676Y0130884D03*
D25*
X0307799Y0136760D03*
X0304650Y0136760D03*
X0301500Y0136760D03*
X0298350Y0136760D03*
X0295201Y0136760D03*
X0292051Y0136760D03*
X0288902Y0136760D03*
X0285752Y0136760D03*
X0285752Y0102960D03*
X0288902Y0102960D03*
X0292051Y0102960D03*
X0295201Y0102960D03*
X0298350Y0102960D03*
X0301500Y0102960D03*
X0304650Y0102960D03*
X0307799Y0102960D03*
D26*
X0108980Y0162065D03*
X0108980Y0180018D03*
D27*
X0080240Y0171041D03*
M02*
