G75*
%MOIN*%
%OFA0B0*%
%FSLAX24Y24*%
%IPPOS*%
%LPD*%
%AMOC8*
5,1,8,0,0,1.08239X$1,22.5*
%
%ADD10C,0.0000*%
%ADD11R,0.0138X0.0138*%
%ADD12R,0.1378X0.1378*%
%ADD13R,0.0295X0.0138*%
%ADD14R,0.0138X0.0295*%
%ADD15R,0.0520X0.0920*%
%ADD16R,0.1457X0.0906*%
%ADD17R,0.0670X0.0434*%
%ADD18R,0.2481X0.2166*%
%ADD19R,0.0276X0.0906*%
%ADD20R,0.0160X0.0430*%
%ADD21R,0.0146X0.0631*%
%ADD22R,0.0631X0.0146*%
%ADD23R,0.0394X0.0316*%
%ADD24R,0.0316X0.0394*%
%ADD25R,0.0434X0.0473*%
%ADD26R,0.0473X0.0434*%
%ADD27R,0.0552X0.0631*%
%ADD28R,0.0631X0.0552*%
%ADD29R,0.0355X0.0394*%
%ADD30R,0.0690X0.0434*%
%ADD31R,0.0670X0.0750*%
%ADD32R,0.0750X0.0670*%
%ADD33R,0.0540X0.0260*%
%ADD34R,0.0260X0.0540*%
%ADD35R,0.0631X0.0158*%
%ADD36R,0.0158X0.0631*%
%ADD37C,0.0434*%
D10*
X001350Y000100D02*
X033850Y000100D01*
X033918Y000102D01*
X033985Y000107D01*
X034052Y000116D01*
X034119Y000129D01*
X034184Y000146D01*
X034249Y000165D01*
X034313Y000189D01*
X034375Y000216D01*
X034436Y000246D01*
X034494Y000279D01*
X034551Y000315D01*
X034606Y000355D01*
X034659Y000397D01*
X034710Y000443D01*
X034757Y000490D01*
X034803Y000541D01*
X034845Y000594D01*
X034885Y000649D01*
X034921Y000706D01*
X034954Y000764D01*
X034984Y000825D01*
X035011Y000887D01*
X035035Y000951D01*
X035054Y001016D01*
X035071Y001081D01*
X035084Y001148D01*
X035093Y001215D01*
X035098Y001282D01*
X035100Y001350D01*
X035100Y018850D01*
X035098Y018918D01*
X035093Y018985D01*
X035084Y019052D01*
X035071Y019119D01*
X035054Y019184D01*
X035035Y019249D01*
X035011Y019313D01*
X034984Y019375D01*
X034954Y019436D01*
X034921Y019494D01*
X034885Y019551D01*
X034845Y019606D01*
X034803Y019659D01*
X034757Y019710D01*
X034710Y019757D01*
X034659Y019803D01*
X034606Y019845D01*
X034551Y019885D01*
X034494Y019921D01*
X034436Y019954D01*
X034375Y019984D01*
X034313Y020011D01*
X034249Y020035D01*
X034184Y020054D01*
X034119Y020071D01*
X034052Y020084D01*
X033985Y020093D01*
X033918Y020098D01*
X033850Y020100D01*
X001350Y020100D01*
X001282Y020098D01*
X001215Y020093D01*
X001148Y020084D01*
X001081Y020071D01*
X001016Y020054D01*
X000951Y020035D01*
X000887Y020011D01*
X000825Y019984D01*
X000764Y019954D01*
X000706Y019921D01*
X000649Y019885D01*
X000594Y019845D01*
X000541Y019803D01*
X000490Y019757D01*
X000443Y019710D01*
X000397Y019659D01*
X000355Y019606D01*
X000315Y019551D01*
X000279Y019494D01*
X000246Y019436D01*
X000216Y019375D01*
X000189Y019313D01*
X000165Y019249D01*
X000146Y019184D01*
X000129Y019119D01*
X000116Y019052D01*
X000107Y018985D01*
X000102Y018918D01*
X000100Y018850D01*
X000100Y001350D01*
X000102Y001282D01*
X000107Y001215D01*
X000116Y001148D01*
X000129Y001081D01*
X000146Y001016D01*
X000165Y000951D01*
X000189Y000887D01*
X000216Y000825D01*
X000246Y000764D01*
X000279Y000706D01*
X000315Y000649D01*
X000355Y000594D01*
X000397Y000541D01*
X000443Y000490D01*
X000490Y000443D01*
X000541Y000397D01*
X000594Y000355D01*
X000649Y000315D01*
X000706Y000279D01*
X000764Y000246D01*
X000825Y000216D01*
X000887Y000189D01*
X000951Y000165D01*
X001016Y000146D01*
X001081Y000129D01*
X001148Y000116D01*
X001215Y000107D01*
X001282Y000102D01*
X001350Y000100D01*
D11*
X023649Y008551D03*
D12*
X024600Y007600D03*
D13*
X023675Y007502D03*
X023675Y007698D03*
X023675Y007895D03*
X023675Y008092D03*
X023675Y008289D03*
X023675Y007305D03*
X023675Y007108D03*
X023675Y006911D03*
X025525Y006911D03*
X025525Y007108D03*
X025525Y007305D03*
X025525Y007502D03*
X025525Y007698D03*
X025525Y007895D03*
X025525Y008092D03*
X025525Y008289D03*
D14*
X025289Y008525D03*
X025092Y008525D03*
X024895Y008525D03*
X024698Y008525D03*
X024502Y008525D03*
X024305Y008525D03*
X024108Y008525D03*
X023911Y008525D03*
X023911Y006675D03*
X024108Y006675D03*
X024305Y006675D03*
X024502Y006675D03*
X024698Y006675D03*
X024895Y006675D03*
X025092Y006675D03*
X025289Y006675D03*
D15*
X005510Y015880D03*
X004600Y015880D03*
X003690Y015880D03*
D16*
X004600Y018320D03*
D17*
X011490Y017998D03*
X011490Y016202D03*
D18*
X008616Y017100D03*
D19*
X026350Y014624D03*
X026850Y014624D03*
X027350Y014624D03*
X027850Y014624D03*
X029850Y014517D03*
X030350Y014517D03*
X030850Y014517D03*
X031350Y014517D03*
X031850Y014517D03*
X032350Y014517D03*
X032850Y014517D03*
X033350Y014517D03*
X033350Y011683D03*
X032850Y011683D03*
X032350Y011683D03*
X031850Y011683D03*
X031350Y011683D03*
X030850Y011683D03*
X030350Y011683D03*
X029850Y011683D03*
X027850Y012576D03*
X027350Y012576D03*
X026850Y012576D03*
X026350Y012576D03*
D20*
X028948Y008749D03*
X029204Y008749D03*
X029460Y008749D03*
X029716Y008749D03*
X029972Y008749D03*
X030228Y008749D03*
X030484Y008749D03*
X030740Y008749D03*
X030996Y008749D03*
X031252Y008749D03*
X031252Y006451D03*
X030996Y006451D03*
X030740Y006451D03*
X030484Y006451D03*
X030228Y006451D03*
X029972Y006451D03*
X029716Y006451D03*
X029460Y006451D03*
X029204Y006451D03*
X028948Y006451D03*
D21*
X020462Y008651D03*
X020265Y008651D03*
X020069Y008651D03*
X019872Y008651D03*
X019675Y008651D03*
X019478Y008651D03*
X019281Y008651D03*
X019084Y008651D03*
X018887Y008651D03*
X018691Y008651D03*
X018494Y008651D03*
X018297Y008651D03*
X018100Y008651D03*
X017903Y008651D03*
X017706Y008651D03*
X017509Y008651D03*
X017313Y008651D03*
X017116Y008651D03*
X016919Y008651D03*
X016722Y008651D03*
X016525Y008651D03*
X016328Y008651D03*
X016131Y008651D03*
X015935Y008651D03*
X015738Y008651D03*
X015738Y002549D03*
X015935Y002549D03*
X016131Y002549D03*
X016328Y002549D03*
X016525Y002549D03*
X016722Y002549D03*
X016919Y002549D03*
X017116Y002549D03*
X017313Y002549D03*
X017509Y002549D03*
X017706Y002549D03*
X017903Y002549D03*
X018100Y002549D03*
X018297Y002549D03*
X018494Y002549D03*
X018691Y002549D03*
X018887Y002549D03*
X019084Y002549D03*
X019281Y002549D03*
X019478Y002549D03*
X019675Y002549D03*
X019872Y002549D03*
X020069Y002549D03*
X020265Y002549D03*
X020462Y002549D03*
D22*
X021151Y003238D03*
X021151Y003435D03*
X021151Y003631D03*
X021151Y003828D03*
X021151Y004025D03*
X021151Y004222D03*
X021151Y004419D03*
X021151Y004616D03*
X021151Y004813D03*
X021151Y005009D03*
X021151Y005206D03*
X021151Y005403D03*
X021151Y005600D03*
X021151Y005797D03*
X021151Y005994D03*
X021151Y006191D03*
X021151Y006387D03*
X021151Y006584D03*
X021151Y006781D03*
X021151Y006978D03*
X021151Y007175D03*
X021151Y007372D03*
X021151Y007569D03*
X021151Y007765D03*
X021151Y007962D03*
X015049Y007962D03*
X015049Y007765D03*
X015049Y007569D03*
X015049Y007372D03*
X015049Y007175D03*
X015049Y006978D03*
X015049Y006781D03*
X015049Y006584D03*
X015049Y006387D03*
X015049Y006191D03*
X015049Y005994D03*
X015049Y005797D03*
X015049Y005600D03*
X015049Y005403D03*
X015049Y005206D03*
X015049Y005009D03*
X015049Y004813D03*
X015049Y004616D03*
X015049Y004419D03*
X015049Y004222D03*
X015049Y004025D03*
X015049Y003828D03*
X015049Y003631D03*
X015049Y003435D03*
X015049Y003238D03*
D23*
X007100Y005344D03*
X007100Y005856D03*
X007100Y008344D03*
X007100Y008856D03*
D24*
G36*
X008532Y008254D02*
X008308Y008030D01*
X008030Y008308D01*
X008254Y008532D01*
X008532Y008254D01*
G37*
G36*
X008170Y007892D02*
X007946Y007668D01*
X007668Y007946D01*
X007892Y008170D01*
X008170Y007892D01*
G37*
X008344Y007100D03*
X008856Y007100D03*
G36*
X007946Y006532D02*
X008170Y006308D01*
X007892Y006030D01*
X007668Y006254D01*
X007946Y006532D01*
G37*
G36*
X008308Y006170D02*
X008532Y005946D01*
X008254Y005668D01*
X008030Y005892D01*
X008308Y006170D01*
G37*
G36*
X006532Y006254D02*
X006308Y006030D01*
X006030Y006308D01*
X006254Y006532D01*
X006532Y006254D01*
G37*
G36*
X006170Y005892D02*
X005946Y005668D01*
X005668Y005946D01*
X005892Y006170D01*
X006170Y005892D01*
G37*
X005856Y007100D03*
X005344Y007100D03*
G36*
X006308Y008170D02*
X006532Y007946D01*
X006254Y007668D01*
X006030Y007892D01*
X006308Y008170D01*
G37*
G36*
X005946Y008532D02*
X006170Y008308D01*
X005892Y008030D01*
X005668Y008254D01*
X005946Y008532D01*
G37*
D25*
G36*
X005183Y008850D02*
X004876Y008543D01*
X004543Y008876D01*
X004850Y009183D01*
X005183Y008850D01*
G37*
G36*
X005657Y009324D02*
X005350Y009017D01*
X005017Y009350D01*
X005324Y009657D01*
X005657Y009324D01*
G37*
X006765Y010100D03*
X007435Y010100D03*
G36*
X008876Y009657D02*
X009183Y009350D01*
X008850Y009017D01*
X008543Y009324D01*
X008876Y009657D01*
G37*
G36*
X009350Y009183D02*
X009657Y008876D01*
X009324Y008543D01*
X009017Y008850D01*
X009350Y009183D01*
G37*
G36*
X009017Y005350D02*
X009324Y005657D01*
X009657Y005324D01*
X009350Y005017D01*
X009017Y005350D01*
G37*
G36*
X008543Y004876D02*
X008850Y005183D01*
X009183Y004850D01*
X008876Y004543D01*
X008543Y004876D01*
G37*
X007435Y004100D03*
X006765Y004100D03*
G36*
X005324Y004543D02*
X005017Y004850D01*
X005350Y005183D01*
X005657Y004876D01*
X005324Y004543D01*
G37*
G36*
X004850Y005017D02*
X004543Y005324D01*
X004876Y005657D01*
X005183Y005350D01*
X004850Y005017D01*
G37*
D26*
X004100Y006765D03*
X004100Y007435D03*
X010100Y007435D03*
X010100Y006765D03*
D27*
G36*
X010094Y004245D02*
X010484Y004635D01*
X010928Y004191D01*
X010538Y003801D01*
X010094Y004245D01*
G37*
G36*
X009565Y003716D02*
X009955Y004106D01*
X010399Y003662D01*
X010009Y003272D01*
X009565Y003716D01*
G37*
X007474Y002600D03*
X006726Y002600D03*
G36*
X004245Y004106D02*
X004635Y003716D01*
X004191Y003272D01*
X003801Y003662D01*
X004245Y004106D01*
G37*
G36*
X003716Y004635D02*
X004106Y004245D01*
X003662Y003801D01*
X003272Y004191D01*
X003716Y004635D01*
G37*
G36*
X004106Y009955D02*
X003716Y009565D01*
X003272Y010009D01*
X003662Y010399D01*
X004106Y009955D01*
G37*
G36*
X004635Y010484D02*
X004245Y010094D01*
X003801Y010538D01*
X004191Y010928D01*
X004635Y010484D01*
G37*
X006726Y011600D03*
X007474Y011600D03*
G36*
X009955Y010094D02*
X009565Y010484D01*
X010009Y010928D01*
X010399Y010538D01*
X009955Y010094D01*
G37*
G36*
X010484Y009565D02*
X010094Y009955D01*
X010538Y010399D01*
X010928Y010009D01*
X010484Y009565D01*
G37*
D28*
X011600Y007474D03*
X011600Y006726D03*
X002600Y006726D03*
X002600Y007474D03*
D29*
G36*
X027563Y004169D02*
X027740Y004474D01*
X028081Y004277D01*
X027904Y003972D01*
X027563Y004169D01*
G37*
G36*
X028432Y004099D02*
X028609Y004404D01*
X028950Y004207D01*
X028773Y003902D01*
X028432Y004099D01*
G37*
G36*
X027937Y004817D02*
X028114Y005122D01*
X028455Y004925D01*
X028278Y004620D01*
X027937Y004817D01*
G37*
X029726Y005744D03*
X030474Y005744D03*
X030100Y004956D03*
G36*
X031591Y004404D02*
X031768Y004099D01*
X031427Y003902D01*
X031250Y004207D01*
X031591Y004404D01*
G37*
G36*
X032460Y004474D02*
X032637Y004169D01*
X032296Y003972D01*
X032119Y004277D01*
X032460Y004474D01*
G37*
G36*
X032086Y005122D02*
X032263Y004817D01*
X031922Y004620D01*
X031745Y004925D01*
X032086Y005122D01*
G37*
G36*
X031768Y002601D02*
X031591Y002296D01*
X031250Y002493D01*
X031427Y002798D01*
X031768Y002601D01*
G37*
G36*
X032637Y002531D02*
X032460Y002226D01*
X032119Y002423D01*
X032296Y002728D01*
X032637Y002531D01*
G37*
G36*
X032263Y001883D02*
X032086Y001578D01*
X031745Y001775D01*
X031922Y002080D01*
X032263Y001883D01*
G37*
X030474Y000956D03*
X029726Y000956D03*
X030100Y001744D03*
G36*
X028609Y002296D02*
X028432Y002601D01*
X028773Y002798D01*
X028950Y002493D01*
X028609Y002296D01*
G37*
G36*
X028114Y001578D02*
X027937Y001883D01*
X028278Y002080D01*
X028455Y001775D01*
X028114Y001578D01*
G37*
G36*
X027740Y002226D02*
X027563Y002531D01*
X027904Y002728D01*
X028081Y002423D01*
X027740Y002226D01*
G37*
D30*
X025615Y002970D03*
X023585Y002970D03*
X023585Y004230D03*
X025615Y004230D03*
D31*
G36*
X011494Y003024D02*
X011968Y003498D01*
X012498Y002968D01*
X012024Y002494D01*
X011494Y003024D01*
G37*
G36*
X010702Y002232D02*
X011176Y002706D01*
X011706Y002176D01*
X011232Y001702D01*
X010702Y002232D01*
G37*
X007660Y001100D03*
X006540Y001100D03*
G36*
X002968Y001702D02*
X002494Y002176D01*
X003024Y002706D01*
X003498Y002232D01*
X002968Y001702D01*
G37*
G36*
X002176Y002494D02*
X001702Y002968D01*
X002232Y003498D01*
X002706Y003024D01*
X002176Y002494D01*
G37*
G36*
X002706Y011176D02*
X002232Y010702D01*
X001702Y011232D01*
X002176Y011706D01*
X002706Y011176D01*
G37*
G36*
X003498Y011968D02*
X003024Y011494D01*
X002494Y012024D01*
X002968Y012498D01*
X003498Y011968D01*
G37*
X006540Y013100D03*
X007660Y013100D03*
G36*
X011232Y012498D02*
X011706Y012024D01*
X011176Y011494D01*
X010702Y011968D01*
X011232Y012498D01*
G37*
G36*
X012024Y011706D02*
X012498Y011232D01*
X011968Y010702D01*
X011494Y011176D01*
X012024Y011706D01*
G37*
D32*
X013100Y007660D03*
X013100Y006540D03*
X001100Y006540D03*
X001100Y007660D03*
D33*
X015910Y012498D03*
X015910Y012813D03*
X015910Y013128D03*
X015910Y013443D03*
X015910Y013757D03*
X015910Y014072D03*
X015910Y014387D03*
X015910Y014702D03*
X019290Y014702D03*
X019290Y014387D03*
X019290Y014072D03*
X019290Y013757D03*
X019290Y013443D03*
X019290Y013128D03*
X019290Y012813D03*
X019290Y012498D03*
D34*
X018702Y011910D03*
X018387Y011910D03*
X018072Y011910D03*
X017757Y011910D03*
X017443Y011910D03*
X017128Y011910D03*
X016813Y011910D03*
X016498Y011910D03*
X016498Y015290D03*
X016813Y015290D03*
X017128Y015290D03*
X017443Y015290D03*
X017757Y015290D03*
X018072Y015290D03*
X018387Y015290D03*
X018702Y015290D03*
D35*
X020927Y014683D03*
X020927Y014486D03*
X020927Y014289D03*
X020927Y014092D03*
X020927Y013895D03*
X020927Y013698D03*
X020927Y013502D03*
X020927Y013305D03*
X020927Y013108D03*
X020927Y012911D03*
X020927Y012714D03*
X020927Y012517D03*
X024273Y012517D03*
X024273Y012714D03*
X024273Y012911D03*
X024273Y013108D03*
X024273Y013305D03*
X024273Y013502D03*
X024273Y013698D03*
X024273Y013895D03*
X024273Y014092D03*
X024273Y014289D03*
X024273Y014486D03*
X024273Y014683D03*
D36*
X023683Y015273D03*
X023486Y015273D03*
X023289Y015273D03*
X023092Y015273D03*
X022895Y015273D03*
X022698Y015273D03*
X022502Y015273D03*
X022305Y015273D03*
X022108Y015273D03*
X021911Y015273D03*
X021714Y015273D03*
X021517Y015273D03*
X021517Y011927D03*
X021714Y011927D03*
X021911Y011927D03*
X022108Y011927D03*
X022305Y011927D03*
X022502Y011927D03*
X022698Y011927D03*
X022895Y011927D03*
X023092Y011927D03*
X023289Y011927D03*
X023486Y011927D03*
X023683Y011927D03*
D37*
X020600Y011600D03*
X021100Y008600D03*
X023100Y006100D03*
X026100Y009100D03*
X024600Y015600D03*
X034100Y019100D03*
X015100Y002600D03*
X001100Y001100D03*
M02*
