G75*
%MOIN*%
%OFA0B0*%
%FSLAX25Y25*%
%IPPOS*%
%LPD*%
%AMOC8*
5,1,8,0,0,1.08239X$1,22.5*
%
%ADD10C,0.01000*%
%ADD11C,0.00400*%
%ADD12C,0.00800*%
%ADD13C,0.00300*%
%ADD14C,0.00394*%
%ADD15R,0.12600X0.07300*%
%ADD16R,0.03400X0.07300*%
%ADD17C,0.00000*%
%ADD18C,0.00600*%
%ADD19R,0.02900X0.06900*%
%ADD20R,0.02559X0.05512*%
%ADD21R,0.01600X0.03400*%
%ADD22R,0.01181X0.02362*%
%ADD23R,0.06900X0.02900*%
%ADD24R,0.05512X0.02559*%
%ADD25R,0.03400X0.01600*%
%ADD26R,0.02362X0.01181*%
%ADD27R,0.03900X0.01800*%
%ADD28R,0.01800X0.03900*%
%ADD29R,0.11400X0.03400*%
%ADD30R,0.03000X0.03400*%
%ADD31C,0.00787*%
D10*
X0014000Y0001750D02*
X0339000Y0001750D01*
X0339302Y0001754D01*
X0339604Y0001765D01*
X0339905Y0001783D01*
X0340206Y0001808D01*
X0340507Y0001841D01*
X0340806Y0001881D01*
X0341104Y0001928D01*
X0341402Y0001983D01*
X0341697Y0002044D01*
X0341991Y0002113D01*
X0342284Y0002189D01*
X0342574Y0002272D01*
X0342863Y0002362D01*
X0343149Y0002459D01*
X0343433Y0002562D01*
X0343714Y0002673D01*
X0343992Y0002790D01*
X0344268Y0002914D01*
X0344540Y0003045D01*
X0344809Y0003182D01*
X0345075Y0003325D01*
X0345337Y0003475D01*
X0345596Y0003632D01*
X0345850Y0003794D01*
X0346101Y0003963D01*
X0346347Y0004137D01*
X0346590Y0004318D01*
X0346827Y0004504D01*
X0347061Y0004696D01*
X0347289Y0004894D01*
X0347513Y0005097D01*
X0347731Y0005305D01*
X0347945Y0005519D01*
X0348153Y0005737D01*
X0348356Y0005961D01*
X0348554Y0006189D01*
X0348746Y0006423D01*
X0348932Y0006660D01*
X0349113Y0006903D01*
X0349287Y0007149D01*
X0349456Y0007400D01*
X0349618Y0007654D01*
X0349775Y0007913D01*
X0349925Y0008175D01*
X0350068Y0008441D01*
X0350205Y0008710D01*
X0350336Y0008982D01*
X0350460Y0009258D01*
X0350577Y0009536D01*
X0350688Y0009817D01*
X0350791Y0010101D01*
X0350888Y0010387D01*
X0350978Y0010676D01*
X0351061Y0010966D01*
X0351137Y0011259D01*
X0351206Y0011553D01*
X0351267Y0011848D01*
X0351322Y0012146D01*
X0351369Y0012444D01*
X0351409Y0012743D01*
X0351442Y0013044D01*
X0351467Y0013345D01*
X0351485Y0013646D01*
X0351496Y0013948D01*
X0351500Y0014250D01*
X0351500Y0189250D01*
X0351496Y0189552D01*
X0351485Y0189854D01*
X0351467Y0190155D01*
X0351442Y0190456D01*
X0351409Y0190757D01*
X0351369Y0191056D01*
X0351322Y0191354D01*
X0351267Y0191652D01*
X0351206Y0191947D01*
X0351137Y0192241D01*
X0351061Y0192534D01*
X0350978Y0192824D01*
X0350888Y0193113D01*
X0350791Y0193399D01*
X0350688Y0193683D01*
X0350577Y0193964D01*
X0350460Y0194242D01*
X0350336Y0194518D01*
X0350205Y0194790D01*
X0350068Y0195059D01*
X0349925Y0195325D01*
X0349775Y0195587D01*
X0349618Y0195846D01*
X0349456Y0196100D01*
X0349287Y0196351D01*
X0349113Y0196597D01*
X0348932Y0196840D01*
X0348746Y0197077D01*
X0348554Y0197311D01*
X0348356Y0197539D01*
X0348153Y0197763D01*
X0347945Y0197981D01*
X0347731Y0198195D01*
X0347513Y0198403D01*
X0347289Y0198606D01*
X0347061Y0198804D01*
X0346827Y0198996D01*
X0346590Y0199182D01*
X0346347Y0199363D01*
X0346101Y0199537D01*
X0345850Y0199706D01*
X0345596Y0199868D01*
X0345337Y0200025D01*
X0345075Y0200175D01*
X0344809Y0200318D01*
X0344540Y0200455D01*
X0344268Y0200586D01*
X0343992Y0200710D01*
X0343714Y0200827D01*
X0343433Y0200938D01*
X0343149Y0201041D01*
X0342863Y0201138D01*
X0342574Y0201228D01*
X0342284Y0201311D01*
X0341991Y0201387D01*
X0341697Y0201456D01*
X0341402Y0201517D01*
X0341104Y0201572D01*
X0340806Y0201619D01*
X0340507Y0201659D01*
X0340206Y0201692D01*
X0339905Y0201717D01*
X0339604Y0201735D01*
X0339302Y0201746D01*
X0339000Y0201750D01*
X0014000Y0201750D01*
X0013698Y0201746D01*
X0013396Y0201735D01*
X0013095Y0201717D01*
X0012794Y0201692D01*
X0012493Y0201659D01*
X0012194Y0201619D01*
X0011896Y0201572D01*
X0011598Y0201517D01*
X0011303Y0201456D01*
X0011009Y0201387D01*
X0010716Y0201311D01*
X0010426Y0201228D01*
X0010137Y0201138D01*
X0009851Y0201041D01*
X0009567Y0200938D01*
X0009286Y0200827D01*
X0009008Y0200710D01*
X0008732Y0200586D01*
X0008460Y0200455D01*
X0008191Y0200318D01*
X0007925Y0200175D01*
X0007663Y0200025D01*
X0007404Y0199868D01*
X0007150Y0199706D01*
X0006899Y0199537D01*
X0006653Y0199363D01*
X0006410Y0199182D01*
X0006173Y0198996D01*
X0005939Y0198804D01*
X0005711Y0198606D01*
X0005487Y0198403D01*
X0005269Y0198195D01*
X0005055Y0197981D01*
X0004847Y0197763D01*
X0004644Y0197539D01*
X0004446Y0197311D01*
X0004254Y0197077D01*
X0004068Y0196840D01*
X0003887Y0196597D01*
X0003713Y0196351D01*
X0003544Y0196100D01*
X0003382Y0195846D01*
X0003225Y0195587D01*
X0003075Y0195325D01*
X0002932Y0195059D01*
X0002795Y0194790D01*
X0002664Y0194518D01*
X0002540Y0194242D01*
X0002423Y0193964D01*
X0002312Y0193683D01*
X0002209Y0193399D01*
X0002112Y0193113D01*
X0002022Y0192824D01*
X0001939Y0192534D01*
X0001863Y0192241D01*
X0001794Y0191947D01*
X0001733Y0191652D01*
X0001678Y0191354D01*
X0001631Y0191056D01*
X0001591Y0190757D01*
X0001558Y0190456D01*
X0001533Y0190155D01*
X0001515Y0189854D01*
X0001504Y0189552D01*
X0001500Y0189250D01*
X0001500Y0014250D01*
X0001504Y0013948D01*
X0001515Y0013646D01*
X0001533Y0013345D01*
X0001558Y0013044D01*
X0001591Y0012743D01*
X0001631Y0012444D01*
X0001678Y0012146D01*
X0001733Y0011848D01*
X0001794Y0011553D01*
X0001863Y0011259D01*
X0001939Y0010966D01*
X0002022Y0010676D01*
X0002112Y0010387D01*
X0002209Y0010101D01*
X0002312Y0009817D01*
X0002423Y0009536D01*
X0002540Y0009258D01*
X0002664Y0008982D01*
X0002795Y0008710D01*
X0002932Y0008441D01*
X0003075Y0008175D01*
X0003225Y0007913D01*
X0003382Y0007654D01*
X0003544Y0007400D01*
X0003713Y0007149D01*
X0003887Y0006903D01*
X0004068Y0006660D01*
X0004254Y0006423D01*
X0004446Y0006189D01*
X0004644Y0005961D01*
X0004847Y0005737D01*
X0005055Y0005519D01*
X0005269Y0005305D01*
X0005487Y0005097D01*
X0005711Y0004894D01*
X0005939Y0004696D01*
X0006173Y0004504D01*
X0006410Y0004318D01*
X0006653Y0004137D01*
X0006899Y0003963D01*
X0007150Y0003794D01*
X0007404Y0003632D01*
X0007663Y0003475D01*
X0007925Y0003325D01*
X0008191Y0003182D01*
X0008460Y0003045D01*
X0008732Y0002914D01*
X0009008Y0002790D01*
X0009286Y0002673D01*
X0009567Y0002562D01*
X0009851Y0002459D01*
X0010137Y0002362D01*
X0010426Y0002272D01*
X0010716Y0002189D01*
X0011009Y0002113D01*
X0011303Y0002044D01*
X0011598Y0001983D01*
X0011896Y0001928D01*
X0012194Y0001881D01*
X0012493Y0001841D01*
X0012794Y0001808D01*
X0013095Y0001783D01*
X0013396Y0001765D01*
X0013698Y0001754D01*
X0014000Y0001750D01*
X0194807Y0132459D02*
X0214492Y0132459D01*
X0234177Y0132459D01*
X0234177Y0152144D01*
X0234177Y0171829D01*
X0214492Y0171829D01*
X0194807Y0171829D01*
X0194807Y0152144D01*
X0194807Y0132459D01*
D11*
X0254803Y0120865D02*
X0255571Y0121633D01*
X0257105Y0121633D01*
X0257872Y0120865D01*
X0259407Y0120865D02*
X0262476Y0117796D01*
X0261709Y0117029D01*
X0260174Y0117029D01*
X0259407Y0117796D01*
X0259407Y0120865D01*
X0260174Y0121633D01*
X0261709Y0121633D01*
X0262476Y0120865D01*
X0262476Y0117796D01*
X0264011Y0119331D02*
X0267080Y0119331D01*
X0264778Y0121633D01*
X0264778Y0117029D01*
X0268615Y0117796D02*
X0268615Y0120865D01*
X0271684Y0117796D01*
X0270917Y0117029D01*
X0269382Y0117029D01*
X0268615Y0117796D01*
X0271684Y0117796D02*
X0271684Y0120865D01*
X0270917Y0121633D01*
X0269382Y0121633D01*
X0268615Y0120865D01*
X0257872Y0117029D02*
X0254803Y0120098D01*
X0254803Y0120865D01*
X0254803Y0117029D02*
X0257872Y0117029D01*
X0257105Y0096042D02*
X0255571Y0096042D01*
X0254803Y0095275D01*
X0254803Y0094507D01*
X0255571Y0093740D01*
X0254803Y0092973D01*
X0254803Y0092205D01*
X0255571Y0091438D01*
X0257105Y0091438D01*
X0257872Y0092205D01*
X0259407Y0092205D02*
X0260174Y0091438D01*
X0261709Y0091438D01*
X0262476Y0092205D01*
X0259407Y0095275D01*
X0259407Y0092205D01*
X0262476Y0092205D02*
X0262476Y0095275D01*
X0261709Y0096042D01*
X0260174Y0096042D01*
X0259407Y0095275D01*
X0257872Y0095275D02*
X0257105Y0096042D01*
X0256338Y0093740D02*
X0255571Y0093740D01*
X0264011Y0092973D02*
X0264011Y0092205D01*
X0264778Y0091438D01*
X0266313Y0091438D01*
X0267080Y0092205D01*
X0267080Y0093740D01*
X0264778Y0093740D01*
X0264011Y0092973D01*
X0265546Y0095275D02*
X0264011Y0096042D01*
X0265546Y0095275D02*
X0267080Y0093740D01*
X0268615Y0092205D02*
X0269382Y0091438D01*
X0270917Y0091438D01*
X0271684Y0092205D01*
X0268615Y0095275D01*
X0268615Y0092205D01*
X0271684Y0092205D02*
X0271684Y0095275D01*
X0270917Y0096042D01*
X0269382Y0096042D01*
X0268615Y0095275D01*
X0313981Y0082054D02*
X0313981Y0081287D01*
X0317050Y0078217D01*
X0317050Y0077450D01*
X0317050Y0082054D02*
X0313981Y0082054D01*
X0291300Y0066519D02*
X0289765Y0068054D01*
X0289765Y0063450D01*
X0288231Y0063450D02*
X0291300Y0063450D01*
X0286696Y0063450D02*
X0283627Y0066519D01*
X0283627Y0067287D01*
X0284394Y0068054D01*
X0285929Y0068054D01*
X0286696Y0067287D01*
X0286696Y0063450D02*
X0283627Y0063450D01*
X0271684Y0063779D02*
X0271684Y0060709D01*
X0268615Y0063779D01*
X0268615Y0060709D01*
X0269382Y0059942D01*
X0270917Y0059942D01*
X0271684Y0060709D01*
X0267080Y0060709D02*
X0267080Y0061477D01*
X0266313Y0062244D01*
X0264778Y0062244D01*
X0264011Y0061477D01*
X0264011Y0060709D01*
X0264778Y0059942D01*
X0266313Y0059942D01*
X0267080Y0060709D01*
X0266313Y0062244D02*
X0267080Y0063011D01*
X0267080Y0063779D01*
X0266313Y0064546D01*
X0264778Y0064546D01*
X0264011Y0063779D01*
X0264011Y0063011D01*
X0264778Y0062244D01*
X0262476Y0060709D02*
X0259407Y0063779D01*
X0259407Y0060709D01*
X0260174Y0059942D01*
X0261709Y0059942D01*
X0262476Y0060709D01*
X0262476Y0063779D01*
X0261709Y0064546D01*
X0260174Y0064546D01*
X0259407Y0063779D01*
X0257872Y0064546D02*
X0257872Y0062244D01*
X0256338Y0063011D01*
X0255571Y0063011D01*
X0254803Y0062244D01*
X0254803Y0060709D01*
X0255571Y0059942D01*
X0257105Y0059942D01*
X0257872Y0060709D01*
X0257872Y0064546D02*
X0254803Y0064546D01*
X0268615Y0063779D02*
X0269382Y0064546D01*
X0270917Y0064546D01*
X0271684Y0063779D01*
X0306065Y0051537D02*
X0306065Y0050769D01*
X0306832Y0050002D01*
X0306065Y0049235D01*
X0306065Y0048467D01*
X0306832Y0047700D01*
X0308367Y0047700D01*
X0309134Y0048467D01*
X0310669Y0047700D02*
X0313738Y0047700D01*
X0310669Y0050769D01*
X0310669Y0051537D01*
X0311436Y0052304D01*
X0312971Y0052304D01*
X0313738Y0051537D01*
X0315273Y0052304D02*
X0318342Y0052304D01*
X0316808Y0052304D02*
X0316808Y0047700D01*
X0319877Y0048467D02*
X0319877Y0051537D01*
X0320644Y0052304D01*
X0322179Y0052304D01*
X0322946Y0051537D01*
X0322946Y0048467D01*
X0322179Y0047700D01*
X0320644Y0047700D01*
X0319877Y0048467D01*
X0324481Y0048467D02*
X0324481Y0049235D01*
X0325248Y0050002D01*
X0326783Y0050002D01*
X0327550Y0050769D01*
X0327550Y0051537D01*
X0326783Y0052304D01*
X0325248Y0052304D01*
X0324481Y0051537D01*
X0324481Y0048467D02*
X0325248Y0047700D01*
X0326783Y0047700D01*
X0327550Y0048467D01*
X0309134Y0051537D02*
X0308367Y0052304D01*
X0306832Y0052304D01*
X0306065Y0051537D01*
X0306832Y0050002D02*
X0307600Y0050002D01*
X0291300Y0033769D02*
X0289765Y0035304D01*
X0289765Y0030700D01*
X0288231Y0030700D02*
X0291300Y0030700D01*
X0286696Y0030700D02*
X0283627Y0030700D01*
X0285161Y0030700D02*
X0285161Y0035304D01*
X0286696Y0033769D01*
X0271684Y0027578D02*
X0270150Y0029113D01*
X0270150Y0024509D01*
X0271684Y0024509D02*
X0268615Y0024509D01*
X0267080Y0024509D02*
X0264011Y0027578D01*
X0264011Y0028346D01*
X0264778Y0029113D01*
X0266313Y0029113D01*
X0267080Y0028346D01*
X0262476Y0028346D02*
X0262476Y0025276D01*
X0259407Y0028346D01*
X0259407Y0025276D01*
X0260174Y0024509D01*
X0261709Y0024509D01*
X0262476Y0025276D01*
X0264011Y0024509D02*
X0267080Y0024509D01*
X0262476Y0028346D02*
X0261709Y0029113D01*
X0260174Y0029113D01*
X0259407Y0028346D01*
X0257872Y0026811D02*
X0255571Y0026811D01*
X0254803Y0026044D01*
X0254803Y0025276D01*
X0255571Y0024509D01*
X0257105Y0024509D01*
X0257872Y0025276D01*
X0257872Y0026811D01*
X0256338Y0028346D01*
X0254803Y0029113D01*
X0312877Y0019787D02*
X0312877Y0016717D01*
X0313644Y0015950D01*
X0315179Y0015950D01*
X0315946Y0016717D01*
X0312877Y0019787D01*
X0313644Y0020554D01*
X0315179Y0020554D01*
X0315946Y0019787D01*
X0315946Y0016717D01*
X0317481Y0015950D02*
X0320550Y0015950D01*
X0319015Y0015950D02*
X0319015Y0020554D01*
X0320550Y0019019D01*
X0341481Y0032467D02*
X0341481Y0035537D01*
X0342248Y0036304D01*
X0343783Y0036304D01*
X0344550Y0035537D01*
X0344550Y0034769D01*
X0343783Y0034002D01*
X0341481Y0034002D01*
X0341481Y0032467D02*
X0342248Y0031700D01*
X0343783Y0031700D01*
X0344550Y0032467D01*
X0343783Y0062450D02*
X0342248Y0062450D01*
X0341481Y0063217D01*
X0341481Y0063985D01*
X0342248Y0064752D01*
X0343783Y0064752D01*
X0344550Y0065519D01*
X0344550Y0066287D01*
X0343783Y0067054D01*
X0342248Y0067054D01*
X0341481Y0066287D01*
X0341481Y0065519D01*
X0342248Y0064752D01*
X0343783Y0064752D02*
X0344550Y0063985D01*
X0344550Y0063217D01*
X0343783Y0062450D01*
X0315711Y0142357D02*
X0315711Y0146960D01*
X0314177Y0146960D02*
X0317246Y0146960D01*
X0312642Y0146193D02*
X0311875Y0146960D01*
X0310340Y0146960D01*
X0309573Y0146193D01*
X0309573Y0143124D01*
X0310340Y0142357D01*
X0311875Y0142357D01*
X0312642Y0143124D01*
X0312642Y0146193D01*
X0311108Y0143891D02*
X0309573Y0142357D01*
X0308038Y0142357D02*
X0308038Y0146960D01*
X0304969Y0146960D01*
X0303434Y0146960D02*
X0301132Y0146960D01*
X0300365Y0146193D01*
X0300365Y0144659D01*
X0301132Y0143891D01*
X0303434Y0143891D01*
X0303434Y0142357D02*
X0303434Y0146960D01*
X0306504Y0144659D02*
X0308038Y0144659D01*
X0298830Y0144659D02*
X0295761Y0144659D01*
X0294227Y0146193D02*
X0293459Y0146960D01*
X0291925Y0146960D01*
X0291157Y0146193D01*
X0291157Y0145426D01*
X0291925Y0144659D01*
X0291157Y0143891D01*
X0291157Y0143124D01*
X0291925Y0142357D01*
X0293459Y0142357D01*
X0294227Y0143124D01*
X0292692Y0144659D02*
X0291925Y0144659D01*
X0289623Y0146193D02*
X0288855Y0146960D01*
X0287321Y0146960D01*
X0286553Y0146193D01*
X0286553Y0145426D01*
X0289623Y0142357D01*
X0286553Y0142357D01*
X0285019Y0144659D02*
X0281949Y0144659D01*
X0280415Y0146193D02*
X0279647Y0146960D01*
X0278113Y0146960D01*
X0277345Y0146193D01*
X0277345Y0145426D01*
X0280415Y0142357D01*
X0277345Y0142357D01*
X0276839Y0169900D02*
X0276839Y0175105D01*
X0274236Y0175105D01*
X0273369Y0174237D01*
X0273369Y0172502D01*
X0274236Y0171635D01*
X0276839Y0171635D01*
X0278525Y0172502D02*
X0279393Y0171635D01*
X0281128Y0171635D01*
X0281995Y0172502D01*
X0281128Y0174237D02*
X0279393Y0174237D01*
X0278525Y0173370D01*
X0278525Y0172502D01*
X0281128Y0174237D02*
X0281995Y0175105D01*
X0281995Y0175972D01*
X0281128Y0176839D01*
X0279393Y0176839D01*
X0278525Y0175972D01*
X0271682Y0172502D02*
X0270815Y0171635D01*
X0268213Y0171635D01*
X0268213Y0174237D01*
X0269080Y0175105D01*
X0270815Y0175105D01*
X0270815Y0173370D02*
X0268213Y0173370D01*
X0266526Y0174237D02*
X0266526Y0172502D01*
X0265658Y0171635D01*
X0263056Y0171635D01*
X0261369Y0171635D02*
X0259635Y0171635D01*
X0260502Y0171635D02*
X0260502Y0175105D01*
X0261369Y0175105D01*
X0263056Y0175105D02*
X0265658Y0175105D01*
X0266526Y0174237D01*
X0270815Y0173370D02*
X0271682Y0172502D01*
X0260502Y0176839D02*
X0260502Y0177707D01*
X0257932Y0175105D02*
X0255330Y0175105D01*
X0254462Y0174237D01*
X0254462Y0171635D01*
X0252775Y0172502D02*
X0251908Y0171635D01*
X0249306Y0171635D01*
X0249306Y0170768D02*
X0249306Y0175105D01*
X0251908Y0175105D01*
X0252775Y0174237D01*
X0252775Y0172502D01*
X0250173Y0169900D02*
X0249306Y0170768D01*
X0250173Y0169900D02*
X0251041Y0169900D01*
X0257932Y0171635D02*
X0257932Y0175105D01*
X0288846Y0175105D02*
X0289714Y0175105D01*
X0291448Y0173370D01*
X0293135Y0173370D02*
X0296605Y0173370D01*
X0296605Y0174237D02*
X0295737Y0175105D01*
X0294003Y0175105D01*
X0293135Y0174237D01*
X0293135Y0173370D01*
X0294003Y0171635D02*
X0295737Y0171635D01*
X0296605Y0172502D01*
X0296605Y0174237D01*
X0298308Y0171635D02*
X0300042Y0171635D01*
X0299175Y0171635D02*
X0299175Y0176839D01*
X0300042Y0176839D01*
X0301729Y0175105D02*
X0301729Y0171635D01*
X0304331Y0171635D01*
X0305199Y0172502D01*
X0305199Y0175105D01*
X0306885Y0175972D02*
X0306885Y0174237D01*
X0307753Y0173370D01*
X0310355Y0173370D01*
X0308620Y0173370D02*
X0306885Y0171635D01*
X0310355Y0171635D02*
X0310355Y0176839D01*
X0307753Y0176839D01*
X0306885Y0175972D01*
X0291448Y0175105D02*
X0291448Y0171635D01*
X0111050Y0188967D02*
X0110283Y0188200D01*
X0108748Y0188200D01*
X0107981Y0188967D01*
X0107981Y0189735D01*
X0108748Y0190502D01*
X0110283Y0190502D01*
X0111050Y0191269D01*
X0111050Y0192037D01*
X0110283Y0192804D01*
X0108748Y0192804D01*
X0107981Y0192037D01*
X0106446Y0192037D02*
X0106446Y0188967D01*
X0105679Y0188200D01*
X0104144Y0188200D01*
X0103377Y0188967D01*
X0103377Y0192037D01*
X0104144Y0192804D01*
X0105679Y0192804D01*
X0106446Y0192037D01*
X0101842Y0192804D02*
X0098773Y0192804D01*
X0100308Y0192804D02*
X0100308Y0188200D01*
X0097238Y0190502D02*
X0094169Y0190502D01*
X0092634Y0192037D02*
X0091867Y0192804D01*
X0090332Y0192804D01*
X0089565Y0192037D01*
X0089565Y0191269D01*
X0092634Y0188200D01*
X0089565Y0188200D01*
X0088030Y0188967D02*
X0087263Y0188200D01*
X0085728Y0188200D01*
X0084961Y0188967D01*
X0084961Y0190502D01*
X0085728Y0191269D01*
X0086496Y0191269D01*
X0088030Y0190502D01*
X0088030Y0192804D01*
X0084961Y0192804D01*
X0083426Y0192037D02*
X0082659Y0192804D01*
X0081124Y0192804D01*
X0080357Y0192037D01*
X0080357Y0191269D01*
X0083426Y0188200D01*
X0080357Y0188200D01*
X0078823Y0190502D02*
X0075753Y0190502D01*
X0074219Y0192037D02*
X0073451Y0192804D01*
X0071917Y0192804D01*
X0071149Y0192037D01*
X0071149Y0191269D01*
X0074219Y0188200D01*
X0071149Y0188200D01*
X0060283Y0152054D02*
X0058748Y0152054D01*
X0057981Y0151287D01*
X0056446Y0151287D02*
X0056446Y0148217D01*
X0055679Y0147450D01*
X0054144Y0147450D01*
X0053377Y0148217D01*
X0053377Y0151287D01*
X0054144Y0152054D01*
X0055679Y0152054D01*
X0056446Y0151287D01*
X0058748Y0149752D02*
X0057981Y0148985D01*
X0057981Y0148217D01*
X0058748Y0147450D01*
X0060283Y0147450D01*
X0061050Y0148217D01*
X0060283Y0149752D02*
X0058748Y0149752D01*
X0060283Y0149752D02*
X0061050Y0150519D01*
X0061050Y0151287D01*
X0060283Y0152054D01*
X0051842Y0152054D02*
X0048773Y0152054D01*
X0050308Y0152054D02*
X0050308Y0147450D01*
X0047238Y0149752D02*
X0044169Y0149752D01*
X0042634Y0151287D02*
X0041867Y0152054D01*
X0040332Y0152054D01*
X0039565Y0151287D01*
X0039565Y0150519D01*
X0042634Y0147450D01*
X0039565Y0147450D01*
X0038030Y0147450D02*
X0034961Y0150519D01*
X0034961Y0151287D01*
X0035728Y0152054D01*
X0037263Y0152054D01*
X0038030Y0151287D01*
X0033426Y0151287D02*
X0032659Y0152054D01*
X0031124Y0152054D01*
X0030357Y0151287D01*
X0030357Y0150519D01*
X0031124Y0149752D01*
X0030357Y0148985D01*
X0030357Y0148217D01*
X0031124Y0147450D01*
X0032659Y0147450D01*
X0033426Y0148217D01*
X0034961Y0147450D02*
X0038030Y0147450D01*
X0031892Y0149752D02*
X0031124Y0149752D01*
X0028823Y0149752D02*
X0025753Y0149752D01*
X0024219Y0151287D02*
X0023451Y0152054D01*
X0021917Y0152054D01*
X0021149Y0151287D01*
X0021149Y0150519D01*
X0024219Y0147450D01*
X0021149Y0147450D01*
X0008283Y0043550D02*
X0005213Y0043550D01*
X0004446Y0042783D01*
X0004446Y0041248D01*
X0005213Y0040481D01*
X0008283Y0040481D01*
X0009050Y0041248D01*
X0009050Y0042783D01*
X0008283Y0043550D01*
X0009050Y0038946D02*
X0005981Y0038946D01*
X0007515Y0038946D02*
X0005981Y0037411D01*
X0005981Y0036644D01*
X0005981Y0035109D02*
X0005981Y0034342D01*
X0009050Y0034342D01*
X0009050Y0035109D02*
X0009050Y0033575D01*
X0008283Y0032040D02*
X0006748Y0032040D01*
X0005981Y0031273D01*
X0005981Y0028971D01*
X0009817Y0028971D01*
X0010585Y0029738D01*
X0010585Y0030506D01*
X0009050Y0031273D02*
X0009050Y0028971D01*
X0009050Y0027436D02*
X0009050Y0025902D01*
X0009050Y0026669D02*
X0005981Y0026669D01*
X0005981Y0027436D01*
X0004446Y0026669D02*
X0003679Y0026669D01*
X0005981Y0024367D02*
X0005981Y0022065D01*
X0006748Y0021298D01*
X0009050Y0021298D01*
X0009050Y0024367D02*
X0005981Y0024367D01*
X0009050Y0031273D02*
X0008283Y0032040D01*
X0004446Y0034342D02*
X0003679Y0034342D01*
D12*
X0057358Y0071750D02*
X0057362Y0072097D01*
X0057375Y0072444D01*
X0057396Y0072790D01*
X0057426Y0073136D01*
X0057464Y0073481D01*
X0057511Y0073825D01*
X0057566Y0074168D01*
X0057630Y0074509D01*
X0057702Y0074849D01*
X0057782Y0075186D01*
X0057870Y0075522D01*
X0057967Y0075855D01*
X0058072Y0076186D01*
X0058185Y0076514D01*
X0058306Y0076840D01*
X0058434Y0077162D01*
X0058571Y0077481D01*
X0058716Y0077796D01*
X0058868Y0078108D01*
X0059028Y0078416D01*
X0059195Y0078721D01*
X0059370Y0079020D01*
X0059552Y0079316D01*
X0059741Y0079607D01*
X0059938Y0079893D01*
X0060141Y0080174D01*
X0060351Y0080451D01*
X0060568Y0080722D01*
X0060792Y0080987D01*
X0061021Y0081247D01*
X0061258Y0081501D01*
X0061500Y0081750D01*
X0061749Y0081992D01*
X0062003Y0082229D01*
X0062263Y0082458D01*
X0062528Y0082682D01*
X0062799Y0082899D01*
X0063076Y0083109D01*
X0063357Y0083312D01*
X0063643Y0083509D01*
X0063934Y0083698D01*
X0064230Y0083880D01*
X0064529Y0084055D01*
X0064834Y0084222D01*
X0065142Y0084382D01*
X0065454Y0084534D01*
X0065769Y0084679D01*
X0066088Y0084816D01*
X0066410Y0084944D01*
X0066736Y0085065D01*
X0067064Y0085178D01*
X0067395Y0085283D01*
X0067728Y0085380D01*
X0068064Y0085468D01*
X0068401Y0085548D01*
X0068741Y0085620D01*
X0069082Y0085684D01*
X0069425Y0085739D01*
X0069769Y0085786D01*
X0070114Y0085824D01*
X0070460Y0085854D01*
X0070806Y0085875D01*
X0071153Y0085888D01*
X0071500Y0085892D01*
X0071847Y0085888D01*
X0072194Y0085875D01*
X0072540Y0085854D01*
X0072886Y0085824D01*
X0073231Y0085786D01*
X0073575Y0085739D01*
X0073918Y0085684D01*
X0074259Y0085620D01*
X0074599Y0085548D01*
X0074936Y0085468D01*
X0075272Y0085380D01*
X0075605Y0085283D01*
X0075936Y0085178D01*
X0076264Y0085065D01*
X0076590Y0084944D01*
X0076912Y0084816D01*
X0077231Y0084679D01*
X0077546Y0084534D01*
X0077858Y0084382D01*
X0078166Y0084222D01*
X0078471Y0084055D01*
X0078770Y0083880D01*
X0079066Y0083698D01*
X0079357Y0083509D01*
X0079643Y0083312D01*
X0079924Y0083109D01*
X0080201Y0082899D01*
X0080472Y0082682D01*
X0080737Y0082458D01*
X0080997Y0082229D01*
X0081251Y0081992D01*
X0081500Y0081750D01*
X0081742Y0081501D01*
X0081979Y0081247D01*
X0082208Y0080987D01*
X0082432Y0080722D01*
X0082649Y0080451D01*
X0082859Y0080174D01*
X0083062Y0079893D01*
X0083259Y0079607D01*
X0083448Y0079316D01*
X0083630Y0079020D01*
X0083805Y0078721D01*
X0083972Y0078416D01*
X0084132Y0078108D01*
X0084284Y0077796D01*
X0084429Y0077481D01*
X0084566Y0077162D01*
X0084694Y0076840D01*
X0084815Y0076514D01*
X0084928Y0076186D01*
X0085033Y0075855D01*
X0085130Y0075522D01*
X0085218Y0075186D01*
X0085298Y0074849D01*
X0085370Y0074509D01*
X0085434Y0074168D01*
X0085489Y0073825D01*
X0085536Y0073481D01*
X0085574Y0073136D01*
X0085604Y0072790D01*
X0085625Y0072444D01*
X0085638Y0072097D01*
X0085642Y0071750D01*
X0085638Y0071403D01*
X0085625Y0071056D01*
X0085604Y0070710D01*
X0085574Y0070364D01*
X0085536Y0070019D01*
X0085489Y0069675D01*
X0085434Y0069332D01*
X0085370Y0068991D01*
X0085298Y0068651D01*
X0085218Y0068314D01*
X0085130Y0067978D01*
X0085033Y0067645D01*
X0084928Y0067314D01*
X0084815Y0066986D01*
X0084694Y0066660D01*
X0084566Y0066338D01*
X0084429Y0066019D01*
X0084284Y0065704D01*
X0084132Y0065392D01*
X0083972Y0065084D01*
X0083805Y0064779D01*
X0083630Y0064480D01*
X0083448Y0064184D01*
X0083259Y0063893D01*
X0083062Y0063607D01*
X0082859Y0063326D01*
X0082649Y0063049D01*
X0082432Y0062778D01*
X0082208Y0062513D01*
X0081979Y0062253D01*
X0081742Y0061999D01*
X0081500Y0061750D01*
X0081251Y0061508D01*
X0080997Y0061271D01*
X0080737Y0061042D01*
X0080472Y0060818D01*
X0080201Y0060601D01*
X0079924Y0060391D01*
X0079643Y0060188D01*
X0079357Y0059991D01*
X0079066Y0059802D01*
X0078770Y0059620D01*
X0078471Y0059445D01*
X0078166Y0059278D01*
X0077858Y0059118D01*
X0077546Y0058966D01*
X0077231Y0058821D01*
X0076912Y0058684D01*
X0076590Y0058556D01*
X0076264Y0058435D01*
X0075936Y0058322D01*
X0075605Y0058217D01*
X0075272Y0058120D01*
X0074936Y0058032D01*
X0074599Y0057952D01*
X0074259Y0057880D01*
X0073918Y0057816D01*
X0073575Y0057761D01*
X0073231Y0057714D01*
X0072886Y0057676D01*
X0072540Y0057646D01*
X0072194Y0057625D01*
X0071847Y0057612D01*
X0071500Y0057608D01*
X0071153Y0057612D01*
X0070806Y0057625D01*
X0070460Y0057646D01*
X0070114Y0057676D01*
X0069769Y0057714D01*
X0069425Y0057761D01*
X0069082Y0057816D01*
X0068741Y0057880D01*
X0068401Y0057952D01*
X0068064Y0058032D01*
X0067728Y0058120D01*
X0067395Y0058217D01*
X0067064Y0058322D01*
X0066736Y0058435D01*
X0066410Y0058556D01*
X0066088Y0058684D01*
X0065769Y0058821D01*
X0065454Y0058966D01*
X0065142Y0059118D01*
X0064834Y0059278D01*
X0064529Y0059445D01*
X0064230Y0059620D01*
X0063934Y0059802D01*
X0063643Y0059991D01*
X0063357Y0060188D01*
X0063076Y0060391D01*
X0062799Y0060601D01*
X0062528Y0060818D01*
X0062263Y0061042D01*
X0062003Y0061271D01*
X0061749Y0061508D01*
X0061500Y0061750D01*
X0061258Y0061999D01*
X0061021Y0062253D01*
X0060792Y0062513D01*
X0060568Y0062778D01*
X0060351Y0063049D01*
X0060141Y0063326D01*
X0059938Y0063607D01*
X0059741Y0063893D01*
X0059552Y0064184D01*
X0059370Y0064480D01*
X0059195Y0064779D01*
X0059028Y0065084D01*
X0058868Y0065392D01*
X0058716Y0065704D01*
X0058571Y0066019D01*
X0058434Y0066338D01*
X0058306Y0066660D01*
X0058185Y0066986D01*
X0058072Y0067314D01*
X0057967Y0067645D01*
X0057870Y0067978D01*
X0057782Y0068314D01*
X0057702Y0068651D01*
X0057630Y0068991D01*
X0057566Y0069332D01*
X0057511Y0069675D01*
X0057464Y0070019D01*
X0057426Y0070364D01*
X0057396Y0070710D01*
X0057375Y0071056D01*
X0057362Y0071403D01*
X0057358Y0071750D01*
X0041500Y0071750D02*
X0041509Y0072486D01*
X0041536Y0073222D01*
X0041581Y0073957D01*
X0041644Y0074691D01*
X0041726Y0075422D01*
X0041825Y0076152D01*
X0041942Y0076879D01*
X0042076Y0077603D01*
X0042229Y0078323D01*
X0042399Y0079039D01*
X0042587Y0079751D01*
X0042792Y0080459D01*
X0043014Y0081160D01*
X0043254Y0081857D01*
X0043510Y0082547D01*
X0043784Y0083231D01*
X0044074Y0083907D01*
X0044380Y0084577D01*
X0044703Y0085238D01*
X0045042Y0085892D01*
X0045397Y0086537D01*
X0045768Y0087173D01*
X0046154Y0087800D01*
X0046556Y0088417D01*
X0046972Y0089024D01*
X0047404Y0089621D01*
X0047850Y0090207D01*
X0048310Y0090782D01*
X0048784Y0091345D01*
X0049271Y0091897D01*
X0049773Y0092436D01*
X0050287Y0092963D01*
X0050814Y0093477D01*
X0051353Y0093979D01*
X0051905Y0094466D01*
X0052468Y0094940D01*
X0053043Y0095400D01*
X0053629Y0095846D01*
X0054226Y0096278D01*
X0054833Y0096694D01*
X0055450Y0097096D01*
X0056077Y0097482D01*
X0056713Y0097853D01*
X0057358Y0098208D01*
X0058012Y0098547D01*
X0058673Y0098870D01*
X0059343Y0099176D01*
X0060019Y0099466D01*
X0060703Y0099740D01*
X0061393Y0099996D01*
X0062090Y0100236D01*
X0062791Y0100458D01*
X0063499Y0100663D01*
X0064211Y0100851D01*
X0064927Y0101021D01*
X0065647Y0101174D01*
X0066371Y0101308D01*
X0067098Y0101425D01*
X0067828Y0101524D01*
X0068559Y0101606D01*
X0069293Y0101669D01*
X0070028Y0101714D01*
X0070764Y0101741D01*
X0071500Y0101750D01*
X0072236Y0101741D01*
X0072972Y0101714D01*
X0073707Y0101669D01*
X0074441Y0101606D01*
X0075172Y0101524D01*
X0075902Y0101425D01*
X0076629Y0101308D01*
X0077353Y0101174D01*
X0078073Y0101021D01*
X0078789Y0100851D01*
X0079501Y0100663D01*
X0080209Y0100458D01*
X0080910Y0100236D01*
X0081607Y0099996D01*
X0082297Y0099740D01*
X0082981Y0099466D01*
X0083657Y0099176D01*
X0084327Y0098870D01*
X0084988Y0098547D01*
X0085642Y0098208D01*
X0086287Y0097853D01*
X0086923Y0097482D01*
X0087550Y0097096D01*
X0088167Y0096694D01*
X0088774Y0096278D01*
X0089371Y0095846D01*
X0089957Y0095400D01*
X0090532Y0094940D01*
X0091095Y0094466D01*
X0091647Y0093979D01*
X0092186Y0093477D01*
X0092713Y0092963D01*
X0093227Y0092436D01*
X0093729Y0091897D01*
X0094216Y0091345D01*
X0094690Y0090782D01*
X0095150Y0090207D01*
X0095596Y0089621D01*
X0096028Y0089024D01*
X0096444Y0088417D01*
X0096846Y0087800D01*
X0097232Y0087173D01*
X0097603Y0086537D01*
X0097958Y0085892D01*
X0098297Y0085238D01*
X0098620Y0084577D01*
X0098926Y0083907D01*
X0099216Y0083231D01*
X0099490Y0082547D01*
X0099746Y0081857D01*
X0099986Y0081160D01*
X0100208Y0080459D01*
X0100413Y0079751D01*
X0100601Y0079039D01*
X0100771Y0078323D01*
X0100924Y0077603D01*
X0101058Y0076879D01*
X0101175Y0076152D01*
X0101274Y0075422D01*
X0101356Y0074691D01*
X0101419Y0073957D01*
X0101464Y0073222D01*
X0101491Y0072486D01*
X0101500Y0071750D01*
X0101491Y0071014D01*
X0101464Y0070278D01*
X0101419Y0069543D01*
X0101356Y0068809D01*
X0101274Y0068078D01*
X0101175Y0067348D01*
X0101058Y0066621D01*
X0100924Y0065897D01*
X0100771Y0065177D01*
X0100601Y0064461D01*
X0100413Y0063749D01*
X0100208Y0063041D01*
X0099986Y0062340D01*
X0099746Y0061643D01*
X0099490Y0060953D01*
X0099216Y0060269D01*
X0098926Y0059593D01*
X0098620Y0058923D01*
X0098297Y0058262D01*
X0097958Y0057608D01*
X0097603Y0056963D01*
X0097232Y0056327D01*
X0096846Y0055700D01*
X0096444Y0055083D01*
X0096028Y0054476D01*
X0095596Y0053879D01*
X0095150Y0053293D01*
X0094690Y0052718D01*
X0094216Y0052155D01*
X0093729Y0051603D01*
X0093227Y0051064D01*
X0092713Y0050537D01*
X0092186Y0050023D01*
X0091647Y0049521D01*
X0091095Y0049034D01*
X0090532Y0048560D01*
X0089957Y0048100D01*
X0089371Y0047654D01*
X0088774Y0047222D01*
X0088167Y0046806D01*
X0087550Y0046404D01*
X0086923Y0046018D01*
X0086287Y0045647D01*
X0085642Y0045292D01*
X0084988Y0044953D01*
X0084327Y0044630D01*
X0083657Y0044324D01*
X0082981Y0044034D01*
X0082297Y0043760D01*
X0081607Y0043504D01*
X0080910Y0043264D01*
X0080209Y0043042D01*
X0079501Y0042837D01*
X0078789Y0042649D01*
X0078073Y0042479D01*
X0077353Y0042326D01*
X0076629Y0042192D01*
X0075902Y0042075D01*
X0075172Y0041976D01*
X0074441Y0041894D01*
X0073707Y0041831D01*
X0072972Y0041786D01*
X0072236Y0041759D01*
X0071500Y0041750D01*
X0070764Y0041759D01*
X0070028Y0041786D01*
X0069293Y0041831D01*
X0068559Y0041894D01*
X0067828Y0041976D01*
X0067098Y0042075D01*
X0066371Y0042192D01*
X0065647Y0042326D01*
X0064927Y0042479D01*
X0064211Y0042649D01*
X0063499Y0042837D01*
X0062791Y0043042D01*
X0062090Y0043264D01*
X0061393Y0043504D01*
X0060703Y0043760D01*
X0060019Y0044034D01*
X0059343Y0044324D01*
X0058673Y0044630D01*
X0058012Y0044953D01*
X0057358Y0045292D01*
X0056713Y0045647D01*
X0056077Y0046018D01*
X0055450Y0046404D01*
X0054833Y0046806D01*
X0054226Y0047222D01*
X0053629Y0047654D01*
X0053043Y0048100D01*
X0052468Y0048560D01*
X0051905Y0049034D01*
X0051353Y0049521D01*
X0050814Y0050023D01*
X0050287Y0050537D01*
X0049773Y0051064D01*
X0049271Y0051603D01*
X0048784Y0052155D01*
X0048310Y0052718D01*
X0047850Y0053293D01*
X0047404Y0053879D01*
X0046972Y0054476D01*
X0046556Y0055083D01*
X0046154Y0055700D01*
X0045768Y0056327D01*
X0045397Y0056963D01*
X0045042Y0057608D01*
X0044703Y0058262D01*
X0044380Y0058923D01*
X0044074Y0059593D01*
X0043784Y0060269D01*
X0043510Y0060953D01*
X0043254Y0061643D01*
X0043014Y0062340D01*
X0042792Y0063041D01*
X0042587Y0063749D01*
X0042399Y0064461D01*
X0042229Y0065177D01*
X0042076Y0065897D01*
X0041942Y0066621D01*
X0041825Y0067348D01*
X0041726Y0068078D01*
X0041644Y0068809D01*
X0041581Y0069543D01*
X0041536Y0070278D01*
X0041509Y0071014D01*
X0041500Y0071750D01*
X0026500Y0071750D02*
X0026514Y0072854D01*
X0026554Y0073958D01*
X0026622Y0075060D01*
X0026717Y0076161D01*
X0026838Y0077258D01*
X0026987Y0078353D01*
X0027163Y0079443D01*
X0027365Y0080529D01*
X0027593Y0081610D01*
X0027849Y0082684D01*
X0028130Y0083752D01*
X0028438Y0084813D01*
X0028771Y0085866D01*
X0029131Y0086910D01*
X0029515Y0087945D01*
X0029925Y0088971D01*
X0030361Y0089986D01*
X0030820Y0090990D01*
X0031305Y0091983D01*
X0031814Y0092963D01*
X0032346Y0093930D01*
X0032902Y0094885D01*
X0033482Y0095825D01*
X0034084Y0096751D01*
X0034709Y0097661D01*
X0035356Y0098556D01*
X0036024Y0099435D01*
X0036715Y0100298D01*
X0037426Y0101143D01*
X0038157Y0101970D01*
X0038909Y0102779D01*
X0039680Y0103570D01*
X0040471Y0104341D01*
X0041280Y0105093D01*
X0042107Y0105824D01*
X0042952Y0106535D01*
X0043815Y0107226D01*
X0044694Y0107894D01*
X0045589Y0108541D01*
X0046499Y0109166D01*
X0047425Y0109768D01*
X0048365Y0110348D01*
X0049320Y0110904D01*
X0050287Y0111436D01*
X0051267Y0111945D01*
X0052260Y0112430D01*
X0053264Y0112889D01*
X0054279Y0113325D01*
X0055305Y0113735D01*
X0056340Y0114119D01*
X0057384Y0114479D01*
X0058437Y0114812D01*
X0059498Y0115120D01*
X0060566Y0115401D01*
X0061640Y0115657D01*
X0062721Y0115885D01*
X0063807Y0116087D01*
X0064897Y0116263D01*
X0065992Y0116412D01*
X0067089Y0116533D01*
X0068190Y0116628D01*
X0069292Y0116696D01*
X0070396Y0116736D01*
X0071500Y0116750D01*
X0072604Y0116736D01*
X0073708Y0116696D01*
X0074810Y0116628D01*
X0075911Y0116533D01*
X0077008Y0116412D01*
X0078103Y0116263D01*
X0079193Y0116087D01*
X0080279Y0115885D01*
X0081360Y0115657D01*
X0082434Y0115401D01*
X0083502Y0115120D01*
X0084563Y0114812D01*
X0085616Y0114479D01*
X0086660Y0114119D01*
X0087695Y0113735D01*
X0088721Y0113325D01*
X0089736Y0112889D01*
X0090740Y0112430D01*
X0091733Y0111945D01*
X0092713Y0111436D01*
X0093680Y0110904D01*
X0094635Y0110348D01*
X0095575Y0109768D01*
X0096501Y0109166D01*
X0097411Y0108541D01*
X0098306Y0107894D01*
X0099185Y0107226D01*
X0100048Y0106535D01*
X0100893Y0105824D01*
X0101720Y0105093D01*
X0102529Y0104341D01*
X0103320Y0103570D01*
X0104091Y0102779D01*
X0104843Y0101970D01*
X0105574Y0101143D01*
X0106285Y0100298D01*
X0106976Y0099435D01*
X0107644Y0098556D01*
X0108291Y0097661D01*
X0108916Y0096751D01*
X0109518Y0095825D01*
X0110098Y0094885D01*
X0110654Y0093930D01*
X0111186Y0092963D01*
X0111695Y0091983D01*
X0112180Y0090990D01*
X0112639Y0089986D01*
X0113075Y0088971D01*
X0113485Y0087945D01*
X0113869Y0086910D01*
X0114229Y0085866D01*
X0114562Y0084813D01*
X0114870Y0083752D01*
X0115151Y0082684D01*
X0115407Y0081610D01*
X0115635Y0080529D01*
X0115837Y0079443D01*
X0116013Y0078353D01*
X0116162Y0077258D01*
X0116283Y0076161D01*
X0116378Y0075060D01*
X0116446Y0073958D01*
X0116486Y0072854D01*
X0116500Y0071750D01*
X0116486Y0070646D01*
X0116446Y0069542D01*
X0116378Y0068440D01*
X0116283Y0067339D01*
X0116162Y0066242D01*
X0116013Y0065147D01*
X0115837Y0064057D01*
X0115635Y0062971D01*
X0115407Y0061890D01*
X0115151Y0060816D01*
X0114870Y0059748D01*
X0114562Y0058687D01*
X0114229Y0057634D01*
X0113869Y0056590D01*
X0113485Y0055555D01*
X0113075Y0054529D01*
X0112639Y0053514D01*
X0112180Y0052510D01*
X0111695Y0051517D01*
X0111186Y0050537D01*
X0110654Y0049570D01*
X0110098Y0048615D01*
X0109518Y0047675D01*
X0108916Y0046749D01*
X0108291Y0045839D01*
X0107644Y0044944D01*
X0106976Y0044065D01*
X0106285Y0043202D01*
X0105574Y0042357D01*
X0104843Y0041530D01*
X0104091Y0040721D01*
X0103320Y0039930D01*
X0102529Y0039159D01*
X0101720Y0038407D01*
X0100893Y0037676D01*
X0100048Y0036965D01*
X0099185Y0036274D01*
X0098306Y0035606D01*
X0097411Y0034959D01*
X0096501Y0034334D01*
X0095575Y0033732D01*
X0094635Y0033152D01*
X0093680Y0032596D01*
X0092713Y0032064D01*
X0091733Y0031555D01*
X0090740Y0031070D01*
X0089736Y0030611D01*
X0088721Y0030175D01*
X0087695Y0029765D01*
X0086660Y0029381D01*
X0085616Y0029021D01*
X0084563Y0028688D01*
X0083502Y0028380D01*
X0082434Y0028099D01*
X0081360Y0027843D01*
X0080279Y0027615D01*
X0079193Y0027413D01*
X0078103Y0027237D01*
X0077008Y0027088D01*
X0075911Y0026967D01*
X0074810Y0026872D01*
X0073708Y0026804D01*
X0072604Y0026764D01*
X0071500Y0026750D01*
X0070396Y0026764D01*
X0069292Y0026804D01*
X0068190Y0026872D01*
X0067089Y0026967D01*
X0065992Y0027088D01*
X0064897Y0027237D01*
X0063807Y0027413D01*
X0062721Y0027615D01*
X0061640Y0027843D01*
X0060566Y0028099D01*
X0059498Y0028380D01*
X0058437Y0028688D01*
X0057384Y0029021D01*
X0056340Y0029381D01*
X0055305Y0029765D01*
X0054279Y0030175D01*
X0053264Y0030611D01*
X0052260Y0031070D01*
X0051267Y0031555D01*
X0050287Y0032064D01*
X0049320Y0032596D01*
X0048365Y0033152D01*
X0047425Y0033732D01*
X0046499Y0034334D01*
X0045589Y0034959D01*
X0044694Y0035606D01*
X0043815Y0036274D01*
X0042952Y0036965D01*
X0042107Y0037676D01*
X0041280Y0038407D01*
X0040471Y0039159D01*
X0039680Y0039930D01*
X0038909Y0040721D01*
X0038157Y0041530D01*
X0037426Y0042357D01*
X0036715Y0043202D01*
X0036024Y0044065D01*
X0035356Y0044944D01*
X0034709Y0045839D01*
X0034084Y0046749D01*
X0033482Y0047675D01*
X0032902Y0048615D01*
X0032346Y0049570D01*
X0031814Y0050537D01*
X0031305Y0051517D01*
X0030820Y0052510D01*
X0030361Y0053514D01*
X0029925Y0054529D01*
X0029515Y0055555D01*
X0029131Y0056590D01*
X0028771Y0057634D01*
X0028438Y0058687D01*
X0028130Y0059748D01*
X0027849Y0060816D01*
X0027593Y0061890D01*
X0027365Y0062971D01*
X0027163Y0064057D01*
X0026987Y0065147D01*
X0026838Y0066242D01*
X0026717Y0067339D01*
X0026622Y0068440D01*
X0026554Y0069542D01*
X0026514Y0070646D01*
X0026500Y0071750D01*
X0011500Y0071750D02*
X0011518Y0073222D01*
X0011572Y0074694D01*
X0011663Y0076164D01*
X0011789Y0077631D01*
X0011951Y0079095D01*
X0012149Y0080554D01*
X0012383Y0082008D01*
X0012653Y0083455D01*
X0012958Y0084896D01*
X0013298Y0086329D01*
X0013673Y0087753D01*
X0014084Y0089167D01*
X0014528Y0090571D01*
X0015007Y0091963D01*
X0015520Y0093344D01*
X0016067Y0094711D01*
X0016647Y0096064D01*
X0017261Y0097403D01*
X0017907Y0098727D01*
X0018585Y0100034D01*
X0019295Y0101324D01*
X0020036Y0102596D01*
X0020809Y0103850D01*
X0021612Y0105084D01*
X0022445Y0106298D01*
X0023308Y0107492D01*
X0024199Y0108664D01*
X0025119Y0109814D01*
X0026067Y0110940D01*
X0027043Y0112044D01*
X0028045Y0113122D01*
X0029074Y0114176D01*
X0030128Y0115205D01*
X0031206Y0116207D01*
X0032310Y0117183D01*
X0033436Y0118131D01*
X0034586Y0119051D01*
X0035758Y0119942D01*
X0036952Y0120805D01*
X0038166Y0121638D01*
X0039400Y0122441D01*
X0040654Y0123214D01*
X0041926Y0123955D01*
X0043216Y0124665D01*
X0044523Y0125343D01*
X0045847Y0125989D01*
X0047186Y0126603D01*
X0048539Y0127183D01*
X0049906Y0127730D01*
X0051287Y0128243D01*
X0052679Y0128722D01*
X0054083Y0129166D01*
X0055497Y0129577D01*
X0056921Y0129952D01*
X0058354Y0130292D01*
X0059795Y0130597D01*
X0061242Y0130867D01*
X0062696Y0131101D01*
X0064155Y0131299D01*
X0065619Y0131461D01*
X0067086Y0131587D01*
X0068556Y0131678D01*
X0070028Y0131732D01*
X0071500Y0131750D01*
X0072972Y0131732D01*
X0074444Y0131678D01*
X0075914Y0131587D01*
X0077381Y0131461D01*
X0078845Y0131299D01*
X0080304Y0131101D01*
X0081758Y0130867D01*
X0083205Y0130597D01*
X0084646Y0130292D01*
X0086079Y0129952D01*
X0087503Y0129577D01*
X0088917Y0129166D01*
X0090321Y0128722D01*
X0091713Y0128243D01*
X0093094Y0127730D01*
X0094461Y0127183D01*
X0095814Y0126603D01*
X0097153Y0125989D01*
X0098477Y0125343D01*
X0099784Y0124665D01*
X0101074Y0123955D01*
X0102346Y0123214D01*
X0103600Y0122441D01*
X0104834Y0121638D01*
X0106048Y0120805D01*
X0107242Y0119942D01*
X0108414Y0119051D01*
X0109564Y0118131D01*
X0110690Y0117183D01*
X0111794Y0116207D01*
X0112872Y0115205D01*
X0113926Y0114176D01*
X0114955Y0113122D01*
X0115957Y0112044D01*
X0116933Y0110940D01*
X0117881Y0109814D01*
X0118801Y0108664D01*
X0119692Y0107492D01*
X0120555Y0106298D01*
X0121388Y0105084D01*
X0122191Y0103850D01*
X0122964Y0102596D01*
X0123705Y0101324D01*
X0124415Y0100034D01*
X0125093Y0098727D01*
X0125739Y0097403D01*
X0126353Y0096064D01*
X0126933Y0094711D01*
X0127480Y0093344D01*
X0127993Y0091963D01*
X0128472Y0090571D01*
X0128916Y0089167D01*
X0129327Y0087753D01*
X0129702Y0086329D01*
X0130042Y0084896D01*
X0130347Y0083455D01*
X0130617Y0082008D01*
X0130851Y0080554D01*
X0131049Y0079095D01*
X0131211Y0077631D01*
X0131337Y0076164D01*
X0131428Y0074694D01*
X0131482Y0073222D01*
X0131500Y0071750D01*
X0131482Y0070278D01*
X0131428Y0068806D01*
X0131337Y0067336D01*
X0131211Y0065869D01*
X0131049Y0064405D01*
X0130851Y0062946D01*
X0130617Y0061492D01*
X0130347Y0060045D01*
X0130042Y0058604D01*
X0129702Y0057171D01*
X0129327Y0055747D01*
X0128916Y0054333D01*
X0128472Y0052929D01*
X0127993Y0051537D01*
X0127480Y0050156D01*
X0126933Y0048789D01*
X0126353Y0047436D01*
X0125739Y0046097D01*
X0125093Y0044773D01*
X0124415Y0043466D01*
X0123705Y0042176D01*
X0122964Y0040904D01*
X0122191Y0039650D01*
X0121388Y0038416D01*
X0120555Y0037202D01*
X0119692Y0036008D01*
X0118801Y0034836D01*
X0117881Y0033686D01*
X0116933Y0032560D01*
X0115957Y0031456D01*
X0114955Y0030378D01*
X0113926Y0029324D01*
X0112872Y0028295D01*
X0111794Y0027293D01*
X0110690Y0026317D01*
X0109564Y0025369D01*
X0108414Y0024449D01*
X0107242Y0023558D01*
X0106048Y0022695D01*
X0104834Y0021862D01*
X0103600Y0021059D01*
X0102346Y0020286D01*
X0101074Y0019545D01*
X0099784Y0018835D01*
X0098477Y0018157D01*
X0097153Y0017511D01*
X0095814Y0016897D01*
X0094461Y0016317D01*
X0093094Y0015770D01*
X0091713Y0015257D01*
X0090321Y0014778D01*
X0088917Y0014334D01*
X0087503Y0013923D01*
X0086079Y0013548D01*
X0084646Y0013208D01*
X0083205Y0012903D01*
X0081758Y0012633D01*
X0080304Y0012399D01*
X0078845Y0012201D01*
X0077381Y0012039D01*
X0075914Y0011913D01*
X0074444Y0011822D01*
X0072972Y0011768D01*
X0071500Y0011750D01*
X0070028Y0011768D01*
X0068556Y0011822D01*
X0067086Y0011913D01*
X0065619Y0012039D01*
X0064155Y0012201D01*
X0062696Y0012399D01*
X0061242Y0012633D01*
X0059795Y0012903D01*
X0058354Y0013208D01*
X0056921Y0013548D01*
X0055497Y0013923D01*
X0054083Y0014334D01*
X0052679Y0014778D01*
X0051287Y0015257D01*
X0049906Y0015770D01*
X0048539Y0016317D01*
X0047186Y0016897D01*
X0045847Y0017511D01*
X0044523Y0018157D01*
X0043216Y0018835D01*
X0041926Y0019545D01*
X0040654Y0020286D01*
X0039400Y0021059D01*
X0038166Y0021862D01*
X0036952Y0022695D01*
X0035758Y0023558D01*
X0034586Y0024449D01*
X0033436Y0025369D01*
X0032310Y0026317D01*
X0031206Y0027293D01*
X0030128Y0028295D01*
X0029074Y0029324D01*
X0028045Y0030378D01*
X0027043Y0031456D01*
X0026067Y0032560D01*
X0025119Y0033686D01*
X0024199Y0034836D01*
X0023308Y0036008D01*
X0022445Y0037202D01*
X0021612Y0038416D01*
X0020809Y0039650D01*
X0020036Y0040904D01*
X0019295Y0042176D01*
X0018585Y0043466D01*
X0017907Y0044773D01*
X0017261Y0046097D01*
X0016647Y0047436D01*
X0016067Y0048789D01*
X0015520Y0050156D01*
X0015007Y0051537D01*
X0014528Y0052929D01*
X0014084Y0054333D01*
X0013673Y0055747D01*
X0013298Y0057171D01*
X0012958Y0058604D01*
X0012653Y0060045D01*
X0012383Y0061492D01*
X0012149Y0062946D01*
X0011951Y0064405D01*
X0011789Y0065869D01*
X0011663Y0067336D01*
X0011572Y0068806D01*
X0011518Y0070278D01*
X0011500Y0071750D01*
X0074986Y0158138D02*
X0074984Y0183943D01*
X0074983Y0183941D02*
X0098583Y0183943D01*
X0098583Y0158140D01*
X0074983Y0158141D01*
X0074583Y0160941D02*
X0071783Y0160941D01*
X0069983Y0162741D01*
X0069983Y0179341D01*
X0071783Y0181141D01*
X0074583Y0181141D01*
X0074583Y0160941D01*
X0053770Y0164541D02*
X0053770Y0177541D01*
X0027970Y0177541D01*
X0027970Y0164541D01*
X0053770Y0164541D01*
D13*
X0007800Y0007400D02*
X0006565Y0007400D01*
X0005948Y0008017D01*
X0005948Y0009252D01*
X0006565Y0009869D01*
X0007182Y0009869D01*
X0008417Y0009252D01*
X0008417Y0011103D01*
X0005948Y0011103D01*
X0009631Y0011103D02*
X0012100Y0011103D01*
X0012100Y0007400D01*
X0012100Y0009252D02*
X0010866Y0009252D01*
X0008417Y0008017D02*
X0007800Y0007400D01*
X0026104Y0018901D02*
X0028722Y0021520D01*
X0027413Y0022829D01*
X0026540Y0022829D01*
X0025667Y0021956D01*
X0025667Y0021084D01*
X0026976Y0019774D01*
X0026104Y0020647D02*
X0024358Y0020647D01*
X0023499Y0021506D02*
X0021753Y0023252D01*
X0022626Y0022379D02*
X0025245Y0024997D01*
X0025245Y0023252D01*
X0022204Y0025419D02*
X0021768Y0026729D01*
X0021331Y0027165D01*
X0020458Y0027165D01*
X0019586Y0026292D01*
X0019586Y0025419D01*
X0020458Y0024547D01*
X0021331Y0024547D01*
X0022204Y0025419D02*
X0023513Y0026729D01*
X0021768Y0028474D01*
X0033003Y0034502D02*
X0034749Y0032756D01*
X0035608Y0031897D02*
X0037354Y0031897D01*
X0036917Y0032334D02*
X0038226Y0031024D01*
X0037354Y0030151D02*
X0039972Y0032770D01*
X0038663Y0034079D01*
X0037790Y0034079D01*
X0036917Y0033206D01*
X0036917Y0032334D01*
X0036495Y0034502D02*
X0036495Y0036247D01*
X0033876Y0033629D01*
X0032581Y0035797D02*
X0031708Y0035797D01*
X0030836Y0036669D01*
X0030836Y0037542D01*
X0031708Y0038415D01*
X0032581Y0038415D01*
X0033018Y0037979D01*
X0033454Y0036669D01*
X0034763Y0037979D01*
X0033018Y0039724D01*
X0040836Y0047669D02*
X0041708Y0046797D01*
X0042581Y0046797D01*
X0043454Y0047669D02*
X0043018Y0048979D01*
X0042581Y0049415D01*
X0041708Y0049415D01*
X0040836Y0048542D01*
X0040836Y0047669D01*
X0043454Y0047669D02*
X0044763Y0048979D01*
X0043018Y0050724D01*
X0046495Y0047247D02*
X0043876Y0044629D01*
X0044749Y0043756D02*
X0043003Y0045502D01*
X0046495Y0045502D02*
X0046495Y0047247D01*
X0047790Y0045079D02*
X0046917Y0044206D01*
X0046917Y0043334D01*
X0048226Y0042024D01*
X0047354Y0041151D02*
X0049972Y0043770D01*
X0048663Y0045079D01*
X0047790Y0045079D01*
X0047354Y0042897D02*
X0045608Y0042897D01*
X0057604Y0050901D02*
X0060222Y0053520D01*
X0058913Y0054829D01*
X0058040Y0054829D01*
X0057167Y0053956D01*
X0057167Y0053084D01*
X0058476Y0051774D01*
X0057604Y0052647D02*
X0055858Y0052647D01*
X0054999Y0053506D02*
X0053253Y0055252D01*
X0054126Y0054379D02*
X0056745Y0056997D01*
X0056745Y0055252D01*
X0053704Y0057419D02*
X0053268Y0058729D01*
X0052831Y0059165D01*
X0051958Y0059165D01*
X0051086Y0058292D01*
X0051086Y0057419D01*
X0051958Y0056547D01*
X0052831Y0056547D01*
X0053704Y0057419D02*
X0055013Y0058729D01*
X0053268Y0060474D01*
X0050853Y0066351D02*
X0047150Y0066351D01*
X0048384Y0066351D02*
X0048384Y0068202D01*
X0049002Y0068819D01*
X0050236Y0068819D01*
X0050853Y0068202D01*
X0050853Y0066351D01*
X0048384Y0067585D02*
X0047150Y0068819D01*
X0047150Y0070034D02*
X0047150Y0072502D01*
X0047150Y0071268D02*
X0050853Y0071268D01*
X0049619Y0070034D01*
X0049002Y0073717D02*
X0049002Y0076186D01*
X0050853Y0075568D02*
X0047150Y0075568D01*
X0049002Y0073717D02*
X0050853Y0075568D01*
X0051720Y0083262D02*
X0052593Y0083262D01*
X0053466Y0084135D01*
X0053466Y0085008D01*
X0054761Y0085430D02*
X0056507Y0087176D01*
X0057365Y0088035D02*
X0057365Y0089780D01*
X0056929Y0089344D02*
X0058238Y0090653D01*
X0059111Y0089780D02*
X0056493Y0092399D01*
X0055183Y0091090D01*
X0055183Y0090217D01*
X0056056Y0089344D01*
X0056929Y0089344D01*
X0054761Y0088922D02*
X0053015Y0088922D01*
X0055634Y0086303D01*
X0051720Y0086754D02*
X0050847Y0086754D01*
X0049975Y0085881D01*
X0049975Y0085008D01*
X0050411Y0084572D01*
X0051284Y0084572D01*
X0051284Y0083699D01*
X0051720Y0083262D01*
X0051284Y0084572D02*
X0051720Y0085008D01*
X0043093Y0093512D02*
X0042220Y0093512D01*
X0041784Y0093949D01*
X0041784Y0094822D01*
X0042220Y0095258D01*
X0041784Y0094822D02*
X0040911Y0094822D01*
X0040475Y0095258D01*
X0040475Y0096131D01*
X0041347Y0097004D01*
X0042220Y0097004D01*
X0043966Y0095258D02*
X0043966Y0094385D01*
X0043093Y0093512D01*
X0045261Y0095680D02*
X0047007Y0097426D01*
X0047865Y0098285D02*
X0047865Y0100030D01*
X0047429Y0099594D02*
X0048738Y0100903D01*
X0049611Y0100030D02*
X0046993Y0102649D01*
X0045683Y0101340D01*
X0045683Y0100467D01*
X0046556Y0099594D01*
X0047429Y0099594D01*
X0045261Y0099172D02*
X0043515Y0099172D01*
X0046134Y0096553D01*
X0033216Y0105385D02*
X0033216Y0106258D01*
X0033216Y0105385D02*
X0032343Y0104512D01*
X0031470Y0104512D01*
X0031034Y0104949D01*
X0031034Y0105822D01*
X0031470Y0106258D01*
X0031034Y0105822D02*
X0030161Y0105822D01*
X0029725Y0106258D01*
X0029725Y0107131D01*
X0030597Y0108004D01*
X0031470Y0108004D01*
X0032765Y0110172D02*
X0035384Y0107553D01*
X0036257Y0108426D02*
X0034511Y0106680D01*
X0034511Y0110172D02*
X0032765Y0110172D01*
X0034933Y0111467D02*
X0035806Y0110594D01*
X0036679Y0110594D01*
X0037988Y0111903D01*
X0037115Y0111030D02*
X0037115Y0109285D01*
X0038861Y0111030D02*
X0036243Y0113649D01*
X0034933Y0112340D01*
X0034933Y0111467D01*
X0024757Y0118926D02*
X0023011Y0117180D01*
X0023884Y0118053D02*
X0021265Y0120672D01*
X0023011Y0120672D01*
X0023433Y0121967D02*
X0024306Y0121094D01*
X0025179Y0121094D01*
X0026488Y0122403D01*
X0025615Y0121530D02*
X0025615Y0119785D01*
X0027361Y0121530D02*
X0024743Y0124149D01*
X0023433Y0122840D01*
X0023433Y0121967D01*
X0019970Y0118504D02*
X0019097Y0118504D01*
X0018225Y0117631D01*
X0018225Y0116758D01*
X0018661Y0116322D01*
X0019534Y0116322D01*
X0019534Y0115449D01*
X0019970Y0115012D01*
X0020843Y0115012D01*
X0021716Y0115885D01*
X0021716Y0116758D01*
X0019970Y0116758D02*
X0019534Y0116322D01*
X0051265Y0137400D02*
X0053734Y0137400D01*
X0051265Y0139869D01*
X0051265Y0140486D01*
X0051882Y0141103D01*
X0053117Y0141103D01*
X0053734Y0140486D01*
X0056182Y0141103D02*
X0056182Y0137400D01*
X0054948Y0137400D02*
X0057417Y0137400D01*
X0058631Y0137400D02*
X0059866Y0138634D01*
X0059248Y0138634D02*
X0061100Y0138634D01*
X0061100Y0137400D02*
X0061100Y0141103D01*
X0059248Y0141103D01*
X0058631Y0140486D01*
X0058631Y0139252D01*
X0059248Y0138634D01*
X0057417Y0139869D02*
X0056182Y0141103D01*
X0065082Y0140853D02*
X0066316Y0140236D01*
X0067551Y0139002D01*
X0065699Y0139002D01*
X0065082Y0138384D01*
X0065082Y0137767D01*
X0065699Y0137150D01*
X0066933Y0137150D01*
X0067551Y0137767D01*
X0067551Y0139002D01*
X0068765Y0140236D02*
X0068765Y0137767D01*
X0069382Y0137150D01*
X0070617Y0137150D01*
X0071234Y0137767D01*
X0068765Y0140236D01*
X0069382Y0140853D01*
X0070617Y0140853D01*
X0071234Y0140236D01*
X0071234Y0137767D01*
X0072448Y0137150D02*
X0074917Y0137150D01*
X0072448Y0139619D01*
X0072448Y0140236D01*
X0073065Y0140853D01*
X0074300Y0140853D01*
X0074917Y0140236D01*
X0077366Y0140853D02*
X0077366Y0137150D01*
X0078600Y0137150D02*
X0076131Y0137150D01*
X0078600Y0139619D02*
X0077366Y0140853D01*
X0077868Y0125277D02*
X0076634Y0125277D01*
X0076017Y0124659D01*
X0078485Y0122191D01*
X0077868Y0121573D01*
X0076634Y0121573D01*
X0076017Y0122191D01*
X0076017Y0124659D01*
X0074802Y0124659D02*
X0074802Y0124042D01*
X0074185Y0123425D01*
X0072951Y0123425D01*
X0072333Y0122808D01*
X0072333Y0122191D01*
X0072951Y0121573D01*
X0074185Y0121573D01*
X0074802Y0122191D01*
X0074802Y0122808D01*
X0074185Y0123425D01*
X0072951Y0123425D02*
X0072333Y0124042D01*
X0072333Y0124659D01*
X0072951Y0125277D01*
X0074185Y0125277D01*
X0074802Y0124659D01*
X0077868Y0125277D02*
X0078485Y0124659D01*
X0078485Y0122191D01*
X0071119Y0122191D02*
X0068650Y0124659D01*
X0068650Y0122191D01*
X0069267Y0121573D01*
X0070502Y0121573D01*
X0071119Y0122191D01*
X0071119Y0124659D01*
X0070502Y0125277D01*
X0069267Y0125277D01*
X0068650Y0124659D01*
X0067436Y0125277D02*
X0067436Y0123425D01*
X0066201Y0124042D01*
X0065584Y0124042D01*
X0064967Y0123425D01*
X0064967Y0122191D01*
X0065584Y0121573D01*
X0066819Y0121573D01*
X0067436Y0122191D01*
X0067436Y0125277D02*
X0064967Y0125277D01*
X0065680Y0110253D02*
X0065063Y0109636D01*
X0065063Y0109019D01*
X0065680Y0108402D01*
X0065063Y0107785D01*
X0065063Y0107167D01*
X0065680Y0106550D01*
X0066915Y0106550D01*
X0067532Y0107167D01*
X0068746Y0107167D02*
X0069364Y0106550D01*
X0070598Y0106550D01*
X0071215Y0107167D01*
X0068746Y0109636D01*
X0068746Y0107167D01*
X0068746Y0109636D02*
X0069364Y0110253D01*
X0070598Y0110253D01*
X0071215Y0109636D01*
X0071215Y0107167D01*
X0072430Y0107167D02*
X0072430Y0107785D01*
X0073047Y0108402D01*
X0074898Y0108402D01*
X0074898Y0107167D01*
X0074281Y0106550D01*
X0073047Y0106550D01*
X0072430Y0107167D01*
X0074898Y0108402D02*
X0073664Y0109636D01*
X0072430Y0110253D01*
X0076113Y0109636D02*
X0076113Y0107167D01*
X0076730Y0106550D01*
X0077964Y0106550D01*
X0078581Y0107167D01*
X0076113Y0109636D01*
X0076730Y0110253D01*
X0077964Y0110253D01*
X0078581Y0109636D01*
X0078581Y0107167D01*
X0067532Y0109636D02*
X0066915Y0110253D01*
X0065680Y0110253D01*
X0065680Y0108402D02*
X0066298Y0108402D01*
X0066108Y0095469D02*
X0066725Y0094852D01*
X0066108Y0095469D02*
X0064874Y0095469D01*
X0064257Y0094852D01*
X0064257Y0094235D01*
X0066725Y0091766D01*
X0064257Y0091766D01*
X0067940Y0092383D02*
X0068557Y0091766D01*
X0069791Y0091766D01*
X0070409Y0092383D01*
X0067940Y0094852D01*
X0067940Y0092383D01*
X0070409Y0092383D02*
X0070409Y0094852D01*
X0069791Y0095469D01*
X0068557Y0095469D01*
X0067940Y0094852D01*
X0071623Y0093617D02*
X0074092Y0093617D01*
X0072240Y0095469D01*
X0072240Y0091766D01*
X0075306Y0092383D02*
X0075923Y0091766D01*
X0077158Y0091766D01*
X0077775Y0092383D01*
X0075306Y0094852D01*
X0075306Y0092383D01*
X0075306Y0094852D02*
X0075923Y0095469D01*
X0077158Y0095469D01*
X0077775Y0094852D01*
X0077775Y0092383D01*
X0083796Y0090667D02*
X0085541Y0088921D01*
X0086400Y0088062D02*
X0088146Y0086316D01*
X0089004Y0085458D02*
X0090750Y0085458D01*
X0090314Y0085894D02*
X0091623Y0084585D01*
X0090750Y0083712D02*
X0093369Y0086331D01*
X0092059Y0087640D01*
X0091186Y0087640D01*
X0090314Y0086767D01*
X0090314Y0085894D01*
X0089891Y0088062D02*
X0089891Y0089808D01*
X0087273Y0087189D01*
X0084668Y0089794D02*
X0087287Y0092412D01*
X0087287Y0090667D01*
X0095400Y0098062D02*
X0097146Y0096316D01*
X0098004Y0095458D02*
X0099750Y0095458D01*
X0099314Y0095894D02*
X0100623Y0094585D01*
X0099750Y0093712D02*
X0102369Y0096331D01*
X0101059Y0097640D01*
X0100186Y0097640D01*
X0099314Y0096767D01*
X0099314Y0095894D01*
X0098891Y0098062D02*
X0098891Y0099808D01*
X0096273Y0097189D01*
X0094541Y0098921D02*
X0092796Y0100667D01*
X0093668Y0099794D02*
X0096287Y0102412D01*
X0096287Y0100667D01*
X0106150Y0108312D02*
X0107896Y0106566D01*
X0108754Y0105708D02*
X0110500Y0105708D01*
X0110064Y0106144D02*
X0111373Y0104835D01*
X0110500Y0103962D02*
X0113119Y0106581D01*
X0111809Y0107890D01*
X0110936Y0107890D01*
X0110064Y0107017D01*
X0110064Y0106144D01*
X0109641Y0108312D02*
X0109641Y0110058D01*
X0107023Y0107439D01*
X0105291Y0109171D02*
X0103546Y0110917D01*
X0104418Y0110044D02*
X0107037Y0112662D01*
X0107037Y0110917D01*
X0117650Y0119562D02*
X0119396Y0117816D01*
X0120254Y0116958D02*
X0122000Y0116958D01*
X0121564Y0117394D02*
X0122873Y0116085D01*
X0122000Y0115212D02*
X0124619Y0117831D01*
X0123309Y0119140D01*
X0122436Y0119140D01*
X0121564Y0118267D01*
X0121564Y0117394D01*
X0121141Y0119562D02*
X0121141Y0121308D01*
X0118523Y0118689D01*
X0116791Y0120421D02*
X0115046Y0122167D01*
X0115918Y0121294D02*
X0118537Y0123912D01*
X0118537Y0122167D01*
X0137150Y0117283D02*
X0137150Y0113791D01*
X0136714Y0113355D01*
X0137572Y0112496D02*
X0139318Y0110751D01*
X0140177Y0109892D02*
X0141922Y0109892D01*
X0141486Y0110328D02*
X0142795Y0109019D01*
X0141922Y0108146D02*
X0144541Y0110765D01*
X0143232Y0112074D01*
X0142359Y0112074D01*
X0141486Y0111201D01*
X0141486Y0110328D01*
X0141064Y0112496D02*
X0141064Y0114242D01*
X0138445Y0111623D01*
X0139332Y0115974D02*
X0137587Y0117719D01*
X0137150Y0117283D01*
X0140819Y0119432D02*
X0141692Y0118559D01*
X0142564Y0118559D01*
X0143001Y0118996D01*
X0143001Y0119868D01*
X0142128Y0120741D01*
X0141255Y0120741D01*
X0140819Y0120305D01*
X0140819Y0119432D01*
X0142128Y0120741D02*
X0142128Y0121614D01*
X0142564Y0122051D01*
X0143437Y0122051D01*
X0144310Y0121178D01*
X0144310Y0120305D01*
X0143874Y0119868D01*
X0143001Y0119868D01*
X0142987Y0117264D02*
X0144732Y0115518D01*
X0145591Y0114660D02*
X0147337Y0114660D01*
X0146900Y0115096D02*
X0148210Y0113787D01*
X0147337Y0112914D02*
X0149955Y0115533D01*
X0148646Y0116842D01*
X0147773Y0116842D01*
X0146900Y0115969D01*
X0146900Y0115096D01*
X0146478Y0117264D02*
X0146478Y0119010D01*
X0143859Y0116391D01*
X0148578Y0122459D02*
X0150323Y0120713D01*
X0151182Y0119854D02*
X0152928Y0119854D01*
X0152491Y0120291D02*
X0153801Y0118981D01*
X0152928Y0118109D02*
X0155546Y0120727D01*
X0154237Y0122036D01*
X0153364Y0122036D01*
X0152491Y0121164D01*
X0152491Y0120291D01*
X0152069Y0122459D02*
X0152069Y0124204D01*
X0149450Y0121586D01*
X0148155Y0123754D02*
X0147283Y0123754D01*
X0146410Y0124627D01*
X0146410Y0125499D01*
X0148155Y0127245D01*
X0149028Y0127245D01*
X0149901Y0126372D01*
X0149901Y0125499D01*
X0149465Y0125063D01*
X0148592Y0125063D01*
X0147283Y0126372D01*
X0151061Y0129821D02*
X0151934Y0128948D01*
X0152807Y0128948D01*
X0152807Y0132440D01*
X0151061Y0130694D01*
X0151061Y0129821D01*
X0152807Y0128948D02*
X0154553Y0130694D01*
X0154553Y0131567D01*
X0153680Y0132440D01*
X0152807Y0132440D01*
X0155411Y0129835D02*
X0154975Y0129399D01*
X0154975Y0125907D01*
X0153229Y0127653D01*
X0155411Y0129835D02*
X0156284Y0129835D01*
X0157157Y0128962D01*
X0157157Y0128090D01*
X0158016Y0127231D02*
X0157143Y0126358D01*
X0157143Y0125485D01*
X0158452Y0124176D01*
X0157579Y0125049D02*
X0155834Y0125049D01*
X0157579Y0123303D02*
X0160198Y0125922D01*
X0158889Y0127231D01*
X0158016Y0127231D01*
X0160882Y0129847D02*
X0162627Y0129847D01*
X0162191Y0130283D02*
X0163500Y0128974D01*
X0162627Y0128101D02*
X0165246Y0130720D01*
X0163937Y0132029D01*
X0163064Y0132029D01*
X0162191Y0131156D01*
X0162191Y0130283D01*
X0160023Y0130706D02*
X0160023Y0134197D01*
X0160459Y0134633D01*
X0161332Y0134633D01*
X0162205Y0133761D01*
X0162205Y0132888D01*
X0160023Y0130706D02*
X0158277Y0132451D01*
X0157419Y0133310D02*
X0155673Y0135056D01*
X0156546Y0134183D02*
X0159164Y0136801D01*
X0159164Y0135056D01*
X0163650Y0136812D02*
X0165396Y0135066D01*
X0165396Y0138558D01*
X0165832Y0138994D01*
X0166705Y0138994D01*
X0167578Y0138121D01*
X0167578Y0137249D01*
X0168436Y0136390D02*
X0167564Y0135517D01*
X0167564Y0134644D01*
X0168873Y0133335D01*
X0168000Y0134208D02*
X0166254Y0134208D01*
X0168000Y0132462D02*
X0170619Y0135081D01*
X0169309Y0136390D01*
X0168436Y0136390D01*
X0171254Y0139208D02*
X0173000Y0139208D01*
X0172564Y0139644D02*
X0173873Y0138335D01*
X0173000Y0137462D02*
X0175619Y0140081D01*
X0174309Y0141390D01*
X0173436Y0141390D01*
X0172564Y0140517D01*
X0172564Y0139644D01*
X0170396Y0140066D02*
X0170396Y0143558D01*
X0170832Y0143994D01*
X0171705Y0143994D01*
X0172578Y0143121D01*
X0172578Y0142249D01*
X0170396Y0140066D02*
X0168650Y0141812D01*
X0168228Y0143107D02*
X0167355Y0143107D01*
X0166482Y0143980D01*
X0166482Y0144853D01*
X0166918Y0145289D01*
X0167791Y0145289D01*
X0168228Y0144853D01*
X0167791Y0145289D02*
X0167791Y0146162D01*
X0168228Y0146599D01*
X0169101Y0146599D01*
X0169973Y0145726D01*
X0169973Y0144853D01*
X0173650Y0146812D02*
X0175396Y0145066D01*
X0175396Y0148558D01*
X0175832Y0148994D01*
X0176705Y0148994D01*
X0177578Y0148121D01*
X0177578Y0147249D01*
X0178436Y0146390D02*
X0177564Y0145517D01*
X0177564Y0144644D01*
X0178873Y0143335D01*
X0178000Y0144208D02*
X0176254Y0144208D01*
X0178000Y0142462D02*
X0180619Y0145081D01*
X0179309Y0146390D01*
X0178436Y0146390D01*
X0174101Y0148980D02*
X0172355Y0150726D01*
X0171482Y0148980D02*
X0174101Y0151599D01*
X0174101Y0148980D01*
X0164973Y0140726D02*
X0164101Y0141599D01*
X0163228Y0141599D01*
X0162791Y0141162D01*
X0162791Y0137671D01*
X0161046Y0139417D01*
X0164973Y0139853D02*
X0164973Y0140726D01*
X0134623Y0157585D02*
X0133314Y0158894D01*
X0133314Y0159767D01*
X0134186Y0160640D01*
X0135059Y0160640D01*
X0136369Y0159331D01*
X0133750Y0156712D01*
X0133750Y0158458D02*
X0132004Y0158458D01*
X0131146Y0159316D02*
X0131146Y0162808D01*
X0131582Y0163244D01*
X0132455Y0163244D01*
X0133328Y0162371D01*
X0133328Y0161499D01*
X0131146Y0159316D02*
X0129400Y0161062D01*
X0128978Y0162357D02*
X0128105Y0162357D01*
X0127232Y0163230D01*
X0127232Y0164103D01*
X0128978Y0165849D01*
X0129851Y0165849D01*
X0130723Y0164976D01*
X0130723Y0164103D01*
X0130287Y0163667D01*
X0129414Y0163667D01*
X0128105Y0164976D01*
X0132232Y0168230D02*
X0133105Y0167357D01*
X0133978Y0167357D01*
X0133978Y0170849D01*
X0132232Y0169103D01*
X0132232Y0168230D01*
X0133978Y0167357D02*
X0135723Y0169103D01*
X0135723Y0169976D01*
X0134851Y0170849D01*
X0133978Y0170849D01*
X0136582Y0168244D02*
X0136146Y0167808D01*
X0136146Y0166935D01*
X0135273Y0166935D01*
X0134836Y0166499D01*
X0134836Y0165626D01*
X0135709Y0164753D01*
X0136582Y0164753D01*
X0137004Y0163458D02*
X0138750Y0163458D01*
X0138314Y0163894D02*
X0139623Y0162585D01*
X0138750Y0161712D02*
X0141369Y0164331D01*
X0140059Y0165640D01*
X0139186Y0165640D01*
X0138314Y0164767D01*
X0138314Y0163894D01*
X0138328Y0166499D02*
X0138328Y0167371D01*
X0137455Y0168244D01*
X0136582Y0168244D01*
X0136146Y0166935D02*
X0136582Y0166499D01*
X0139836Y0170626D02*
X0140709Y0169753D01*
X0141582Y0169753D01*
X0142004Y0168458D02*
X0143750Y0168458D01*
X0143314Y0168894D02*
X0144623Y0167585D01*
X0143750Y0166712D02*
X0146369Y0169331D01*
X0145059Y0170640D01*
X0144186Y0170640D01*
X0143314Y0169767D01*
X0143314Y0168894D01*
X0143328Y0171499D02*
X0143328Y0172371D01*
X0142455Y0173244D01*
X0141582Y0173244D01*
X0141146Y0172808D01*
X0141146Y0171935D01*
X0140273Y0171935D01*
X0139836Y0171499D01*
X0139836Y0170626D01*
X0138541Y0171921D02*
X0136796Y0173667D01*
X0137668Y0172794D02*
X0140287Y0175412D01*
X0140287Y0173667D01*
X0141146Y0171935D02*
X0141582Y0171499D01*
X0147004Y0173458D02*
X0148750Y0173458D01*
X0148314Y0173894D02*
X0149623Y0172585D01*
X0148750Y0171712D02*
X0151369Y0174331D01*
X0150059Y0175640D01*
X0149186Y0175640D01*
X0148314Y0174767D01*
X0148314Y0173894D01*
X0146582Y0174753D02*
X0145709Y0174753D01*
X0144836Y0175626D01*
X0144836Y0176499D01*
X0145273Y0176935D01*
X0146146Y0176935D01*
X0146582Y0176499D01*
X0146146Y0176935D02*
X0146146Y0177808D01*
X0146582Y0178244D01*
X0147455Y0178244D01*
X0148328Y0177371D01*
X0148328Y0176499D01*
X0145723Y0179103D02*
X0145723Y0179976D01*
X0144851Y0180849D01*
X0143978Y0180849D01*
X0143541Y0180412D01*
X0143541Y0176921D01*
X0141796Y0178667D01*
X0159247Y0171146D02*
X0160120Y0172019D01*
X0160993Y0172019D01*
X0161851Y0172878D02*
X0165343Y0172878D01*
X0165343Y0172005D01*
X0164470Y0171132D01*
X0163597Y0171132D01*
X0161851Y0172878D01*
X0161851Y0173750D01*
X0162724Y0174623D01*
X0163597Y0174623D01*
X0165343Y0172878D01*
X0165329Y0174609D02*
X0167074Y0176355D01*
X0164456Y0176355D01*
X0167074Y0173736D01*
X0168806Y0176341D02*
X0169679Y0176341D01*
X0170551Y0177214D01*
X0170551Y0178086D01*
X0167060Y0178086D01*
X0168806Y0176341D01*
X0170551Y0178086D02*
X0168806Y0179832D01*
X0167933Y0179832D01*
X0167060Y0178959D01*
X0167060Y0178086D01*
X0159247Y0171146D02*
X0159247Y0170273D01*
X0159683Y0169837D01*
X0163175Y0169837D01*
X0161429Y0168091D01*
X0169697Y0161896D02*
X0169697Y0161023D01*
X0170133Y0160587D01*
X0171006Y0160587D01*
X0171006Y0159714D01*
X0171443Y0159278D01*
X0172316Y0159278D01*
X0173188Y0160150D01*
X0173188Y0161023D01*
X0174047Y0161882D02*
X0174920Y0161882D01*
X0175793Y0162755D01*
X0175793Y0163628D01*
X0172301Y0163628D01*
X0174047Y0161882D01*
X0172301Y0163628D02*
X0172301Y0164500D01*
X0173174Y0165373D01*
X0174047Y0165373D01*
X0175793Y0163628D01*
X0176651Y0164486D02*
X0176215Y0164923D01*
X0176215Y0165796D01*
X0177524Y0167105D01*
X0178397Y0166232D01*
X0178397Y0165359D01*
X0177524Y0164486D01*
X0176651Y0164486D01*
X0175779Y0167105D02*
X0177524Y0167105D01*
X0177510Y0168836D02*
X0179256Y0167091D01*
X0180129Y0167091D01*
X0181001Y0167964D01*
X0181001Y0168836D01*
X0177510Y0168836D01*
X0177510Y0169709D01*
X0178383Y0170582D01*
X0179256Y0170582D01*
X0181001Y0168836D01*
X0175779Y0167105D02*
X0174469Y0166668D01*
X0171443Y0162769D02*
X0170570Y0162769D01*
X0169697Y0161896D01*
X0171006Y0160587D02*
X0171443Y0161023D01*
X0201495Y0173300D02*
X0201495Y0175151D01*
X0202113Y0175768D01*
X0202730Y0175151D01*
X0202730Y0173300D01*
X0203964Y0173300D02*
X0203964Y0175768D01*
X0203347Y0175768D01*
X0202730Y0175151D01*
X0205179Y0175151D02*
X0205179Y0173300D01*
X0206413Y0173300D02*
X0206413Y0175151D01*
X0205796Y0175768D01*
X0205179Y0175151D01*
X0206413Y0175151D02*
X0207030Y0175768D01*
X0207647Y0175768D01*
X0207647Y0173300D01*
X0208862Y0173917D02*
X0209479Y0173300D01*
X0210713Y0173300D01*
X0211331Y0173917D01*
X0208862Y0176386D01*
X0208862Y0173917D01*
X0211331Y0173917D02*
X0211331Y0176386D01*
X0210713Y0177003D01*
X0209479Y0177003D01*
X0208862Y0176386D01*
X0213779Y0177003D02*
X0215014Y0175768D01*
X0216228Y0175768D02*
X0218697Y0173300D01*
X0219911Y0173917D02*
X0220528Y0173300D01*
X0221763Y0173300D01*
X0222380Y0173917D01*
X0219911Y0176386D01*
X0219911Y0173917D01*
X0218697Y0175768D02*
X0216228Y0173300D01*
X0215014Y0173300D02*
X0212545Y0173300D01*
X0213779Y0173300D02*
X0213779Y0177003D01*
X0219911Y0176386D02*
X0220528Y0177003D01*
X0221763Y0177003D01*
X0222380Y0176386D01*
X0222380Y0173917D01*
X0223594Y0173300D02*
X0226063Y0173300D01*
X0224829Y0173300D02*
X0224829Y0177003D01*
X0226063Y0175768D01*
X0258214Y0165956D02*
X0258214Y0164105D01*
X0259448Y0164105D02*
X0259448Y0165956D01*
X0258831Y0166573D01*
X0258214Y0165956D01*
X0259448Y0165956D02*
X0260065Y0166573D01*
X0260683Y0166573D01*
X0260683Y0164105D01*
X0261897Y0164105D02*
X0261897Y0165956D01*
X0262514Y0166573D01*
X0263131Y0165956D01*
X0263131Y0164105D01*
X0264366Y0164105D02*
X0264366Y0166573D01*
X0263749Y0166573D01*
X0263131Y0165956D01*
X0269263Y0164722D02*
X0269881Y0164105D01*
X0271115Y0164105D01*
X0271732Y0164722D01*
X0269263Y0167191D01*
X0269263Y0164722D01*
X0269263Y0167191D02*
X0269881Y0167808D01*
X0271115Y0167808D01*
X0271732Y0167191D01*
X0271732Y0164722D01*
X0272946Y0164105D02*
X0275415Y0164105D01*
X0274181Y0164105D02*
X0274181Y0167808D01*
X0275415Y0166573D01*
X0280319Y0164722D02*
X0280937Y0164722D01*
X0280937Y0164105D01*
X0280319Y0164105D01*
X0280319Y0164722D01*
X0280319Y0164105D02*
X0281554Y0162870D01*
X0283385Y0164105D02*
X0284620Y0164105D01*
X0285237Y0164722D01*
X0285237Y0165956D02*
X0284003Y0166573D01*
X0283385Y0166573D01*
X0282768Y0165956D01*
X0282768Y0164722D01*
X0283385Y0164105D01*
X0285237Y0165956D02*
X0285237Y0167808D01*
X0282768Y0167808D01*
X0290141Y0164722D02*
X0290758Y0164722D01*
X0290758Y0164105D01*
X0290141Y0164105D01*
X0290141Y0164722D01*
X0290141Y0164105D02*
X0291376Y0162870D01*
X0292590Y0164105D02*
X0295059Y0164105D01*
X0293824Y0164105D02*
X0293824Y0167808D01*
X0295059Y0166573D01*
X0299963Y0164722D02*
X0300580Y0164722D01*
X0300580Y0164105D01*
X0299963Y0164105D01*
X0299963Y0164722D01*
X0299963Y0164105D02*
X0301197Y0162870D01*
X0303029Y0164105D02*
X0304263Y0164105D01*
X0304880Y0164722D01*
X0306105Y0164722D02*
X0306105Y0164105D01*
X0306722Y0164105D01*
X0306722Y0164722D01*
X0306105Y0164722D01*
X0304880Y0165956D02*
X0303646Y0166573D01*
X0303029Y0166573D01*
X0302412Y0165956D01*
X0302412Y0164722D01*
X0303029Y0164105D01*
X0304880Y0165956D02*
X0304880Y0167808D01*
X0302412Y0167808D01*
X0307936Y0167191D02*
X0310405Y0164722D01*
X0309788Y0164105D01*
X0308554Y0164105D01*
X0307936Y0164722D01*
X0307936Y0167191D01*
X0308554Y0167808D01*
X0309788Y0167808D01*
X0310405Y0167191D01*
X0310405Y0164722D01*
X0322362Y0164746D02*
X0324831Y0162277D01*
X0324831Y0161660D01*
X0327279Y0163511D02*
X0328514Y0163511D01*
X0328514Y0161660D02*
X0328514Y0165363D01*
X0326045Y0165363D01*
X0324831Y0165363D02*
X0322362Y0165363D01*
X0322362Y0164746D01*
X0248153Y0113811D02*
X0244450Y0113811D01*
X0246302Y0114428D02*
X0246302Y0111959D01*
X0248153Y0113811D01*
X0247536Y0110745D02*
X0246919Y0110745D01*
X0244450Y0108276D01*
X0244450Y0110745D01*
X0247536Y0110745D02*
X0248153Y0110128D01*
X0248153Y0108894D01*
X0247536Y0108276D01*
X0247536Y0107062D02*
X0246302Y0107062D01*
X0245685Y0106445D01*
X0245685Y0104593D01*
X0245685Y0105828D02*
X0244450Y0107062D01*
X0244450Y0104593D02*
X0248153Y0104593D01*
X0248153Y0106445D01*
X0247536Y0107062D01*
X0238474Y0106445D02*
X0237857Y0107062D01*
X0236623Y0107062D01*
X0236006Y0106445D01*
X0236006Y0104593D01*
X0236006Y0105828D02*
X0234771Y0107062D01*
X0234771Y0108276D02*
X0237240Y0110745D01*
X0237857Y0110745D01*
X0238474Y0110128D01*
X0238474Y0108894D01*
X0237857Y0108276D01*
X0238474Y0106445D02*
X0238474Y0104593D01*
X0234771Y0104593D01*
X0234771Y0108276D02*
X0234771Y0110745D01*
X0235389Y0111959D02*
X0234771Y0112577D01*
X0234771Y0113811D01*
X0235389Y0114428D01*
X0236006Y0114428D01*
X0236623Y0113811D01*
X0236623Y0113194D01*
X0236623Y0113811D02*
X0237240Y0114428D01*
X0237857Y0114428D01*
X0238474Y0113811D01*
X0238474Y0112577D01*
X0237857Y0111959D01*
X0228296Y0112577D02*
X0227678Y0111959D01*
X0228296Y0112577D02*
X0228296Y0113811D01*
X0227678Y0114428D01*
X0227061Y0114428D01*
X0224592Y0111959D01*
X0224592Y0114428D01*
X0224592Y0110745D02*
X0224592Y0108276D01*
X0227061Y0110745D01*
X0227678Y0110745D01*
X0228296Y0110128D01*
X0228296Y0108894D01*
X0227678Y0108276D01*
X0227678Y0107062D02*
X0226444Y0107062D01*
X0225827Y0106445D01*
X0225827Y0104593D01*
X0225827Y0105828D02*
X0224592Y0107062D01*
X0224592Y0104593D02*
X0228296Y0104593D01*
X0228296Y0106445D01*
X0227678Y0107062D01*
X0217889Y0106875D02*
X0217889Y0105024D01*
X0214185Y0105024D01*
X0215420Y0105024D02*
X0215420Y0106875D01*
X0216037Y0107493D01*
X0217271Y0107493D01*
X0217889Y0106875D01*
X0217271Y0108707D02*
X0217889Y0109324D01*
X0217889Y0110559D01*
X0217271Y0111176D01*
X0216654Y0111176D01*
X0214185Y0108707D01*
X0214185Y0111176D01*
X0214185Y0112390D02*
X0214185Y0114859D01*
X0214185Y0113624D02*
X0217889Y0113624D01*
X0216654Y0112390D01*
X0214185Y0107493D02*
X0215420Y0106258D01*
X0208046Y0106875D02*
X0208046Y0105024D01*
X0204343Y0105024D01*
X0205577Y0105024D02*
X0205577Y0106875D01*
X0206194Y0107493D01*
X0207429Y0107493D01*
X0208046Y0106875D01*
X0207429Y0108707D02*
X0208046Y0109324D01*
X0208046Y0110559D01*
X0207429Y0111176D01*
X0206812Y0111176D01*
X0204343Y0108707D01*
X0204343Y0111176D01*
X0204960Y0112390D02*
X0204343Y0113007D01*
X0204343Y0114242D01*
X0204960Y0114859D01*
X0207429Y0114859D01*
X0204960Y0112390D01*
X0207429Y0112390D01*
X0208046Y0113007D01*
X0208046Y0114242D01*
X0207429Y0114859D01*
X0198204Y0114242D02*
X0198204Y0113007D01*
X0197586Y0112390D01*
X0196969Y0112390D01*
X0196352Y0113007D01*
X0196352Y0114859D01*
X0197586Y0114859D02*
X0198204Y0114242D01*
X0197586Y0114859D02*
X0195118Y0114859D01*
X0194500Y0114242D01*
X0194500Y0113007D01*
X0195118Y0112390D01*
X0194500Y0111176D02*
X0194500Y0108707D01*
X0194500Y0107493D02*
X0195735Y0106258D01*
X0195735Y0106875D02*
X0195735Y0105024D01*
X0194500Y0105024D02*
X0198204Y0105024D01*
X0198204Y0106875D01*
X0197586Y0107493D01*
X0196352Y0107493D01*
X0195735Y0106875D01*
X0196969Y0108707D02*
X0198204Y0109941D01*
X0194500Y0109941D01*
X0188361Y0109941D02*
X0184658Y0109941D01*
X0184658Y0108707D02*
X0184658Y0111176D01*
X0185275Y0112390D02*
X0185892Y0112390D01*
X0186509Y0113007D01*
X0186509Y0114242D01*
X0185892Y0114859D01*
X0185275Y0114859D01*
X0184658Y0114242D01*
X0184658Y0113007D01*
X0185275Y0112390D01*
X0186509Y0113007D02*
X0187127Y0112390D01*
X0187744Y0112390D01*
X0188361Y0113007D01*
X0188361Y0114242D01*
X0187744Y0114859D01*
X0187127Y0114859D01*
X0186509Y0114242D01*
X0188361Y0109941D02*
X0187127Y0108707D01*
X0187744Y0107493D02*
X0186509Y0107493D01*
X0185892Y0106875D01*
X0185892Y0105024D01*
X0184658Y0105024D02*
X0188361Y0105024D01*
X0188361Y0106875D01*
X0187744Y0107493D01*
X0185892Y0106258D02*
X0184658Y0107493D01*
X0178519Y0106875D02*
X0178519Y0105024D01*
X0174815Y0105024D01*
X0176050Y0105024D02*
X0176050Y0106875D01*
X0176667Y0107493D01*
X0177901Y0107493D01*
X0178519Y0106875D01*
X0177284Y0108707D02*
X0178519Y0109941D01*
X0174815Y0109941D01*
X0174815Y0108707D02*
X0174815Y0111176D01*
X0174815Y0112390D02*
X0175433Y0112390D01*
X0177901Y0114859D01*
X0178519Y0114859D01*
X0178519Y0112390D01*
X0174815Y0107493D02*
X0176050Y0106258D01*
X0204343Y0107493D02*
X0205577Y0106258D01*
X0205577Y0085331D02*
X0204960Y0085331D01*
X0204343Y0084714D01*
X0204343Y0083480D01*
X0204960Y0082863D01*
X0205577Y0082863D01*
X0206194Y0083480D01*
X0206194Y0084714D01*
X0205577Y0085331D01*
X0206194Y0084714D02*
X0206812Y0085331D01*
X0207429Y0085331D01*
X0208046Y0084714D01*
X0208046Y0083480D01*
X0207429Y0082863D01*
X0206812Y0082863D01*
X0206194Y0083480D01*
X0206812Y0081648D02*
X0207429Y0081648D01*
X0208046Y0081031D01*
X0208046Y0079797D01*
X0207429Y0079179D01*
X0207429Y0077965D02*
X0206194Y0077965D01*
X0205577Y0077348D01*
X0205577Y0075496D01*
X0204343Y0075496D02*
X0208046Y0075496D01*
X0208046Y0077348D01*
X0207429Y0077965D01*
X0205577Y0076731D02*
X0204343Y0077965D01*
X0204343Y0079179D02*
X0206812Y0081648D01*
X0204343Y0081648D02*
X0204343Y0079179D01*
X0198204Y0079797D02*
X0198204Y0081031D01*
X0197586Y0081648D01*
X0196969Y0081648D01*
X0194500Y0079179D01*
X0194500Y0081648D01*
X0194500Y0082863D02*
X0195118Y0082863D01*
X0197586Y0085331D01*
X0198204Y0085331D01*
X0198204Y0082863D01*
X0198204Y0079797D02*
X0197586Y0079179D01*
X0197586Y0077965D02*
X0196352Y0077965D01*
X0195735Y0077348D01*
X0195735Y0075496D01*
X0194500Y0075496D02*
X0198204Y0075496D01*
X0198204Y0077348D01*
X0197586Y0077965D01*
X0195735Y0076731D02*
X0194500Y0077965D01*
X0188361Y0077348D02*
X0188361Y0075496D01*
X0184658Y0075496D01*
X0185892Y0075496D02*
X0185892Y0077348D01*
X0186509Y0077965D01*
X0187744Y0077965D01*
X0188361Y0077348D01*
X0187744Y0079179D02*
X0188361Y0079797D01*
X0188361Y0081031D01*
X0187744Y0081648D01*
X0187127Y0081648D01*
X0184658Y0079179D01*
X0184658Y0081648D01*
X0185275Y0082863D02*
X0184658Y0083480D01*
X0184658Y0084714D01*
X0185275Y0085331D01*
X0185892Y0085331D01*
X0186509Y0084714D01*
X0186509Y0082863D01*
X0185275Y0082863D01*
X0186509Y0082863D02*
X0187744Y0084097D01*
X0188361Y0085331D01*
X0184658Y0077965D02*
X0185892Y0076731D01*
X0178519Y0077348D02*
X0178519Y0075496D01*
X0174815Y0075496D01*
X0176050Y0075496D02*
X0176050Y0077348D01*
X0176667Y0077965D01*
X0177901Y0077965D01*
X0178519Y0077348D01*
X0177901Y0079179D02*
X0178519Y0079797D01*
X0178519Y0081031D01*
X0177901Y0081648D01*
X0177284Y0081648D01*
X0174815Y0079179D01*
X0174815Y0081648D01*
X0175433Y0082863D02*
X0174815Y0083480D01*
X0174815Y0084714D01*
X0175433Y0085331D01*
X0176667Y0085331D01*
X0177284Y0084714D01*
X0177284Y0084097D01*
X0176667Y0082863D01*
X0178519Y0082863D01*
X0178519Y0085331D01*
X0174815Y0077965D02*
X0176050Y0076731D01*
X0140853Y0076818D02*
X0140853Y0075584D01*
X0140236Y0074967D01*
X0137767Y0074967D01*
X0140236Y0077436D01*
X0137767Y0077436D01*
X0137150Y0076818D01*
X0137150Y0075584D01*
X0137767Y0074967D01*
X0137150Y0073752D02*
X0137150Y0071284D01*
X0137150Y0070069D02*
X0138384Y0068835D01*
X0138384Y0069452D02*
X0138384Y0067601D01*
X0137150Y0067601D02*
X0140853Y0067601D01*
X0140853Y0069452D01*
X0140236Y0070069D01*
X0139002Y0070069D01*
X0138384Y0069452D01*
X0139619Y0071284D02*
X0140853Y0072518D01*
X0137150Y0072518D01*
X0140853Y0076818D02*
X0140236Y0077436D01*
X0125353Y0076068D02*
X0125353Y0074834D01*
X0124736Y0074217D01*
X0122267Y0074217D01*
X0124736Y0076686D01*
X0122267Y0076686D01*
X0121650Y0076068D01*
X0121650Y0074834D01*
X0122267Y0074217D01*
X0121650Y0073002D02*
X0121650Y0070534D01*
X0121650Y0069319D02*
X0122884Y0068085D01*
X0122884Y0068702D02*
X0122884Y0066851D01*
X0121650Y0066851D02*
X0125353Y0066851D01*
X0125353Y0068702D01*
X0124736Y0069319D01*
X0123502Y0069319D01*
X0122884Y0068702D01*
X0124119Y0070534D02*
X0125353Y0071768D01*
X0121650Y0071768D01*
X0125353Y0076068D02*
X0124736Y0076686D01*
X0110353Y0076318D02*
X0110353Y0075084D01*
X0109736Y0074467D01*
X0107267Y0074467D01*
X0109736Y0076936D01*
X0107267Y0076936D01*
X0106650Y0076318D01*
X0106650Y0075084D01*
X0107267Y0074467D01*
X0106650Y0073252D02*
X0106650Y0070784D01*
X0106650Y0069569D02*
X0107884Y0068335D01*
X0107884Y0068952D02*
X0107884Y0067101D01*
X0106650Y0067101D02*
X0110353Y0067101D01*
X0110353Y0068952D01*
X0109736Y0069569D01*
X0108502Y0069569D01*
X0107884Y0068952D01*
X0109119Y0070784D02*
X0110353Y0072018D01*
X0106650Y0072018D01*
X0110353Y0076318D02*
X0109736Y0076936D01*
X0095853Y0076568D02*
X0095853Y0075334D01*
X0095236Y0074717D01*
X0092767Y0074717D01*
X0095236Y0077186D01*
X0092767Y0077186D01*
X0092150Y0076568D01*
X0092150Y0075334D01*
X0092767Y0074717D01*
X0092150Y0073502D02*
X0092150Y0071034D01*
X0092150Y0069819D02*
X0093384Y0068585D01*
X0093384Y0069202D02*
X0093384Y0067351D01*
X0092150Y0067351D02*
X0095853Y0067351D01*
X0095853Y0069202D01*
X0095236Y0069819D01*
X0094002Y0069819D01*
X0093384Y0069202D01*
X0094619Y0071034D02*
X0095853Y0072268D01*
X0092150Y0072268D01*
X0095853Y0076568D02*
X0095236Y0077186D01*
X0088773Y0058911D02*
X0087464Y0057602D01*
X0087464Y0056729D01*
X0088336Y0055856D01*
X0089209Y0055856D01*
X0090519Y0057166D01*
X0091391Y0056293D02*
X0088773Y0058911D01*
X0089646Y0056293D02*
X0089646Y0054547D01*
X0088351Y0054125D02*
X0088351Y0053252D01*
X0087478Y0052379D01*
X0086605Y0052379D01*
X0084859Y0054125D01*
X0084859Y0054998D01*
X0085732Y0055871D01*
X0086605Y0055871D01*
X0087041Y0055434D01*
X0087041Y0054561D01*
X0085732Y0053252D01*
X0076100Y0051853D02*
X0076100Y0048150D01*
X0076100Y0049384D02*
X0074248Y0049384D01*
X0073631Y0050002D01*
X0073631Y0051236D01*
X0074248Y0051853D01*
X0076100Y0051853D01*
X0074866Y0049384D02*
X0073631Y0048150D01*
X0072417Y0048150D02*
X0069948Y0048150D01*
X0071182Y0048150D02*
X0071182Y0051853D01*
X0072417Y0050619D01*
X0068734Y0050002D02*
X0068734Y0048767D01*
X0068117Y0048150D01*
X0066882Y0048150D01*
X0066265Y0048767D01*
X0066265Y0049384D01*
X0066882Y0050002D01*
X0068734Y0050002D01*
X0067499Y0051236D01*
X0066265Y0051853D01*
X0066265Y0036853D02*
X0067499Y0036236D01*
X0068734Y0035002D01*
X0066882Y0035002D01*
X0066265Y0034384D01*
X0066265Y0033767D01*
X0066882Y0033150D01*
X0068117Y0033150D01*
X0068734Y0033767D01*
X0068734Y0035002D01*
X0069948Y0033150D02*
X0072417Y0033150D01*
X0073631Y0033150D02*
X0074866Y0034384D01*
X0074248Y0034384D02*
X0076100Y0034384D01*
X0076100Y0033150D02*
X0076100Y0036853D01*
X0074248Y0036853D01*
X0073631Y0036236D01*
X0073631Y0035002D01*
X0074248Y0034384D01*
X0072417Y0035619D02*
X0071182Y0036853D01*
X0071182Y0033150D01*
X0071182Y0021853D02*
X0071182Y0018150D01*
X0069948Y0018150D02*
X0072417Y0018150D01*
X0073631Y0018150D02*
X0074866Y0019384D01*
X0074248Y0019384D02*
X0076100Y0019384D01*
X0076100Y0018150D02*
X0076100Y0021853D01*
X0074248Y0021853D01*
X0073631Y0021236D01*
X0073631Y0020002D01*
X0074248Y0019384D01*
X0072417Y0020619D02*
X0071182Y0021853D01*
X0068734Y0020002D02*
X0066882Y0020002D01*
X0066265Y0019384D01*
X0066265Y0018767D01*
X0066882Y0018150D01*
X0068117Y0018150D01*
X0068734Y0018767D01*
X0068734Y0020002D01*
X0067499Y0021236D01*
X0066265Y0021853D01*
X0066265Y0006853D02*
X0067499Y0006236D01*
X0068734Y0005002D01*
X0066882Y0005002D01*
X0066265Y0004384D01*
X0066265Y0003767D01*
X0066882Y0003150D01*
X0068117Y0003150D01*
X0068734Y0003767D01*
X0068734Y0005002D01*
X0069948Y0003150D02*
X0072417Y0003150D01*
X0073631Y0003150D02*
X0074866Y0004384D01*
X0074248Y0004384D02*
X0076100Y0004384D01*
X0076100Y0003150D02*
X0076100Y0006853D01*
X0074248Y0006853D01*
X0073631Y0006236D01*
X0073631Y0005002D01*
X0074248Y0004384D01*
X0072417Y0005619D02*
X0071182Y0006853D01*
X0071182Y0003150D01*
X0116859Y0022125D02*
X0118605Y0020379D01*
X0119478Y0020379D01*
X0120351Y0021252D01*
X0120351Y0022125D01*
X0121646Y0022547D02*
X0121646Y0024293D01*
X0121209Y0023856D02*
X0122519Y0025166D01*
X0123391Y0024293D02*
X0120773Y0026911D01*
X0119464Y0025602D01*
X0119464Y0024729D01*
X0120336Y0023856D01*
X0121209Y0023856D01*
X0119041Y0023434D02*
X0119041Y0022561D01*
X0117732Y0021252D01*
X0116859Y0022125D02*
X0116859Y0022998D01*
X0117732Y0023871D01*
X0118605Y0023871D01*
X0119041Y0023434D01*
X0108601Y0033002D02*
X0107728Y0032129D01*
X0106855Y0032129D01*
X0105109Y0033875D01*
X0105109Y0034748D01*
X0105982Y0035621D01*
X0106855Y0035621D01*
X0107291Y0035184D01*
X0107291Y0034311D01*
X0105982Y0033002D01*
X0108601Y0033002D02*
X0108601Y0033875D01*
X0109896Y0034297D02*
X0109896Y0036043D01*
X0109459Y0035606D02*
X0110769Y0036916D01*
X0111641Y0036043D02*
X0109023Y0038661D01*
X0107714Y0037352D01*
X0107714Y0036479D01*
X0108586Y0035606D01*
X0109459Y0035606D01*
X0099396Y0044547D02*
X0099396Y0046293D01*
X0098959Y0045856D02*
X0100269Y0047166D01*
X0101141Y0046293D02*
X0098523Y0048911D01*
X0097214Y0047602D01*
X0097214Y0046729D01*
X0098086Y0045856D01*
X0098959Y0045856D01*
X0098101Y0044125D02*
X0098101Y0043252D01*
X0097228Y0042379D01*
X0096355Y0042379D01*
X0094609Y0044125D01*
X0094609Y0044998D01*
X0095482Y0045871D01*
X0096355Y0045871D01*
X0096791Y0045434D01*
X0096791Y0044561D01*
X0095482Y0043252D01*
X0035853Y0066351D02*
X0035853Y0068202D01*
X0035236Y0068819D01*
X0034002Y0068819D01*
X0033384Y0068202D01*
X0033384Y0066351D01*
X0033384Y0067585D02*
X0032150Y0068819D01*
X0032150Y0070034D02*
X0032150Y0072502D01*
X0032150Y0071268D02*
X0035853Y0071268D01*
X0034619Y0070034D01*
X0034002Y0073717D02*
X0034002Y0076186D01*
X0035853Y0075568D02*
X0032150Y0075568D01*
X0034002Y0073717D02*
X0035853Y0075568D01*
X0035853Y0066351D02*
X0032150Y0066351D01*
X0021103Y0066351D02*
X0021103Y0068202D01*
X0020486Y0068819D01*
X0019252Y0068819D01*
X0018634Y0068202D01*
X0018634Y0066351D01*
X0018634Y0067585D02*
X0017400Y0068819D01*
X0017400Y0070034D02*
X0017400Y0072502D01*
X0017400Y0071268D02*
X0021103Y0071268D01*
X0019869Y0070034D01*
X0019252Y0073717D02*
X0019252Y0076186D01*
X0021103Y0075568D02*
X0017400Y0075568D01*
X0019252Y0073717D02*
X0021103Y0075568D01*
X0021103Y0066351D02*
X0017400Y0066351D01*
X0006603Y0066601D02*
X0006603Y0068452D01*
X0005986Y0069069D01*
X0004752Y0069069D01*
X0004134Y0068452D01*
X0004134Y0066601D01*
X0004134Y0067835D02*
X0002900Y0069069D01*
X0002900Y0070284D02*
X0002900Y0072752D01*
X0002900Y0071518D02*
X0006603Y0071518D01*
X0005369Y0070284D01*
X0004752Y0073967D02*
X0004752Y0076436D01*
X0006603Y0075818D02*
X0002900Y0075818D01*
X0004752Y0073967D02*
X0006603Y0075818D01*
X0006603Y0066601D02*
X0002900Y0066601D01*
X0113750Y0136712D02*
X0116369Y0139331D01*
X0115059Y0140640D01*
X0114186Y0140640D01*
X0113314Y0139767D01*
X0113314Y0138894D01*
X0114623Y0137585D01*
X0113750Y0138458D02*
X0112004Y0138458D01*
X0111146Y0139316D02*
X0111146Y0142808D01*
X0111582Y0143244D01*
X0112455Y0143244D01*
X0113328Y0142371D01*
X0113328Y0141499D01*
X0111160Y0144539D02*
X0109851Y0143230D01*
X0109414Y0144539D01*
X0108978Y0144976D01*
X0108105Y0144976D01*
X0107232Y0144103D01*
X0107232Y0143230D01*
X0108105Y0142357D01*
X0108978Y0142357D01*
X0109400Y0141062D02*
X0111146Y0139316D01*
X0117004Y0143458D02*
X0118750Y0143458D01*
X0118314Y0143894D02*
X0119623Y0142585D01*
X0118750Y0141712D02*
X0121369Y0144331D01*
X0120059Y0145640D01*
X0119186Y0145640D01*
X0118314Y0144767D01*
X0118314Y0143894D01*
X0116146Y0144316D02*
X0114400Y0146062D01*
X0113978Y0147357D02*
X0113105Y0147357D01*
X0112232Y0148230D01*
X0112232Y0149103D01*
X0112668Y0149539D01*
X0113541Y0149539D01*
X0114851Y0148230D01*
X0113978Y0147357D01*
X0114851Y0148230D02*
X0114851Y0149976D01*
X0114414Y0151285D01*
X0116582Y0148244D02*
X0116146Y0147808D01*
X0116146Y0144316D01*
X0118328Y0146499D02*
X0118328Y0147371D01*
X0117455Y0148244D01*
X0116582Y0148244D01*
X0119400Y0151062D02*
X0121146Y0149316D01*
X0121146Y0152808D01*
X0121582Y0153244D01*
X0122455Y0153244D01*
X0123328Y0152371D01*
X0123328Y0151499D01*
X0124186Y0150640D02*
X0123314Y0149767D01*
X0123314Y0148894D01*
X0124623Y0147585D01*
X0123750Y0148458D02*
X0122004Y0148458D01*
X0123750Y0146712D02*
X0126369Y0149331D01*
X0125059Y0150640D01*
X0124186Y0150640D01*
X0127004Y0153458D02*
X0128750Y0153458D01*
X0128314Y0153894D02*
X0129623Y0152585D01*
X0128750Y0151712D02*
X0131369Y0154331D01*
X0130059Y0155640D01*
X0129186Y0155640D01*
X0128314Y0154767D01*
X0128314Y0153894D01*
X0126146Y0154316D02*
X0126146Y0157808D01*
X0126582Y0158244D01*
X0127455Y0158244D01*
X0128328Y0157371D01*
X0128328Y0156499D01*
X0126146Y0154316D02*
X0124400Y0156062D01*
X0123978Y0157357D02*
X0124414Y0157794D01*
X0124414Y0158667D01*
X0123541Y0159539D01*
X0122668Y0159539D01*
X0122232Y0159103D01*
X0122232Y0158230D01*
X0123105Y0157357D01*
X0123978Y0157357D01*
X0124414Y0158667D02*
X0125287Y0158667D01*
X0125723Y0159103D01*
X0125723Y0159976D01*
X0124851Y0160849D01*
X0123978Y0160849D01*
X0123541Y0160412D01*
X0123541Y0159539D01*
X0119414Y0156285D02*
X0118978Y0155849D01*
X0118978Y0152357D01*
X0118541Y0151921D01*
X0121160Y0154539D02*
X0119414Y0156285D01*
X0109414Y0146285D02*
X0111160Y0144539D01*
X0012350Y0192400D02*
X0012350Y0196103D01*
X0009881Y0196103D01*
X0008667Y0194252D02*
X0007432Y0195486D01*
X0006198Y0196103D01*
X0006815Y0194252D02*
X0008667Y0194252D01*
X0008667Y0193017D01*
X0008050Y0192400D01*
X0006815Y0192400D01*
X0006198Y0193017D01*
X0006198Y0193634D01*
X0006815Y0194252D01*
X0011116Y0194252D02*
X0012350Y0194252D01*
X0214185Y0084714D02*
X0214185Y0083480D01*
X0214803Y0082863D01*
X0214185Y0081648D02*
X0214185Y0079179D01*
X0216654Y0081648D01*
X0217271Y0081648D01*
X0217889Y0081031D01*
X0217889Y0079797D01*
X0217271Y0079179D01*
X0217271Y0077965D02*
X0216037Y0077965D01*
X0215420Y0077348D01*
X0215420Y0075496D01*
X0214185Y0075496D02*
X0217889Y0075496D01*
X0217889Y0077348D01*
X0217271Y0077965D01*
X0215420Y0076731D02*
X0214185Y0077965D01*
X0216654Y0082863D02*
X0216037Y0083480D01*
X0216037Y0085331D01*
X0214803Y0085331D02*
X0217271Y0085331D01*
X0217889Y0084714D01*
X0217889Y0083480D01*
X0217271Y0082863D01*
X0216654Y0082863D01*
X0214185Y0084714D02*
X0214803Y0085331D01*
X0224028Y0084714D02*
X0224028Y0083480D01*
X0224645Y0082863D01*
X0227114Y0085331D01*
X0224645Y0085331D01*
X0224028Y0084714D01*
X0224645Y0082863D02*
X0227114Y0082863D01*
X0227731Y0083480D01*
X0227731Y0084714D01*
X0227114Y0085331D01*
X0227114Y0081648D02*
X0226497Y0081648D01*
X0225880Y0081031D01*
X0225262Y0081648D01*
X0224645Y0081648D01*
X0224028Y0081031D01*
X0224028Y0079797D01*
X0224645Y0079179D01*
X0224028Y0077965D02*
X0225262Y0076731D01*
X0225262Y0077348D02*
X0225262Y0075496D01*
X0224028Y0075496D02*
X0227731Y0075496D01*
X0227731Y0077348D01*
X0227114Y0077965D01*
X0225880Y0077965D01*
X0225262Y0077348D01*
X0227114Y0079179D02*
X0227731Y0079797D01*
X0227731Y0081031D01*
X0227114Y0081648D01*
X0225880Y0081031D02*
X0225880Y0080414D01*
X0233870Y0081031D02*
X0233870Y0079797D01*
X0234488Y0079179D01*
X0233870Y0077965D02*
X0235105Y0076731D01*
X0235105Y0077348D02*
X0235105Y0075496D01*
X0233870Y0075496D02*
X0237574Y0075496D01*
X0237574Y0077348D01*
X0236956Y0077965D01*
X0235722Y0077965D01*
X0235105Y0077348D01*
X0236956Y0079179D02*
X0237574Y0079797D01*
X0237574Y0081031D01*
X0236956Y0081648D01*
X0236339Y0081648D01*
X0235722Y0081031D01*
X0235105Y0081648D01*
X0234488Y0081648D01*
X0233870Y0081031D01*
X0233870Y0082863D02*
X0233870Y0085331D01*
X0233870Y0084097D02*
X0237574Y0084097D01*
X0236339Y0082863D01*
X0235722Y0081031D02*
X0235722Y0080414D01*
X0243713Y0081031D02*
X0243713Y0079797D01*
X0244330Y0079179D01*
X0243713Y0077965D02*
X0244947Y0076731D01*
X0244947Y0077348D02*
X0244947Y0075496D01*
X0243713Y0075496D02*
X0247416Y0075496D01*
X0247416Y0077348D01*
X0246799Y0077965D01*
X0245565Y0077965D01*
X0244947Y0077348D01*
X0246799Y0079179D02*
X0247416Y0079797D01*
X0247416Y0081031D01*
X0246799Y0081648D01*
X0246182Y0081648D01*
X0245565Y0081031D01*
X0244947Y0081648D01*
X0244330Y0081648D01*
X0243713Y0081031D01*
X0243713Y0082863D02*
X0246182Y0085331D01*
X0246799Y0085331D01*
X0247416Y0084714D01*
X0247416Y0083480D01*
X0246799Y0082863D01*
X0245565Y0081031D02*
X0245565Y0080414D01*
X0243713Y0082863D02*
X0243713Y0085331D01*
X0284107Y0089946D02*
X0284107Y0091397D01*
X0284591Y0091881D01*
X0285558Y0091881D01*
X0286042Y0091397D01*
X0287054Y0091881D02*
X0288505Y0091881D01*
X0288989Y0091397D01*
X0288989Y0090429D01*
X0288505Y0089946D01*
X0287054Y0089946D01*
X0286042Y0089946D02*
X0286042Y0092848D01*
X0289985Y0091881D02*
X0290953Y0091881D01*
X0290469Y0092364D02*
X0290469Y0090429D01*
X0289985Y0089946D01*
X0291950Y0089946D02*
X0292917Y0089946D01*
X0292433Y0089946D02*
X0292433Y0091881D01*
X0292917Y0091881D01*
X0292433Y0092848D02*
X0292433Y0093332D01*
X0293929Y0092364D02*
X0293929Y0091397D01*
X0294413Y0090913D01*
X0295864Y0090913D01*
X0295864Y0089946D02*
X0295864Y0092848D01*
X0294413Y0092848D01*
X0293929Y0092364D01*
X0299822Y0091397D02*
X0299822Y0089946D01*
X0300789Y0089946D02*
X0300789Y0091397D01*
X0300306Y0091881D01*
X0299822Y0091397D01*
X0300789Y0091397D02*
X0301273Y0091881D01*
X0301757Y0091881D01*
X0301757Y0089946D01*
X0302768Y0089946D02*
X0302768Y0091397D01*
X0303252Y0091881D01*
X0303736Y0091397D01*
X0303736Y0089946D01*
X0304703Y0089946D02*
X0304703Y0091881D01*
X0304220Y0091881D01*
X0303736Y0091397D01*
X0305715Y0091881D02*
X0306199Y0091397D01*
X0307166Y0091397D01*
X0307650Y0091881D01*
X0307650Y0092364D01*
X0307166Y0092848D01*
X0306199Y0092848D01*
X0305715Y0092364D01*
X0305715Y0091881D01*
X0306199Y0091397D02*
X0305715Y0090913D01*
X0305715Y0090429D01*
X0306199Y0089946D01*
X0307166Y0089946D01*
X0307650Y0090429D01*
X0307650Y0090913D01*
X0307166Y0091397D01*
X0308639Y0090429D02*
X0308639Y0089946D01*
X0309123Y0089946D01*
X0309123Y0090429D01*
X0308639Y0090429D01*
X0310135Y0090429D02*
X0310618Y0089946D01*
X0311586Y0089946D01*
X0312070Y0090429D01*
X0310135Y0092364D01*
X0310135Y0090429D01*
X0312070Y0090429D02*
X0312070Y0092364D01*
X0311586Y0092848D01*
X0310618Y0092848D01*
X0310135Y0092364D01*
X0247416Y0053218D02*
X0246799Y0053835D01*
X0246182Y0053835D01*
X0245565Y0053218D01*
X0244947Y0053835D01*
X0244330Y0053835D01*
X0243713Y0053218D01*
X0243713Y0051984D01*
X0244330Y0051366D01*
X0243713Y0050152D02*
X0243713Y0047683D01*
X0246182Y0050152D01*
X0246799Y0050152D01*
X0247416Y0049535D01*
X0247416Y0048301D01*
X0246799Y0047683D01*
X0246799Y0046469D02*
X0245565Y0046469D01*
X0244947Y0045852D01*
X0244947Y0044000D01*
X0243713Y0044000D02*
X0247416Y0044000D01*
X0247416Y0045852D01*
X0246799Y0046469D01*
X0244947Y0045235D02*
X0243713Y0046469D01*
X0246799Y0051366D02*
X0247416Y0051984D01*
X0247416Y0053218D01*
X0245565Y0053218D02*
X0245565Y0052601D01*
X0233637Y0053218D02*
X0233637Y0051984D01*
X0233019Y0051366D01*
X0233019Y0050152D02*
X0232402Y0050152D01*
X0229933Y0047683D01*
X0229933Y0050152D01*
X0229933Y0051366D02*
X0232402Y0053835D01*
X0233019Y0053835D01*
X0233637Y0053218D01*
X0233019Y0050152D02*
X0233637Y0049535D01*
X0233637Y0048301D01*
X0233019Y0047683D01*
X0233019Y0046469D02*
X0231785Y0046469D01*
X0231168Y0045852D01*
X0231168Y0044000D01*
X0229933Y0044000D02*
X0233637Y0044000D01*
X0233637Y0045852D01*
X0233019Y0046469D01*
X0231168Y0045235D02*
X0229933Y0046469D01*
X0229933Y0051366D02*
X0229933Y0053835D01*
X0219857Y0052601D02*
X0216154Y0052601D01*
X0216154Y0053835D02*
X0216154Y0051366D01*
X0216154Y0050152D02*
X0216154Y0047683D01*
X0218623Y0050152D01*
X0219240Y0050152D01*
X0219857Y0049535D01*
X0219857Y0048301D01*
X0219240Y0047683D01*
X0219240Y0046469D02*
X0218006Y0046469D01*
X0217388Y0045852D01*
X0217388Y0044000D01*
X0216154Y0044000D02*
X0219857Y0044000D01*
X0219857Y0045852D01*
X0219240Y0046469D01*
X0217388Y0045235D02*
X0216154Y0046469D01*
X0218623Y0051366D02*
X0219857Y0052601D01*
X0206078Y0053218D02*
X0205460Y0053835D01*
X0202992Y0051366D01*
X0202374Y0051984D01*
X0202374Y0053218D01*
X0202992Y0053835D01*
X0205460Y0053835D01*
X0206078Y0053218D02*
X0206078Y0051984D01*
X0205460Y0051366D01*
X0202992Y0051366D01*
X0202374Y0050152D02*
X0202374Y0047683D01*
X0204843Y0050152D01*
X0205460Y0050152D01*
X0206078Y0049535D01*
X0206078Y0048301D01*
X0205460Y0047683D01*
X0205460Y0046469D02*
X0204226Y0046469D01*
X0203609Y0045852D01*
X0203609Y0044000D01*
X0203609Y0045235D02*
X0202374Y0046469D01*
X0202374Y0044000D02*
X0206078Y0044000D01*
X0206078Y0045852D01*
X0205460Y0046469D01*
X0192298Y0045852D02*
X0192298Y0044000D01*
X0188595Y0044000D01*
X0189829Y0044000D02*
X0189829Y0045852D01*
X0190446Y0046469D01*
X0191681Y0046469D01*
X0192298Y0045852D01*
X0191064Y0047683D02*
X0192298Y0048918D01*
X0188595Y0048918D01*
X0188595Y0050152D02*
X0188595Y0047683D01*
X0188595Y0046469D02*
X0189829Y0045235D01*
X0189212Y0051366D02*
X0188595Y0051984D01*
X0188595Y0053218D01*
X0189212Y0053835D01*
X0191681Y0053835D01*
X0192298Y0053218D01*
X0192298Y0051984D01*
X0191681Y0051366D01*
X0191064Y0051366D01*
X0190446Y0051984D01*
X0190446Y0053835D01*
X0178519Y0053218D02*
X0177901Y0053835D01*
X0177284Y0053835D01*
X0176667Y0053218D01*
X0176667Y0051984D01*
X0177284Y0051366D01*
X0177901Y0051366D01*
X0178519Y0051984D01*
X0178519Y0053218D01*
X0176667Y0053218D02*
X0176050Y0053835D01*
X0175433Y0053835D01*
X0174815Y0053218D01*
X0174815Y0051984D01*
X0175433Y0051366D01*
X0176050Y0051366D01*
X0176667Y0051984D01*
X0174815Y0050152D02*
X0174815Y0047683D01*
X0174815Y0046469D02*
X0176050Y0045235D01*
X0176050Y0045852D02*
X0176050Y0044000D01*
X0174815Y0044000D02*
X0178519Y0044000D01*
X0178519Y0045852D01*
X0177901Y0046469D01*
X0176667Y0046469D01*
X0176050Y0045852D01*
X0177284Y0047683D02*
X0178519Y0048918D01*
X0174815Y0048918D01*
X0164739Y0048918D02*
X0161036Y0048918D01*
X0161036Y0050152D02*
X0161036Y0047683D01*
X0161036Y0046469D02*
X0162270Y0045235D01*
X0162270Y0045852D02*
X0162270Y0044000D01*
X0161036Y0044000D02*
X0164739Y0044000D01*
X0164739Y0045852D01*
X0164122Y0046469D01*
X0162887Y0046469D01*
X0162270Y0045852D01*
X0163505Y0047683D02*
X0164739Y0048918D01*
X0164739Y0051366D02*
X0164739Y0053835D01*
X0164122Y0053835D01*
X0161653Y0051366D01*
X0161036Y0051366D01*
X0164122Y0016434D02*
X0161653Y0013965D01*
X0161036Y0013965D01*
X0161036Y0012751D02*
X0161036Y0010282D01*
X0161036Y0009067D02*
X0162270Y0007833D01*
X0162270Y0008450D02*
X0162270Y0006599D01*
X0161036Y0006599D02*
X0164739Y0006599D01*
X0164739Y0008450D01*
X0164122Y0009067D01*
X0162887Y0009067D01*
X0162270Y0008450D01*
X0163505Y0010282D02*
X0164739Y0011516D01*
X0161036Y0011516D01*
X0164739Y0013965D02*
X0164739Y0016434D01*
X0164122Y0016434D01*
X0174815Y0015816D02*
X0174815Y0014582D01*
X0175433Y0013965D01*
X0176050Y0013965D01*
X0176667Y0014582D01*
X0176667Y0015816D01*
X0176050Y0016434D01*
X0175433Y0016434D01*
X0174815Y0015816D01*
X0176667Y0015816D02*
X0177284Y0016434D01*
X0177901Y0016434D01*
X0178519Y0015816D01*
X0178519Y0014582D01*
X0177901Y0013965D01*
X0177284Y0013965D01*
X0176667Y0014582D01*
X0174815Y0012751D02*
X0174815Y0010282D01*
X0174815Y0009067D02*
X0176050Y0007833D01*
X0176050Y0008450D02*
X0176050Y0006599D01*
X0174815Y0006599D02*
X0178519Y0006599D01*
X0178519Y0008450D01*
X0177901Y0009067D01*
X0176667Y0009067D01*
X0176050Y0008450D01*
X0177284Y0010282D02*
X0178519Y0011516D01*
X0174815Y0011516D01*
X0188595Y0011516D02*
X0192298Y0011516D01*
X0191064Y0010282D01*
X0191681Y0009067D02*
X0190446Y0009067D01*
X0189829Y0008450D01*
X0189829Y0006599D01*
X0189829Y0007833D02*
X0188595Y0009067D01*
X0188595Y0010282D02*
X0188595Y0012751D01*
X0189212Y0013965D02*
X0188595Y0014582D01*
X0188595Y0015816D01*
X0189212Y0016434D01*
X0191681Y0016434D01*
X0192298Y0015816D01*
X0192298Y0014582D01*
X0191681Y0013965D01*
X0191064Y0013965D01*
X0190446Y0014582D01*
X0190446Y0016434D01*
X0191681Y0009067D02*
X0192298Y0008450D01*
X0192298Y0006599D01*
X0188595Y0006599D01*
X0202374Y0006599D02*
X0206078Y0006599D01*
X0206078Y0008450D01*
X0205460Y0009067D01*
X0204226Y0009067D01*
X0203609Y0008450D01*
X0203609Y0006599D01*
X0203609Y0007833D02*
X0202374Y0009067D01*
X0202374Y0010282D02*
X0204843Y0012751D01*
X0205460Y0012751D01*
X0206078Y0012133D01*
X0206078Y0010899D01*
X0205460Y0010282D01*
X0202374Y0010282D02*
X0202374Y0012751D01*
X0202992Y0013965D02*
X0205460Y0016434D01*
X0202992Y0016434D01*
X0202374Y0015816D01*
X0202374Y0014582D01*
X0202992Y0013965D01*
X0205460Y0013965D01*
X0206078Y0014582D01*
X0206078Y0015816D01*
X0205460Y0016434D01*
X0216154Y0016434D02*
X0216154Y0013965D01*
X0216154Y0012751D02*
X0216154Y0010282D01*
X0218623Y0012751D01*
X0219240Y0012751D01*
X0219857Y0012133D01*
X0219857Y0010899D01*
X0219240Y0010282D01*
X0219240Y0009067D02*
X0218006Y0009067D01*
X0217388Y0008450D01*
X0217388Y0006599D01*
X0217388Y0007833D02*
X0216154Y0009067D01*
X0216154Y0006599D02*
X0219857Y0006599D01*
X0219857Y0008450D01*
X0219240Y0009067D01*
X0218623Y0013965D02*
X0219857Y0015199D01*
X0216154Y0015199D01*
X0229933Y0013965D02*
X0232402Y0016434D01*
X0233019Y0016434D01*
X0233637Y0015816D01*
X0233637Y0014582D01*
X0233019Y0013965D01*
X0233019Y0012751D02*
X0233637Y0012133D01*
X0233637Y0010899D01*
X0233019Y0010282D01*
X0233019Y0009067D02*
X0231785Y0009067D01*
X0231168Y0008450D01*
X0231168Y0006599D01*
X0231168Y0007833D02*
X0229933Y0009067D01*
X0229933Y0010282D02*
X0232402Y0012751D01*
X0233019Y0012751D01*
X0229933Y0012751D02*
X0229933Y0010282D01*
X0233019Y0009067D02*
X0233637Y0008450D01*
X0233637Y0006599D01*
X0229933Y0006599D01*
X0229933Y0013965D02*
X0229933Y0016434D01*
X0243713Y0015816D02*
X0243713Y0014582D01*
X0244330Y0013965D01*
X0243713Y0012751D02*
X0243713Y0010282D01*
X0246182Y0012751D01*
X0246799Y0012751D01*
X0247416Y0012133D01*
X0247416Y0010899D01*
X0246799Y0010282D01*
X0246799Y0009067D02*
X0245565Y0009067D01*
X0244947Y0008450D01*
X0244947Y0006599D01*
X0244947Y0007833D02*
X0243713Y0009067D01*
X0243713Y0006599D02*
X0247416Y0006599D01*
X0247416Y0008450D01*
X0246799Y0009067D01*
X0246799Y0013965D02*
X0247416Y0014582D01*
X0247416Y0015816D01*
X0246799Y0016434D01*
X0246182Y0016434D01*
X0245565Y0015816D01*
X0244947Y0016434D01*
X0244330Y0016434D01*
X0243713Y0015816D01*
X0245565Y0015816D02*
X0245565Y0015199D01*
X0339948Y0010986D02*
X0339948Y0010369D01*
X0340565Y0009752D01*
X0341800Y0009752D01*
X0342417Y0010369D01*
X0342417Y0010986D01*
X0341800Y0011603D01*
X0340565Y0011603D01*
X0339948Y0010986D01*
X0340565Y0009752D02*
X0339948Y0009134D01*
X0339948Y0008517D01*
X0340565Y0007900D01*
X0341800Y0007900D01*
X0342417Y0008517D01*
X0342417Y0009134D01*
X0341800Y0009752D01*
X0343631Y0011603D02*
X0346100Y0011603D01*
X0346100Y0007900D01*
X0346100Y0009752D02*
X0344866Y0009752D01*
D14*
X0246579Y0027341D02*
X0244610Y0027341D01*
X0245594Y0028325D02*
X0245594Y0026356D01*
X0232799Y0027341D02*
X0230831Y0027341D01*
X0231815Y0028325D02*
X0231815Y0026356D01*
X0219020Y0027341D02*
X0217051Y0027341D01*
X0218035Y0028325D02*
X0218035Y0026356D01*
X0205240Y0027341D02*
X0203272Y0027341D01*
X0204256Y0028325D02*
X0204256Y0026356D01*
X0191461Y0027341D02*
X0189492Y0027341D01*
X0190476Y0028325D02*
X0190476Y0026356D01*
X0177681Y0027341D02*
X0175713Y0027341D01*
X0176697Y0028325D02*
X0176697Y0026356D01*
X0163902Y0027341D02*
X0161933Y0027341D01*
X0162917Y0028325D02*
X0162917Y0026356D01*
X0162917Y0061789D02*
X0162917Y0063758D01*
X0161933Y0062774D02*
X0163902Y0062774D01*
X0175713Y0062774D02*
X0177681Y0062774D01*
X0176697Y0063758D02*
X0176697Y0061789D01*
X0189492Y0062774D02*
X0191461Y0062774D01*
X0190476Y0063758D02*
X0190476Y0061789D01*
X0203272Y0062774D02*
X0205240Y0062774D01*
X0204256Y0063758D02*
X0204256Y0061789D01*
X0217051Y0062774D02*
X0219020Y0062774D01*
X0218035Y0063758D02*
X0218035Y0061789D01*
X0230831Y0062774D02*
X0232799Y0062774D01*
X0231815Y0063758D02*
X0231815Y0061789D01*
X0244610Y0062774D02*
X0246579Y0062774D01*
X0245594Y0063758D02*
X0245594Y0061789D01*
X0245594Y0093285D02*
X0245594Y0095254D01*
X0244610Y0094270D02*
X0246579Y0094270D01*
X0236736Y0094270D02*
X0234768Y0094270D01*
X0235752Y0095254D02*
X0235752Y0093285D01*
X0226894Y0094270D02*
X0224925Y0094270D01*
X0225909Y0095254D02*
X0225909Y0093285D01*
X0217051Y0094270D02*
X0215083Y0094270D01*
X0216067Y0095254D02*
X0216067Y0093285D01*
X0207209Y0094270D02*
X0205240Y0094270D01*
X0206224Y0095254D02*
X0206224Y0093285D01*
X0197366Y0094270D02*
X0195398Y0094270D01*
X0196382Y0095254D02*
X0196382Y0093285D01*
X0187524Y0094270D02*
X0185555Y0094270D01*
X0186539Y0095254D02*
X0186539Y0093285D01*
X0177681Y0094270D02*
X0175713Y0094270D01*
X0176697Y0095254D02*
X0176697Y0093285D01*
X0176697Y0120844D02*
X0176697Y0122813D01*
X0175713Y0121829D02*
X0177681Y0121829D01*
X0185555Y0121829D02*
X0187524Y0121829D01*
X0186539Y0122813D02*
X0186539Y0120844D01*
X0195398Y0121829D02*
X0197366Y0121829D01*
X0196382Y0122813D02*
X0196382Y0120844D01*
X0205240Y0121829D02*
X0207209Y0121829D01*
X0206224Y0122813D02*
X0206224Y0120844D01*
X0215083Y0121829D02*
X0217051Y0121829D01*
X0216067Y0122813D02*
X0216067Y0120844D01*
X0224925Y0121829D02*
X0226894Y0121829D01*
X0225909Y0122813D02*
X0225909Y0120844D01*
X0234768Y0121829D02*
X0236736Y0121829D01*
X0235752Y0122813D02*
X0235752Y0120844D01*
X0244610Y0121829D02*
X0246579Y0121829D01*
X0245594Y0122813D02*
X0245594Y0120844D01*
X0234177Y0132459D02*
X0194807Y0171829D01*
X0214492Y0171829D02*
X0214492Y0132459D01*
X0194807Y0132459D02*
X0234177Y0171829D01*
X0234177Y0152144D02*
X0194807Y0152144D01*
X0292839Y0119860D02*
X0300713Y0119860D01*
X0296776Y0115923D02*
X0296776Y0123797D01*
X0043823Y0171041D02*
X0037917Y0171041D01*
X0040870Y0168089D02*
X0040870Y0173994D01*
D15*
X0040870Y0181791D03*
X0040870Y0181791D03*
D16*
X0040870Y0160291D03*
X0040870Y0160291D03*
X0031770Y0160291D03*
X0031770Y0160291D03*
X0049970Y0160291D03*
X0049970Y0160291D03*
D17*
X0040870Y0167041D02*
X0040870Y0175041D01*
X0036870Y0171041D02*
X0044870Y0171041D01*
X0019291Y0186750D02*
X0013709Y0186750D01*
X0016500Y0183959D02*
X0016500Y0189541D01*
X0086083Y0171041D02*
X0094083Y0171041D01*
X0090083Y0167041D02*
X0090083Y0175041D01*
X0136500Y0150474D02*
X0136500Y0143026D01*
X0135224Y0141750D02*
X0127776Y0141750D01*
X0126500Y0140474D02*
X0126500Y0133026D01*
X0125224Y0131750D02*
X0117776Y0131750D01*
X0121500Y0128026D02*
X0121500Y0135474D01*
X0122776Y0136750D02*
X0130224Y0136750D01*
X0131500Y0138026D02*
X0131500Y0145474D01*
X0132776Y0146750D02*
X0140224Y0146750D01*
X0141500Y0148026D02*
X0141500Y0155474D01*
X0142776Y0156750D02*
X0150224Y0156750D01*
X0151500Y0158026D02*
X0151500Y0165474D01*
X0152776Y0166750D02*
X0160224Y0166750D01*
X0156500Y0163026D02*
X0156500Y0170474D01*
X0155224Y0161750D02*
X0147776Y0161750D01*
X0146500Y0160474D02*
X0146500Y0153026D01*
X0145224Y0151750D02*
X0137776Y0151750D01*
X0151500Y0145750D02*
X0151500Y0137750D01*
X0150500Y0136750D02*
X0142500Y0136750D01*
X0141500Y0135750D02*
X0141500Y0127750D01*
X0140500Y0126750D02*
X0132500Y0126750D01*
X0131500Y0125750D02*
X0131500Y0117750D01*
X0127500Y0121750D02*
X0135500Y0121750D01*
X0136500Y0122750D02*
X0136500Y0130750D01*
X0137500Y0131750D02*
X0145500Y0131750D01*
X0146500Y0132750D02*
X0146500Y0140750D01*
X0147500Y0141750D02*
X0155500Y0141750D01*
X0156500Y0142750D02*
X0156500Y0150750D01*
X0157500Y0151750D02*
X0165500Y0151750D01*
X0166500Y0152750D02*
X0166500Y0160750D01*
X0162500Y0156750D02*
X0170500Y0156750D01*
X0161500Y0155750D02*
X0161500Y0147750D01*
X0160500Y0146750D02*
X0152500Y0146750D01*
X0176697Y0124495D02*
X0176697Y0119162D01*
X0174030Y0121829D02*
X0179364Y0121829D01*
X0183873Y0121829D02*
X0189206Y0121829D01*
X0186539Y0119162D02*
X0186539Y0124495D01*
X0193715Y0121829D02*
X0199049Y0121829D01*
X0196382Y0119162D02*
X0196382Y0124495D01*
X0203558Y0121829D02*
X0208891Y0121829D01*
X0206224Y0119162D02*
X0206224Y0124495D01*
X0213400Y0121829D02*
X0218734Y0121829D01*
X0216067Y0119162D02*
X0216067Y0124495D01*
X0223243Y0121829D02*
X0228576Y0121829D01*
X0225909Y0119162D02*
X0225909Y0124495D01*
X0233085Y0121829D02*
X0238419Y0121829D01*
X0235752Y0119162D02*
X0235752Y0124495D01*
X0242928Y0121829D02*
X0248261Y0121829D01*
X0245594Y0119162D02*
X0245594Y0124495D01*
X0245594Y0096936D02*
X0245594Y0091603D01*
X0242928Y0094270D02*
X0248261Y0094270D01*
X0238419Y0094270D02*
X0233085Y0094270D01*
X0235752Y0091603D02*
X0235752Y0096936D01*
X0228576Y0094270D02*
X0223243Y0094270D01*
X0225909Y0096936D02*
X0225909Y0091603D01*
X0218734Y0094270D02*
X0213400Y0094270D01*
X0216067Y0091603D02*
X0216067Y0096936D01*
X0208891Y0094270D02*
X0203558Y0094270D01*
X0206224Y0096936D02*
X0206224Y0091603D01*
X0199049Y0094270D02*
X0193715Y0094270D01*
X0196382Y0091603D02*
X0196382Y0096936D01*
X0189206Y0094270D02*
X0183873Y0094270D01*
X0186539Y0096936D02*
X0186539Y0091603D01*
X0179364Y0094270D02*
X0174030Y0094270D01*
X0176697Y0091603D02*
X0176697Y0096936D01*
X0134167Y0071750D02*
X0128833Y0071750D01*
X0131500Y0069083D02*
X0131500Y0074417D01*
X0119167Y0071750D02*
X0113833Y0071750D01*
X0116500Y0069083D02*
X0116500Y0074417D01*
X0104167Y0071750D02*
X0098833Y0071750D01*
X0101500Y0069083D02*
X0101500Y0074417D01*
X0088167Y0071750D02*
X0082833Y0071750D01*
X0085500Y0069083D02*
X0085500Y0074417D01*
X0081500Y0078026D02*
X0081500Y0085474D01*
X0077776Y0081750D02*
X0085224Y0081750D01*
X0074167Y0085750D02*
X0068833Y0085750D01*
X0071500Y0083083D02*
X0071500Y0088417D01*
X0061500Y0085474D02*
X0061500Y0078026D01*
X0057776Y0081750D02*
X0065224Y0081750D01*
X0057500Y0074417D02*
X0057500Y0069083D01*
X0054833Y0071750D02*
X0060167Y0071750D01*
X0061500Y0065474D02*
X0061500Y0058026D01*
X0057776Y0061750D02*
X0065224Y0061750D01*
X0068833Y0057750D02*
X0074167Y0057750D01*
X0071500Y0055083D02*
X0071500Y0060417D01*
X0077776Y0061750D02*
X0085224Y0061750D01*
X0081500Y0058026D02*
X0081500Y0065474D01*
X0092750Y0054500D02*
X0092750Y0046500D01*
X0088750Y0050500D02*
X0096750Y0050500D01*
X0102964Y0044286D02*
X0102964Y0036286D01*
X0098964Y0040286D02*
X0106964Y0040286D01*
X0114000Y0033250D02*
X0114000Y0025250D01*
X0110000Y0029250D02*
X0118000Y0029250D01*
X0160251Y0027341D02*
X0165584Y0027341D01*
X0162917Y0024674D02*
X0162917Y0030007D01*
X0174030Y0027341D02*
X0179364Y0027341D01*
X0176697Y0024674D02*
X0176697Y0030007D01*
X0187810Y0027341D02*
X0193143Y0027341D01*
X0190476Y0024674D02*
X0190476Y0030007D01*
X0201589Y0027341D02*
X0206923Y0027341D01*
X0204256Y0024674D02*
X0204256Y0030007D01*
X0215369Y0027341D02*
X0220702Y0027341D01*
X0218035Y0024674D02*
X0218035Y0030007D01*
X0229148Y0027341D02*
X0234482Y0027341D01*
X0231815Y0024674D02*
X0231815Y0030007D01*
X0242928Y0027341D02*
X0248261Y0027341D01*
X0245594Y0024674D02*
X0245594Y0030007D01*
X0295000Y0039250D02*
X0303000Y0039250D01*
X0299000Y0035250D02*
X0299000Y0043250D01*
X0299000Y0055250D02*
X0299000Y0063250D01*
X0295000Y0059250D02*
X0303000Y0059250D01*
X0316500Y0065317D02*
X0316500Y0073183D01*
X0312567Y0069250D02*
X0320433Y0069250D01*
X0334000Y0063250D02*
X0334000Y0055250D01*
X0330000Y0059250D02*
X0338000Y0059250D01*
X0334000Y0043250D02*
X0334000Y0035250D01*
X0330000Y0039250D02*
X0338000Y0039250D01*
X0320433Y0029250D02*
X0312567Y0029250D01*
X0316500Y0025317D02*
X0316500Y0033183D01*
X0336500Y0019541D02*
X0336500Y0013959D01*
X0333709Y0016750D02*
X0339291Y0016750D01*
X0248261Y0062774D02*
X0242928Y0062774D01*
X0245594Y0065440D02*
X0245594Y0060107D01*
X0234482Y0062774D02*
X0229148Y0062774D01*
X0231815Y0060107D02*
X0231815Y0065440D01*
X0220702Y0062774D02*
X0215369Y0062774D01*
X0218035Y0065440D02*
X0218035Y0060107D01*
X0206923Y0062774D02*
X0201589Y0062774D01*
X0204256Y0060107D02*
X0204256Y0065440D01*
X0193143Y0062774D02*
X0187810Y0062774D01*
X0190476Y0065440D02*
X0190476Y0060107D01*
X0179364Y0062774D02*
X0174030Y0062774D01*
X0176697Y0060107D02*
X0176697Y0065440D01*
X0165584Y0062774D02*
X0160251Y0062774D01*
X0162917Y0065440D02*
X0162917Y0060107D01*
X0103214Y0099464D02*
X0103214Y0107464D01*
X0099214Y0103464D02*
X0107214Y0103464D01*
X0114000Y0110250D02*
X0114000Y0118250D01*
X0110000Y0114250D02*
X0118000Y0114250D01*
X0092750Y0097000D02*
X0092750Y0089000D01*
X0088750Y0093000D02*
X0096750Y0093000D01*
X0074167Y0101750D02*
X0068833Y0101750D01*
X0071500Y0099083D02*
X0071500Y0104417D01*
X0071500Y0114083D02*
X0071500Y0119417D01*
X0068833Y0116750D02*
X0074167Y0116750D01*
X0071500Y0129083D02*
X0071500Y0134417D01*
X0068833Y0131750D02*
X0074167Y0131750D01*
X0039786Y0107714D02*
X0039786Y0099714D01*
X0035786Y0103714D02*
X0043786Y0103714D01*
X0050500Y0097000D02*
X0050500Y0089000D01*
X0046500Y0093000D02*
X0054500Y0093000D01*
X0029000Y0110250D02*
X0029000Y0118250D01*
X0025000Y0114250D02*
X0033000Y0114250D01*
X0026500Y0074417D02*
X0026500Y0069083D01*
X0023833Y0071750D02*
X0029167Y0071750D01*
X0038833Y0071750D02*
X0044167Y0071750D01*
X0041500Y0069083D02*
X0041500Y0074417D01*
X0014167Y0071750D02*
X0008833Y0071750D01*
X0011500Y0069083D02*
X0011500Y0074417D01*
X0050250Y0054500D02*
X0050250Y0046500D01*
X0046250Y0050500D02*
X0054250Y0050500D01*
X0040036Y0044286D02*
X0040036Y0036286D01*
X0036036Y0040286D02*
X0044036Y0040286D01*
X0029000Y0033250D02*
X0029000Y0025250D01*
X0025000Y0029250D02*
X0033000Y0029250D01*
X0016500Y0019541D02*
X0016500Y0013959D01*
X0013709Y0016750D02*
X0019291Y0016750D01*
X0068833Y0011750D02*
X0074167Y0011750D01*
X0071500Y0009083D02*
X0071500Y0014417D01*
X0071500Y0024083D02*
X0071500Y0029417D01*
X0068833Y0026750D02*
X0074167Y0026750D01*
X0071500Y0039083D02*
X0071500Y0044417D01*
X0068833Y0041750D02*
X0074167Y0041750D01*
X0292776Y0119860D02*
X0300776Y0119860D01*
X0296776Y0115860D02*
X0296776Y0123860D01*
X0324689Y0172148D02*
X0324689Y0177730D01*
X0321898Y0174939D02*
X0327480Y0174939D01*
X0344020Y0191997D02*
X0344020Y0197330D01*
X0341353Y0194663D02*
X0346686Y0194663D01*
D18*
X0309177Y0133659D02*
X0282976Y0133659D01*
X0282976Y0106061D01*
X0310575Y0106061D01*
X0310575Y0132262D01*
X0309177Y0133659D01*
X0306162Y0130660D02*
X0306164Y0130735D01*
X0306170Y0130809D01*
X0306180Y0130883D01*
X0306193Y0130956D01*
X0306211Y0131029D01*
X0306232Y0131100D01*
X0306257Y0131171D01*
X0306286Y0131240D01*
X0306319Y0131307D01*
X0306355Y0131372D01*
X0306394Y0131436D01*
X0306436Y0131497D01*
X0306482Y0131556D01*
X0306531Y0131613D01*
X0306583Y0131666D01*
X0306637Y0131717D01*
X0306694Y0131766D01*
X0306754Y0131810D01*
X0306816Y0131852D01*
X0306880Y0131891D01*
X0306946Y0131926D01*
X0307013Y0131957D01*
X0307083Y0131985D01*
X0307153Y0132009D01*
X0307225Y0132030D01*
X0307298Y0132046D01*
X0307371Y0132059D01*
X0307446Y0132068D01*
X0307520Y0132073D01*
X0307595Y0132074D01*
X0307669Y0132071D01*
X0307744Y0132064D01*
X0307817Y0132053D01*
X0307891Y0132039D01*
X0307963Y0132020D01*
X0308034Y0131998D01*
X0308104Y0131972D01*
X0308173Y0131942D01*
X0308239Y0131909D01*
X0308304Y0131872D01*
X0308367Y0131832D01*
X0308428Y0131788D01*
X0308486Y0131742D01*
X0308542Y0131692D01*
X0308595Y0131640D01*
X0308646Y0131585D01*
X0308693Y0131527D01*
X0308737Y0131467D01*
X0308778Y0131404D01*
X0308816Y0131340D01*
X0308850Y0131274D01*
X0308881Y0131205D01*
X0308908Y0131136D01*
X0308931Y0131065D01*
X0308950Y0130993D01*
X0308966Y0130920D01*
X0308978Y0130846D01*
X0308986Y0130772D01*
X0308990Y0130697D01*
X0308990Y0130623D01*
X0308986Y0130548D01*
X0308978Y0130474D01*
X0308966Y0130400D01*
X0308950Y0130327D01*
X0308931Y0130255D01*
X0308908Y0130184D01*
X0308881Y0130115D01*
X0308850Y0130046D01*
X0308816Y0129980D01*
X0308778Y0129916D01*
X0308737Y0129853D01*
X0308693Y0129793D01*
X0308646Y0129735D01*
X0308595Y0129680D01*
X0308542Y0129628D01*
X0308486Y0129578D01*
X0308428Y0129532D01*
X0308367Y0129488D01*
X0308304Y0129448D01*
X0308239Y0129411D01*
X0308173Y0129378D01*
X0308104Y0129348D01*
X0308034Y0129322D01*
X0307963Y0129300D01*
X0307891Y0129281D01*
X0307817Y0129267D01*
X0307744Y0129256D01*
X0307669Y0129249D01*
X0307595Y0129246D01*
X0307520Y0129247D01*
X0307446Y0129252D01*
X0307371Y0129261D01*
X0307298Y0129274D01*
X0307225Y0129290D01*
X0307153Y0129311D01*
X0307083Y0129335D01*
X0307013Y0129363D01*
X0306946Y0129394D01*
X0306880Y0129429D01*
X0306816Y0129468D01*
X0306754Y0129510D01*
X0306694Y0129554D01*
X0306637Y0129603D01*
X0306583Y0129654D01*
X0306531Y0129707D01*
X0306482Y0129764D01*
X0306436Y0129823D01*
X0306394Y0129884D01*
X0306355Y0129948D01*
X0306319Y0130013D01*
X0306286Y0130080D01*
X0306257Y0130149D01*
X0306232Y0130220D01*
X0306211Y0130291D01*
X0306193Y0130364D01*
X0306180Y0130437D01*
X0306170Y0130511D01*
X0306164Y0130585D01*
X0306162Y0130660D01*
X0246476Y0122793D02*
X0246476Y0120864D01*
X0244713Y0120864D02*
X0244713Y0122793D01*
X0236634Y0122793D02*
X0236634Y0120864D01*
X0234870Y0120864D02*
X0234870Y0122793D01*
X0226791Y0122793D02*
X0226791Y0120864D01*
X0225028Y0120864D02*
X0225028Y0122793D01*
X0216949Y0122793D02*
X0216949Y0120864D01*
X0215185Y0120864D02*
X0215185Y0122793D01*
X0207106Y0122793D02*
X0207106Y0120864D01*
X0205343Y0120864D02*
X0205343Y0122793D01*
X0197264Y0122793D02*
X0197264Y0120864D01*
X0195500Y0120864D02*
X0195500Y0122793D01*
X0187421Y0122793D02*
X0187421Y0120864D01*
X0185657Y0120864D02*
X0185657Y0122793D01*
X0177579Y0122793D02*
X0177579Y0120864D01*
X0175815Y0120864D02*
X0175815Y0122793D01*
X0148694Y0136538D02*
X0146288Y0138944D01*
X0144306Y0136962D02*
X0146712Y0134556D01*
X0143694Y0131538D02*
X0141288Y0133944D01*
X0139306Y0131962D02*
X0141712Y0129556D01*
X0138694Y0126538D02*
X0136288Y0128944D01*
X0134306Y0126962D02*
X0136712Y0124556D01*
X0133694Y0121538D02*
X0131288Y0123944D01*
X0129306Y0121962D02*
X0131712Y0119556D01*
X0118950Y0113826D02*
X0113611Y0119164D01*
X0109086Y0114639D02*
X0114424Y0109300D01*
X0106124Y0104091D02*
X0103841Y0106374D01*
X0100305Y0102838D02*
X0102588Y0100555D01*
X0094944Y0092788D02*
X0092538Y0095194D01*
X0090556Y0093212D02*
X0092962Y0090806D01*
X0081558Y0083056D02*
X0080194Y0081692D01*
X0081442Y0080444D02*
X0082806Y0081808D01*
X0072382Y0084785D02*
X0072382Y0086715D01*
X0070618Y0086715D02*
X0070618Y0084785D01*
X0062806Y0081692D02*
X0061442Y0083056D01*
X0060194Y0081808D02*
X0061558Y0080444D01*
X0058465Y0072632D02*
X0056535Y0072632D01*
X0056535Y0070868D02*
X0058465Y0070868D01*
X0061558Y0063056D02*
X0060194Y0061692D01*
X0061442Y0060444D02*
X0062806Y0061808D01*
X0070618Y0058715D02*
X0070618Y0056785D01*
X0072382Y0056785D02*
X0072382Y0058715D01*
X0080194Y0061808D02*
X0081558Y0060444D01*
X0082806Y0061692D02*
X0081442Y0063056D01*
X0084535Y0070868D02*
X0086465Y0070868D01*
X0086465Y0072632D02*
X0084535Y0072632D01*
X0100098Y0073451D02*
X0100098Y0070049D01*
X0102902Y0070049D02*
X0102902Y0073451D01*
X0114000Y0073364D02*
X0114000Y0070136D01*
X0119000Y0070136D02*
X0119000Y0073364D01*
X0128300Y0075500D02*
X0128300Y0067950D01*
X0134700Y0067950D02*
X0134700Y0075500D01*
X0160417Y0064388D02*
X0160417Y0061159D01*
X0165417Y0061159D02*
X0165417Y0064388D01*
X0174197Y0064388D02*
X0174197Y0061159D01*
X0179197Y0061159D02*
X0179197Y0064388D01*
X0187976Y0064388D02*
X0187976Y0061159D01*
X0192976Y0061159D02*
X0192976Y0064388D01*
X0201756Y0064388D02*
X0201756Y0061159D01*
X0206756Y0061159D02*
X0206756Y0064388D01*
X0215535Y0064388D02*
X0215535Y0061159D01*
X0220535Y0061159D02*
X0220535Y0064388D01*
X0229315Y0064388D02*
X0229315Y0061159D01*
X0234315Y0061159D02*
X0234315Y0064388D01*
X0243094Y0064388D02*
X0243094Y0061159D01*
X0248094Y0061159D02*
X0248094Y0064388D01*
X0295177Y0054991D02*
X0298452Y0053100D01*
X0299957Y0055708D01*
X0302497Y0060107D02*
X0304052Y0062800D01*
X0300777Y0064690D01*
X0310900Y0066650D02*
X0310900Y0070431D01*
X0310900Y0066650D02*
X0313911Y0066650D01*
X0318991Y0066650D02*
X0322100Y0066650D01*
X0322100Y0070431D01*
X0328948Y0062800D02*
X0332223Y0064690D01*
X0328948Y0062800D02*
X0330454Y0060192D01*
X0332994Y0055793D02*
X0334548Y0053100D01*
X0337823Y0054991D01*
X0334548Y0045400D02*
X0333043Y0042792D01*
X0334548Y0045400D02*
X0337823Y0043509D01*
X0330503Y0038393D02*
X0328948Y0035700D01*
X0332223Y0033810D01*
X0322100Y0031850D02*
X0322100Y0028069D01*
X0322100Y0031850D02*
X0319089Y0031850D01*
X0314009Y0031850D02*
X0310900Y0031850D01*
X0310900Y0028069D01*
X0304052Y0035700D02*
X0300777Y0033810D01*
X0304052Y0035700D02*
X0302546Y0038308D01*
X0300006Y0042707D02*
X0298452Y0045400D01*
X0295177Y0043509D01*
X0248794Y0031091D02*
X0248794Y0023541D01*
X0242394Y0023541D02*
X0242394Y0031091D01*
X0235015Y0031091D02*
X0235015Y0023541D01*
X0228615Y0023541D02*
X0228615Y0031091D01*
X0221235Y0031091D02*
X0221235Y0023541D01*
X0214835Y0023541D02*
X0214835Y0031091D01*
X0207456Y0031091D02*
X0207456Y0023541D01*
X0201056Y0023541D02*
X0201056Y0031091D01*
X0193676Y0031091D02*
X0193676Y0023541D01*
X0187276Y0023541D02*
X0187276Y0031091D01*
X0179897Y0031091D02*
X0179897Y0023541D01*
X0173497Y0023541D02*
X0173497Y0031091D01*
X0166117Y0031091D02*
X0166117Y0023541D01*
X0159717Y0023541D02*
X0159717Y0031091D01*
X0118914Y0029639D02*
X0113576Y0024300D01*
X0109050Y0028826D02*
X0114389Y0034164D01*
X0105874Y0039659D02*
X0103591Y0037376D01*
X0100055Y0040912D02*
X0102338Y0043195D01*
X0094944Y0050712D02*
X0092538Y0048306D01*
X0090556Y0050288D02*
X0092962Y0052694D01*
X0073201Y0043152D02*
X0069799Y0043152D01*
X0069799Y0040348D02*
X0073201Y0040348D01*
X0073114Y0029250D02*
X0069886Y0029250D01*
X0069886Y0024250D02*
X0073114Y0024250D01*
X0075250Y0014950D02*
X0067700Y0014950D01*
X0067700Y0008550D02*
X0075250Y0008550D01*
X0033914Y0028861D02*
X0028576Y0034200D01*
X0024050Y0029674D02*
X0029389Y0024336D01*
X0039409Y0037376D02*
X0037126Y0039659D01*
X0040662Y0043195D02*
X0042945Y0040912D01*
X0050462Y0048306D02*
X0048056Y0050712D01*
X0050038Y0052694D02*
X0052444Y0050288D01*
X0042902Y0070049D02*
X0042902Y0073451D01*
X0040098Y0073451D02*
X0040098Y0070049D01*
X0029000Y0070136D02*
X0029000Y0073364D01*
X0024000Y0073364D02*
X0024000Y0070136D01*
X0014700Y0068000D02*
X0014700Y0075550D01*
X0008300Y0075550D02*
X0008300Y0068000D01*
X0048306Y0092788D02*
X0050712Y0095194D01*
X0052694Y0093212D02*
X0050288Y0090806D01*
X0040412Y0100805D02*
X0042695Y0103088D01*
X0039159Y0106624D02*
X0036876Y0104341D01*
X0028611Y0109336D02*
X0033950Y0114674D01*
X0029424Y0119200D02*
X0024086Y0113861D01*
X0069886Y0114250D02*
X0073114Y0114250D01*
X0073114Y0119250D02*
X0069886Y0119250D01*
X0067750Y0128550D02*
X0075300Y0128550D01*
X0075300Y0134950D02*
X0067750Y0134950D01*
X0069799Y0103152D02*
X0073201Y0103152D01*
X0073201Y0100348D02*
X0069799Y0100348D01*
X0120194Y0131808D02*
X0121558Y0130444D01*
X0122806Y0131692D02*
X0121442Y0133056D01*
X0125194Y0136808D02*
X0126558Y0135444D01*
X0127806Y0136692D02*
X0126442Y0138056D01*
X0130194Y0141808D02*
X0131558Y0140444D01*
X0132806Y0141692D02*
X0131442Y0143056D01*
X0135194Y0146808D02*
X0136558Y0145444D01*
X0137806Y0146692D02*
X0136442Y0148056D01*
X0140194Y0151808D02*
X0141558Y0150444D01*
X0142806Y0151692D02*
X0141442Y0153056D01*
X0145194Y0156808D02*
X0146558Y0155444D01*
X0147806Y0156692D02*
X0146442Y0158056D01*
X0150194Y0161808D02*
X0151558Y0160444D01*
X0152806Y0161692D02*
X0151442Y0163056D01*
X0155194Y0166808D02*
X0156558Y0165444D01*
X0157806Y0166692D02*
X0156442Y0168056D01*
X0166288Y0158944D02*
X0168694Y0156538D01*
X0166712Y0154556D02*
X0164306Y0156962D01*
X0161288Y0153944D02*
X0163694Y0151538D01*
X0161712Y0149556D02*
X0159306Y0151962D01*
X0156288Y0148944D02*
X0158694Y0146538D01*
X0156712Y0144556D02*
X0154306Y0146962D01*
X0151288Y0143944D02*
X0153694Y0141538D01*
X0151712Y0139556D02*
X0149306Y0141962D01*
X0175295Y0095970D02*
X0175295Y0092569D01*
X0178098Y0092569D02*
X0178098Y0095970D01*
X0185138Y0095970D02*
X0185138Y0092569D01*
X0187941Y0092569D02*
X0187941Y0095970D01*
X0194980Y0095970D02*
X0194980Y0092569D01*
X0197783Y0092569D02*
X0197783Y0095970D01*
X0204823Y0095970D02*
X0204823Y0092569D01*
X0207626Y0092569D02*
X0207626Y0095970D01*
X0214665Y0095970D02*
X0214665Y0092569D01*
X0217469Y0092569D02*
X0217469Y0095970D01*
X0224508Y0095970D02*
X0224508Y0092569D01*
X0227311Y0092569D02*
X0227311Y0095970D01*
X0234350Y0095970D02*
X0234350Y0092569D01*
X0237154Y0092569D02*
X0237154Y0095970D01*
X0244193Y0095970D02*
X0244193Y0092569D01*
X0246996Y0092569D02*
X0246996Y0095970D01*
D19*
G36*
X0119091Y0114037D02*
X0121141Y0111987D01*
X0116263Y0107109D01*
X0114213Y0109159D01*
X0119091Y0114037D01*
G37*
G36*
X0111737Y0121391D02*
X0113787Y0119341D01*
X0108909Y0114463D01*
X0106859Y0116513D01*
X0111737Y0121391D01*
G37*
X0076700Y0131750D03*
X0066300Y0131750D03*
G36*
X0029213Y0119341D02*
X0031263Y0121391D01*
X0036141Y0116513D01*
X0034091Y0114463D01*
X0029213Y0119341D01*
G37*
G36*
X0021859Y0111987D02*
X0023909Y0114037D01*
X0028787Y0109159D01*
X0026737Y0107109D01*
X0021859Y0111987D01*
G37*
G36*
X0023909Y0029463D02*
X0021859Y0031513D01*
X0026737Y0036391D01*
X0028787Y0034341D01*
X0023909Y0029463D01*
G37*
G36*
X0031263Y0022109D02*
X0029213Y0024159D01*
X0034091Y0029037D01*
X0036141Y0026987D01*
X0031263Y0022109D01*
G37*
X0066300Y0011750D03*
X0076700Y0011750D03*
G36*
X0113787Y0024159D02*
X0111737Y0022109D01*
X0106859Y0026987D01*
X0108909Y0029037D01*
X0113787Y0024159D01*
G37*
G36*
X0121141Y0031513D02*
X0119091Y0029463D01*
X0114213Y0034341D01*
X0116263Y0036391D01*
X0121141Y0031513D01*
G37*
D20*
G36*
X0107858Y0041273D02*
X0106049Y0039464D01*
X0102152Y0043361D01*
X0103961Y0045170D01*
X0107858Y0041273D01*
G37*
G36*
X0103757Y0037172D02*
X0101948Y0035363D01*
X0098051Y0039260D01*
X0099860Y0041069D01*
X0103757Y0037172D01*
G37*
X0074420Y0026756D03*
X0068620Y0026756D03*
G36*
X0043149Y0041078D02*
X0044958Y0039269D01*
X0041061Y0035372D01*
X0039252Y0037181D01*
X0043149Y0041078D01*
G37*
G36*
X0039048Y0045179D02*
X0040857Y0043370D01*
X0036960Y0039473D01*
X0035151Y0041282D01*
X0039048Y0045179D01*
G37*
G36*
X0034892Y0102726D02*
X0036701Y0104535D01*
X0040598Y0100638D01*
X0038789Y0098829D01*
X0034892Y0102726D01*
G37*
G36*
X0038993Y0106828D02*
X0040802Y0108637D01*
X0044699Y0104740D01*
X0042890Y0102931D01*
X0038993Y0106828D01*
G37*
X0068580Y0116744D03*
X0074380Y0116744D03*
G36*
X0100101Y0102672D02*
X0098292Y0104481D01*
X0102189Y0108378D01*
X0103998Y0106569D01*
X0100101Y0102672D01*
G37*
G36*
X0104202Y0098571D02*
X0102393Y0100380D01*
X0106290Y0104277D01*
X0108099Y0102468D01*
X0104202Y0098571D01*
G37*
D21*
G36*
X0095154Y0092999D02*
X0096285Y0091868D01*
X0093882Y0089465D01*
X0092751Y0090596D01*
X0095154Y0092999D01*
G37*
G36*
X0091618Y0096535D02*
X0092749Y0095404D01*
X0090346Y0093001D01*
X0089215Y0094132D01*
X0091618Y0096535D01*
G37*
X0074000Y0101750D03*
X0069000Y0101750D03*
G36*
X0050501Y0095404D02*
X0051632Y0096535D01*
X0054035Y0094132D01*
X0052904Y0093001D01*
X0050501Y0095404D01*
G37*
G36*
X0046965Y0091868D02*
X0048096Y0092999D01*
X0050499Y0090596D01*
X0049368Y0089465D01*
X0046965Y0091868D01*
G37*
G36*
X0047846Y0050501D02*
X0046715Y0051632D01*
X0049118Y0054035D01*
X0050249Y0052904D01*
X0047846Y0050501D01*
G37*
G36*
X0051382Y0046965D02*
X0050251Y0048096D01*
X0052654Y0050499D01*
X0053785Y0049368D01*
X0051382Y0046965D01*
G37*
X0069000Y0041750D03*
X0074000Y0041750D03*
G36*
X0092749Y0048096D02*
X0091618Y0046965D01*
X0089215Y0049368D01*
X0090346Y0050499D01*
X0092749Y0048096D01*
G37*
G36*
X0096285Y0051632D02*
X0095154Y0050501D01*
X0092751Y0052904D01*
X0093882Y0054035D01*
X0096285Y0051632D01*
G37*
G36*
X0133904Y0121749D02*
X0135035Y0120618D01*
X0132632Y0118215D01*
X0131501Y0119346D01*
X0133904Y0121749D01*
G37*
G36*
X0130368Y0125285D02*
X0131499Y0124154D01*
X0129096Y0121751D01*
X0127965Y0122882D01*
X0130368Y0125285D01*
G37*
G36*
X0135368Y0130285D02*
X0136499Y0129154D01*
X0134096Y0126751D01*
X0132965Y0127882D01*
X0135368Y0130285D01*
G37*
G36*
X0140368Y0135285D02*
X0141499Y0134154D01*
X0139096Y0131751D01*
X0137965Y0132882D01*
X0140368Y0135285D01*
G37*
G36*
X0145368Y0140285D02*
X0146499Y0139154D01*
X0144096Y0136751D01*
X0142965Y0137882D01*
X0145368Y0140285D01*
G37*
G36*
X0150368Y0145285D02*
X0151499Y0144154D01*
X0149096Y0141751D01*
X0147965Y0142882D01*
X0150368Y0145285D01*
G37*
G36*
X0155368Y0150285D02*
X0156499Y0149154D01*
X0154096Y0146751D01*
X0152965Y0147882D01*
X0155368Y0150285D01*
G37*
G36*
X0160368Y0155285D02*
X0161499Y0154154D01*
X0159096Y0151751D01*
X0157965Y0152882D01*
X0160368Y0155285D01*
G37*
G36*
X0165368Y0160285D02*
X0166499Y0159154D01*
X0164096Y0156751D01*
X0162965Y0157882D01*
X0165368Y0160285D01*
G37*
G36*
X0168904Y0156749D02*
X0170035Y0155618D01*
X0167632Y0153215D01*
X0166501Y0154346D01*
X0168904Y0156749D01*
G37*
G36*
X0163904Y0151749D02*
X0165035Y0150618D01*
X0162632Y0148215D01*
X0161501Y0149346D01*
X0163904Y0151749D01*
G37*
G36*
X0158904Y0146749D02*
X0160035Y0145618D01*
X0157632Y0143215D01*
X0156501Y0144346D01*
X0158904Y0146749D01*
G37*
G36*
X0153904Y0141749D02*
X0155035Y0140618D01*
X0152632Y0138215D01*
X0151501Y0139346D01*
X0153904Y0141749D01*
G37*
G36*
X0148904Y0136749D02*
X0150035Y0135618D01*
X0147632Y0133215D01*
X0146501Y0134346D01*
X0148904Y0136749D01*
G37*
G36*
X0143904Y0131749D02*
X0145035Y0130618D01*
X0142632Y0128215D01*
X0141501Y0129346D01*
X0143904Y0131749D01*
G37*
G36*
X0138904Y0126749D02*
X0140035Y0125618D01*
X0137632Y0123215D01*
X0136501Y0124346D01*
X0138904Y0126749D01*
G37*
D22*
G36*
X0127235Y0134373D02*
X0126400Y0135208D01*
X0128069Y0136877D01*
X0128904Y0136042D01*
X0127235Y0134373D01*
G37*
G36*
X0124972Y0136636D02*
X0124137Y0137471D01*
X0125806Y0139140D01*
X0126641Y0138305D01*
X0124972Y0136636D01*
G37*
G36*
X0119972Y0131636D02*
X0119137Y0132471D01*
X0120806Y0134140D01*
X0121641Y0133305D01*
X0119972Y0131636D01*
G37*
G36*
X0122235Y0129373D02*
X0121400Y0130208D01*
X0123069Y0131877D01*
X0123904Y0131042D01*
X0122235Y0129373D01*
G37*
G36*
X0132235Y0139373D02*
X0131400Y0140208D01*
X0133069Y0141877D01*
X0133904Y0141042D01*
X0132235Y0139373D01*
G37*
G36*
X0129972Y0141636D02*
X0129137Y0142471D01*
X0130806Y0144140D01*
X0131641Y0143305D01*
X0129972Y0141636D01*
G37*
G36*
X0137235Y0144373D02*
X0136400Y0145208D01*
X0138069Y0146877D01*
X0138904Y0146042D01*
X0137235Y0144373D01*
G37*
G36*
X0134972Y0146636D02*
X0134137Y0147471D01*
X0135806Y0149140D01*
X0136641Y0148305D01*
X0134972Y0146636D01*
G37*
G36*
X0142235Y0149373D02*
X0141400Y0150208D01*
X0143069Y0151877D01*
X0143904Y0151042D01*
X0142235Y0149373D01*
G37*
G36*
X0139972Y0151636D02*
X0139137Y0152471D01*
X0140806Y0154140D01*
X0141641Y0153305D01*
X0139972Y0151636D01*
G37*
G36*
X0147235Y0154373D02*
X0146400Y0155208D01*
X0148069Y0156877D01*
X0148904Y0156042D01*
X0147235Y0154373D01*
G37*
G36*
X0144972Y0156636D02*
X0144137Y0157471D01*
X0145806Y0159140D01*
X0146641Y0158305D01*
X0144972Y0156636D01*
G37*
G36*
X0152235Y0159373D02*
X0151400Y0160208D01*
X0153069Y0161877D01*
X0153904Y0161042D01*
X0152235Y0159373D01*
G37*
G36*
X0149972Y0161636D02*
X0149137Y0162471D01*
X0150806Y0164140D01*
X0151641Y0163305D01*
X0149972Y0161636D01*
G37*
G36*
X0157235Y0164373D02*
X0156400Y0165208D01*
X0158069Y0166877D01*
X0158904Y0166042D01*
X0157235Y0164373D01*
G37*
G36*
X0154972Y0166636D02*
X0154137Y0167471D01*
X0155806Y0169140D01*
X0156641Y0168305D01*
X0154972Y0166636D01*
G37*
G36*
X0081386Y0083278D02*
X0082221Y0084113D01*
X0083890Y0082444D01*
X0083055Y0081609D01*
X0081386Y0083278D01*
G37*
G36*
X0079123Y0081015D02*
X0079958Y0081850D01*
X0081627Y0080181D01*
X0080792Y0079346D01*
X0079123Y0081015D01*
G37*
X0083891Y0071731D03*
X0087091Y0071731D03*
G36*
X0080765Y0064127D02*
X0081600Y0063292D01*
X0079931Y0061623D01*
X0079096Y0062458D01*
X0080765Y0064127D01*
G37*
G36*
X0083028Y0061864D02*
X0083863Y0061029D01*
X0082194Y0059360D01*
X0081359Y0060195D01*
X0083028Y0061864D01*
G37*
G36*
X0061386Y0063278D02*
X0062221Y0064113D01*
X0063890Y0062444D01*
X0063055Y0061609D01*
X0061386Y0063278D01*
G37*
G36*
X0059123Y0061015D02*
X0059958Y0061850D01*
X0061627Y0060181D01*
X0060792Y0059346D01*
X0059123Y0061015D01*
G37*
X0059109Y0071769D03*
X0055909Y0071769D03*
G36*
X0063028Y0081864D02*
X0063863Y0081029D01*
X0062194Y0079360D01*
X0061359Y0080195D01*
X0063028Y0081864D01*
G37*
G36*
X0060765Y0084127D02*
X0061600Y0083292D01*
X0059931Y0081623D01*
X0059096Y0082458D01*
X0060765Y0084127D01*
G37*
D23*
X0011500Y0076950D03*
X0011500Y0066550D03*
X0131500Y0066550D03*
X0131500Y0076950D03*
X0162917Y0032541D03*
X0176697Y0032541D03*
X0190476Y0032541D03*
X0204256Y0032541D03*
X0218035Y0032541D03*
X0231815Y0032541D03*
X0245594Y0032541D03*
X0245594Y0022141D03*
X0231815Y0022141D03*
X0218035Y0022141D03*
X0204256Y0022141D03*
X0190476Y0022141D03*
X0176697Y0022141D03*
X0162917Y0022141D03*
D24*
X0162911Y0059894D03*
X0162911Y0065694D03*
X0176691Y0065694D03*
X0176691Y0059894D03*
X0190470Y0059894D03*
X0190470Y0065694D03*
X0204250Y0065694D03*
X0204250Y0059894D03*
X0218030Y0059894D03*
X0218030Y0065694D03*
X0231809Y0065694D03*
X0231809Y0059894D03*
X0245589Y0059894D03*
X0245589Y0065694D03*
X0116494Y0068870D03*
X0116494Y0074670D03*
X0026506Y0074630D03*
X0026506Y0068830D03*
D25*
X0041500Y0069250D03*
X0041500Y0074250D03*
X0101500Y0074250D03*
X0101500Y0069250D03*
X0176697Y0091770D03*
X0186539Y0091770D03*
X0186539Y0096770D03*
X0176697Y0096770D03*
X0196382Y0096770D03*
X0196382Y0091770D03*
X0206224Y0091770D03*
X0206224Y0096770D03*
X0216067Y0096770D03*
X0225909Y0096770D03*
X0225909Y0091770D03*
X0216067Y0091770D03*
X0235752Y0091770D03*
X0235752Y0096770D03*
X0245594Y0096770D03*
X0245594Y0091770D03*
D26*
X0245614Y0120219D03*
X0245614Y0123419D03*
X0235771Y0123419D03*
X0235771Y0120219D03*
X0225929Y0120219D03*
X0225929Y0123419D03*
X0216086Y0123419D03*
X0216086Y0120219D03*
X0206244Y0120219D03*
X0206244Y0123419D03*
X0196401Y0123419D03*
X0196401Y0120219D03*
X0186558Y0120219D03*
X0186558Y0123419D03*
X0176716Y0123419D03*
X0176716Y0120219D03*
X0071519Y0087341D03*
X0071519Y0084141D03*
X0071481Y0059359D03*
X0071481Y0056159D03*
D27*
X0280826Y0108837D03*
X0280826Y0111986D03*
X0280826Y0115136D03*
X0280826Y0118285D03*
X0280826Y0121435D03*
X0280826Y0124585D03*
X0280826Y0127734D03*
X0280826Y0130884D03*
X0312726Y0130884D03*
X0312726Y0127734D03*
X0312726Y0124585D03*
X0312726Y0121435D03*
X0312726Y0118285D03*
X0312726Y0115136D03*
X0312726Y0111986D03*
X0312726Y0108837D03*
D28*
X0307799Y0103910D03*
X0304650Y0103910D03*
X0301500Y0103910D03*
X0298350Y0103910D03*
X0295201Y0103910D03*
X0292051Y0103910D03*
X0288902Y0103910D03*
X0285752Y0103910D03*
X0285752Y0135810D03*
X0288902Y0135810D03*
X0292051Y0135810D03*
X0295201Y0135810D03*
X0298350Y0135810D03*
X0301500Y0135810D03*
X0304650Y0135810D03*
X0307799Y0135810D03*
D29*
X0104683Y0162041D03*
X0104683Y0180041D03*
D30*
X0100483Y0171041D03*
D31*
X0074583Y0171337D02*
X0069983Y0171337D01*
X0069983Y0170552D02*
X0074583Y0170552D01*
X0074583Y0169767D02*
X0069983Y0169767D01*
X0069983Y0168982D02*
X0074583Y0168982D01*
X0074583Y0168197D02*
X0069983Y0168197D01*
X0069983Y0167411D02*
X0074583Y0167411D01*
X0074583Y0166626D02*
X0069983Y0166626D01*
X0069983Y0165841D02*
X0074583Y0165841D01*
X0074583Y0165056D02*
X0069983Y0165056D01*
X0069983Y0164271D02*
X0074583Y0164271D01*
X0074583Y0163486D02*
X0069983Y0163486D01*
X0069983Y0162741D02*
X0071783Y0160941D01*
X0074583Y0160941D01*
X0074583Y0181141D01*
X0071783Y0181141D01*
X0069983Y0179341D01*
X0069983Y0162741D01*
X0070023Y0162701D02*
X0074583Y0162701D01*
X0074583Y0161916D02*
X0070808Y0161916D01*
X0071594Y0161130D02*
X0074583Y0161130D01*
X0074583Y0172122D02*
X0069983Y0172122D01*
X0069983Y0172907D02*
X0074583Y0172907D01*
X0074583Y0173692D02*
X0069983Y0173692D01*
X0069983Y0174478D02*
X0074583Y0174478D01*
X0074583Y0175263D02*
X0069983Y0175263D01*
X0069983Y0176048D02*
X0074583Y0176048D01*
X0074583Y0176833D02*
X0069983Y0176833D01*
X0069983Y0177618D02*
X0074583Y0177618D01*
X0074583Y0178403D02*
X0069983Y0178403D01*
X0069983Y0179188D02*
X0074583Y0179188D01*
X0074583Y0179973D02*
X0070615Y0179973D01*
X0071400Y0180759D02*
X0074583Y0180759D01*
M02*
