G75*
%MOIN*%
%OFA0B0*%
%FSLAX24Y24*%
%IPPOS*%
%LPD*%
%AMOC8*
5,1,8,0,0,1.08239X$1,22.5*
%
%ADD10C,0.0000*%
%ADD11C,0.0055*%
%ADD12R,0.0276X0.0110*%
%ADD13R,0.0110X0.0276*%
%ADD14R,0.1378X0.1378*%
%ADD15R,0.0098X0.0098*%
%ADD16R,0.0480X0.0880*%
%ADD17R,0.1417X0.0866*%
%ADD18R,0.0630X0.0394*%
%ADD19R,0.2441X0.2126*%
%ADD20R,0.0236X0.0866*%
%ADD21R,0.0120X0.0390*%
%ADD22R,0.0106X0.0591*%
%ADD23R,0.0591X0.0106*%
%ADD24R,0.0354X0.0276*%
%ADD25R,0.0276X0.0354*%
%ADD26R,0.0394X0.0433*%
%ADD27R,0.0433X0.0394*%
%ADD28R,0.0512X0.0591*%
%ADD29R,0.0591X0.0512*%
%ADD30R,0.0315X0.0354*%
%ADD31R,0.0650X0.0394*%
%ADD32R,0.0630X0.0710*%
%ADD33R,0.0710X0.0630*%
%ADD34R,0.0500X0.0220*%
%ADD35R,0.0220X0.0500*%
%ADD36R,0.0591X0.0118*%
%ADD37R,0.0118X0.0591*%
D10*
X001350Y000100D02*
X033850Y000100D01*
X033918Y000102D01*
X033985Y000107D01*
X034052Y000116D01*
X034119Y000129D01*
X034184Y000146D01*
X034249Y000165D01*
X034313Y000189D01*
X034375Y000216D01*
X034436Y000246D01*
X034494Y000279D01*
X034551Y000315D01*
X034606Y000355D01*
X034659Y000397D01*
X034710Y000443D01*
X034757Y000490D01*
X034803Y000541D01*
X034845Y000594D01*
X034885Y000649D01*
X034921Y000706D01*
X034954Y000764D01*
X034984Y000825D01*
X035011Y000887D01*
X035035Y000951D01*
X035054Y001016D01*
X035071Y001081D01*
X035084Y001148D01*
X035093Y001215D01*
X035098Y001282D01*
X035100Y001350D01*
X035100Y018850D01*
X035098Y018918D01*
X035093Y018985D01*
X035084Y019052D01*
X035071Y019119D01*
X035054Y019184D01*
X035035Y019249D01*
X035011Y019313D01*
X034984Y019375D01*
X034954Y019436D01*
X034921Y019494D01*
X034885Y019551D01*
X034845Y019606D01*
X034803Y019659D01*
X034757Y019710D01*
X034710Y019757D01*
X034659Y019803D01*
X034606Y019845D01*
X034551Y019885D01*
X034494Y019921D01*
X034436Y019954D01*
X034375Y019984D01*
X034313Y020011D01*
X034249Y020035D01*
X034184Y020054D01*
X034119Y020071D01*
X034052Y020084D01*
X033985Y020093D01*
X033918Y020098D01*
X033850Y020100D01*
X001350Y020100D01*
X001282Y020098D01*
X001215Y020093D01*
X001148Y020084D01*
X001081Y020071D01*
X001016Y020054D01*
X000951Y020035D01*
X000887Y020011D01*
X000825Y019984D01*
X000764Y019954D01*
X000706Y019921D01*
X000649Y019885D01*
X000594Y019845D01*
X000541Y019803D01*
X000490Y019757D01*
X000443Y019710D01*
X000397Y019659D01*
X000355Y019606D01*
X000315Y019551D01*
X000279Y019494D01*
X000246Y019436D01*
X000216Y019375D01*
X000189Y019313D01*
X000165Y019249D01*
X000146Y019184D01*
X000129Y019119D01*
X000116Y019052D01*
X000107Y018985D01*
X000102Y018918D01*
X000100Y018850D01*
X000100Y001350D01*
X000102Y001282D01*
X000107Y001215D01*
X000116Y001148D01*
X000129Y001081D01*
X000146Y001016D01*
X000165Y000951D01*
X000189Y000887D01*
X000216Y000825D01*
X000246Y000764D01*
X000279Y000706D01*
X000315Y000649D01*
X000355Y000594D01*
X000397Y000541D01*
X000443Y000490D01*
X000490Y000443D01*
X000541Y000397D01*
X000594Y000355D01*
X000649Y000315D01*
X000706Y000279D01*
X000764Y000246D01*
X000825Y000216D01*
X000887Y000189D01*
X000951Y000165D01*
X001016Y000146D01*
X001081Y000129D01*
X001148Y000116D01*
X001215Y000107D01*
X001282Y000102D01*
X001350Y000100D01*
D11*
X023564Y006883D02*
X023786Y006883D01*
X023564Y006883D02*
X023564Y006939D01*
X023786Y006939D01*
X023786Y006883D01*
X023786Y006937D02*
X023564Y006937D01*
X023883Y006564D02*
X023939Y006564D01*
X023883Y006564D02*
X023883Y006786D01*
X023939Y006786D01*
X023939Y006564D01*
X023939Y006618D02*
X023883Y006618D01*
X023883Y006672D02*
X023939Y006672D01*
X023939Y006726D02*
X023883Y006726D01*
X023883Y006780D02*
X023939Y006780D01*
X025261Y006564D02*
X025317Y006564D01*
X025261Y006564D02*
X025261Y006786D01*
X025317Y006786D01*
X025317Y006564D01*
X025317Y006618D02*
X025261Y006618D01*
X025261Y006672D02*
X025317Y006672D01*
X025317Y006726D02*
X025261Y006726D01*
X025261Y006780D02*
X025317Y006780D01*
X025414Y006883D02*
X025636Y006883D01*
X025414Y006883D02*
X025414Y006939D01*
X025636Y006939D01*
X025636Y006883D01*
X025636Y006937D02*
X025414Y006937D01*
X025414Y008261D02*
X025636Y008261D01*
X025414Y008261D02*
X025414Y008317D01*
X025636Y008317D01*
X025636Y008261D01*
X025636Y008315D02*
X025414Y008315D01*
X025317Y008414D02*
X025261Y008414D01*
X025261Y008636D01*
X025317Y008636D01*
X025317Y008414D01*
X025317Y008468D02*
X025261Y008468D01*
X025261Y008522D02*
X025317Y008522D01*
X025317Y008576D02*
X025261Y008576D01*
X025261Y008630D02*
X025317Y008630D01*
X023939Y008414D02*
X023883Y008414D01*
X023883Y008636D01*
X023939Y008636D01*
X023939Y008414D01*
X023939Y008468D02*
X023883Y008468D01*
X023883Y008522D02*
X023939Y008522D01*
X023939Y008576D02*
X023883Y008576D01*
X023883Y008630D02*
X023939Y008630D01*
X023786Y008261D02*
X023564Y008261D01*
X023564Y008317D01*
X023786Y008317D01*
X023786Y008261D01*
X023786Y008315D02*
X023564Y008315D01*
D12*
X023675Y008092D03*
X023675Y007895D03*
X023675Y007698D03*
X023675Y007502D03*
X023675Y007305D03*
X023675Y007108D03*
X025525Y007108D03*
X025525Y007305D03*
X025525Y007502D03*
X025525Y007698D03*
X025525Y007895D03*
X025525Y008092D03*
D13*
X025092Y008525D03*
X024895Y008525D03*
X024698Y008525D03*
X024502Y008525D03*
X024305Y008525D03*
X024108Y008525D03*
X024108Y006675D03*
X024305Y006675D03*
X024502Y006675D03*
X024698Y006675D03*
X024895Y006675D03*
X025092Y006675D03*
D14*
X024600Y007600D03*
D15*
X023649Y008551D03*
D16*
X005510Y015880D03*
X004600Y015880D03*
X003690Y015880D03*
D17*
X004600Y018320D03*
D18*
X011490Y017998D03*
X011490Y016202D03*
D19*
X008616Y017100D03*
D20*
X026350Y014624D03*
X026850Y014624D03*
X027350Y014624D03*
X027850Y014624D03*
X029850Y014517D03*
X030350Y014517D03*
X030850Y014517D03*
X031350Y014517D03*
X031850Y014517D03*
X032350Y014517D03*
X032850Y014517D03*
X033350Y014517D03*
X033350Y011683D03*
X032850Y011683D03*
X032350Y011683D03*
X031850Y011683D03*
X031350Y011683D03*
X030850Y011683D03*
X030350Y011683D03*
X029850Y011683D03*
X027850Y012576D03*
X027350Y012576D03*
X026850Y012576D03*
X026350Y012576D03*
D21*
X028948Y008749D03*
X029204Y008749D03*
X029460Y008749D03*
X029716Y008749D03*
X029972Y008749D03*
X030228Y008749D03*
X030484Y008749D03*
X030740Y008749D03*
X030996Y008749D03*
X031252Y008749D03*
X031252Y006451D03*
X030996Y006451D03*
X030740Y006451D03*
X030484Y006451D03*
X030228Y006451D03*
X029972Y006451D03*
X029716Y006451D03*
X029460Y006451D03*
X029204Y006451D03*
X028948Y006451D03*
D22*
X020462Y008651D03*
X020265Y008651D03*
X020069Y008651D03*
X019872Y008651D03*
X019675Y008651D03*
X019478Y008651D03*
X019281Y008651D03*
X019084Y008651D03*
X018887Y008651D03*
X018691Y008651D03*
X018494Y008651D03*
X018297Y008651D03*
X018100Y008651D03*
X017903Y008651D03*
X017706Y008651D03*
X017509Y008651D03*
X017313Y008651D03*
X017116Y008651D03*
X016919Y008651D03*
X016722Y008651D03*
X016525Y008651D03*
X016328Y008651D03*
X016131Y008651D03*
X015935Y008651D03*
X015738Y008651D03*
X015738Y002549D03*
X015935Y002549D03*
X016131Y002549D03*
X016328Y002549D03*
X016525Y002549D03*
X016722Y002549D03*
X016919Y002549D03*
X017116Y002549D03*
X017313Y002549D03*
X017509Y002549D03*
X017706Y002549D03*
X017903Y002549D03*
X018100Y002549D03*
X018297Y002549D03*
X018494Y002549D03*
X018691Y002549D03*
X018887Y002549D03*
X019084Y002549D03*
X019281Y002549D03*
X019478Y002549D03*
X019675Y002549D03*
X019872Y002549D03*
X020069Y002549D03*
X020265Y002549D03*
X020462Y002549D03*
D23*
X021151Y003238D03*
X021151Y003435D03*
X021151Y003631D03*
X021151Y003828D03*
X021151Y004025D03*
X021151Y004222D03*
X021151Y004419D03*
X021151Y004616D03*
X021151Y004813D03*
X021151Y005009D03*
X021151Y005206D03*
X021151Y005403D03*
X021151Y005600D03*
X021151Y005797D03*
X021151Y005994D03*
X021151Y006191D03*
X021151Y006387D03*
X021151Y006584D03*
X021151Y006781D03*
X021151Y006978D03*
X021151Y007175D03*
X021151Y007372D03*
X021151Y007569D03*
X021151Y007765D03*
X021151Y007962D03*
X015049Y007962D03*
X015049Y007765D03*
X015049Y007569D03*
X015049Y007372D03*
X015049Y007175D03*
X015049Y006978D03*
X015049Y006781D03*
X015049Y006584D03*
X015049Y006387D03*
X015049Y006191D03*
X015049Y005994D03*
X015049Y005797D03*
X015049Y005600D03*
X015049Y005403D03*
X015049Y005206D03*
X015049Y005009D03*
X015049Y004813D03*
X015049Y004616D03*
X015049Y004419D03*
X015049Y004222D03*
X015049Y004025D03*
X015049Y003828D03*
X015049Y003631D03*
X015049Y003435D03*
X015049Y003238D03*
D24*
X007100Y005344D03*
X007100Y005856D03*
X007100Y008344D03*
X007100Y008856D03*
D25*
G36*
X008503Y008254D02*
X008308Y008059D01*
X008059Y008308D01*
X008254Y008503D01*
X008503Y008254D01*
G37*
G36*
X008141Y007892D02*
X007946Y007697D01*
X007697Y007946D01*
X007892Y008141D01*
X008141Y007892D01*
G37*
X008344Y007100D03*
X008856Y007100D03*
G36*
X007946Y006503D02*
X008141Y006308D01*
X007892Y006059D01*
X007697Y006254D01*
X007946Y006503D01*
G37*
G36*
X008308Y006141D02*
X008503Y005946D01*
X008254Y005697D01*
X008059Y005892D01*
X008308Y006141D01*
G37*
G36*
X006503Y006254D02*
X006308Y006059D01*
X006059Y006308D01*
X006254Y006503D01*
X006503Y006254D01*
G37*
G36*
X006141Y005892D02*
X005946Y005697D01*
X005697Y005946D01*
X005892Y006141D01*
X006141Y005892D01*
G37*
X005856Y007100D03*
X005344Y007100D03*
G36*
X006308Y008141D02*
X006503Y007946D01*
X006254Y007697D01*
X006059Y007892D01*
X006308Y008141D01*
G37*
G36*
X005946Y008503D02*
X006141Y008308D01*
X005892Y008059D01*
X005697Y008254D01*
X005946Y008503D01*
G37*
D26*
G36*
X005155Y008850D02*
X004876Y008571D01*
X004571Y008876D01*
X004850Y009155D01*
X005155Y008850D01*
G37*
G36*
X005629Y009324D02*
X005350Y009045D01*
X005045Y009350D01*
X005324Y009629D01*
X005629Y009324D01*
G37*
X006765Y010100D03*
X007435Y010100D03*
G36*
X008876Y009629D02*
X009155Y009350D01*
X008850Y009045D01*
X008571Y009324D01*
X008876Y009629D01*
G37*
G36*
X009350Y009155D02*
X009629Y008876D01*
X009324Y008571D01*
X009045Y008850D01*
X009350Y009155D01*
G37*
G36*
X009045Y005350D02*
X009324Y005629D01*
X009629Y005324D01*
X009350Y005045D01*
X009045Y005350D01*
G37*
G36*
X008571Y004876D02*
X008850Y005155D01*
X009155Y004850D01*
X008876Y004571D01*
X008571Y004876D01*
G37*
X007435Y004100D03*
X006765Y004100D03*
G36*
X005324Y004571D02*
X005045Y004850D01*
X005350Y005155D01*
X005629Y004876D01*
X005324Y004571D01*
G37*
G36*
X004850Y005045D02*
X004571Y005324D01*
X004876Y005629D01*
X005155Y005350D01*
X004850Y005045D01*
G37*
D27*
X004100Y006765D03*
X004100Y007435D03*
X010100Y007435D03*
X010100Y006765D03*
D28*
G36*
X010122Y004245D02*
X010484Y004607D01*
X010900Y004191D01*
X010538Y003829D01*
X010122Y004245D01*
G37*
G36*
X009593Y003716D02*
X009955Y004078D01*
X010371Y003662D01*
X010009Y003300D01*
X009593Y003716D01*
G37*
X007474Y002600D03*
X006726Y002600D03*
G36*
X004245Y004078D02*
X004607Y003716D01*
X004191Y003300D01*
X003829Y003662D01*
X004245Y004078D01*
G37*
G36*
X003716Y004607D02*
X004078Y004245D01*
X003662Y003829D01*
X003300Y004191D01*
X003716Y004607D01*
G37*
G36*
X004078Y009955D02*
X003716Y009593D01*
X003300Y010009D01*
X003662Y010371D01*
X004078Y009955D01*
G37*
G36*
X004607Y010484D02*
X004245Y010122D01*
X003829Y010538D01*
X004191Y010900D01*
X004607Y010484D01*
G37*
X006726Y011600D03*
X007474Y011600D03*
G36*
X009955Y010122D02*
X009593Y010484D01*
X010009Y010900D01*
X010371Y010538D01*
X009955Y010122D01*
G37*
G36*
X010484Y009593D02*
X010122Y009955D01*
X010538Y010371D01*
X010900Y010009D01*
X010484Y009593D01*
G37*
D29*
X011600Y007474D03*
X011600Y006726D03*
X002600Y006726D03*
X002600Y007474D03*
D30*
G36*
X027591Y004176D02*
X027748Y004447D01*
X028053Y004270D01*
X027896Y003999D01*
X027591Y004176D01*
G37*
G36*
X028460Y004106D02*
X028617Y004377D01*
X028922Y004200D01*
X028765Y003929D01*
X028460Y004106D01*
G37*
G36*
X027965Y004824D02*
X028122Y005095D01*
X028427Y004918D01*
X028270Y004647D01*
X027965Y004824D01*
G37*
X029726Y005744D03*
X030474Y005744D03*
X030100Y004956D03*
G36*
X031583Y004377D02*
X031740Y004106D01*
X031435Y003929D01*
X031278Y004200D01*
X031583Y004377D01*
G37*
G36*
X032452Y004447D02*
X032609Y004176D01*
X032304Y003999D01*
X032147Y004270D01*
X032452Y004447D01*
G37*
G36*
X032078Y005095D02*
X032235Y004824D01*
X031930Y004647D01*
X031773Y004918D01*
X032078Y005095D01*
G37*
G36*
X031740Y002594D02*
X031583Y002323D01*
X031278Y002500D01*
X031435Y002771D01*
X031740Y002594D01*
G37*
G36*
X032609Y002524D02*
X032452Y002253D01*
X032147Y002430D01*
X032304Y002701D01*
X032609Y002524D01*
G37*
G36*
X032235Y001876D02*
X032078Y001605D01*
X031773Y001782D01*
X031930Y002053D01*
X032235Y001876D01*
G37*
X030474Y000956D03*
X029726Y000956D03*
X030100Y001744D03*
G36*
X028617Y002323D02*
X028460Y002594D01*
X028765Y002771D01*
X028922Y002500D01*
X028617Y002323D01*
G37*
G36*
X028122Y001605D02*
X027965Y001876D01*
X028270Y002053D01*
X028427Y001782D01*
X028122Y001605D01*
G37*
G36*
X027748Y002253D02*
X027591Y002524D01*
X027896Y002701D01*
X028053Y002430D01*
X027748Y002253D01*
G37*
D31*
X025615Y002970D03*
X023585Y002970D03*
X023585Y004230D03*
X025615Y004230D03*
D32*
G36*
X011523Y003024D02*
X011968Y003469D01*
X012469Y002968D01*
X012024Y002523D01*
X011523Y003024D01*
G37*
G36*
X010731Y002232D02*
X011176Y002677D01*
X011677Y002176D01*
X011232Y001731D01*
X010731Y002232D01*
G37*
X007660Y001100D03*
X006540Y001100D03*
G36*
X002968Y001731D02*
X002523Y002176D01*
X003024Y002677D01*
X003469Y002232D01*
X002968Y001731D01*
G37*
G36*
X002176Y002523D02*
X001731Y002968D01*
X002232Y003469D01*
X002677Y003024D01*
X002176Y002523D01*
G37*
G36*
X002677Y011176D02*
X002232Y010731D01*
X001731Y011232D01*
X002176Y011677D01*
X002677Y011176D01*
G37*
G36*
X003469Y011968D02*
X003024Y011523D01*
X002523Y012024D01*
X002968Y012469D01*
X003469Y011968D01*
G37*
X006540Y013100D03*
X007660Y013100D03*
G36*
X011232Y012469D02*
X011677Y012024D01*
X011176Y011523D01*
X010731Y011968D01*
X011232Y012469D01*
G37*
G36*
X012024Y011677D02*
X012469Y011232D01*
X011968Y010731D01*
X011523Y011176D01*
X012024Y011677D01*
G37*
D33*
X013100Y007660D03*
X013100Y006540D03*
X001100Y006540D03*
X001100Y007660D03*
D34*
X015910Y012498D03*
X015910Y012813D03*
X015910Y013128D03*
X015910Y013443D03*
X015910Y013757D03*
X015910Y014072D03*
X015910Y014387D03*
X015910Y014702D03*
X019290Y014702D03*
X019290Y014387D03*
X019290Y014072D03*
X019290Y013757D03*
X019290Y013443D03*
X019290Y013128D03*
X019290Y012813D03*
X019290Y012498D03*
D35*
X018702Y011910D03*
X018387Y011910D03*
X018072Y011910D03*
X017757Y011910D03*
X017443Y011910D03*
X017128Y011910D03*
X016813Y011910D03*
X016498Y011910D03*
X016498Y015290D03*
X016813Y015290D03*
X017128Y015290D03*
X017443Y015290D03*
X017757Y015290D03*
X018072Y015290D03*
X018387Y015290D03*
X018702Y015290D03*
D36*
X020927Y014683D03*
X020927Y014486D03*
X020927Y014289D03*
X020927Y014092D03*
X020927Y013895D03*
X020927Y013698D03*
X020927Y013502D03*
X020927Y013305D03*
X020927Y013108D03*
X020927Y012911D03*
X020927Y012714D03*
X020927Y012517D03*
X024273Y012517D03*
X024273Y012714D03*
X024273Y012911D03*
X024273Y013108D03*
X024273Y013305D03*
X024273Y013502D03*
X024273Y013698D03*
X024273Y013895D03*
X024273Y014092D03*
X024273Y014289D03*
X024273Y014486D03*
X024273Y014683D03*
D37*
X023683Y015273D03*
X023486Y015273D03*
X023289Y015273D03*
X023092Y015273D03*
X022895Y015273D03*
X022698Y015273D03*
X022502Y015273D03*
X022305Y015273D03*
X022108Y015273D03*
X021911Y015273D03*
X021714Y015273D03*
X021517Y015273D03*
X021517Y011927D03*
X021714Y011927D03*
X021911Y011927D03*
X022108Y011927D03*
X022305Y011927D03*
X022502Y011927D03*
X022698Y011927D03*
X022895Y011927D03*
X023092Y011927D03*
X023289Y011927D03*
X023486Y011927D03*
X023683Y011927D03*
M02*
