G75*
%MOIN*%
%OFA0B0*%
%FSLAX25Y25*%
%IPPOS*%
%LPD*%
%AMOC8*
5,1,8,0,0,1.08239X$1,22.5*
%
%ADD10C,0.01000*%
%ADD11R,0.04800X0.08800*%
%ADD12R,0.14173X0.08661*%
%ADD13R,0.03150X0.03543*%
%ADD14R,0.06299X0.07098*%
%ADD15R,0.05118X0.05906*%
%ADD16R,0.03937X0.04331*%
%ADD17R,0.02756X0.03543*%
%ADD18R,0.07098X0.06299*%
%ADD19R,0.05906X0.05118*%
%ADD20R,0.04331X0.03937*%
%ADD21R,0.03543X0.02756*%
%ADD22R,0.05000X0.02200*%
%ADD23R,0.02200X0.05000*%
%ADD24R,0.06299X0.03937*%
%ADD25R,0.24409X0.21260*%
D10*
X0014000Y0001750D02*
X0339000Y0001750D01*
X0339302Y0001754D01*
X0339604Y0001765D01*
X0339905Y0001783D01*
X0340206Y0001808D01*
X0340507Y0001841D01*
X0340806Y0001881D01*
X0341104Y0001928D01*
X0341402Y0001983D01*
X0341697Y0002044D01*
X0341991Y0002113D01*
X0342284Y0002189D01*
X0342574Y0002272D01*
X0342863Y0002362D01*
X0343149Y0002459D01*
X0343433Y0002562D01*
X0343714Y0002673D01*
X0343992Y0002790D01*
X0344268Y0002914D01*
X0344540Y0003045D01*
X0344809Y0003182D01*
X0345075Y0003325D01*
X0345337Y0003475D01*
X0345596Y0003632D01*
X0345850Y0003794D01*
X0346101Y0003963D01*
X0346347Y0004137D01*
X0346590Y0004318D01*
X0346827Y0004504D01*
X0347061Y0004696D01*
X0347289Y0004894D01*
X0347513Y0005097D01*
X0347731Y0005305D01*
X0347945Y0005519D01*
X0348153Y0005737D01*
X0348356Y0005961D01*
X0348554Y0006189D01*
X0348746Y0006423D01*
X0348932Y0006660D01*
X0349113Y0006903D01*
X0349287Y0007149D01*
X0349456Y0007400D01*
X0349618Y0007654D01*
X0349775Y0007913D01*
X0349925Y0008175D01*
X0350068Y0008441D01*
X0350205Y0008710D01*
X0350336Y0008982D01*
X0350460Y0009258D01*
X0350577Y0009536D01*
X0350688Y0009817D01*
X0350791Y0010101D01*
X0350888Y0010387D01*
X0350978Y0010676D01*
X0351061Y0010966D01*
X0351137Y0011259D01*
X0351206Y0011553D01*
X0351267Y0011848D01*
X0351322Y0012146D01*
X0351369Y0012444D01*
X0351409Y0012743D01*
X0351442Y0013044D01*
X0351467Y0013345D01*
X0351485Y0013646D01*
X0351496Y0013948D01*
X0351500Y0014250D01*
X0351500Y0189250D01*
X0351496Y0189552D01*
X0351485Y0189854D01*
X0351467Y0190155D01*
X0351442Y0190456D01*
X0351409Y0190757D01*
X0351369Y0191056D01*
X0351322Y0191354D01*
X0351267Y0191652D01*
X0351206Y0191947D01*
X0351137Y0192241D01*
X0351061Y0192534D01*
X0350978Y0192824D01*
X0350888Y0193113D01*
X0350791Y0193399D01*
X0350688Y0193683D01*
X0350577Y0193964D01*
X0350460Y0194242D01*
X0350336Y0194518D01*
X0350205Y0194790D01*
X0350068Y0195059D01*
X0349925Y0195325D01*
X0349775Y0195587D01*
X0349618Y0195846D01*
X0349456Y0196100D01*
X0349287Y0196351D01*
X0349113Y0196597D01*
X0348932Y0196840D01*
X0348746Y0197077D01*
X0348554Y0197311D01*
X0348356Y0197539D01*
X0348153Y0197763D01*
X0347945Y0197981D01*
X0347731Y0198195D01*
X0347513Y0198403D01*
X0347289Y0198606D01*
X0347061Y0198804D01*
X0346827Y0198996D01*
X0346590Y0199182D01*
X0346347Y0199363D01*
X0346101Y0199537D01*
X0345850Y0199706D01*
X0345596Y0199868D01*
X0345337Y0200025D01*
X0345075Y0200175D01*
X0344809Y0200318D01*
X0344540Y0200455D01*
X0344268Y0200586D01*
X0343992Y0200710D01*
X0343714Y0200827D01*
X0343433Y0200938D01*
X0343149Y0201041D01*
X0342863Y0201138D01*
X0342574Y0201228D01*
X0342284Y0201311D01*
X0341991Y0201387D01*
X0341697Y0201456D01*
X0341402Y0201517D01*
X0341104Y0201572D01*
X0340806Y0201619D01*
X0340507Y0201659D01*
X0340206Y0201692D01*
X0339905Y0201717D01*
X0339604Y0201735D01*
X0339302Y0201746D01*
X0339000Y0201750D01*
X0014000Y0201750D01*
X0013698Y0201746D01*
X0013396Y0201735D01*
X0013095Y0201717D01*
X0012794Y0201692D01*
X0012493Y0201659D01*
X0012194Y0201619D01*
X0011896Y0201572D01*
X0011598Y0201517D01*
X0011303Y0201456D01*
X0011009Y0201387D01*
X0010716Y0201311D01*
X0010426Y0201228D01*
X0010137Y0201138D01*
X0009851Y0201041D01*
X0009567Y0200938D01*
X0009286Y0200827D01*
X0009008Y0200710D01*
X0008732Y0200586D01*
X0008460Y0200455D01*
X0008191Y0200318D01*
X0007925Y0200175D01*
X0007663Y0200025D01*
X0007404Y0199868D01*
X0007150Y0199706D01*
X0006899Y0199537D01*
X0006653Y0199363D01*
X0006410Y0199182D01*
X0006173Y0198996D01*
X0005939Y0198804D01*
X0005711Y0198606D01*
X0005487Y0198403D01*
X0005269Y0198195D01*
X0005055Y0197981D01*
X0004847Y0197763D01*
X0004644Y0197539D01*
X0004446Y0197311D01*
X0004254Y0197077D01*
X0004068Y0196840D01*
X0003887Y0196597D01*
X0003713Y0196351D01*
X0003544Y0196100D01*
X0003382Y0195846D01*
X0003225Y0195587D01*
X0003075Y0195325D01*
X0002932Y0195059D01*
X0002795Y0194790D01*
X0002664Y0194518D01*
X0002540Y0194242D01*
X0002423Y0193964D01*
X0002312Y0193683D01*
X0002209Y0193399D01*
X0002112Y0193113D01*
X0002022Y0192824D01*
X0001939Y0192534D01*
X0001863Y0192241D01*
X0001794Y0191947D01*
X0001733Y0191652D01*
X0001678Y0191354D01*
X0001631Y0191056D01*
X0001591Y0190757D01*
X0001558Y0190456D01*
X0001533Y0190155D01*
X0001515Y0189854D01*
X0001504Y0189552D01*
X0001500Y0189250D01*
X0001500Y0014250D01*
X0001504Y0013948D01*
X0001515Y0013646D01*
X0001533Y0013345D01*
X0001558Y0013044D01*
X0001591Y0012743D01*
X0001631Y0012444D01*
X0001678Y0012146D01*
X0001733Y0011848D01*
X0001794Y0011553D01*
X0001863Y0011259D01*
X0001939Y0010966D01*
X0002022Y0010676D01*
X0002112Y0010387D01*
X0002209Y0010101D01*
X0002312Y0009817D01*
X0002423Y0009536D01*
X0002540Y0009258D01*
X0002664Y0008982D01*
X0002795Y0008710D01*
X0002932Y0008441D01*
X0003075Y0008175D01*
X0003225Y0007913D01*
X0003382Y0007654D01*
X0003544Y0007400D01*
X0003713Y0007149D01*
X0003887Y0006903D01*
X0004068Y0006660D01*
X0004254Y0006423D01*
X0004446Y0006189D01*
X0004644Y0005961D01*
X0004847Y0005737D01*
X0005055Y0005519D01*
X0005269Y0005305D01*
X0005487Y0005097D01*
X0005711Y0004894D01*
X0005939Y0004696D01*
X0006173Y0004504D01*
X0006410Y0004318D01*
X0006653Y0004137D01*
X0006899Y0003963D01*
X0007150Y0003794D01*
X0007404Y0003632D01*
X0007663Y0003475D01*
X0007925Y0003325D01*
X0008191Y0003182D01*
X0008460Y0003045D01*
X0008732Y0002914D01*
X0009008Y0002790D01*
X0009286Y0002673D01*
X0009567Y0002562D01*
X0009851Y0002459D01*
X0010137Y0002362D01*
X0010426Y0002272D01*
X0010716Y0002189D01*
X0011009Y0002113D01*
X0011303Y0002044D01*
X0011598Y0001983D01*
X0011896Y0001928D01*
X0012194Y0001881D01*
X0012493Y0001841D01*
X0012794Y0001808D01*
X0013095Y0001783D01*
X0013396Y0001765D01*
X0013698Y0001754D01*
X0014000Y0001750D01*
D11*
X0031770Y0158841D03*
X0040870Y0158841D03*
X0049970Y0158841D03*
D12*
X0040870Y0183242D03*
D13*
G36*
X0296041Y0058457D02*
X0294466Y0055730D01*
X0291399Y0057501D01*
X0292974Y0060228D01*
X0296041Y0058457D01*
G37*
G36*
X0304731Y0057759D02*
X0303156Y0055032D01*
X0300089Y0056803D01*
X0301664Y0059530D01*
X0304731Y0057759D01*
G37*
G36*
X0299782Y0064936D02*
X0298207Y0062209D01*
X0295140Y0063980D01*
X0296715Y0066707D01*
X0299782Y0064936D01*
G37*
X0312760Y0073187D03*
X0320240Y0073187D03*
X0316500Y0065313D03*
G36*
X0329844Y0055032D02*
X0328269Y0057759D01*
X0331336Y0059530D01*
X0332911Y0056803D01*
X0329844Y0055032D01*
G37*
G36*
X0338534Y0055730D02*
X0336959Y0058457D01*
X0340026Y0060228D01*
X0341601Y0057501D01*
X0338534Y0055730D01*
G37*
G36*
X0334793Y0062209D02*
X0333218Y0064936D01*
X0336285Y0066707D01*
X0337860Y0063980D01*
X0334793Y0062209D01*
G37*
G36*
X0328269Y0040741D02*
X0329844Y0043468D01*
X0332911Y0041697D01*
X0331336Y0038970D01*
X0328269Y0040741D01*
G37*
G36*
X0333218Y0033564D02*
X0334793Y0036291D01*
X0337860Y0034520D01*
X0336285Y0031793D01*
X0333218Y0033564D01*
G37*
G36*
X0336959Y0040043D02*
X0338534Y0042770D01*
X0341601Y0040999D01*
X0340026Y0038272D01*
X0336959Y0040043D01*
G37*
X0316500Y0033187D03*
X0312760Y0025313D03*
X0320240Y0025313D03*
G36*
X0298207Y0036291D02*
X0299782Y0033564D01*
X0296715Y0031793D01*
X0295140Y0034520D01*
X0298207Y0036291D01*
G37*
G36*
X0294466Y0042770D02*
X0296041Y0040043D01*
X0292974Y0038272D01*
X0291399Y0040999D01*
X0294466Y0042770D01*
G37*
G36*
X0303156Y0043468D02*
X0304731Y0040741D01*
X0301664Y0038970D01*
X0300089Y0041697D01*
X0303156Y0043468D01*
G37*
D14*
G36*
X0122695Y0032927D02*
X0118241Y0028473D01*
X0113223Y0033491D01*
X0117677Y0037945D01*
X0122695Y0032927D01*
G37*
G36*
X0114777Y0025009D02*
X0110323Y0020555D01*
X0105305Y0025573D01*
X0109759Y0030027D01*
X0114777Y0025009D01*
G37*
X0077098Y0011750D03*
X0065902Y0011750D03*
G36*
X0032677Y0020555D02*
X0028223Y0025009D01*
X0033241Y0030027D01*
X0037695Y0025573D01*
X0032677Y0020555D01*
G37*
G36*
X0024759Y0028473D02*
X0020305Y0032927D01*
X0025323Y0037945D01*
X0029777Y0033491D01*
X0024759Y0028473D01*
G37*
G36*
X0020305Y0110573D02*
X0024759Y0115027D01*
X0029777Y0110009D01*
X0025323Y0105555D01*
X0020305Y0110573D01*
G37*
G36*
X0028223Y0118491D02*
X0032677Y0122945D01*
X0037695Y0117927D01*
X0033241Y0113473D01*
X0028223Y0118491D01*
G37*
X0065902Y0131750D03*
X0077098Y0131750D03*
G36*
X0110323Y0122945D02*
X0114777Y0118491D01*
X0109759Y0113473D01*
X0105305Y0117927D01*
X0110323Y0122945D01*
G37*
G36*
X0118241Y0115027D02*
X0122695Y0110573D01*
X0117677Y0105555D01*
X0113223Y0110009D01*
X0118241Y0115027D01*
G37*
D15*
G36*
X0100292Y0102212D02*
X0096673Y0105831D01*
X0100848Y0110006D01*
X0104467Y0106387D01*
X0100292Y0102212D01*
G37*
G36*
X0105581Y0096923D02*
X0101962Y0100542D01*
X0106137Y0104717D01*
X0109756Y0101098D01*
X0105581Y0096923D01*
G37*
X0075240Y0116750D03*
X0067760Y0116750D03*
G36*
X0038533Y0106637D02*
X0042152Y0110256D01*
X0046327Y0106081D01*
X0042708Y0102462D01*
X0038533Y0106637D01*
G37*
G36*
X0033244Y0101348D02*
X0036863Y0104967D01*
X0041038Y0100792D01*
X0037419Y0097173D01*
X0033244Y0101348D01*
G37*
G36*
X0037669Y0046827D02*
X0041288Y0043208D01*
X0037113Y0039033D01*
X0033494Y0042652D01*
X0037669Y0046827D01*
G37*
G36*
X0042958Y0041538D02*
X0046577Y0037919D01*
X0042402Y0033744D01*
X0038783Y0037363D01*
X0042958Y0041538D01*
G37*
X0067760Y0026750D03*
X0075240Y0026750D03*
G36*
X0104217Y0037363D02*
X0100598Y0033744D01*
X0096423Y0037919D01*
X0100042Y0041538D01*
X0104217Y0037363D01*
G37*
G36*
X0109506Y0042652D02*
X0105887Y0039033D01*
X0101712Y0043208D01*
X0105331Y0046827D01*
X0109506Y0042652D01*
G37*
D16*
G36*
X0098038Y0052727D02*
X0095255Y0049944D01*
X0092194Y0053005D01*
X0094977Y0055788D01*
X0098038Y0052727D01*
G37*
G36*
X0093306Y0047995D02*
X0090523Y0045212D01*
X0087462Y0048273D01*
X0090245Y0051056D01*
X0093306Y0047995D01*
G37*
X0074846Y0041750D03*
X0068154Y0041750D03*
G36*
X0052477Y0045212D02*
X0049694Y0047995D01*
X0052755Y0051056D01*
X0055538Y0048273D01*
X0052477Y0045212D01*
G37*
G36*
X0047745Y0049944D02*
X0044962Y0052727D01*
X0048023Y0055788D01*
X0050806Y0053005D01*
X0047745Y0049944D01*
G37*
G36*
X0045212Y0090773D02*
X0047995Y0093556D01*
X0051056Y0090495D01*
X0048273Y0087712D01*
X0045212Y0090773D01*
G37*
G36*
X0049944Y0095505D02*
X0052727Y0098288D01*
X0055788Y0095227D01*
X0053005Y0092444D01*
X0049944Y0095505D01*
G37*
X0068154Y0101750D03*
X0074846Y0101750D03*
G36*
X0090523Y0098288D02*
X0093306Y0095505D01*
X0090245Y0092444D01*
X0087462Y0095227D01*
X0090523Y0098288D01*
G37*
G36*
X0095255Y0093556D02*
X0098038Y0090773D01*
X0094977Y0087712D01*
X0092194Y0090495D01*
X0095255Y0093556D01*
G37*
G36*
X0134005Y0122306D02*
X0136788Y0119523D01*
X0133727Y0116462D01*
X0130944Y0119245D01*
X0134005Y0122306D01*
G37*
G36*
X0129273Y0127038D02*
X0132056Y0124255D01*
X0128995Y0121194D01*
X0126212Y0123977D01*
X0129273Y0127038D01*
G37*
G36*
X0134273Y0132038D02*
X0137056Y0129255D01*
X0133995Y0126194D01*
X0131212Y0128977D01*
X0134273Y0132038D01*
G37*
G36*
X0139273Y0137038D02*
X0142056Y0134255D01*
X0138995Y0131194D01*
X0136212Y0133977D01*
X0139273Y0137038D01*
G37*
G36*
X0144273Y0142038D02*
X0147056Y0139255D01*
X0143995Y0136194D01*
X0141212Y0138977D01*
X0144273Y0142038D01*
G37*
G36*
X0149273Y0147038D02*
X0152056Y0144255D01*
X0148995Y0141194D01*
X0146212Y0143977D01*
X0149273Y0147038D01*
G37*
G36*
X0154273Y0152038D02*
X0157056Y0149255D01*
X0153995Y0146194D01*
X0151212Y0148977D01*
X0154273Y0152038D01*
G37*
G36*
X0159273Y0157038D02*
X0162056Y0154255D01*
X0158995Y0151194D01*
X0156212Y0153977D01*
X0159273Y0157038D01*
G37*
G36*
X0164273Y0162038D02*
X0167056Y0159255D01*
X0163995Y0156194D01*
X0161212Y0158977D01*
X0164273Y0162038D01*
G37*
G36*
X0169005Y0157306D02*
X0171788Y0154523D01*
X0168727Y0151462D01*
X0165944Y0154245D01*
X0169005Y0157306D01*
G37*
G36*
X0164005Y0152306D02*
X0166788Y0149523D01*
X0163727Y0146462D01*
X0160944Y0149245D01*
X0164005Y0152306D01*
G37*
G36*
X0159005Y0147306D02*
X0161788Y0144523D01*
X0158727Y0141462D01*
X0155944Y0144245D01*
X0159005Y0147306D01*
G37*
G36*
X0154005Y0142306D02*
X0156788Y0139523D01*
X0153727Y0136462D01*
X0150944Y0139245D01*
X0154005Y0142306D01*
G37*
G36*
X0149005Y0137306D02*
X0151788Y0134523D01*
X0148727Y0131462D01*
X0145944Y0134245D01*
X0149005Y0137306D01*
G37*
G36*
X0144005Y0132306D02*
X0146788Y0129523D01*
X0143727Y0126462D01*
X0140944Y0129245D01*
X0144005Y0132306D01*
G37*
G36*
X0139005Y0127306D02*
X0141788Y0124523D01*
X0138727Y0121462D01*
X0135944Y0124245D01*
X0139005Y0127306D01*
G37*
D17*
G36*
X0128033Y0132714D02*
X0126084Y0134663D01*
X0128587Y0137166D01*
X0130536Y0135217D01*
X0128033Y0132714D01*
G37*
G36*
X0123033Y0127714D02*
X0121084Y0129663D01*
X0123587Y0132166D01*
X0125536Y0130217D01*
X0123033Y0127714D01*
G37*
G36*
X0119413Y0131334D02*
X0117464Y0133283D01*
X0119967Y0135786D01*
X0121916Y0133837D01*
X0119413Y0131334D01*
G37*
G36*
X0124413Y0136334D02*
X0122464Y0138283D01*
X0124967Y0140786D01*
X0126916Y0138837D01*
X0124413Y0136334D01*
G37*
G36*
X0133033Y0137714D02*
X0131084Y0139663D01*
X0133587Y0142166D01*
X0135536Y0140217D01*
X0133033Y0137714D01*
G37*
G36*
X0129413Y0141334D02*
X0127464Y0143283D01*
X0129967Y0145786D01*
X0131916Y0143837D01*
X0129413Y0141334D01*
G37*
G36*
X0138033Y0142714D02*
X0136084Y0144663D01*
X0138587Y0147166D01*
X0140536Y0145217D01*
X0138033Y0142714D01*
G37*
G36*
X0134413Y0146334D02*
X0132464Y0148283D01*
X0134967Y0150786D01*
X0136916Y0148837D01*
X0134413Y0146334D01*
G37*
G36*
X0143033Y0147714D02*
X0141084Y0149663D01*
X0143587Y0152166D01*
X0145536Y0150217D01*
X0143033Y0147714D01*
G37*
G36*
X0139413Y0151334D02*
X0137464Y0153283D01*
X0139967Y0155786D01*
X0141916Y0153837D01*
X0139413Y0151334D01*
G37*
G36*
X0148033Y0152714D02*
X0146084Y0154663D01*
X0148587Y0157166D01*
X0150536Y0155217D01*
X0148033Y0152714D01*
G37*
G36*
X0144413Y0156334D02*
X0142464Y0158283D01*
X0144967Y0160786D01*
X0146916Y0158837D01*
X0144413Y0156334D01*
G37*
G36*
X0149413Y0161334D02*
X0147464Y0163283D01*
X0149967Y0165786D01*
X0151916Y0163837D01*
X0149413Y0161334D01*
G37*
G36*
X0153033Y0157714D02*
X0151084Y0159663D01*
X0153587Y0162166D01*
X0155536Y0160217D01*
X0153033Y0157714D01*
G37*
G36*
X0158033Y0162714D02*
X0156084Y0164663D01*
X0158587Y0167166D01*
X0160536Y0165217D01*
X0158033Y0162714D01*
G37*
G36*
X0154413Y0166334D02*
X0152464Y0168283D01*
X0154967Y0170786D01*
X0156916Y0168837D01*
X0154413Y0166334D01*
G37*
G36*
X0081084Y0083837D02*
X0083033Y0085786D01*
X0085536Y0083283D01*
X0083587Y0081334D01*
X0081084Y0083837D01*
G37*
G36*
X0077464Y0080217D02*
X0079413Y0082166D01*
X0081916Y0079663D01*
X0079967Y0077714D01*
X0077464Y0080217D01*
G37*
G36*
X0063587Y0082166D02*
X0065536Y0080217D01*
X0063033Y0077714D01*
X0061084Y0079663D01*
X0063587Y0082166D01*
G37*
G36*
X0059967Y0085786D02*
X0061916Y0083837D01*
X0059413Y0081334D01*
X0057464Y0083283D01*
X0059967Y0085786D01*
G37*
X0060059Y0071750D03*
X0054941Y0071750D03*
G36*
X0061084Y0063837D02*
X0063033Y0065786D01*
X0065536Y0063283D01*
X0063587Y0061334D01*
X0061084Y0063837D01*
G37*
G36*
X0057464Y0060217D02*
X0059413Y0062166D01*
X0061916Y0059663D01*
X0059967Y0057714D01*
X0057464Y0060217D01*
G37*
G36*
X0079967Y0065786D02*
X0081916Y0063837D01*
X0079413Y0061334D01*
X0077464Y0063283D01*
X0079967Y0065786D01*
G37*
X0082941Y0071750D03*
X0088059Y0071750D03*
G36*
X0083587Y0062166D02*
X0085536Y0060217D01*
X0083033Y0057714D01*
X0081084Y0059663D01*
X0083587Y0062166D01*
G37*
D18*
X0131500Y0066152D03*
X0131500Y0077348D03*
X0162917Y0032939D03*
X0176697Y0032939D03*
X0190476Y0032939D03*
X0204256Y0032939D03*
X0218035Y0032939D03*
X0231815Y0032939D03*
X0245594Y0032939D03*
X0245594Y0021742D03*
X0231815Y0021742D03*
X0218035Y0021742D03*
X0204256Y0021742D03*
X0190476Y0021742D03*
X0176697Y0021742D03*
X0162917Y0021742D03*
X0011500Y0066152D03*
X0011500Y0077348D03*
D19*
X0026500Y0075490D03*
X0026500Y0068010D03*
X0116500Y0068010D03*
X0116500Y0075490D03*
X0162917Y0066514D03*
X0162917Y0059033D03*
X0176697Y0059033D03*
X0190476Y0059033D03*
X0190476Y0066514D03*
X0176697Y0066514D03*
X0204256Y0066514D03*
X0204256Y0059033D03*
X0218035Y0059033D03*
X0218035Y0066514D03*
X0231815Y0066514D03*
X0231815Y0059033D03*
X0245594Y0059033D03*
X0245594Y0066514D03*
D20*
X0245594Y0090923D03*
X0245594Y0097616D03*
X0235752Y0097616D03*
X0235752Y0090923D03*
X0225909Y0090923D03*
X0216067Y0090923D03*
X0216067Y0097616D03*
X0225909Y0097616D03*
X0206224Y0097616D03*
X0206224Y0090923D03*
X0196382Y0090923D03*
X0196382Y0097616D03*
X0186539Y0097616D03*
X0176697Y0097616D03*
X0176697Y0090923D03*
X0186539Y0090923D03*
X0101500Y0075096D03*
X0101500Y0068404D03*
X0041500Y0068404D03*
X0041500Y0075096D03*
D21*
X0071500Y0083191D03*
X0071500Y0088309D03*
X0071500Y0060309D03*
X0071500Y0055191D03*
X0176697Y0119270D03*
X0176697Y0124388D03*
X0186539Y0124388D03*
X0186539Y0119270D03*
X0196382Y0119270D03*
X0196382Y0124388D03*
X0206224Y0124388D03*
X0206224Y0119270D03*
X0216067Y0119270D03*
X0216067Y0124388D03*
X0225909Y0124388D03*
X0225909Y0119270D03*
X0235752Y0119270D03*
X0235752Y0124388D03*
X0245594Y0124388D03*
X0245594Y0119270D03*
D22*
X0279876Y0118285D03*
X0279876Y0115136D03*
X0279876Y0111986D03*
X0279876Y0108837D03*
X0279876Y0121435D03*
X0279876Y0124585D03*
X0279876Y0127734D03*
X0279876Y0130884D03*
X0313676Y0130884D03*
X0313676Y0127734D03*
X0313676Y0124585D03*
X0313676Y0121435D03*
X0313676Y0118285D03*
X0313676Y0115136D03*
X0313676Y0111986D03*
X0313676Y0108837D03*
D23*
X0307799Y0102960D03*
X0304650Y0102960D03*
X0301500Y0102960D03*
X0298350Y0102960D03*
X0295201Y0102960D03*
X0292051Y0102960D03*
X0288902Y0102960D03*
X0285752Y0102960D03*
X0285752Y0136760D03*
X0288902Y0136760D03*
X0292051Y0136760D03*
X0295201Y0136760D03*
X0298350Y0136760D03*
X0301500Y0136760D03*
X0304650Y0136760D03*
X0307799Y0136760D03*
D24*
X0108980Y0162065D03*
X0108980Y0180018D03*
D25*
X0080240Y0171041D03*
M02*
