G75*
%MOIN*%
%OFA0B0*%
%FSLAX25Y25*%
%IPPOS*%
%LPD*%
%AMOC8*
5,1,8,0,0,1.08239X$1,22.5*
%
%ADD10C,0.00300*%
%ADD11C,0.00400*%
%ADD12C,0.00800*%
%ADD13C,0.01000*%
%ADD14C,0.00394*%
%ADD15C,0.00500*%
%ADD16R,0.00886X0.00886*%
%ADD17C,0.00000*%
%ADD18R,0.12600X0.07300*%
%ADD19R,0.03400X0.07300*%
%ADD20R,0.11400X0.03400*%
%ADD21R,0.03000X0.03400*%
%ADD22C,0.00787*%
%ADD23R,0.05236X0.01968*%
%ADD24C,0.00600*%
%ADD25C,0.00200*%
%ADD26R,0.00800X0.03300*%
%ADD27R,0.01063X0.03957*%
%ADD28R,0.03957X0.01063*%
%ADD29R,0.02362X0.01181*%
%ADD30R,0.01181X0.02362*%
%ADD31R,0.01600X0.03400*%
%ADD32R,0.03400X0.01600*%
%ADD33R,0.02559X0.05512*%
%ADD34R,0.05512X0.02559*%
%ADD35R,0.02900X0.06900*%
%ADD36R,0.06900X0.02900*%
%ADD37R,0.03900X0.01800*%
%ADD38R,0.01800X0.03900*%
D10*
X0007150Y0007400D02*
X0007150Y0011103D01*
X0009619Y0011103D01*
X0010833Y0009869D02*
X0012068Y0011103D01*
X0012068Y0007400D01*
X0013302Y0007400D02*
X0010833Y0007400D01*
X0008384Y0009252D02*
X0007150Y0009252D01*
X0020150Y0021900D02*
X0020150Y0025603D01*
X0022002Y0025603D01*
X0022619Y0024986D01*
X0022619Y0023752D01*
X0022002Y0023134D01*
X0020150Y0023134D01*
X0021384Y0023134D02*
X0022619Y0021900D01*
X0023833Y0022517D02*
X0024450Y0021900D01*
X0025685Y0021900D01*
X0026302Y0022517D01*
X0026302Y0023134D01*
X0025685Y0023752D01*
X0023833Y0023752D01*
X0023833Y0022517D01*
X0023833Y0023752D02*
X0025068Y0024986D01*
X0026302Y0025603D01*
X0032650Y0032900D02*
X0032650Y0036603D01*
X0034502Y0036603D01*
X0035119Y0035986D01*
X0035119Y0034752D01*
X0034502Y0034134D01*
X0032650Y0034134D01*
X0033884Y0034134D02*
X0035119Y0032900D01*
X0036333Y0033517D02*
X0036333Y0034752D01*
X0038185Y0034752D01*
X0038802Y0034134D01*
X0038802Y0033517D01*
X0038185Y0032900D01*
X0036950Y0032900D01*
X0036333Y0033517D01*
X0036333Y0034752D02*
X0037568Y0035986D01*
X0038802Y0036603D01*
X0043400Y0043900D02*
X0043400Y0047603D01*
X0045252Y0047603D01*
X0045869Y0046986D01*
X0045869Y0045752D01*
X0045252Y0045134D01*
X0043400Y0045134D01*
X0044634Y0045134D02*
X0045869Y0043900D01*
X0047083Y0044517D02*
X0047083Y0045752D01*
X0048935Y0045752D01*
X0049552Y0045134D01*
X0049552Y0044517D01*
X0048935Y0043900D01*
X0047700Y0043900D01*
X0047083Y0044517D01*
X0047083Y0045752D02*
X0048318Y0046986D01*
X0049552Y0047603D01*
X0052900Y0053400D02*
X0052900Y0057103D01*
X0054752Y0057103D01*
X0055369Y0056486D01*
X0055369Y0055252D01*
X0054752Y0054634D01*
X0052900Y0054634D01*
X0054134Y0054634D02*
X0055369Y0053400D01*
X0056583Y0054017D02*
X0056583Y0055252D01*
X0058435Y0055252D01*
X0059052Y0054634D01*
X0059052Y0054017D01*
X0058435Y0053400D01*
X0057200Y0053400D01*
X0056583Y0054017D01*
X0056583Y0055252D02*
X0057818Y0056486D01*
X0059052Y0057103D01*
X0068400Y0050353D02*
X0070252Y0050353D01*
X0070869Y0049736D01*
X0070869Y0048502D01*
X0070252Y0047884D01*
X0068400Y0047884D01*
X0068400Y0046650D02*
X0068400Y0050353D01*
X0069634Y0047884D02*
X0070869Y0046650D01*
X0072083Y0047267D02*
X0072700Y0046650D01*
X0073935Y0046650D01*
X0074552Y0047267D01*
X0074552Y0048502D01*
X0073935Y0049119D01*
X0073318Y0049119D01*
X0072083Y0048502D01*
X0072083Y0050353D01*
X0074552Y0050353D01*
X0084900Y0053900D02*
X0084900Y0057603D01*
X0086752Y0057603D01*
X0087369Y0056986D01*
X0087369Y0055752D01*
X0086752Y0055134D01*
X0084900Y0055134D01*
X0086134Y0055134D02*
X0087369Y0053900D01*
X0088583Y0055752D02*
X0091052Y0055752D01*
X0090435Y0057603D02*
X0088583Y0055752D01*
X0090435Y0057603D02*
X0090435Y0053900D01*
X0095400Y0047853D02*
X0097252Y0047853D01*
X0097869Y0047236D01*
X0097869Y0046002D01*
X0097252Y0045384D01*
X0095400Y0045384D01*
X0095400Y0044150D02*
X0095400Y0047853D01*
X0096634Y0045384D02*
X0097869Y0044150D01*
X0099083Y0046002D02*
X0101552Y0046002D01*
X0100935Y0047853D02*
X0099083Y0046002D01*
X0100935Y0047853D02*
X0100935Y0044150D01*
X0105400Y0037103D02*
X0107252Y0037103D01*
X0107869Y0036486D01*
X0107869Y0035252D01*
X0107252Y0034634D01*
X0105400Y0034634D01*
X0105400Y0033400D02*
X0105400Y0037103D01*
X0109083Y0035252D02*
X0111552Y0035252D01*
X0110935Y0037103D02*
X0110935Y0033400D01*
X0109083Y0035252D02*
X0110935Y0037103D01*
X0107869Y0033400D02*
X0106634Y0034634D01*
X0118650Y0026853D02*
X0120502Y0026853D01*
X0121119Y0026236D01*
X0121119Y0025002D01*
X0120502Y0024384D01*
X0118650Y0024384D01*
X0118650Y0023150D02*
X0118650Y0026853D01*
X0122333Y0025002D02*
X0124802Y0025002D01*
X0124185Y0026853D02*
X0124185Y0023150D01*
X0122333Y0025002D02*
X0124185Y0026853D01*
X0121119Y0023150D02*
X0119884Y0024384D01*
X0074802Y0021853D02*
X0072333Y0021853D01*
X0072333Y0020002D01*
X0073568Y0020619D01*
X0074185Y0020619D01*
X0074802Y0020002D01*
X0074802Y0018767D01*
X0074185Y0018150D01*
X0072950Y0018150D01*
X0072333Y0018767D01*
X0071119Y0018150D02*
X0069884Y0019384D01*
X0070502Y0019384D02*
X0068650Y0019384D01*
X0068650Y0018150D02*
X0068650Y0021853D01*
X0070502Y0021853D01*
X0071119Y0021236D01*
X0071119Y0020002D01*
X0070502Y0019384D01*
X0069752Y0006853D02*
X0070369Y0006236D01*
X0070369Y0005002D01*
X0069752Y0004384D01*
X0067900Y0004384D01*
X0067900Y0003150D02*
X0067900Y0006853D01*
X0069752Y0006853D01*
X0071583Y0006853D02*
X0071583Y0005002D01*
X0072818Y0005619D01*
X0073435Y0005619D01*
X0074052Y0005002D01*
X0074052Y0003767D01*
X0073435Y0003150D01*
X0072200Y0003150D01*
X0071583Y0003767D01*
X0070369Y0003150D02*
X0069134Y0004384D01*
X0071583Y0006853D02*
X0074052Y0006853D01*
X0074185Y0032650D02*
X0072950Y0032650D01*
X0072333Y0033267D01*
X0072333Y0034502D02*
X0073568Y0035119D01*
X0074185Y0035119D01*
X0074802Y0034502D01*
X0074802Y0033267D01*
X0074185Y0032650D01*
X0072333Y0034502D02*
X0072333Y0036353D01*
X0074802Y0036353D01*
X0071119Y0035736D02*
X0071119Y0034502D01*
X0070502Y0033884D01*
X0068650Y0033884D01*
X0068650Y0032650D02*
X0068650Y0036353D01*
X0070502Y0036353D01*
X0071119Y0035736D01*
X0069884Y0033884D02*
X0071119Y0032650D01*
X0091900Y0069900D02*
X0091900Y0073603D01*
X0093752Y0073603D01*
X0094369Y0072986D01*
X0094369Y0071752D01*
X0093752Y0071134D01*
X0091900Y0071134D01*
X0093134Y0071134D02*
X0094369Y0069900D01*
X0095583Y0070517D02*
X0096200Y0069900D01*
X0097435Y0069900D01*
X0098052Y0070517D01*
X0098052Y0071134D01*
X0097435Y0071752D01*
X0096818Y0071752D01*
X0097435Y0071752D02*
X0098052Y0072369D01*
X0098052Y0072986D01*
X0097435Y0073603D01*
X0096200Y0073603D01*
X0095583Y0072986D01*
X0106150Y0073603D02*
X0106150Y0069900D01*
X0106150Y0071134D02*
X0108002Y0071134D01*
X0108619Y0071752D01*
X0108619Y0072986D01*
X0108002Y0073603D01*
X0106150Y0073603D01*
X0109833Y0072986D02*
X0110450Y0073603D01*
X0111685Y0073603D01*
X0112302Y0072986D01*
X0112302Y0072369D01*
X0111685Y0071752D01*
X0112302Y0071134D01*
X0112302Y0070517D01*
X0111685Y0069900D01*
X0110450Y0069900D01*
X0109833Y0070517D01*
X0108619Y0069900D02*
X0107384Y0071134D01*
X0111068Y0071752D02*
X0111685Y0071752D01*
X0121400Y0071634D02*
X0123252Y0071634D01*
X0123869Y0072252D01*
X0123869Y0073486D01*
X0123252Y0074103D01*
X0121400Y0074103D01*
X0121400Y0070400D01*
X0122634Y0071634D02*
X0123869Y0070400D01*
X0125083Y0071017D02*
X0125700Y0070400D01*
X0126935Y0070400D01*
X0127552Y0071017D01*
X0127552Y0071634D01*
X0126935Y0072252D01*
X0126318Y0072252D01*
X0126935Y0072252D02*
X0127552Y0072869D01*
X0127552Y0073486D01*
X0126935Y0074103D01*
X0125700Y0074103D01*
X0125083Y0073486D01*
X0137147Y0073200D02*
X0137147Y0074435D01*
X0137764Y0075052D01*
X0138381Y0075052D01*
X0138998Y0074435D01*
X0139616Y0075052D01*
X0140233Y0075052D01*
X0140850Y0074435D01*
X0140850Y0073200D01*
X0140233Y0072583D01*
X0140850Y0071369D02*
X0139616Y0070134D01*
X0139616Y0070752D02*
X0139616Y0068900D01*
X0140850Y0068900D02*
X0137147Y0068900D01*
X0137147Y0070752D01*
X0137764Y0071369D01*
X0138998Y0071369D01*
X0139616Y0070752D01*
X0137764Y0072583D02*
X0137147Y0073200D01*
X0138998Y0073818D02*
X0138998Y0074435D01*
X0101302Y0096400D02*
X0098833Y0096400D01*
X0101302Y0098869D01*
X0101302Y0099486D01*
X0100685Y0100103D01*
X0099450Y0100103D01*
X0098833Y0099486D01*
X0097619Y0099486D02*
X0097619Y0098252D01*
X0097002Y0097634D01*
X0095150Y0097634D01*
X0095150Y0096400D02*
X0095150Y0100103D01*
X0097002Y0100103D01*
X0097619Y0099486D01*
X0096384Y0097634D02*
X0097619Y0096400D01*
X0091685Y0090103D02*
X0090450Y0090103D01*
X0089833Y0089486D01*
X0088619Y0089486D02*
X0088619Y0088252D01*
X0088002Y0087634D01*
X0086150Y0087634D01*
X0086150Y0086400D02*
X0086150Y0090103D01*
X0088002Y0090103D01*
X0088619Y0089486D01*
X0087384Y0087634D02*
X0088619Y0086400D01*
X0089833Y0086400D02*
X0092302Y0088869D01*
X0092302Y0089486D01*
X0091685Y0090103D01*
X0085302Y0091900D02*
X0082833Y0091900D01*
X0081619Y0091900D02*
X0080384Y0093134D01*
X0081002Y0093134D02*
X0079150Y0093134D01*
X0079150Y0091900D02*
X0079150Y0095603D01*
X0081002Y0095603D01*
X0081619Y0094986D01*
X0081619Y0093752D01*
X0081002Y0093134D01*
X0082833Y0094369D02*
X0084068Y0095603D01*
X0084068Y0091900D01*
X0077093Y0091766D02*
X0074624Y0091766D01*
X0077093Y0094235D01*
X0077093Y0094852D01*
X0076476Y0095469D01*
X0075242Y0095469D01*
X0074624Y0094852D01*
X0073410Y0094852D02*
X0070941Y0092383D01*
X0071558Y0091766D01*
X0072793Y0091766D01*
X0073410Y0092383D01*
X0073410Y0094852D01*
X0072793Y0095469D01*
X0071558Y0095469D01*
X0070941Y0094852D01*
X0070941Y0092383D01*
X0069727Y0093617D02*
X0067258Y0093617D01*
X0069110Y0095469D01*
X0069110Y0091766D01*
X0066044Y0092383D02*
X0065426Y0091766D01*
X0064192Y0091766D01*
X0063575Y0092383D01*
X0066044Y0094852D01*
X0066044Y0092383D01*
X0066044Y0094852D02*
X0065426Y0095469D01*
X0064192Y0095469D01*
X0063575Y0094852D01*
X0063575Y0092383D01*
X0058802Y0089486D02*
X0058185Y0090103D01*
X0056950Y0090103D01*
X0056333Y0089486D01*
X0056333Y0088869D01*
X0056950Y0088252D01*
X0058185Y0088252D01*
X0058802Y0087634D01*
X0058802Y0087017D01*
X0058185Y0086400D01*
X0056950Y0086400D01*
X0056333Y0087017D01*
X0056333Y0087634D01*
X0056950Y0088252D01*
X0058185Y0088252D02*
X0058802Y0088869D01*
X0058802Y0089486D01*
X0055119Y0089486D02*
X0054502Y0090103D01*
X0052650Y0090103D01*
X0052650Y0086400D01*
X0052650Y0087634D02*
X0054502Y0087634D01*
X0055119Y0088252D01*
X0055119Y0089486D01*
X0053884Y0087634D02*
X0055119Y0086400D01*
X0047685Y0095400D02*
X0046450Y0095400D01*
X0045833Y0096017D01*
X0045833Y0096634D01*
X0046450Y0097252D01*
X0047685Y0097252D01*
X0048302Y0096634D01*
X0048302Y0096017D01*
X0047685Y0095400D01*
X0047685Y0097252D02*
X0048302Y0097869D01*
X0048302Y0098486D01*
X0047685Y0099103D01*
X0046450Y0099103D01*
X0045833Y0098486D01*
X0045833Y0097869D01*
X0046450Y0097252D01*
X0044619Y0097252D02*
X0044619Y0098486D01*
X0044002Y0099103D01*
X0042150Y0099103D01*
X0042150Y0095400D01*
X0042150Y0096634D02*
X0044002Y0096634D01*
X0044619Y0097252D01*
X0043384Y0096634D02*
X0044619Y0095400D01*
X0036935Y0107150D02*
X0035700Y0107150D01*
X0035083Y0107767D01*
X0035083Y0108384D01*
X0035700Y0109002D01*
X0036935Y0109002D01*
X0037552Y0108384D01*
X0037552Y0107767D01*
X0036935Y0107150D01*
X0036935Y0109002D02*
X0037552Y0109619D01*
X0037552Y0110236D01*
X0036935Y0110853D01*
X0035700Y0110853D01*
X0035083Y0110236D01*
X0035083Y0109619D01*
X0035700Y0109002D01*
X0033869Y0109002D02*
X0033869Y0110236D01*
X0033252Y0110853D01*
X0031400Y0110853D01*
X0031400Y0107150D01*
X0031400Y0108384D02*
X0033252Y0108384D01*
X0033869Y0109002D01*
X0032634Y0108384D02*
X0033869Y0107150D01*
X0025435Y0118650D02*
X0024200Y0118650D01*
X0023583Y0119267D01*
X0023583Y0119884D01*
X0024200Y0120502D01*
X0025435Y0120502D01*
X0026052Y0119884D01*
X0026052Y0119267D01*
X0025435Y0118650D01*
X0025435Y0120502D02*
X0026052Y0121119D01*
X0026052Y0121736D01*
X0025435Y0122353D01*
X0024200Y0122353D01*
X0023583Y0121736D01*
X0023583Y0121119D01*
X0024200Y0120502D01*
X0022369Y0120502D02*
X0021752Y0119884D01*
X0019900Y0119884D01*
X0019900Y0118650D02*
X0019900Y0122353D01*
X0021752Y0122353D01*
X0022369Y0121736D01*
X0022369Y0120502D01*
X0021134Y0119884D02*
X0022369Y0118650D01*
X0064785Y0122191D02*
X0067254Y0124659D01*
X0067254Y0122191D01*
X0066637Y0121573D01*
X0065402Y0121573D01*
X0064785Y0122191D01*
X0064785Y0124659D01*
X0065402Y0125277D01*
X0066637Y0125277D01*
X0067254Y0124659D01*
X0068468Y0124659D02*
X0068468Y0124042D01*
X0069086Y0123425D01*
X0070320Y0123425D01*
X0070937Y0122808D01*
X0070937Y0122191D01*
X0070320Y0121573D01*
X0069086Y0121573D01*
X0068468Y0122191D01*
X0068468Y0122808D01*
X0069086Y0123425D01*
X0070320Y0123425D02*
X0070937Y0124042D01*
X0070937Y0124659D01*
X0070320Y0125277D01*
X0069086Y0125277D01*
X0068468Y0124659D01*
X0072152Y0124659D02*
X0072769Y0125277D01*
X0074003Y0125277D01*
X0074620Y0124659D01*
X0072152Y0122191D01*
X0072769Y0121573D01*
X0074003Y0121573D01*
X0074620Y0122191D01*
X0074620Y0124659D01*
X0075835Y0125277D02*
X0075835Y0123425D01*
X0077069Y0124042D01*
X0077686Y0124042D01*
X0078304Y0123425D01*
X0078304Y0122191D01*
X0077686Y0121573D01*
X0076452Y0121573D01*
X0075835Y0122191D01*
X0072152Y0122191D02*
X0072152Y0124659D01*
X0075835Y0125277D02*
X0078304Y0125277D01*
X0082400Y0125603D02*
X0084252Y0125603D01*
X0084869Y0124986D01*
X0084869Y0123752D01*
X0084252Y0123134D01*
X0082400Y0123134D01*
X0082400Y0121900D02*
X0082400Y0125603D01*
X0083634Y0123134D02*
X0084869Y0121900D01*
X0086083Y0121900D02*
X0088552Y0121900D01*
X0087318Y0121900D02*
X0087318Y0125603D01*
X0086083Y0124369D01*
X0086818Y0110353D02*
X0086818Y0106650D01*
X0088052Y0106650D02*
X0085583Y0106650D01*
X0084369Y0106650D02*
X0083134Y0107884D01*
X0083752Y0107884D02*
X0081900Y0107884D01*
X0081900Y0106650D02*
X0081900Y0110353D01*
X0083752Y0110353D01*
X0084369Y0109736D01*
X0084369Y0108502D01*
X0083752Y0107884D01*
X0085583Y0109119D02*
X0086818Y0110353D01*
X0078650Y0109636D02*
X0078650Y0109019D01*
X0078033Y0108402D01*
X0078650Y0107785D01*
X0078650Y0107167D01*
X0078033Y0106550D01*
X0076798Y0106550D01*
X0076181Y0107167D01*
X0074967Y0107167D02*
X0074349Y0106550D01*
X0073115Y0106550D01*
X0072498Y0107167D01*
X0074967Y0109636D01*
X0074967Y0107167D01*
X0074967Y0109636D02*
X0074349Y0110253D01*
X0073115Y0110253D01*
X0072498Y0109636D01*
X0072498Y0107167D01*
X0071283Y0107167D02*
X0071283Y0107785D01*
X0070666Y0108402D01*
X0068815Y0108402D01*
X0068815Y0107167D01*
X0069432Y0106550D01*
X0070666Y0106550D01*
X0071283Y0107167D01*
X0068815Y0108402D02*
X0070049Y0109636D01*
X0071283Y0110253D01*
X0067600Y0109636D02*
X0065131Y0107167D01*
X0065749Y0106550D01*
X0066983Y0106550D01*
X0067600Y0107167D01*
X0067600Y0109636D01*
X0066983Y0110253D01*
X0065749Y0110253D01*
X0065131Y0109636D01*
X0065131Y0107167D01*
X0076181Y0109636D02*
X0076798Y0110253D01*
X0078033Y0110253D01*
X0078650Y0109636D01*
X0078033Y0108402D02*
X0077415Y0108402D01*
X0106150Y0108384D02*
X0108002Y0108384D01*
X0108619Y0109002D01*
X0108619Y0110236D01*
X0108002Y0110853D01*
X0106150Y0110853D01*
X0106150Y0107150D01*
X0107384Y0108384D02*
X0108619Y0107150D01*
X0109833Y0107150D02*
X0112302Y0109619D01*
X0112302Y0110236D01*
X0111685Y0110853D01*
X0110450Y0110853D01*
X0109833Y0110236D01*
X0109833Y0107150D02*
X0112302Y0107150D01*
X0117400Y0117150D02*
X0117400Y0120853D01*
X0119252Y0120853D01*
X0119869Y0120236D01*
X0119869Y0119002D01*
X0119252Y0118384D01*
X0117400Y0118384D01*
X0118634Y0118384D02*
X0119869Y0117150D01*
X0121083Y0117150D02*
X0123552Y0119619D01*
X0123552Y0120236D01*
X0122935Y0120853D01*
X0121700Y0120853D01*
X0121083Y0120236D01*
X0121083Y0117150D02*
X0123552Y0117150D01*
X0146557Y0116124D02*
X0147242Y0116808D01*
X0147926Y0116808D01*
X0147926Y0114072D01*
X0148610Y0114072D01*
X0149294Y0114756D01*
X0149294Y0115440D01*
X0147926Y0116808D01*
X0146557Y0116124D02*
X0146557Y0115440D01*
X0147926Y0114072D01*
X0150009Y0116155D02*
X0150351Y0116498D01*
X0150693Y0116155D01*
X0150351Y0115813D01*
X0150009Y0116155D01*
X0151051Y0117197D02*
X0150709Y0117539D01*
X0150709Y0118223D01*
X0151393Y0118907D01*
X0152077Y0118907D01*
X0152419Y0118565D01*
X0152419Y0117881D01*
X0151735Y0117197D01*
X0151051Y0117197D01*
X0150709Y0118223D02*
X0150025Y0118223D01*
X0149683Y0118565D01*
X0149683Y0119250D01*
X0150367Y0119934D01*
X0151051Y0119934D01*
X0151393Y0119592D01*
X0151393Y0118907D01*
X0152108Y0120307D02*
X0152450Y0120649D01*
X0153134Y0120649D01*
X0153134Y0121333D01*
X0153819Y0121333D01*
X0154845Y0120307D01*
X0154161Y0119623D02*
X0153134Y0120649D01*
X0152108Y0120307D02*
X0153477Y0118939D01*
X0155560Y0121022D02*
X0154192Y0122390D01*
X0154534Y0122732D01*
X0155218Y0122732D01*
X0155218Y0123417D01*
X0155902Y0123417D01*
X0156928Y0122390D01*
X0156244Y0121706D02*
X0155218Y0122732D01*
X0159043Y0125873D02*
X0160069Y0126899D01*
X0160069Y0127584D01*
X0159385Y0128268D01*
X0158701Y0128268D01*
X0157675Y0127241D01*
X0159727Y0125189D01*
X0161811Y0127273D02*
X0162495Y0127957D01*
X0162153Y0127615D02*
X0160784Y0128983D01*
X0160442Y0128641D01*
X0160100Y0129667D02*
X0159758Y0130009D01*
X0161831Y0130030D02*
X0162515Y0130714D01*
X0161831Y0130714D02*
X0163200Y0129346D01*
X0163884Y0129346D01*
X0164246Y0130393D02*
X0164931Y0130393D01*
X0165957Y0131419D01*
X0166672Y0132134D02*
X0164620Y0134187D01*
X0165646Y0133844D02*
X0166330Y0134529D01*
X0167014Y0134529D01*
X0168040Y0133502D01*
X0165646Y0133160D02*
X0165646Y0133844D01*
X0164589Y0132787D02*
X0163562Y0131761D01*
X0163562Y0131077D01*
X0164246Y0130393D01*
X0089552Y0137400D02*
X0087083Y0137400D01*
X0085869Y0137400D02*
X0084634Y0138634D01*
X0085252Y0138634D02*
X0083400Y0138634D01*
X0083400Y0137400D02*
X0083400Y0141103D01*
X0085252Y0141103D01*
X0085869Y0140486D01*
X0085869Y0139252D01*
X0085252Y0138634D01*
X0087083Y0139869D02*
X0088318Y0141103D01*
X0088318Y0137400D01*
X0078168Y0137517D02*
X0078168Y0138134D01*
X0077551Y0138752D01*
X0075699Y0138752D01*
X0075699Y0137517D01*
X0076317Y0136900D01*
X0077551Y0136900D01*
X0078168Y0137517D01*
X0076934Y0139986D02*
X0075699Y0138752D01*
X0074485Y0139986D02*
X0072016Y0137517D01*
X0072633Y0136900D01*
X0073868Y0136900D01*
X0074485Y0137517D01*
X0074485Y0139986D01*
X0073868Y0140603D01*
X0072633Y0140603D01*
X0072016Y0139986D01*
X0072016Y0137517D01*
X0070802Y0136900D02*
X0068333Y0136900D01*
X0070802Y0139369D01*
X0070802Y0139986D01*
X0070185Y0140603D01*
X0068950Y0140603D01*
X0068333Y0139986D01*
X0065884Y0140603D02*
X0065884Y0136900D01*
X0064650Y0136900D02*
X0067119Y0136900D01*
X0064650Y0139369D02*
X0065884Y0140603D01*
X0076934Y0139986D02*
X0078168Y0140603D01*
X0089833Y0086400D02*
X0092302Y0086400D01*
X0052052Y0073603D02*
X0052052Y0072986D01*
X0049583Y0070517D01*
X0049583Y0069900D01*
X0048369Y0069900D02*
X0047134Y0071134D01*
X0047752Y0071134D02*
X0045900Y0071134D01*
X0045900Y0069900D02*
X0045900Y0073603D01*
X0047752Y0073603D01*
X0048369Y0072986D01*
X0048369Y0071752D01*
X0047752Y0071134D01*
X0049583Y0073603D02*
X0052052Y0073603D01*
X0037802Y0073353D02*
X0037802Y0072736D01*
X0035333Y0070267D01*
X0035333Y0069650D01*
X0034119Y0069650D02*
X0032884Y0070884D01*
X0033502Y0070884D02*
X0031650Y0070884D01*
X0031650Y0069650D02*
X0031650Y0073353D01*
X0033502Y0073353D01*
X0034119Y0072736D01*
X0034119Y0071502D01*
X0033502Y0070884D01*
X0035333Y0073353D02*
X0037802Y0073353D01*
X0022552Y0073103D02*
X0022552Y0072486D01*
X0020083Y0070017D01*
X0020083Y0069400D01*
X0018869Y0069400D02*
X0017634Y0070634D01*
X0018252Y0070634D02*
X0016400Y0070634D01*
X0016400Y0069400D02*
X0016400Y0073103D01*
X0018252Y0073103D01*
X0018869Y0072486D01*
X0018869Y0071252D01*
X0018252Y0070634D01*
X0020083Y0073103D02*
X0022552Y0073103D01*
X0007100Y0073083D02*
X0006483Y0073083D01*
X0004014Y0075552D01*
X0003397Y0075552D01*
X0003397Y0073083D01*
X0004014Y0071869D02*
X0003397Y0071252D01*
X0003397Y0069400D01*
X0007100Y0069400D01*
X0005866Y0069400D02*
X0005866Y0071252D01*
X0005248Y0071869D01*
X0004014Y0071869D01*
X0005866Y0070634D02*
X0007100Y0071869D01*
X0166650Y0019319D02*
X0166650Y0017384D01*
X0168585Y0019319D01*
X0168585Y0017384D01*
X0168101Y0016900D01*
X0167134Y0016900D01*
X0166650Y0017384D01*
X0166650Y0019319D02*
X0167134Y0019802D01*
X0168101Y0019802D01*
X0168585Y0019319D01*
X0169597Y0017384D02*
X0170080Y0017384D01*
X0170080Y0016900D01*
X0169597Y0016900D01*
X0169597Y0017384D01*
X0171070Y0017384D02*
X0171554Y0016900D01*
X0172521Y0016900D01*
X0173005Y0017384D01*
X0173005Y0018351D01*
X0172521Y0018835D01*
X0172037Y0018835D01*
X0171070Y0018351D01*
X0171070Y0019802D01*
X0173005Y0019802D01*
X0174016Y0018835D02*
X0174016Y0016900D01*
X0174984Y0016900D02*
X0174984Y0018351D01*
X0175468Y0018835D01*
X0175951Y0018351D01*
X0175951Y0016900D01*
X0176963Y0016900D02*
X0176963Y0018835D01*
X0177447Y0018835D01*
X0177930Y0018351D01*
X0178414Y0018835D01*
X0178898Y0018351D01*
X0178898Y0016900D01*
X0177930Y0016900D02*
X0177930Y0018351D01*
X0174984Y0018351D02*
X0174500Y0018835D01*
X0174016Y0018835D01*
X0182856Y0017867D02*
X0184307Y0017867D01*
X0184791Y0018351D01*
X0184791Y0019319D01*
X0184307Y0019802D01*
X0182856Y0019802D01*
X0182856Y0016900D01*
X0185802Y0016900D02*
X0186770Y0016900D01*
X0186286Y0016900D02*
X0186286Y0018835D01*
X0185802Y0018835D01*
X0186286Y0019802D02*
X0186286Y0020286D01*
X0187767Y0018835D02*
X0188734Y0018835D01*
X0188250Y0019319D02*
X0188250Y0017384D01*
X0188734Y0016900D01*
X0189731Y0017384D02*
X0190215Y0016900D01*
X0191666Y0016900D01*
X0192678Y0016900D02*
X0192678Y0019802D01*
X0193161Y0018835D02*
X0194129Y0018835D01*
X0194613Y0018351D01*
X0194613Y0016900D01*
X0192678Y0018351D02*
X0193161Y0018835D01*
X0191666Y0018835D02*
X0190215Y0018835D01*
X0189731Y0018351D01*
X0189731Y0017384D01*
X0263448Y0062384D02*
X0263448Y0063351D01*
X0263931Y0063835D01*
X0265866Y0061900D01*
X0266350Y0062384D01*
X0266350Y0063351D01*
X0265866Y0063835D01*
X0263931Y0063835D01*
X0263448Y0062384D02*
X0263931Y0061900D01*
X0265866Y0061900D01*
X0265866Y0064847D02*
X0265866Y0065330D01*
X0266350Y0065330D01*
X0266350Y0064847D01*
X0265866Y0064847D01*
X0265866Y0066320D02*
X0266350Y0066804D01*
X0266350Y0067771D01*
X0265866Y0068255D01*
X0264899Y0068255D01*
X0264415Y0067771D01*
X0264415Y0067287D01*
X0264899Y0066320D01*
X0263448Y0066320D01*
X0263448Y0068255D01*
X0264415Y0069266D02*
X0264415Y0069750D01*
X0264899Y0070234D01*
X0264415Y0070718D01*
X0264899Y0071201D01*
X0266350Y0071201D01*
X0266350Y0070234D02*
X0264899Y0070234D01*
X0264415Y0069266D02*
X0266350Y0069266D01*
X0266350Y0072213D02*
X0264415Y0072213D01*
X0264415Y0072697D01*
X0264899Y0073180D01*
X0264415Y0073664D01*
X0264899Y0074148D01*
X0266350Y0074148D01*
X0266350Y0073180D02*
X0264899Y0073180D01*
X0265383Y0078106D02*
X0265383Y0079557D01*
X0264899Y0080041D01*
X0263931Y0080041D01*
X0263448Y0079557D01*
X0263448Y0078106D01*
X0266350Y0078106D01*
X0266350Y0081052D02*
X0266350Y0082020D01*
X0266350Y0081536D02*
X0264415Y0081536D01*
X0264415Y0081052D01*
X0263448Y0081536D02*
X0262964Y0081536D01*
X0264415Y0083017D02*
X0264415Y0083984D01*
X0263931Y0083500D02*
X0265866Y0083500D01*
X0266350Y0083984D01*
X0265866Y0084981D02*
X0266350Y0085465D01*
X0266350Y0086916D01*
X0266350Y0087928D02*
X0263448Y0087928D01*
X0264415Y0088411D02*
X0264415Y0089379D01*
X0264899Y0089863D01*
X0266350Y0089863D01*
X0264899Y0087928D02*
X0264415Y0088411D01*
X0264415Y0086916D02*
X0264415Y0085465D01*
X0264899Y0084981D01*
X0265866Y0084981D01*
X0306150Y0109650D02*
X0308085Y0109650D01*
X0307117Y0109650D02*
X0307117Y0112552D01*
X0306150Y0111585D01*
X0309097Y0110134D02*
X0309580Y0110134D01*
X0309580Y0109650D01*
X0309097Y0109650D01*
X0309097Y0110134D01*
X0310570Y0109650D02*
X0312505Y0111585D01*
X0312505Y0112069D01*
X0312021Y0112552D01*
X0311054Y0112552D01*
X0310570Y0112069D01*
X0310570Y0109650D02*
X0312505Y0109650D01*
X0313516Y0109650D02*
X0313516Y0110134D01*
X0315451Y0112069D01*
X0315451Y0112552D01*
X0313516Y0112552D01*
X0316463Y0111585D02*
X0316947Y0111585D01*
X0317430Y0111101D01*
X0317914Y0111585D01*
X0318398Y0111101D01*
X0318398Y0109650D01*
X0317430Y0109650D02*
X0317430Y0111101D01*
X0316463Y0111585D02*
X0316463Y0109650D01*
X0319409Y0109650D02*
X0319409Y0111585D01*
X0319893Y0111585D01*
X0320377Y0111101D01*
X0320861Y0111585D01*
X0321344Y0111101D01*
X0321344Y0109650D01*
X0320377Y0109650D02*
X0320377Y0111101D01*
X0325302Y0110617D02*
X0326754Y0110617D01*
X0327237Y0111101D01*
X0327237Y0112069D01*
X0326754Y0112552D01*
X0325302Y0112552D01*
X0325302Y0109650D01*
X0328249Y0109650D02*
X0329216Y0109650D01*
X0328733Y0109650D02*
X0328733Y0111585D01*
X0328249Y0111585D01*
X0328733Y0112552D02*
X0328733Y0113036D01*
X0330213Y0111585D02*
X0331181Y0111585D01*
X0330697Y0112069D02*
X0330697Y0110134D01*
X0331181Y0109650D01*
X0332178Y0110134D02*
X0332661Y0109650D01*
X0334113Y0109650D01*
X0335124Y0109650D02*
X0335124Y0112552D01*
X0335608Y0111585D02*
X0336575Y0111585D01*
X0337059Y0111101D01*
X0337059Y0109650D01*
X0335124Y0111101D02*
X0335608Y0111585D01*
X0334113Y0111585D02*
X0332661Y0111585D01*
X0332178Y0111101D01*
X0332178Y0110134D01*
X0321350Y0092809D02*
X0319899Y0092809D01*
X0319415Y0092325D01*
X0319415Y0091358D01*
X0319899Y0090874D01*
X0319415Y0089863D02*
X0319415Y0088411D01*
X0319899Y0087928D01*
X0320866Y0087928D01*
X0321350Y0088411D01*
X0321350Y0089863D01*
X0321350Y0090874D02*
X0318448Y0090874D01*
X0319415Y0086931D02*
X0319415Y0085963D01*
X0318931Y0086447D02*
X0320866Y0086447D01*
X0321350Y0086931D01*
X0321350Y0084966D02*
X0321350Y0083999D01*
X0321350Y0084483D02*
X0319415Y0084483D01*
X0319415Y0083999D01*
X0318448Y0084483D02*
X0317964Y0084483D01*
X0318931Y0082987D02*
X0319899Y0082987D01*
X0320383Y0082504D01*
X0320383Y0081052D01*
X0321350Y0081052D02*
X0318448Y0081052D01*
X0318448Y0082504D01*
X0318931Y0082987D01*
X0319899Y0077094D02*
X0321350Y0077094D01*
X0321350Y0076127D02*
X0319899Y0076127D01*
X0319415Y0076611D01*
X0319899Y0077094D01*
X0319899Y0076127D02*
X0319415Y0075643D01*
X0319415Y0075159D01*
X0321350Y0075159D01*
X0321350Y0074148D02*
X0319899Y0074148D01*
X0319415Y0073664D01*
X0319899Y0073180D01*
X0321350Y0073180D01*
X0321350Y0072213D02*
X0319415Y0072213D01*
X0319415Y0072697D01*
X0319899Y0073180D01*
X0319899Y0071201D02*
X0320866Y0071201D01*
X0321350Y0070718D01*
X0321350Y0069750D01*
X0320866Y0069266D01*
X0319899Y0069266D02*
X0319415Y0070234D01*
X0319415Y0070718D01*
X0319899Y0071201D01*
X0318448Y0071201D02*
X0318448Y0069266D01*
X0319899Y0069266D01*
X0320383Y0068255D02*
X0319899Y0067771D01*
X0319899Y0066320D01*
X0320866Y0066320D01*
X0321350Y0066804D01*
X0321350Y0067771D01*
X0320866Y0068255D01*
X0320383Y0068255D01*
X0318931Y0067287D02*
X0318448Y0068255D01*
X0318931Y0067287D02*
X0319899Y0066320D01*
X0320866Y0065330D02*
X0321350Y0065330D01*
X0321350Y0064847D01*
X0320866Y0064847D01*
X0320866Y0065330D01*
X0320866Y0063835D02*
X0321350Y0063351D01*
X0321350Y0062384D01*
X0320866Y0061900D01*
X0318931Y0063835D01*
X0320866Y0063835D01*
X0318931Y0063835D02*
X0318448Y0063351D01*
X0318448Y0062384D01*
X0318931Y0061900D01*
X0320866Y0061900D01*
X0341400Y0011603D02*
X0343869Y0011603D01*
X0345083Y0009752D02*
X0347552Y0009752D01*
X0346935Y0011603D02*
X0346935Y0007900D01*
X0345083Y0009752D02*
X0346935Y0011603D01*
X0342634Y0009752D02*
X0341400Y0009752D01*
X0341400Y0011603D02*
X0341400Y0007900D01*
X0340400Y0193150D02*
X0340400Y0196853D01*
X0342869Y0196853D01*
X0344083Y0196236D02*
X0344700Y0196853D01*
X0345935Y0196853D01*
X0346552Y0196236D01*
X0346552Y0195619D01*
X0345935Y0195002D01*
X0346552Y0194384D01*
X0346552Y0193767D01*
X0345935Y0193150D01*
X0344700Y0193150D01*
X0344083Y0193767D01*
X0345318Y0195002D02*
X0345935Y0195002D01*
X0341634Y0195002D02*
X0340400Y0195002D01*
X0013302Y0194869D02*
X0010833Y0192400D01*
X0013302Y0192400D01*
X0013302Y0194869D02*
X0013302Y0195486D01*
X0012685Y0196103D01*
X0011450Y0196103D01*
X0010833Y0195486D01*
X0009619Y0196103D02*
X0007150Y0196103D01*
X0007150Y0192400D01*
X0007150Y0194252D02*
X0008384Y0194252D01*
D11*
X0071200Y0193537D02*
X0071200Y0192769D01*
X0071967Y0192002D01*
X0073502Y0192002D01*
X0074269Y0191235D01*
X0074269Y0190467D01*
X0073502Y0189700D01*
X0071967Y0189700D01*
X0071200Y0190467D01*
X0071200Y0193537D02*
X0071967Y0194304D01*
X0073502Y0194304D01*
X0074269Y0193537D01*
X0075804Y0193537D02*
X0075804Y0190467D01*
X0076571Y0189700D01*
X0078106Y0189700D01*
X0078873Y0190467D01*
X0078873Y0193537D01*
X0078106Y0194304D01*
X0076571Y0194304D01*
X0075804Y0193537D01*
X0080408Y0194304D02*
X0083477Y0194304D01*
X0081942Y0194304D02*
X0081942Y0189700D01*
X0085012Y0192002D02*
X0088081Y0192002D01*
X0089616Y0193537D02*
X0090383Y0194304D01*
X0091918Y0194304D01*
X0092685Y0193537D01*
X0092685Y0192769D01*
X0089616Y0189700D01*
X0092685Y0189700D01*
X0094220Y0190467D02*
X0094987Y0189700D01*
X0096522Y0189700D01*
X0097289Y0190467D01*
X0097289Y0192002D01*
X0096522Y0192769D01*
X0095754Y0192769D01*
X0094220Y0192002D01*
X0094220Y0194304D01*
X0097289Y0194304D01*
X0098824Y0193537D02*
X0099591Y0194304D01*
X0101126Y0194304D01*
X0101893Y0193537D01*
X0101893Y0192769D01*
X0098824Y0189700D01*
X0101893Y0189700D01*
X0103427Y0192002D02*
X0106497Y0192002D01*
X0108031Y0192769D02*
X0109566Y0194304D01*
X0109566Y0189700D01*
X0108031Y0189700D02*
X0111101Y0189700D01*
X0133360Y0173332D02*
X0136615Y0170077D01*
X0135530Y0168992D02*
X0137700Y0171162D01*
X0133360Y0171162D02*
X0133360Y0173332D01*
X0132817Y0169534D02*
X0130647Y0167364D01*
X0129019Y0166821D02*
X0128476Y0167364D01*
X0127391Y0167364D01*
X0126306Y0166279D01*
X0126306Y0165194D01*
X0125221Y0164109D02*
X0125764Y0163566D01*
X0125764Y0162481D01*
X0126849Y0162481D01*
X0127391Y0161938D01*
X0127391Y0160853D01*
X0126306Y0159768D01*
X0125221Y0159768D01*
X0125221Y0161938D02*
X0125764Y0162481D01*
X0125221Y0164109D02*
X0124136Y0164109D01*
X0123051Y0163023D01*
X0123051Y0161938D01*
X0123051Y0159768D02*
X0120880Y0157598D01*
X0119795Y0156512D02*
X0119795Y0155427D01*
X0118168Y0153800D01*
X0119253Y0152714D02*
X0115997Y0155970D01*
X0117625Y0157598D01*
X0118710Y0157598D01*
X0119795Y0156512D01*
X0114912Y0154885D02*
X0112742Y0152714D01*
X0115997Y0149459D01*
X0114912Y0148374D02*
X0112742Y0148374D01*
X0114369Y0148916D02*
X0114369Y0147831D01*
X0113284Y0146746D01*
X0112199Y0146746D01*
X0110029Y0148916D01*
X0110029Y0150002D01*
X0111114Y0151087D01*
X0112199Y0151087D01*
X0114369Y0148916D01*
X0114369Y0151087D02*
X0115455Y0152172D01*
X0108401Y0148374D02*
X0106231Y0146204D01*
X0107316Y0147289D02*
X0110571Y0144033D01*
X0129019Y0162481D02*
X0129019Y0166821D01*
X0131189Y0164651D02*
X0129019Y0162481D01*
X0187700Y0161537D02*
X0187700Y0160769D01*
X0188467Y0160002D01*
X0190002Y0160002D01*
X0190769Y0159235D01*
X0190769Y0158467D01*
X0190002Y0157700D01*
X0188467Y0157700D01*
X0187700Y0158467D01*
X0187700Y0159235D01*
X0188467Y0160002D01*
X0190002Y0160002D02*
X0190769Y0160769D01*
X0190769Y0161537D01*
X0190002Y0162304D01*
X0188467Y0162304D01*
X0187700Y0161537D01*
X0192304Y0160769D02*
X0195373Y0157700D01*
X0196908Y0158467D02*
X0196908Y0159235D01*
X0197675Y0160002D01*
X0199210Y0160002D01*
X0199977Y0159235D01*
X0199977Y0158467D01*
X0199210Y0157700D01*
X0197675Y0157700D01*
X0196908Y0158467D01*
X0197675Y0160002D02*
X0196908Y0160769D01*
X0196908Y0161537D01*
X0197675Y0162304D01*
X0199210Y0162304D01*
X0199977Y0161537D01*
X0199977Y0160769D01*
X0199210Y0160002D01*
X0195373Y0160769D02*
X0192304Y0157700D01*
X0206116Y0157700D02*
X0206116Y0160769D01*
X0206883Y0160769D01*
X0207650Y0160002D01*
X0208418Y0160769D01*
X0209185Y0160002D01*
X0209185Y0157700D01*
X0210720Y0157700D02*
X0210720Y0160769D01*
X0211487Y0160769D01*
X0212254Y0160002D01*
X0213022Y0160769D01*
X0213789Y0160002D01*
X0213789Y0157700D01*
X0212254Y0157700D02*
X0212254Y0160002D01*
X0207650Y0160002D02*
X0207650Y0157700D01*
X0219927Y0158467D02*
X0220695Y0157700D01*
X0222229Y0157700D01*
X0222997Y0158467D01*
X0224531Y0158467D02*
X0225299Y0159235D01*
X0227601Y0159235D01*
X0227601Y0160002D02*
X0227601Y0157700D01*
X0225299Y0157700D01*
X0224531Y0158467D01*
X0225299Y0160769D02*
X0226833Y0160769D01*
X0227601Y0160002D01*
X0229135Y0160769D02*
X0231437Y0160769D01*
X0232205Y0160002D01*
X0232205Y0158467D01*
X0231437Y0157700D01*
X0229135Y0157700D01*
X0229135Y0156165D02*
X0229135Y0160769D01*
X0222997Y0161537D02*
X0222229Y0162304D01*
X0220695Y0162304D01*
X0219927Y0161537D01*
X0219927Y0158467D01*
X0233739Y0158467D02*
X0234507Y0159235D01*
X0236809Y0159235D01*
X0236809Y0160002D02*
X0236809Y0157700D01*
X0234507Y0157700D01*
X0233739Y0158467D01*
X0234507Y0160769D02*
X0236041Y0160769D01*
X0236809Y0160002D01*
X0238343Y0160002D02*
X0238343Y0158467D01*
X0239110Y0157700D01*
X0241412Y0157700D01*
X0242947Y0157700D02*
X0244482Y0157700D01*
X0243714Y0157700D02*
X0243714Y0160769D01*
X0242947Y0160769D01*
X0241412Y0160769D02*
X0239110Y0160769D01*
X0238343Y0160002D01*
X0243714Y0162304D02*
X0243714Y0163071D01*
X0246016Y0160769D02*
X0247551Y0160769D01*
X0246784Y0161537D02*
X0246784Y0158467D01*
X0247551Y0157700D01*
X0249086Y0158467D02*
X0249853Y0157700D01*
X0251388Y0157700D01*
X0252155Y0158467D01*
X0252155Y0160002D01*
X0251388Y0160769D01*
X0249853Y0160769D01*
X0249086Y0160002D01*
X0249086Y0158467D01*
X0253690Y0157700D02*
X0253690Y0160769D01*
X0253690Y0159235D02*
X0255224Y0160769D01*
X0255992Y0160769D01*
X0273200Y0154054D02*
X0273200Y0149450D01*
X0276269Y0149450D01*
X0277804Y0149450D02*
X0280873Y0152519D01*
X0280873Y0153287D01*
X0280106Y0154054D01*
X0278571Y0154054D01*
X0277804Y0153287D01*
X0277804Y0149450D02*
X0280873Y0149450D01*
X0290713Y0147207D02*
X0293783Y0147207D01*
X0294550Y0147975D01*
X0293783Y0149509D02*
X0292248Y0149509D01*
X0291481Y0150277D01*
X0291481Y0151811D01*
X0292248Y0152579D01*
X0293783Y0152579D01*
X0294550Y0151811D01*
X0294550Y0150277D01*
X0293783Y0149509D01*
X0291481Y0147975D02*
X0291481Y0146440D01*
X0291481Y0144905D02*
X0291481Y0142603D01*
X0292248Y0141836D01*
X0293783Y0141836D01*
X0294550Y0142603D01*
X0294550Y0144905D01*
X0294550Y0140302D02*
X0291481Y0140302D01*
X0294550Y0140302D02*
X0294550Y0138000D01*
X0293783Y0137232D01*
X0291481Y0137232D01*
X0291481Y0135698D02*
X0291481Y0133396D01*
X0292248Y0132628D01*
X0293783Y0132628D01*
X0294550Y0133396D01*
X0294550Y0135698D01*
X0289946Y0135698D01*
X0292248Y0131094D02*
X0294550Y0131094D01*
X0292248Y0131094D02*
X0291481Y0130326D01*
X0291481Y0128024D01*
X0294550Y0128024D01*
X0294550Y0126490D02*
X0294550Y0124955D01*
X0294550Y0125722D02*
X0289946Y0125722D01*
X0289946Y0124955D02*
X0289946Y0126490D01*
X0289946Y0118817D02*
X0289946Y0115747D01*
X0292248Y0115747D01*
X0291481Y0117282D01*
X0291481Y0118049D01*
X0292248Y0118817D01*
X0293783Y0118817D01*
X0294550Y0118049D01*
X0294550Y0116515D01*
X0293783Y0115747D01*
X0294550Y0114213D02*
X0291481Y0111143D01*
X0292248Y0109609D02*
X0293783Y0109609D01*
X0294550Y0108841D01*
X0294550Y0107307D01*
X0293783Y0106539D01*
X0292248Y0106539D02*
X0291481Y0108074D01*
X0291481Y0108841D01*
X0292248Y0109609D01*
X0289946Y0109609D02*
X0289946Y0106539D01*
X0292248Y0106539D01*
X0294550Y0111143D02*
X0291481Y0114213D01*
X0291856Y0099554D02*
X0290321Y0099554D01*
X0289554Y0098787D01*
X0289554Y0098019D01*
X0290321Y0097252D01*
X0291856Y0097252D01*
X0292623Y0096485D01*
X0292623Y0095717D01*
X0291856Y0094950D01*
X0290321Y0094950D01*
X0289554Y0095717D01*
X0286485Y0094950D02*
X0286485Y0099554D01*
X0288019Y0099554D02*
X0284950Y0099554D01*
X0291856Y0099554D02*
X0292623Y0098787D01*
X0294158Y0098787D02*
X0294158Y0098019D01*
X0294925Y0097252D01*
X0296460Y0097252D01*
X0297227Y0096485D01*
X0297227Y0095717D01*
X0296460Y0094950D01*
X0294925Y0094950D01*
X0294158Y0095717D01*
X0298762Y0095717D02*
X0299529Y0094950D01*
X0301064Y0094950D01*
X0301831Y0095717D01*
X0301831Y0098787D01*
X0301064Y0099554D01*
X0299529Y0099554D01*
X0298762Y0098787D01*
X0298762Y0095717D01*
X0303366Y0094950D02*
X0303366Y0099554D01*
X0305668Y0099554D01*
X0306435Y0098787D01*
X0306435Y0097252D01*
X0305668Y0096485D01*
X0303366Y0096485D01*
X0297227Y0098787D02*
X0296460Y0099554D01*
X0294925Y0099554D01*
X0294158Y0098787D01*
X0307970Y0097252D02*
X0311039Y0097252D01*
X0312574Y0098787D02*
X0313341Y0099554D01*
X0314876Y0099554D01*
X0315643Y0098787D01*
X0315643Y0098019D01*
X0312574Y0094950D01*
X0315643Y0094950D01*
X0317177Y0095717D02*
X0320247Y0098787D01*
X0320247Y0095717D01*
X0319479Y0094950D01*
X0317945Y0094950D01*
X0317177Y0095717D01*
X0317177Y0098787D01*
X0317945Y0099554D01*
X0319479Y0099554D01*
X0320247Y0098787D01*
X0326978Y0116793D02*
X0330047Y0116793D01*
X0328513Y0116793D02*
X0328513Y0121396D01*
X0326978Y0119862D01*
X0294550Y0154113D02*
X0291481Y0154113D01*
X0293015Y0154113D02*
X0291481Y0155648D01*
X0291481Y0156415D01*
X0303450Y0162467D02*
X0304217Y0161700D01*
X0305752Y0161700D01*
X0306519Y0162467D01*
X0306519Y0163235D01*
X0305752Y0164002D01*
X0304217Y0164002D01*
X0303450Y0164769D01*
X0303450Y0165537D01*
X0304217Y0166304D01*
X0305752Y0166304D01*
X0306519Y0165537D01*
X0308054Y0165537D02*
X0308054Y0162467D01*
X0308821Y0161700D01*
X0310356Y0161700D01*
X0311123Y0162467D01*
X0311123Y0165537D01*
X0310356Y0166304D01*
X0308821Y0166304D01*
X0308054Y0165537D01*
X0312658Y0166304D02*
X0314960Y0166304D01*
X0315727Y0165537D01*
X0315727Y0164002D01*
X0314960Y0163235D01*
X0312658Y0163235D01*
X0312658Y0161700D02*
X0312658Y0166304D01*
X0317262Y0164002D02*
X0320331Y0164002D01*
X0321866Y0164769D02*
X0323400Y0166304D01*
X0323400Y0161700D01*
X0321866Y0161700D02*
X0324935Y0161700D01*
X0326470Y0162467D02*
X0326470Y0164002D01*
X0328772Y0164002D01*
X0329539Y0163235D01*
X0329539Y0162467D01*
X0328772Y0161700D01*
X0327237Y0161700D01*
X0326470Y0162467D01*
X0326470Y0164002D02*
X0328004Y0165537D01*
X0329539Y0166304D01*
X0331074Y0164002D02*
X0334143Y0164002D01*
X0335677Y0164769D02*
X0337212Y0166304D01*
X0337212Y0161700D01*
X0335677Y0161700D02*
X0338747Y0161700D01*
X0325828Y0177415D02*
X0325061Y0177415D01*
X0325828Y0177415D02*
X0326595Y0178183D01*
X0326595Y0182019D01*
X0324293Y0182019D01*
X0323526Y0181252D01*
X0323526Y0179717D01*
X0324293Y0178950D01*
X0326595Y0178950D01*
X0321992Y0182019D02*
X0321224Y0182019D01*
X0319690Y0180485D01*
X0319690Y0182019D02*
X0319690Y0178950D01*
X0318155Y0179717D02*
X0318155Y0181252D01*
X0317388Y0182019D01*
X0315853Y0182019D01*
X0315086Y0181252D01*
X0315086Y0179717D01*
X0315853Y0178950D01*
X0317388Y0178950D01*
X0318155Y0179717D01*
X0313551Y0179717D02*
X0313551Y0178950D01*
X0312784Y0178950D01*
X0312784Y0179717D01*
X0313551Y0179717D01*
X0311249Y0179717D02*
X0310482Y0178950D01*
X0308180Y0178950D01*
X0308180Y0177415D02*
X0308180Y0182019D01*
X0310482Y0182019D01*
X0311249Y0181252D01*
X0311249Y0179717D01*
X0306645Y0178950D02*
X0306645Y0181252D01*
X0305878Y0182019D01*
X0303576Y0182019D01*
X0303576Y0178950D01*
X0302041Y0179717D02*
X0301274Y0178950D01*
X0298972Y0178950D01*
X0298972Y0177415D02*
X0298972Y0182019D01*
X0301274Y0182019D01*
X0302041Y0181252D01*
X0302041Y0179717D01*
X0297437Y0178950D02*
X0297437Y0181252D01*
X0296670Y0182019D01*
X0294368Y0182019D01*
X0294368Y0178950D01*
X0292833Y0180485D02*
X0289764Y0180485D01*
X0289764Y0181252D02*
X0290531Y0182019D01*
X0292066Y0182019D01*
X0292833Y0181252D01*
X0292833Y0180485D01*
X0292066Y0178950D02*
X0290531Y0178950D01*
X0289764Y0179717D01*
X0289764Y0181252D01*
X0288229Y0181252D02*
X0288229Y0179717D01*
X0287462Y0178950D01*
X0285160Y0178950D01*
X0285160Y0177415D02*
X0285160Y0182019D01*
X0287462Y0182019D01*
X0288229Y0181252D01*
X0283625Y0181252D02*
X0282858Y0182019D01*
X0281324Y0182019D01*
X0280556Y0181252D01*
X0280556Y0179717D01*
X0281324Y0178950D01*
X0282858Y0178950D01*
X0283625Y0179717D01*
X0283625Y0181252D01*
X0279022Y0183554D02*
X0275952Y0178950D01*
X0271348Y0178950D02*
X0274418Y0183554D01*
X0269814Y0182019D02*
X0269814Y0181252D01*
X0269046Y0181252D01*
X0269046Y0182019D01*
X0269814Y0182019D01*
X0269814Y0179717D02*
X0269814Y0178950D01*
X0269046Y0178950D01*
X0269046Y0179717D01*
X0269814Y0179717D01*
X0267512Y0179717D02*
X0266744Y0178950D01*
X0264442Y0178950D01*
X0262908Y0178950D02*
X0262141Y0179717D01*
X0262141Y0182787D01*
X0262908Y0182019D02*
X0261373Y0182019D01*
X0259839Y0182019D02*
X0258304Y0182019D01*
X0259071Y0182787D02*
X0259071Y0179717D01*
X0259839Y0178950D01*
X0256769Y0178950D02*
X0256769Y0181252D01*
X0256002Y0182019D01*
X0254467Y0182019D01*
X0253700Y0181252D01*
X0253700Y0183554D02*
X0253700Y0178950D01*
X0264442Y0177415D02*
X0264442Y0182019D01*
X0266744Y0182019D01*
X0267512Y0181252D01*
X0267512Y0179717D01*
X0254106Y0113304D02*
X0252571Y0113304D01*
X0251804Y0112537D01*
X0250269Y0112537D02*
X0249502Y0113304D01*
X0247967Y0113304D01*
X0247200Y0112537D01*
X0247200Y0109467D01*
X0247967Y0108700D01*
X0249502Y0108700D01*
X0250269Y0109467D01*
X0251804Y0108700D02*
X0254873Y0111769D01*
X0254873Y0112537D01*
X0254106Y0113304D01*
X0254873Y0108700D02*
X0251804Y0108700D01*
X0253383Y0099804D02*
X0254918Y0099804D01*
X0255685Y0099037D01*
X0255685Y0098269D01*
X0254918Y0097502D01*
X0255685Y0096735D01*
X0255685Y0095967D01*
X0254918Y0095200D01*
X0253383Y0095200D01*
X0252616Y0095967D01*
X0254150Y0097502D02*
X0254918Y0097502D01*
X0257220Y0099037D02*
X0257987Y0099804D01*
X0259522Y0099804D01*
X0260289Y0099037D01*
X0260289Y0098269D01*
X0257220Y0095200D01*
X0260289Y0095200D01*
X0253383Y0099804D02*
X0252616Y0099037D01*
X0251081Y0097502D02*
X0248012Y0097502D01*
X0246477Y0095200D02*
X0246477Y0099804D01*
X0243408Y0099804D02*
X0246477Y0095200D01*
X0243408Y0095200D02*
X0243408Y0099804D01*
X0241873Y0099804D02*
X0238804Y0099804D01*
X0238804Y0095200D01*
X0237269Y0095200D02*
X0235735Y0096735D01*
X0237269Y0095967D02*
X0236502Y0095200D01*
X0234967Y0095200D01*
X0234200Y0095967D01*
X0234200Y0099037D01*
X0234967Y0099804D01*
X0236502Y0099804D01*
X0237269Y0099037D01*
X0237269Y0095967D01*
X0238804Y0097502D02*
X0240339Y0097502D01*
X0211373Y0108700D02*
X0208304Y0108700D01*
X0209839Y0108700D02*
X0209839Y0113304D01*
X0208304Y0111769D01*
X0206769Y0112537D02*
X0206002Y0113304D01*
X0204467Y0113304D01*
X0203700Y0112537D01*
X0203700Y0109467D01*
X0204467Y0108700D01*
X0206002Y0108700D01*
X0206769Y0109467D01*
X0198479Y0100054D02*
X0196945Y0100054D01*
X0196177Y0099287D01*
X0196177Y0096217D01*
X0199247Y0099287D01*
X0199247Y0096217D01*
X0198479Y0095450D01*
X0196945Y0095450D01*
X0196177Y0096217D01*
X0194643Y0096217D02*
X0193876Y0095450D01*
X0192341Y0095450D01*
X0191574Y0096217D01*
X0194643Y0099287D01*
X0194643Y0096217D01*
X0191574Y0096217D02*
X0191574Y0099287D01*
X0192341Y0100054D01*
X0193876Y0100054D01*
X0194643Y0099287D01*
X0198479Y0100054D02*
X0199247Y0099287D01*
X0190039Y0095450D02*
X0186970Y0095450D01*
X0188504Y0095450D02*
X0188504Y0100054D01*
X0186970Y0098519D01*
X0185435Y0097752D02*
X0182366Y0097752D01*
X0180831Y0097752D02*
X0180064Y0096985D01*
X0177762Y0096985D01*
X0177762Y0095450D02*
X0177762Y0100054D01*
X0180064Y0100054D01*
X0180831Y0099287D01*
X0180831Y0097752D01*
X0176227Y0100054D02*
X0173158Y0100054D01*
X0173158Y0095450D01*
X0171623Y0095450D02*
X0170089Y0096985D01*
X0171623Y0096217D02*
X0170856Y0095450D01*
X0169321Y0095450D01*
X0168554Y0096217D01*
X0168554Y0099287D01*
X0169321Y0100054D01*
X0170856Y0100054D01*
X0171623Y0099287D01*
X0171623Y0096217D01*
X0173158Y0097752D02*
X0174692Y0097752D01*
X0167019Y0100054D02*
X0163950Y0100054D01*
X0165485Y0100054D02*
X0165485Y0095450D01*
X0235499Y0042982D02*
X0238755Y0039727D01*
X0237670Y0038642D02*
X0239840Y0040812D01*
X0235499Y0040812D02*
X0235499Y0042982D01*
X0236585Y0037557D02*
X0234414Y0035386D01*
X0231159Y0038642D01*
X0274700Y0047967D02*
X0275467Y0047200D01*
X0277002Y0047200D01*
X0277769Y0047967D01*
X0277769Y0048735D01*
X0277002Y0049502D01*
X0274700Y0049502D01*
X0274700Y0047967D01*
X0274700Y0049502D02*
X0276235Y0051037D01*
X0277769Y0051804D01*
X0291700Y0053950D02*
X0294769Y0053950D01*
X0293235Y0053950D02*
X0293235Y0058554D01*
X0291700Y0057019D01*
X0292467Y0036554D02*
X0291700Y0035787D01*
X0291700Y0035019D01*
X0292467Y0034252D01*
X0294002Y0034252D01*
X0294769Y0033485D01*
X0294769Y0032717D01*
X0294002Y0031950D01*
X0292467Y0031950D01*
X0291700Y0032717D01*
X0292467Y0036554D02*
X0294002Y0036554D01*
X0294769Y0035787D01*
X0296304Y0035787D02*
X0296304Y0032717D01*
X0297071Y0031950D01*
X0298606Y0031950D01*
X0299373Y0032717D01*
X0299373Y0035787D01*
X0298606Y0036554D01*
X0297071Y0036554D01*
X0296304Y0035787D01*
X0300908Y0036554D02*
X0303977Y0036554D01*
X0302442Y0036554D02*
X0302442Y0031950D01*
X0305512Y0031950D02*
X0308581Y0035019D01*
X0308581Y0035787D01*
X0307814Y0036554D01*
X0306279Y0036554D01*
X0305512Y0035787D01*
X0310116Y0035787D02*
X0310883Y0036554D01*
X0312418Y0036554D01*
X0313185Y0035787D01*
X0313185Y0035019D01*
X0312418Y0034252D01*
X0313185Y0033485D01*
X0313185Y0032717D01*
X0312418Y0031950D01*
X0310883Y0031950D01*
X0310116Y0032717D01*
X0308581Y0031950D02*
X0305512Y0031950D01*
X0311650Y0034252D02*
X0312418Y0034252D01*
X0325450Y0020787D02*
X0326217Y0021554D01*
X0327752Y0021554D01*
X0328519Y0020787D01*
X0328519Y0020019D01*
X0327752Y0019252D01*
X0328519Y0018485D01*
X0328519Y0017717D01*
X0327752Y0016950D01*
X0326217Y0016950D01*
X0325450Y0017717D01*
X0326985Y0019252D02*
X0327752Y0019252D01*
X0301752Y0007804D02*
X0299450Y0005502D01*
X0302519Y0005502D01*
X0301752Y0003200D02*
X0301752Y0007804D01*
X0276326Y0007769D02*
X0275559Y0007769D01*
X0274024Y0006235D01*
X0274024Y0007769D02*
X0274024Y0004700D01*
X0272489Y0005467D02*
X0272489Y0007002D01*
X0271722Y0007769D01*
X0270187Y0007769D01*
X0269420Y0007002D01*
X0269420Y0005467D01*
X0270187Y0004700D01*
X0271722Y0004700D01*
X0272489Y0005467D01*
X0267885Y0004700D02*
X0267118Y0005467D01*
X0267118Y0008537D01*
X0266351Y0007769D02*
X0267885Y0007769D01*
X0264816Y0007769D02*
X0262514Y0007769D01*
X0261747Y0007002D01*
X0261747Y0005467D01*
X0262514Y0004700D01*
X0264816Y0004700D01*
X0260212Y0004700D02*
X0260212Y0007769D01*
X0260212Y0004700D02*
X0257910Y0004700D01*
X0257143Y0005467D01*
X0257143Y0007769D01*
X0255608Y0007769D02*
X0253306Y0007769D01*
X0252539Y0007002D01*
X0252539Y0005467D01*
X0253306Y0004700D01*
X0255608Y0004700D01*
X0255608Y0009304D01*
X0251004Y0007002D02*
X0251004Y0004700D01*
X0251004Y0007002D02*
X0250237Y0007769D01*
X0247935Y0007769D01*
X0247935Y0004700D01*
X0246400Y0004700D02*
X0244866Y0004700D01*
X0245633Y0004700D02*
X0245633Y0009304D01*
X0244866Y0009304D02*
X0246400Y0009304D01*
X0238727Y0009304D02*
X0235658Y0009304D01*
X0235658Y0007002D01*
X0237192Y0007769D01*
X0237960Y0007769D01*
X0238727Y0007002D01*
X0238727Y0005467D01*
X0237960Y0004700D01*
X0236425Y0004700D01*
X0235658Y0005467D01*
X0234123Y0004700D02*
X0231054Y0007769D01*
X0229519Y0007002D02*
X0229519Y0005467D01*
X0228752Y0004700D01*
X0227217Y0004700D01*
X0226450Y0005467D01*
X0226450Y0007002D02*
X0227985Y0007769D01*
X0228752Y0007769D01*
X0229519Y0007002D01*
X0229519Y0009304D02*
X0226450Y0009304D01*
X0226450Y0007002D01*
X0231054Y0004700D02*
X0234123Y0007769D01*
X0274450Y0017217D02*
X0275217Y0016450D01*
X0276752Y0016450D01*
X0277519Y0017217D01*
X0277519Y0018752D01*
X0276752Y0019519D01*
X0275985Y0019519D01*
X0274450Y0018752D01*
X0274450Y0021054D01*
X0277519Y0021054D01*
X0326700Y0048950D02*
X0329769Y0052019D01*
X0329769Y0052787D01*
X0329002Y0053554D01*
X0327467Y0053554D01*
X0326700Y0052787D01*
X0326700Y0048950D02*
X0329769Y0048950D01*
X0061351Y0146700D02*
X0058281Y0146700D01*
X0059816Y0146700D02*
X0059816Y0151304D01*
X0058281Y0149769D01*
X0056747Y0149002D02*
X0053677Y0149002D01*
X0052143Y0149769D02*
X0051376Y0149002D01*
X0052143Y0148235D01*
X0052143Y0147467D01*
X0051376Y0146700D01*
X0049841Y0146700D01*
X0049074Y0147467D01*
X0047539Y0146700D02*
X0044470Y0146700D01*
X0047539Y0149769D01*
X0047539Y0150537D01*
X0046772Y0151304D01*
X0045237Y0151304D01*
X0044470Y0150537D01*
X0042935Y0150537D02*
X0042168Y0151304D01*
X0040633Y0151304D01*
X0039866Y0150537D01*
X0038331Y0149002D02*
X0035262Y0149002D01*
X0033727Y0151304D02*
X0030658Y0151304D01*
X0032192Y0151304D02*
X0032192Y0146700D01*
X0029123Y0147467D02*
X0029123Y0150537D01*
X0028356Y0151304D01*
X0026821Y0151304D01*
X0026054Y0150537D01*
X0026054Y0147467D01*
X0026821Y0146700D01*
X0028356Y0146700D01*
X0029123Y0147467D01*
X0024519Y0147467D02*
X0023752Y0146700D01*
X0022217Y0146700D01*
X0021450Y0147467D01*
X0022217Y0149002D02*
X0023752Y0149002D01*
X0024519Y0148235D01*
X0024519Y0147467D01*
X0022217Y0149002D02*
X0021450Y0149769D01*
X0021450Y0150537D01*
X0022217Y0151304D01*
X0023752Y0151304D01*
X0024519Y0150537D01*
X0039866Y0146700D02*
X0042935Y0149769D01*
X0042935Y0150537D01*
X0049074Y0150537D02*
X0049841Y0151304D01*
X0051376Y0151304D01*
X0052143Y0150537D01*
X0052143Y0149769D01*
X0051376Y0149002D02*
X0050608Y0149002D01*
X0042935Y0146700D02*
X0039866Y0146700D01*
X0009787Y0043800D02*
X0006717Y0043800D01*
X0005950Y0043033D01*
X0005950Y0041498D01*
X0006717Y0040731D01*
X0009787Y0040731D01*
X0010554Y0041498D01*
X0010554Y0043033D01*
X0009787Y0043800D01*
X0009019Y0039196D02*
X0005950Y0039196D01*
X0007485Y0039196D02*
X0009019Y0037661D01*
X0009019Y0036894D01*
X0008252Y0035359D02*
X0006717Y0035359D01*
X0005950Y0034592D01*
X0005950Y0032290D01*
X0005183Y0032290D02*
X0009019Y0032290D01*
X0009019Y0034592D01*
X0008252Y0035359D01*
X0004415Y0033825D02*
X0004415Y0033058D01*
X0005183Y0032290D01*
X0005950Y0030756D02*
X0005950Y0029221D01*
X0005950Y0029988D02*
X0009019Y0029988D01*
X0009019Y0030756D01*
X0010554Y0029988D02*
X0011321Y0029988D01*
X0009019Y0027686D02*
X0009019Y0025384D01*
X0008252Y0024617D01*
X0005950Y0024617D01*
X0005950Y0027686D02*
X0009019Y0027686D01*
D12*
X0011500Y0071750D02*
X0011518Y0073222D01*
X0011572Y0074694D01*
X0011663Y0076164D01*
X0011789Y0077631D01*
X0011951Y0079095D01*
X0012149Y0080554D01*
X0012383Y0082008D01*
X0012653Y0083455D01*
X0012958Y0084896D01*
X0013298Y0086329D01*
X0013673Y0087753D01*
X0014084Y0089167D01*
X0014528Y0090571D01*
X0015007Y0091963D01*
X0015520Y0093344D01*
X0016067Y0094711D01*
X0016647Y0096064D01*
X0017261Y0097403D01*
X0017907Y0098727D01*
X0018585Y0100034D01*
X0019295Y0101324D01*
X0020036Y0102596D01*
X0020809Y0103850D01*
X0021612Y0105084D01*
X0022445Y0106298D01*
X0023308Y0107492D01*
X0024199Y0108664D01*
X0025119Y0109814D01*
X0026067Y0110940D01*
X0027043Y0112044D01*
X0028045Y0113122D01*
X0029074Y0114176D01*
X0030128Y0115205D01*
X0031206Y0116207D01*
X0032310Y0117183D01*
X0033436Y0118131D01*
X0034586Y0119051D01*
X0035758Y0119942D01*
X0036952Y0120805D01*
X0038166Y0121638D01*
X0039400Y0122441D01*
X0040654Y0123214D01*
X0041926Y0123955D01*
X0043216Y0124665D01*
X0044523Y0125343D01*
X0045847Y0125989D01*
X0047186Y0126603D01*
X0048539Y0127183D01*
X0049906Y0127730D01*
X0051287Y0128243D01*
X0052679Y0128722D01*
X0054083Y0129166D01*
X0055497Y0129577D01*
X0056921Y0129952D01*
X0058354Y0130292D01*
X0059795Y0130597D01*
X0061242Y0130867D01*
X0062696Y0131101D01*
X0064155Y0131299D01*
X0065619Y0131461D01*
X0067086Y0131587D01*
X0068556Y0131678D01*
X0070028Y0131732D01*
X0071500Y0131750D01*
X0072972Y0131732D01*
X0074444Y0131678D01*
X0075914Y0131587D01*
X0077381Y0131461D01*
X0078845Y0131299D01*
X0080304Y0131101D01*
X0081758Y0130867D01*
X0083205Y0130597D01*
X0084646Y0130292D01*
X0086079Y0129952D01*
X0087503Y0129577D01*
X0088917Y0129166D01*
X0090321Y0128722D01*
X0091713Y0128243D01*
X0093094Y0127730D01*
X0094461Y0127183D01*
X0095814Y0126603D01*
X0097153Y0125989D01*
X0098477Y0125343D01*
X0099784Y0124665D01*
X0101074Y0123955D01*
X0102346Y0123214D01*
X0103600Y0122441D01*
X0104834Y0121638D01*
X0106048Y0120805D01*
X0107242Y0119942D01*
X0108414Y0119051D01*
X0109564Y0118131D01*
X0110690Y0117183D01*
X0111794Y0116207D01*
X0112872Y0115205D01*
X0113926Y0114176D01*
X0114955Y0113122D01*
X0115957Y0112044D01*
X0116933Y0110940D01*
X0117881Y0109814D01*
X0118801Y0108664D01*
X0119692Y0107492D01*
X0120555Y0106298D01*
X0121388Y0105084D01*
X0122191Y0103850D01*
X0122964Y0102596D01*
X0123705Y0101324D01*
X0124415Y0100034D01*
X0125093Y0098727D01*
X0125739Y0097403D01*
X0126353Y0096064D01*
X0126933Y0094711D01*
X0127480Y0093344D01*
X0127993Y0091963D01*
X0128472Y0090571D01*
X0128916Y0089167D01*
X0129327Y0087753D01*
X0129702Y0086329D01*
X0130042Y0084896D01*
X0130347Y0083455D01*
X0130617Y0082008D01*
X0130851Y0080554D01*
X0131049Y0079095D01*
X0131211Y0077631D01*
X0131337Y0076164D01*
X0131428Y0074694D01*
X0131482Y0073222D01*
X0131500Y0071750D01*
X0131482Y0070278D01*
X0131428Y0068806D01*
X0131337Y0067336D01*
X0131211Y0065869D01*
X0131049Y0064405D01*
X0130851Y0062946D01*
X0130617Y0061492D01*
X0130347Y0060045D01*
X0130042Y0058604D01*
X0129702Y0057171D01*
X0129327Y0055747D01*
X0128916Y0054333D01*
X0128472Y0052929D01*
X0127993Y0051537D01*
X0127480Y0050156D01*
X0126933Y0048789D01*
X0126353Y0047436D01*
X0125739Y0046097D01*
X0125093Y0044773D01*
X0124415Y0043466D01*
X0123705Y0042176D01*
X0122964Y0040904D01*
X0122191Y0039650D01*
X0121388Y0038416D01*
X0120555Y0037202D01*
X0119692Y0036008D01*
X0118801Y0034836D01*
X0117881Y0033686D01*
X0116933Y0032560D01*
X0115957Y0031456D01*
X0114955Y0030378D01*
X0113926Y0029324D01*
X0112872Y0028295D01*
X0111794Y0027293D01*
X0110690Y0026317D01*
X0109564Y0025369D01*
X0108414Y0024449D01*
X0107242Y0023558D01*
X0106048Y0022695D01*
X0104834Y0021862D01*
X0103600Y0021059D01*
X0102346Y0020286D01*
X0101074Y0019545D01*
X0099784Y0018835D01*
X0098477Y0018157D01*
X0097153Y0017511D01*
X0095814Y0016897D01*
X0094461Y0016317D01*
X0093094Y0015770D01*
X0091713Y0015257D01*
X0090321Y0014778D01*
X0088917Y0014334D01*
X0087503Y0013923D01*
X0086079Y0013548D01*
X0084646Y0013208D01*
X0083205Y0012903D01*
X0081758Y0012633D01*
X0080304Y0012399D01*
X0078845Y0012201D01*
X0077381Y0012039D01*
X0075914Y0011913D01*
X0074444Y0011822D01*
X0072972Y0011768D01*
X0071500Y0011750D01*
X0070028Y0011768D01*
X0068556Y0011822D01*
X0067086Y0011913D01*
X0065619Y0012039D01*
X0064155Y0012201D01*
X0062696Y0012399D01*
X0061242Y0012633D01*
X0059795Y0012903D01*
X0058354Y0013208D01*
X0056921Y0013548D01*
X0055497Y0013923D01*
X0054083Y0014334D01*
X0052679Y0014778D01*
X0051287Y0015257D01*
X0049906Y0015770D01*
X0048539Y0016317D01*
X0047186Y0016897D01*
X0045847Y0017511D01*
X0044523Y0018157D01*
X0043216Y0018835D01*
X0041926Y0019545D01*
X0040654Y0020286D01*
X0039400Y0021059D01*
X0038166Y0021862D01*
X0036952Y0022695D01*
X0035758Y0023558D01*
X0034586Y0024449D01*
X0033436Y0025369D01*
X0032310Y0026317D01*
X0031206Y0027293D01*
X0030128Y0028295D01*
X0029074Y0029324D01*
X0028045Y0030378D01*
X0027043Y0031456D01*
X0026067Y0032560D01*
X0025119Y0033686D01*
X0024199Y0034836D01*
X0023308Y0036008D01*
X0022445Y0037202D01*
X0021612Y0038416D01*
X0020809Y0039650D01*
X0020036Y0040904D01*
X0019295Y0042176D01*
X0018585Y0043466D01*
X0017907Y0044773D01*
X0017261Y0046097D01*
X0016647Y0047436D01*
X0016067Y0048789D01*
X0015520Y0050156D01*
X0015007Y0051537D01*
X0014528Y0052929D01*
X0014084Y0054333D01*
X0013673Y0055747D01*
X0013298Y0057171D01*
X0012958Y0058604D01*
X0012653Y0060045D01*
X0012383Y0061492D01*
X0012149Y0062946D01*
X0011951Y0064405D01*
X0011789Y0065869D01*
X0011663Y0067336D01*
X0011572Y0068806D01*
X0011518Y0070278D01*
X0011500Y0071750D01*
X0026500Y0071750D02*
X0026514Y0072854D01*
X0026554Y0073958D01*
X0026622Y0075060D01*
X0026717Y0076161D01*
X0026838Y0077258D01*
X0026987Y0078353D01*
X0027163Y0079443D01*
X0027365Y0080529D01*
X0027593Y0081610D01*
X0027849Y0082684D01*
X0028130Y0083752D01*
X0028438Y0084813D01*
X0028771Y0085866D01*
X0029131Y0086910D01*
X0029515Y0087945D01*
X0029925Y0088971D01*
X0030361Y0089986D01*
X0030820Y0090990D01*
X0031305Y0091983D01*
X0031814Y0092963D01*
X0032346Y0093930D01*
X0032902Y0094885D01*
X0033482Y0095825D01*
X0034084Y0096751D01*
X0034709Y0097661D01*
X0035356Y0098556D01*
X0036024Y0099435D01*
X0036715Y0100298D01*
X0037426Y0101143D01*
X0038157Y0101970D01*
X0038909Y0102779D01*
X0039680Y0103570D01*
X0040471Y0104341D01*
X0041280Y0105093D01*
X0042107Y0105824D01*
X0042952Y0106535D01*
X0043815Y0107226D01*
X0044694Y0107894D01*
X0045589Y0108541D01*
X0046499Y0109166D01*
X0047425Y0109768D01*
X0048365Y0110348D01*
X0049320Y0110904D01*
X0050287Y0111436D01*
X0051267Y0111945D01*
X0052260Y0112430D01*
X0053264Y0112889D01*
X0054279Y0113325D01*
X0055305Y0113735D01*
X0056340Y0114119D01*
X0057384Y0114479D01*
X0058437Y0114812D01*
X0059498Y0115120D01*
X0060566Y0115401D01*
X0061640Y0115657D01*
X0062721Y0115885D01*
X0063807Y0116087D01*
X0064897Y0116263D01*
X0065992Y0116412D01*
X0067089Y0116533D01*
X0068190Y0116628D01*
X0069292Y0116696D01*
X0070396Y0116736D01*
X0071500Y0116750D01*
X0072604Y0116736D01*
X0073708Y0116696D01*
X0074810Y0116628D01*
X0075911Y0116533D01*
X0077008Y0116412D01*
X0078103Y0116263D01*
X0079193Y0116087D01*
X0080279Y0115885D01*
X0081360Y0115657D01*
X0082434Y0115401D01*
X0083502Y0115120D01*
X0084563Y0114812D01*
X0085616Y0114479D01*
X0086660Y0114119D01*
X0087695Y0113735D01*
X0088721Y0113325D01*
X0089736Y0112889D01*
X0090740Y0112430D01*
X0091733Y0111945D01*
X0092713Y0111436D01*
X0093680Y0110904D01*
X0094635Y0110348D01*
X0095575Y0109768D01*
X0096501Y0109166D01*
X0097411Y0108541D01*
X0098306Y0107894D01*
X0099185Y0107226D01*
X0100048Y0106535D01*
X0100893Y0105824D01*
X0101720Y0105093D01*
X0102529Y0104341D01*
X0103320Y0103570D01*
X0104091Y0102779D01*
X0104843Y0101970D01*
X0105574Y0101143D01*
X0106285Y0100298D01*
X0106976Y0099435D01*
X0107644Y0098556D01*
X0108291Y0097661D01*
X0108916Y0096751D01*
X0109518Y0095825D01*
X0110098Y0094885D01*
X0110654Y0093930D01*
X0111186Y0092963D01*
X0111695Y0091983D01*
X0112180Y0090990D01*
X0112639Y0089986D01*
X0113075Y0088971D01*
X0113485Y0087945D01*
X0113869Y0086910D01*
X0114229Y0085866D01*
X0114562Y0084813D01*
X0114870Y0083752D01*
X0115151Y0082684D01*
X0115407Y0081610D01*
X0115635Y0080529D01*
X0115837Y0079443D01*
X0116013Y0078353D01*
X0116162Y0077258D01*
X0116283Y0076161D01*
X0116378Y0075060D01*
X0116446Y0073958D01*
X0116486Y0072854D01*
X0116500Y0071750D01*
X0116486Y0070646D01*
X0116446Y0069542D01*
X0116378Y0068440D01*
X0116283Y0067339D01*
X0116162Y0066242D01*
X0116013Y0065147D01*
X0115837Y0064057D01*
X0115635Y0062971D01*
X0115407Y0061890D01*
X0115151Y0060816D01*
X0114870Y0059748D01*
X0114562Y0058687D01*
X0114229Y0057634D01*
X0113869Y0056590D01*
X0113485Y0055555D01*
X0113075Y0054529D01*
X0112639Y0053514D01*
X0112180Y0052510D01*
X0111695Y0051517D01*
X0111186Y0050537D01*
X0110654Y0049570D01*
X0110098Y0048615D01*
X0109518Y0047675D01*
X0108916Y0046749D01*
X0108291Y0045839D01*
X0107644Y0044944D01*
X0106976Y0044065D01*
X0106285Y0043202D01*
X0105574Y0042357D01*
X0104843Y0041530D01*
X0104091Y0040721D01*
X0103320Y0039930D01*
X0102529Y0039159D01*
X0101720Y0038407D01*
X0100893Y0037676D01*
X0100048Y0036965D01*
X0099185Y0036274D01*
X0098306Y0035606D01*
X0097411Y0034959D01*
X0096501Y0034334D01*
X0095575Y0033732D01*
X0094635Y0033152D01*
X0093680Y0032596D01*
X0092713Y0032064D01*
X0091733Y0031555D01*
X0090740Y0031070D01*
X0089736Y0030611D01*
X0088721Y0030175D01*
X0087695Y0029765D01*
X0086660Y0029381D01*
X0085616Y0029021D01*
X0084563Y0028688D01*
X0083502Y0028380D01*
X0082434Y0028099D01*
X0081360Y0027843D01*
X0080279Y0027615D01*
X0079193Y0027413D01*
X0078103Y0027237D01*
X0077008Y0027088D01*
X0075911Y0026967D01*
X0074810Y0026872D01*
X0073708Y0026804D01*
X0072604Y0026764D01*
X0071500Y0026750D01*
X0070396Y0026764D01*
X0069292Y0026804D01*
X0068190Y0026872D01*
X0067089Y0026967D01*
X0065992Y0027088D01*
X0064897Y0027237D01*
X0063807Y0027413D01*
X0062721Y0027615D01*
X0061640Y0027843D01*
X0060566Y0028099D01*
X0059498Y0028380D01*
X0058437Y0028688D01*
X0057384Y0029021D01*
X0056340Y0029381D01*
X0055305Y0029765D01*
X0054279Y0030175D01*
X0053264Y0030611D01*
X0052260Y0031070D01*
X0051267Y0031555D01*
X0050287Y0032064D01*
X0049320Y0032596D01*
X0048365Y0033152D01*
X0047425Y0033732D01*
X0046499Y0034334D01*
X0045589Y0034959D01*
X0044694Y0035606D01*
X0043815Y0036274D01*
X0042952Y0036965D01*
X0042107Y0037676D01*
X0041280Y0038407D01*
X0040471Y0039159D01*
X0039680Y0039930D01*
X0038909Y0040721D01*
X0038157Y0041530D01*
X0037426Y0042357D01*
X0036715Y0043202D01*
X0036024Y0044065D01*
X0035356Y0044944D01*
X0034709Y0045839D01*
X0034084Y0046749D01*
X0033482Y0047675D01*
X0032902Y0048615D01*
X0032346Y0049570D01*
X0031814Y0050537D01*
X0031305Y0051517D01*
X0030820Y0052510D01*
X0030361Y0053514D01*
X0029925Y0054529D01*
X0029515Y0055555D01*
X0029131Y0056590D01*
X0028771Y0057634D01*
X0028438Y0058687D01*
X0028130Y0059748D01*
X0027849Y0060816D01*
X0027593Y0061890D01*
X0027365Y0062971D01*
X0027163Y0064057D01*
X0026987Y0065147D01*
X0026838Y0066242D01*
X0026717Y0067339D01*
X0026622Y0068440D01*
X0026554Y0069542D01*
X0026514Y0070646D01*
X0026500Y0071750D01*
X0041500Y0071750D02*
X0041509Y0072486D01*
X0041536Y0073222D01*
X0041581Y0073957D01*
X0041644Y0074691D01*
X0041726Y0075422D01*
X0041825Y0076152D01*
X0041942Y0076879D01*
X0042076Y0077603D01*
X0042229Y0078323D01*
X0042399Y0079039D01*
X0042587Y0079751D01*
X0042792Y0080459D01*
X0043014Y0081160D01*
X0043254Y0081857D01*
X0043510Y0082547D01*
X0043784Y0083231D01*
X0044074Y0083907D01*
X0044380Y0084577D01*
X0044703Y0085238D01*
X0045042Y0085892D01*
X0045397Y0086537D01*
X0045768Y0087173D01*
X0046154Y0087800D01*
X0046556Y0088417D01*
X0046972Y0089024D01*
X0047404Y0089621D01*
X0047850Y0090207D01*
X0048310Y0090782D01*
X0048784Y0091345D01*
X0049271Y0091897D01*
X0049773Y0092436D01*
X0050287Y0092963D01*
X0050814Y0093477D01*
X0051353Y0093979D01*
X0051905Y0094466D01*
X0052468Y0094940D01*
X0053043Y0095400D01*
X0053629Y0095846D01*
X0054226Y0096278D01*
X0054833Y0096694D01*
X0055450Y0097096D01*
X0056077Y0097482D01*
X0056713Y0097853D01*
X0057358Y0098208D01*
X0058012Y0098547D01*
X0058673Y0098870D01*
X0059343Y0099176D01*
X0060019Y0099466D01*
X0060703Y0099740D01*
X0061393Y0099996D01*
X0062090Y0100236D01*
X0062791Y0100458D01*
X0063499Y0100663D01*
X0064211Y0100851D01*
X0064927Y0101021D01*
X0065647Y0101174D01*
X0066371Y0101308D01*
X0067098Y0101425D01*
X0067828Y0101524D01*
X0068559Y0101606D01*
X0069293Y0101669D01*
X0070028Y0101714D01*
X0070764Y0101741D01*
X0071500Y0101750D01*
X0072236Y0101741D01*
X0072972Y0101714D01*
X0073707Y0101669D01*
X0074441Y0101606D01*
X0075172Y0101524D01*
X0075902Y0101425D01*
X0076629Y0101308D01*
X0077353Y0101174D01*
X0078073Y0101021D01*
X0078789Y0100851D01*
X0079501Y0100663D01*
X0080209Y0100458D01*
X0080910Y0100236D01*
X0081607Y0099996D01*
X0082297Y0099740D01*
X0082981Y0099466D01*
X0083657Y0099176D01*
X0084327Y0098870D01*
X0084988Y0098547D01*
X0085642Y0098208D01*
X0086287Y0097853D01*
X0086923Y0097482D01*
X0087550Y0097096D01*
X0088167Y0096694D01*
X0088774Y0096278D01*
X0089371Y0095846D01*
X0089957Y0095400D01*
X0090532Y0094940D01*
X0091095Y0094466D01*
X0091647Y0093979D01*
X0092186Y0093477D01*
X0092713Y0092963D01*
X0093227Y0092436D01*
X0093729Y0091897D01*
X0094216Y0091345D01*
X0094690Y0090782D01*
X0095150Y0090207D01*
X0095596Y0089621D01*
X0096028Y0089024D01*
X0096444Y0088417D01*
X0096846Y0087800D01*
X0097232Y0087173D01*
X0097603Y0086537D01*
X0097958Y0085892D01*
X0098297Y0085238D01*
X0098620Y0084577D01*
X0098926Y0083907D01*
X0099216Y0083231D01*
X0099490Y0082547D01*
X0099746Y0081857D01*
X0099986Y0081160D01*
X0100208Y0080459D01*
X0100413Y0079751D01*
X0100601Y0079039D01*
X0100771Y0078323D01*
X0100924Y0077603D01*
X0101058Y0076879D01*
X0101175Y0076152D01*
X0101274Y0075422D01*
X0101356Y0074691D01*
X0101419Y0073957D01*
X0101464Y0073222D01*
X0101491Y0072486D01*
X0101500Y0071750D01*
X0101491Y0071014D01*
X0101464Y0070278D01*
X0101419Y0069543D01*
X0101356Y0068809D01*
X0101274Y0068078D01*
X0101175Y0067348D01*
X0101058Y0066621D01*
X0100924Y0065897D01*
X0100771Y0065177D01*
X0100601Y0064461D01*
X0100413Y0063749D01*
X0100208Y0063041D01*
X0099986Y0062340D01*
X0099746Y0061643D01*
X0099490Y0060953D01*
X0099216Y0060269D01*
X0098926Y0059593D01*
X0098620Y0058923D01*
X0098297Y0058262D01*
X0097958Y0057608D01*
X0097603Y0056963D01*
X0097232Y0056327D01*
X0096846Y0055700D01*
X0096444Y0055083D01*
X0096028Y0054476D01*
X0095596Y0053879D01*
X0095150Y0053293D01*
X0094690Y0052718D01*
X0094216Y0052155D01*
X0093729Y0051603D01*
X0093227Y0051064D01*
X0092713Y0050537D01*
X0092186Y0050023D01*
X0091647Y0049521D01*
X0091095Y0049034D01*
X0090532Y0048560D01*
X0089957Y0048100D01*
X0089371Y0047654D01*
X0088774Y0047222D01*
X0088167Y0046806D01*
X0087550Y0046404D01*
X0086923Y0046018D01*
X0086287Y0045647D01*
X0085642Y0045292D01*
X0084988Y0044953D01*
X0084327Y0044630D01*
X0083657Y0044324D01*
X0082981Y0044034D01*
X0082297Y0043760D01*
X0081607Y0043504D01*
X0080910Y0043264D01*
X0080209Y0043042D01*
X0079501Y0042837D01*
X0078789Y0042649D01*
X0078073Y0042479D01*
X0077353Y0042326D01*
X0076629Y0042192D01*
X0075902Y0042075D01*
X0075172Y0041976D01*
X0074441Y0041894D01*
X0073707Y0041831D01*
X0072972Y0041786D01*
X0072236Y0041759D01*
X0071500Y0041750D01*
X0070764Y0041759D01*
X0070028Y0041786D01*
X0069293Y0041831D01*
X0068559Y0041894D01*
X0067828Y0041976D01*
X0067098Y0042075D01*
X0066371Y0042192D01*
X0065647Y0042326D01*
X0064927Y0042479D01*
X0064211Y0042649D01*
X0063499Y0042837D01*
X0062791Y0043042D01*
X0062090Y0043264D01*
X0061393Y0043504D01*
X0060703Y0043760D01*
X0060019Y0044034D01*
X0059343Y0044324D01*
X0058673Y0044630D01*
X0058012Y0044953D01*
X0057358Y0045292D01*
X0056713Y0045647D01*
X0056077Y0046018D01*
X0055450Y0046404D01*
X0054833Y0046806D01*
X0054226Y0047222D01*
X0053629Y0047654D01*
X0053043Y0048100D01*
X0052468Y0048560D01*
X0051905Y0049034D01*
X0051353Y0049521D01*
X0050814Y0050023D01*
X0050287Y0050537D01*
X0049773Y0051064D01*
X0049271Y0051603D01*
X0048784Y0052155D01*
X0048310Y0052718D01*
X0047850Y0053293D01*
X0047404Y0053879D01*
X0046972Y0054476D01*
X0046556Y0055083D01*
X0046154Y0055700D01*
X0045768Y0056327D01*
X0045397Y0056963D01*
X0045042Y0057608D01*
X0044703Y0058262D01*
X0044380Y0058923D01*
X0044074Y0059593D01*
X0043784Y0060269D01*
X0043510Y0060953D01*
X0043254Y0061643D01*
X0043014Y0062340D01*
X0042792Y0063041D01*
X0042587Y0063749D01*
X0042399Y0064461D01*
X0042229Y0065177D01*
X0042076Y0065897D01*
X0041942Y0066621D01*
X0041825Y0067348D01*
X0041726Y0068078D01*
X0041644Y0068809D01*
X0041581Y0069543D01*
X0041536Y0070278D01*
X0041509Y0071014D01*
X0041500Y0071750D01*
X0057358Y0071750D02*
X0057362Y0072097D01*
X0057375Y0072444D01*
X0057396Y0072790D01*
X0057426Y0073136D01*
X0057464Y0073481D01*
X0057511Y0073825D01*
X0057566Y0074168D01*
X0057630Y0074509D01*
X0057702Y0074849D01*
X0057782Y0075186D01*
X0057870Y0075522D01*
X0057967Y0075855D01*
X0058072Y0076186D01*
X0058185Y0076514D01*
X0058306Y0076840D01*
X0058434Y0077162D01*
X0058571Y0077481D01*
X0058716Y0077796D01*
X0058868Y0078108D01*
X0059028Y0078416D01*
X0059195Y0078721D01*
X0059370Y0079020D01*
X0059552Y0079316D01*
X0059741Y0079607D01*
X0059938Y0079893D01*
X0060141Y0080174D01*
X0060351Y0080451D01*
X0060568Y0080722D01*
X0060792Y0080987D01*
X0061021Y0081247D01*
X0061258Y0081501D01*
X0061500Y0081750D01*
X0061749Y0081992D01*
X0062003Y0082229D01*
X0062263Y0082458D01*
X0062528Y0082682D01*
X0062799Y0082899D01*
X0063076Y0083109D01*
X0063357Y0083312D01*
X0063643Y0083509D01*
X0063934Y0083698D01*
X0064230Y0083880D01*
X0064529Y0084055D01*
X0064834Y0084222D01*
X0065142Y0084382D01*
X0065454Y0084534D01*
X0065769Y0084679D01*
X0066088Y0084816D01*
X0066410Y0084944D01*
X0066736Y0085065D01*
X0067064Y0085178D01*
X0067395Y0085283D01*
X0067728Y0085380D01*
X0068064Y0085468D01*
X0068401Y0085548D01*
X0068741Y0085620D01*
X0069082Y0085684D01*
X0069425Y0085739D01*
X0069769Y0085786D01*
X0070114Y0085824D01*
X0070460Y0085854D01*
X0070806Y0085875D01*
X0071153Y0085888D01*
X0071500Y0085892D01*
X0071847Y0085888D01*
X0072194Y0085875D01*
X0072540Y0085854D01*
X0072886Y0085824D01*
X0073231Y0085786D01*
X0073575Y0085739D01*
X0073918Y0085684D01*
X0074259Y0085620D01*
X0074599Y0085548D01*
X0074936Y0085468D01*
X0075272Y0085380D01*
X0075605Y0085283D01*
X0075936Y0085178D01*
X0076264Y0085065D01*
X0076590Y0084944D01*
X0076912Y0084816D01*
X0077231Y0084679D01*
X0077546Y0084534D01*
X0077858Y0084382D01*
X0078166Y0084222D01*
X0078471Y0084055D01*
X0078770Y0083880D01*
X0079066Y0083698D01*
X0079357Y0083509D01*
X0079643Y0083312D01*
X0079924Y0083109D01*
X0080201Y0082899D01*
X0080472Y0082682D01*
X0080737Y0082458D01*
X0080997Y0082229D01*
X0081251Y0081992D01*
X0081500Y0081750D01*
X0081742Y0081501D01*
X0081979Y0081247D01*
X0082208Y0080987D01*
X0082432Y0080722D01*
X0082649Y0080451D01*
X0082859Y0080174D01*
X0083062Y0079893D01*
X0083259Y0079607D01*
X0083448Y0079316D01*
X0083630Y0079020D01*
X0083805Y0078721D01*
X0083972Y0078416D01*
X0084132Y0078108D01*
X0084284Y0077796D01*
X0084429Y0077481D01*
X0084566Y0077162D01*
X0084694Y0076840D01*
X0084815Y0076514D01*
X0084928Y0076186D01*
X0085033Y0075855D01*
X0085130Y0075522D01*
X0085218Y0075186D01*
X0085298Y0074849D01*
X0085370Y0074509D01*
X0085434Y0074168D01*
X0085489Y0073825D01*
X0085536Y0073481D01*
X0085574Y0073136D01*
X0085604Y0072790D01*
X0085625Y0072444D01*
X0085638Y0072097D01*
X0085642Y0071750D01*
X0085638Y0071403D01*
X0085625Y0071056D01*
X0085604Y0070710D01*
X0085574Y0070364D01*
X0085536Y0070019D01*
X0085489Y0069675D01*
X0085434Y0069332D01*
X0085370Y0068991D01*
X0085298Y0068651D01*
X0085218Y0068314D01*
X0085130Y0067978D01*
X0085033Y0067645D01*
X0084928Y0067314D01*
X0084815Y0066986D01*
X0084694Y0066660D01*
X0084566Y0066338D01*
X0084429Y0066019D01*
X0084284Y0065704D01*
X0084132Y0065392D01*
X0083972Y0065084D01*
X0083805Y0064779D01*
X0083630Y0064480D01*
X0083448Y0064184D01*
X0083259Y0063893D01*
X0083062Y0063607D01*
X0082859Y0063326D01*
X0082649Y0063049D01*
X0082432Y0062778D01*
X0082208Y0062513D01*
X0081979Y0062253D01*
X0081742Y0061999D01*
X0081500Y0061750D01*
X0081251Y0061508D01*
X0080997Y0061271D01*
X0080737Y0061042D01*
X0080472Y0060818D01*
X0080201Y0060601D01*
X0079924Y0060391D01*
X0079643Y0060188D01*
X0079357Y0059991D01*
X0079066Y0059802D01*
X0078770Y0059620D01*
X0078471Y0059445D01*
X0078166Y0059278D01*
X0077858Y0059118D01*
X0077546Y0058966D01*
X0077231Y0058821D01*
X0076912Y0058684D01*
X0076590Y0058556D01*
X0076264Y0058435D01*
X0075936Y0058322D01*
X0075605Y0058217D01*
X0075272Y0058120D01*
X0074936Y0058032D01*
X0074599Y0057952D01*
X0074259Y0057880D01*
X0073918Y0057816D01*
X0073575Y0057761D01*
X0073231Y0057714D01*
X0072886Y0057676D01*
X0072540Y0057646D01*
X0072194Y0057625D01*
X0071847Y0057612D01*
X0071500Y0057608D01*
X0071153Y0057612D01*
X0070806Y0057625D01*
X0070460Y0057646D01*
X0070114Y0057676D01*
X0069769Y0057714D01*
X0069425Y0057761D01*
X0069082Y0057816D01*
X0068741Y0057880D01*
X0068401Y0057952D01*
X0068064Y0058032D01*
X0067728Y0058120D01*
X0067395Y0058217D01*
X0067064Y0058322D01*
X0066736Y0058435D01*
X0066410Y0058556D01*
X0066088Y0058684D01*
X0065769Y0058821D01*
X0065454Y0058966D01*
X0065142Y0059118D01*
X0064834Y0059278D01*
X0064529Y0059445D01*
X0064230Y0059620D01*
X0063934Y0059802D01*
X0063643Y0059991D01*
X0063357Y0060188D01*
X0063076Y0060391D01*
X0062799Y0060601D01*
X0062528Y0060818D01*
X0062263Y0061042D01*
X0062003Y0061271D01*
X0061749Y0061508D01*
X0061500Y0061750D01*
X0061258Y0061999D01*
X0061021Y0062253D01*
X0060792Y0062513D01*
X0060568Y0062778D01*
X0060351Y0063049D01*
X0060141Y0063326D01*
X0059938Y0063607D01*
X0059741Y0063893D01*
X0059552Y0064184D01*
X0059370Y0064480D01*
X0059195Y0064779D01*
X0059028Y0065084D01*
X0058868Y0065392D01*
X0058716Y0065704D01*
X0058571Y0066019D01*
X0058434Y0066338D01*
X0058306Y0066660D01*
X0058185Y0066986D01*
X0058072Y0067314D01*
X0057967Y0067645D01*
X0057870Y0067978D01*
X0057782Y0068314D01*
X0057702Y0068651D01*
X0057630Y0068991D01*
X0057566Y0069332D01*
X0057511Y0069675D01*
X0057464Y0070019D01*
X0057426Y0070364D01*
X0057396Y0070710D01*
X0057375Y0071056D01*
X0057362Y0071403D01*
X0057358Y0071750D01*
X0179250Y0115750D02*
X0190250Y0115750D01*
X0200250Y0115750D02*
X0211250Y0115750D01*
X0211250Y0143250D01*
X0206864Y0147695D01*
X0206750Y0147750D02*
X0200250Y0147750D01*
X0190250Y0147750D02*
X0183750Y0147750D01*
X0183636Y0147695D02*
X0179250Y0143250D01*
X0179250Y0115750D01*
X0200050Y0117350D02*
X0200401Y0117472D01*
X0200749Y0117602D01*
X0201094Y0117741D01*
X0201435Y0117888D01*
X0201773Y0118044D01*
X0202107Y0118208D01*
X0202436Y0118380D01*
X0202762Y0118560D01*
X0203082Y0118748D01*
X0203398Y0118944D01*
X0203710Y0119147D01*
X0204016Y0119358D01*
X0204316Y0119576D01*
X0204612Y0119802D01*
X0204902Y0120035D01*
X0205186Y0120275D01*
X0205464Y0120521D01*
X0205736Y0120775D01*
X0206001Y0121035D01*
X0206260Y0121301D01*
X0206513Y0121574D01*
X0206759Y0121853D01*
X0206998Y0122138D01*
X0207230Y0122428D01*
X0207454Y0122725D01*
X0207672Y0123026D01*
X0207882Y0123333D01*
X0208084Y0123645D01*
X0208278Y0123962D01*
X0208465Y0124283D01*
X0208644Y0124609D01*
X0208815Y0124939D01*
X0208978Y0125273D01*
X0209132Y0125611D01*
X0209278Y0125953D01*
X0209416Y0126298D01*
X0209545Y0126647D01*
X0209666Y0126998D01*
X0209778Y0127353D01*
X0209881Y0127710D01*
X0209976Y0128070D01*
X0210062Y0128431D01*
X0210139Y0128795D01*
X0210206Y0129160D01*
X0210265Y0129528D01*
X0210315Y0129896D01*
X0210356Y0130265D01*
X0210388Y0130636D01*
X0210411Y0131007D01*
X0210424Y0131378D01*
X0210429Y0131750D01*
X0210424Y0132122D01*
X0210411Y0132493D01*
X0210388Y0132864D01*
X0210356Y0133235D01*
X0210315Y0133604D01*
X0210265Y0133972D01*
X0210206Y0134340D01*
X0210139Y0134705D01*
X0210062Y0135069D01*
X0209976Y0135430D01*
X0209881Y0135790D01*
X0209778Y0136147D01*
X0209666Y0136502D01*
X0209545Y0136853D01*
X0209416Y0137202D01*
X0209278Y0137547D01*
X0209132Y0137889D01*
X0208978Y0138227D01*
X0208815Y0138561D01*
X0208644Y0138891D01*
X0208465Y0139217D01*
X0208278Y0139538D01*
X0208084Y0139855D01*
X0207882Y0140167D01*
X0207672Y0140474D01*
X0207454Y0140775D01*
X0207230Y0141072D01*
X0206998Y0141362D01*
X0206759Y0141647D01*
X0206513Y0141926D01*
X0206260Y0142199D01*
X0206001Y0142465D01*
X0205736Y0142725D01*
X0205464Y0142979D01*
X0205186Y0143225D01*
X0204902Y0143465D01*
X0204612Y0143698D01*
X0204316Y0143924D01*
X0204016Y0144142D01*
X0203710Y0144353D01*
X0203398Y0144556D01*
X0203082Y0144752D01*
X0202762Y0144940D01*
X0202436Y0145120D01*
X0202107Y0145292D01*
X0201773Y0145456D01*
X0201435Y0145612D01*
X0201094Y0145759D01*
X0200749Y0145898D01*
X0200401Y0146028D01*
X0200050Y0146150D01*
X0222500Y0147750D02*
X0233500Y0147750D01*
X0243500Y0147750D02*
X0254500Y0147750D01*
X0254500Y0120250D01*
X0250114Y0115805D01*
X0250000Y0115750D02*
X0243500Y0115750D01*
X0233500Y0115750D02*
X0227000Y0115750D01*
X0226886Y0115805D02*
X0222500Y0120250D01*
X0222500Y0147750D01*
X0243300Y0146150D02*
X0243651Y0146028D01*
X0243999Y0145898D01*
X0244344Y0145759D01*
X0244685Y0145612D01*
X0245023Y0145456D01*
X0245357Y0145292D01*
X0245686Y0145120D01*
X0246012Y0144940D01*
X0246332Y0144752D01*
X0246648Y0144556D01*
X0246960Y0144353D01*
X0247266Y0144142D01*
X0247566Y0143924D01*
X0247862Y0143698D01*
X0248152Y0143465D01*
X0248436Y0143225D01*
X0248714Y0142979D01*
X0248986Y0142725D01*
X0249251Y0142465D01*
X0249510Y0142199D01*
X0249763Y0141926D01*
X0250009Y0141647D01*
X0250248Y0141362D01*
X0250480Y0141072D01*
X0250704Y0140775D01*
X0250922Y0140474D01*
X0251132Y0140167D01*
X0251334Y0139855D01*
X0251528Y0139538D01*
X0251715Y0139217D01*
X0251894Y0138891D01*
X0252065Y0138561D01*
X0252228Y0138227D01*
X0252382Y0137889D01*
X0252528Y0137547D01*
X0252666Y0137202D01*
X0252795Y0136853D01*
X0252916Y0136502D01*
X0253028Y0136147D01*
X0253131Y0135790D01*
X0253226Y0135430D01*
X0253312Y0135069D01*
X0253389Y0134705D01*
X0253456Y0134340D01*
X0253515Y0133972D01*
X0253565Y0133604D01*
X0253606Y0133235D01*
X0253638Y0132864D01*
X0253661Y0132493D01*
X0253674Y0132122D01*
X0253679Y0131750D01*
X0253674Y0131378D01*
X0253661Y0131007D01*
X0253638Y0130636D01*
X0253606Y0130265D01*
X0253565Y0129896D01*
X0253515Y0129528D01*
X0253456Y0129160D01*
X0253389Y0128795D01*
X0253312Y0128431D01*
X0253226Y0128070D01*
X0253131Y0127710D01*
X0253028Y0127353D01*
X0252916Y0126998D01*
X0252795Y0126647D01*
X0252666Y0126298D01*
X0252528Y0125953D01*
X0252382Y0125611D01*
X0252228Y0125273D01*
X0252065Y0124939D01*
X0251894Y0124609D01*
X0251715Y0124283D01*
X0251528Y0123962D01*
X0251334Y0123645D01*
X0251132Y0123333D01*
X0250922Y0123026D01*
X0250704Y0122725D01*
X0250480Y0122428D01*
X0250248Y0122138D01*
X0250009Y0121853D01*
X0249763Y0121574D01*
X0249510Y0121301D01*
X0249251Y0121035D01*
X0248986Y0120775D01*
X0248714Y0120521D01*
X0248436Y0120275D01*
X0248152Y0120035D01*
X0247862Y0119802D01*
X0247566Y0119576D01*
X0247266Y0119358D01*
X0246960Y0119147D01*
X0246648Y0118944D01*
X0246332Y0118748D01*
X0246012Y0118560D01*
X0245686Y0118380D01*
X0245357Y0118208D01*
X0245023Y0118044D01*
X0244685Y0117888D01*
X0244344Y0117741D01*
X0243999Y0117602D01*
X0243651Y0117472D01*
X0243300Y0117350D01*
X0233700Y0117350D02*
X0233349Y0117472D01*
X0233001Y0117602D01*
X0232656Y0117741D01*
X0232315Y0117888D01*
X0231977Y0118044D01*
X0231643Y0118208D01*
X0231314Y0118380D01*
X0230988Y0118560D01*
X0230668Y0118748D01*
X0230352Y0118944D01*
X0230040Y0119147D01*
X0229734Y0119358D01*
X0229434Y0119576D01*
X0229138Y0119802D01*
X0228848Y0120035D01*
X0228564Y0120275D01*
X0228286Y0120521D01*
X0228014Y0120775D01*
X0227749Y0121035D01*
X0227490Y0121301D01*
X0227237Y0121574D01*
X0226991Y0121853D01*
X0226752Y0122138D01*
X0226520Y0122428D01*
X0226296Y0122725D01*
X0226078Y0123026D01*
X0225868Y0123333D01*
X0225666Y0123645D01*
X0225472Y0123962D01*
X0225285Y0124283D01*
X0225106Y0124609D01*
X0224935Y0124939D01*
X0224772Y0125273D01*
X0224618Y0125611D01*
X0224472Y0125953D01*
X0224334Y0126298D01*
X0224205Y0126647D01*
X0224084Y0126998D01*
X0223972Y0127353D01*
X0223869Y0127710D01*
X0223774Y0128070D01*
X0223688Y0128431D01*
X0223611Y0128795D01*
X0223544Y0129160D01*
X0223485Y0129528D01*
X0223435Y0129896D01*
X0223394Y0130265D01*
X0223362Y0130636D01*
X0223339Y0131007D01*
X0223326Y0131378D01*
X0223321Y0131750D01*
X0223326Y0132122D01*
X0223339Y0132493D01*
X0223362Y0132864D01*
X0223394Y0133235D01*
X0223435Y0133604D01*
X0223485Y0133972D01*
X0223544Y0134340D01*
X0223611Y0134705D01*
X0223688Y0135069D01*
X0223774Y0135430D01*
X0223869Y0135790D01*
X0223972Y0136147D01*
X0224084Y0136502D01*
X0224205Y0136853D01*
X0224334Y0137202D01*
X0224472Y0137547D01*
X0224618Y0137889D01*
X0224772Y0138227D01*
X0224935Y0138561D01*
X0225106Y0138891D01*
X0225285Y0139217D01*
X0225472Y0139538D01*
X0225666Y0139855D01*
X0225868Y0140167D01*
X0226078Y0140474D01*
X0226296Y0140775D01*
X0226520Y0141072D01*
X0226752Y0141362D01*
X0226991Y0141647D01*
X0227237Y0141926D01*
X0227490Y0142199D01*
X0227749Y0142465D01*
X0228014Y0142725D01*
X0228286Y0142979D01*
X0228564Y0143225D01*
X0228848Y0143465D01*
X0229138Y0143698D01*
X0229434Y0143924D01*
X0229734Y0144142D01*
X0230040Y0144353D01*
X0230352Y0144556D01*
X0230668Y0144752D01*
X0230988Y0144940D01*
X0231314Y0145120D01*
X0231643Y0145292D01*
X0231977Y0145456D01*
X0232315Y0145612D01*
X0232656Y0145759D01*
X0233001Y0145898D01*
X0233349Y0146028D01*
X0233700Y0146150D01*
X0190450Y0146150D02*
X0190099Y0146028D01*
X0189751Y0145898D01*
X0189406Y0145759D01*
X0189065Y0145612D01*
X0188727Y0145456D01*
X0188393Y0145292D01*
X0188064Y0145120D01*
X0187738Y0144940D01*
X0187418Y0144752D01*
X0187102Y0144556D01*
X0186790Y0144353D01*
X0186484Y0144142D01*
X0186184Y0143924D01*
X0185888Y0143698D01*
X0185598Y0143465D01*
X0185314Y0143225D01*
X0185036Y0142979D01*
X0184764Y0142725D01*
X0184499Y0142465D01*
X0184240Y0142199D01*
X0183987Y0141926D01*
X0183741Y0141647D01*
X0183502Y0141362D01*
X0183270Y0141072D01*
X0183046Y0140775D01*
X0182828Y0140474D01*
X0182618Y0140167D01*
X0182416Y0139855D01*
X0182222Y0139538D01*
X0182035Y0139217D01*
X0181856Y0138891D01*
X0181685Y0138561D01*
X0181522Y0138227D01*
X0181368Y0137889D01*
X0181222Y0137547D01*
X0181084Y0137202D01*
X0180955Y0136853D01*
X0180834Y0136502D01*
X0180722Y0136147D01*
X0180619Y0135790D01*
X0180524Y0135430D01*
X0180438Y0135069D01*
X0180361Y0134705D01*
X0180294Y0134340D01*
X0180235Y0133972D01*
X0180185Y0133604D01*
X0180144Y0133235D01*
X0180112Y0132864D01*
X0180089Y0132493D01*
X0180076Y0132122D01*
X0180071Y0131750D01*
X0180076Y0131378D01*
X0180089Y0131007D01*
X0180112Y0130636D01*
X0180144Y0130265D01*
X0180185Y0129896D01*
X0180235Y0129528D01*
X0180294Y0129160D01*
X0180361Y0128795D01*
X0180438Y0128431D01*
X0180524Y0128070D01*
X0180619Y0127710D01*
X0180722Y0127353D01*
X0180834Y0126998D01*
X0180955Y0126647D01*
X0181084Y0126298D01*
X0181222Y0125953D01*
X0181368Y0125611D01*
X0181522Y0125273D01*
X0181685Y0124939D01*
X0181856Y0124609D01*
X0182035Y0124283D01*
X0182222Y0123962D01*
X0182416Y0123645D01*
X0182618Y0123333D01*
X0182828Y0123026D01*
X0183046Y0122725D01*
X0183270Y0122428D01*
X0183502Y0122138D01*
X0183741Y0121853D01*
X0183987Y0121574D01*
X0184240Y0121301D01*
X0184499Y0121035D01*
X0184764Y0120775D01*
X0185036Y0120521D01*
X0185314Y0120275D01*
X0185598Y0120035D01*
X0185888Y0119802D01*
X0186184Y0119576D01*
X0186484Y0119358D01*
X0186790Y0119147D01*
X0187102Y0118944D01*
X0187418Y0118748D01*
X0187738Y0118560D01*
X0188064Y0118380D01*
X0188393Y0118208D01*
X0188727Y0118044D01*
X0189065Y0117888D01*
X0189406Y0117741D01*
X0189751Y0117602D01*
X0190099Y0117472D01*
X0190450Y0117350D01*
X0098583Y0158140D02*
X0074983Y0158141D01*
X0074984Y0158140D02*
X0074986Y0183944D01*
X0074983Y0183941D02*
X0098583Y0183943D01*
X0098583Y0158140D01*
X0074583Y0160941D02*
X0074583Y0181141D01*
X0071783Y0181141D01*
X0069983Y0179341D01*
X0069983Y0162741D01*
X0071783Y0160941D01*
X0074583Y0160941D01*
X0053770Y0164541D02*
X0027970Y0164541D01*
X0027970Y0177541D01*
X0053770Y0177541D01*
X0053770Y0164541D01*
X0136900Y0188685D02*
X0138435Y0187150D01*
X0141504Y0187150D01*
X0143039Y0188685D01*
X0143039Y0194823D01*
X0141504Y0196358D01*
X0138435Y0196358D01*
X0136900Y0194823D01*
X0136900Y0188685D01*
X0146108Y0187150D02*
X0150712Y0187150D01*
X0152246Y0188685D01*
X0152246Y0191754D01*
X0150712Y0193289D01*
X0146108Y0193289D01*
X0146108Y0184081D01*
X0155316Y0188685D02*
X0155316Y0191754D01*
X0156850Y0193289D01*
X0159920Y0193289D01*
X0161454Y0191754D01*
X0161454Y0190219D01*
X0155316Y0190219D01*
X0155316Y0188685D02*
X0156850Y0187150D01*
X0159920Y0187150D01*
X0164524Y0187150D02*
X0164524Y0193289D01*
X0169128Y0193289D01*
X0170662Y0191754D01*
X0170662Y0187150D01*
X0173731Y0187150D02*
X0173731Y0196358D01*
X0178335Y0196358D01*
X0179870Y0194823D01*
X0179870Y0191754D01*
X0178335Y0190219D01*
X0173731Y0190219D01*
X0182939Y0187150D02*
X0182939Y0193289D01*
X0187543Y0193289D01*
X0189078Y0191754D01*
X0189078Y0187150D01*
X0192147Y0187150D02*
X0192147Y0196358D01*
X0196751Y0196358D01*
X0198286Y0194823D01*
X0198286Y0191754D01*
X0196751Y0190219D01*
X0192147Y0190219D01*
X0210563Y0187150D02*
X0215167Y0187150D01*
X0216701Y0188685D01*
X0216701Y0194823D01*
X0215167Y0196358D01*
X0210563Y0196358D01*
X0210563Y0187150D01*
X0219771Y0188685D02*
X0221305Y0187150D01*
X0224375Y0187150D01*
X0228979Y0187150D02*
X0228979Y0193289D01*
X0230513Y0193289D01*
X0232048Y0191754D01*
X0233583Y0193289D01*
X0235117Y0191754D01*
X0235117Y0187150D01*
X0232048Y0187150D02*
X0232048Y0191754D01*
X0238186Y0191754D02*
X0238186Y0188685D01*
X0239721Y0187150D01*
X0242790Y0187150D01*
X0244325Y0188685D01*
X0244325Y0191754D01*
X0242790Y0193289D01*
X0239721Y0193289D01*
X0238186Y0191754D01*
X0225909Y0191754D02*
X0225909Y0190219D01*
X0219771Y0190219D01*
X0219771Y0188685D02*
X0219771Y0191754D01*
X0221305Y0193289D01*
X0224375Y0193289D01*
X0225909Y0191754D01*
X0256602Y0191754D02*
X0261206Y0191754D01*
X0262741Y0190219D01*
X0262741Y0188685D01*
X0261206Y0187150D01*
X0256602Y0187150D01*
X0256602Y0196358D01*
X0261206Y0196358D01*
X0262741Y0194823D01*
X0262741Y0193289D01*
X0261206Y0191754D01*
X0265810Y0191754D02*
X0265810Y0188685D01*
X0267345Y0187150D01*
X0270414Y0187150D01*
X0271949Y0188685D01*
X0271949Y0191754D01*
X0270414Y0193289D01*
X0267345Y0193289D01*
X0265810Y0191754D01*
X0275018Y0188685D02*
X0276553Y0190219D01*
X0281156Y0190219D01*
X0281156Y0191754D02*
X0281156Y0187150D01*
X0276553Y0187150D01*
X0275018Y0188685D01*
X0276553Y0193289D02*
X0279622Y0193289D01*
X0281156Y0191754D01*
X0284226Y0193289D02*
X0284226Y0187150D01*
X0284226Y0190219D02*
X0287295Y0193289D01*
X0288830Y0193289D01*
X0291899Y0191754D02*
X0293434Y0193289D01*
X0298038Y0193289D01*
X0298038Y0196358D02*
X0298038Y0187150D01*
X0293434Y0187150D01*
X0291899Y0188685D01*
X0291899Y0191754D01*
X0310315Y0193289D02*
X0313384Y0187150D01*
X0316453Y0193289D01*
X0319523Y0194823D02*
X0321057Y0196358D01*
X0324127Y0196358D01*
X0325661Y0194823D01*
X0325661Y0193289D01*
X0319523Y0187150D01*
X0325661Y0187150D01*
X0333232Y0158738D02*
X0309531Y0158738D01*
X0309531Y0114526D01*
X0333232Y0114526D01*
X0333232Y0158738D01*
X0347108Y0102850D02*
X0347108Y0096711D01*
X0347108Y0099781D02*
X0337900Y0099781D01*
X0339435Y0093642D02*
X0337900Y0092108D01*
X0337900Y0089038D01*
X0339435Y0087504D01*
X0342504Y0087504D01*
X0344039Y0089038D01*
X0344039Y0092108D01*
X0342504Y0093642D01*
X0339435Y0093642D01*
X0337900Y0084434D02*
X0337900Y0079830D01*
X0339435Y0078296D01*
X0342504Y0078296D01*
X0344039Y0079830D01*
X0344039Y0084434D01*
X0334831Y0084434D01*
X0337900Y0066019D02*
X0337900Y0059880D01*
X0339435Y0056811D02*
X0337900Y0055276D01*
X0337900Y0050672D01*
X0342504Y0050672D01*
X0344039Y0052207D01*
X0344039Y0055276D01*
X0340969Y0055276D02*
X0340969Y0050672D01*
X0339435Y0047603D02*
X0337900Y0046068D01*
X0337900Y0041464D01*
X0336365Y0041464D02*
X0334831Y0042999D01*
X0334831Y0044534D01*
X0336365Y0041464D02*
X0344039Y0041464D01*
X0342504Y0038395D02*
X0344039Y0036860D01*
X0344039Y0033791D01*
X0342504Y0032256D01*
X0340969Y0032256D01*
X0340969Y0038395D01*
X0339435Y0038395D02*
X0342504Y0038395D01*
X0339435Y0038395D02*
X0337900Y0036860D01*
X0337900Y0033791D01*
X0337900Y0029187D02*
X0344039Y0029187D01*
X0344039Y0026118D02*
X0340969Y0029187D01*
X0344039Y0026118D02*
X0344039Y0024583D01*
X0344039Y0047603D02*
X0339435Y0047603D01*
X0340969Y0055276D02*
X0339435Y0056811D01*
X0337900Y0066019D02*
X0347108Y0066019D01*
D13*
X0351500Y0014250D02*
X0351500Y0189250D01*
X0351496Y0189552D01*
X0351485Y0189854D01*
X0351467Y0190155D01*
X0351442Y0190456D01*
X0351409Y0190757D01*
X0351369Y0191056D01*
X0351322Y0191354D01*
X0351267Y0191652D01*
X0351206Y0191947D01*
X0351137Y0192241D01*
X0351061Y0192534D01*
X0350978Y0192824D01*
X0350888Y0193113D01*
X0350791Y0193399D01*
X0350688Y0193683D01*
X0350577Y0193964D01*
X0350460Y0194242D01*
X0350336Y0194518D01*
X0350205Y0194790D01*
X0350068Y0195059D01*
X0349925Y0195325D01*
X0349775Y0195587D01*
X0349618Y0195846D01*
X0349456Y0196100D01*
X0349287Y0196351D01*
X0349113Y0196597D01*
X0348932Y0196840D01*
X0348746Y0197077D01*
X0348554Y0197311D01*
X0348356Y0197539D01*
X0348153Y0197763D01*
X0347945Y0197981D01*
X0347731Y0198195D01*
X0347513Y0198403D01*
X0347289Y0198606D01*
X0347061Y0198804D01*
X0346827Y0198996D01*
X0346590Y0199182D01*
X0346347Y0199363D01*
X0346101Y0199537D01*
X0345850Y0199706D01*
X0345596Y0199868D01*
X0345337Y0200025D01*
X0345075Y0200175D01*
X0344809Y0200318D01*
X0344540Y0200455D01*
X0344268Y0200586D01*
X0343992Y0200710D01*
X0343714Y0200827D01*
X0343433Y0200938D01*
X0343149Y0201041D01*
X0342863Y0201138D01*
X0342574Y0201228D01*
X0342284Y0201311D01*
X0341991Y0201387D01*
X0341697Y0201456D01*
X0341402Y0201517D01*
X0341104Y0201572D01*
X0340806Y0201619D01*
X0340507Y0201659D01*
X0340206Y0201692D01*
X0339905Y0201717D01*
X0339604Y0201735D01*
X0339302Y0201746D01*
X0339000Y0201750D01*
X0014000Y0201750D01*
X0013698Y0201746D01*
X0013396Y0201735D01*
X0013095Y0201717D01*
X0012794Y0201692D01*
X0012493Y0201659D01*
X0012194Y0201619D01*
X0011896Y0201572D01*
X0011598Y0201517D01*
X0011303Y0201456D01*
X0011009Y0201387D01*
X0010716Y0201311D01*
X0010426Y0201228D01*
X0010137Y0201138D01*
X0009851Y0201041D01*
X0009567Y0200938D01*
X0009286Y0200827D01*
X0009008Y0200710D01*
X0008732Y0200586D01*
X0008460Y0200455D01*
X0008191Y0200318D01*
X0007925Y0200175D01*
X0007663Y0200025D01*
X0007404Y0199868D01*
X0007150Y0199706D01*
X0006899Y0199537D01*
X0006653Y0199363D01*
X0006410Y0199182D01*
X0006173Y0198996D01*
X0005939Y0198804D01*
X0005711Y0198606D01*
X0005487Y0198403D01*
X0005269Y0198195D01*
X0005055Y0197981D01*
X0004847Y0197763D01*
X0004644Y0197539D01*
X0004446Y0197311D01*
X0004254Y0197077D01*
X0004068Y0196840D01*
X0003887Y0196597D01*
X0003713Y0196351D01*
X0003544Y0196100D01*
X0003382Y0195846D01*
X0003225Y0195587D01*
X0003075Y0195325D01*
X0002932Y0195059D01*
X0002795Y0194790D01*
X0002664Y0194518D01*
X0002540Y0194242D01*
X0002423Y0193964D01*
X0002312Y0193683D01*
X0002209Y0193399D01*
X0002112Y0193113D01*
X0002022Y0192824D01*
X0001939Y0192534D01*
X0001863Y0192241D01*
X0001794Y0191947D01*
X0001733Y0191652D01*
X0001678Y0191354D01*
X0001631Y0191056D01*
X0001591Y0190757D01*
X0001558Y0190456D01*
X0001533Y0190155D01*
X0001515Y0189854D01*
X0001504Y0189552D01*
X0001500Y0189250D01*
X0001500Y0014250D01*
X0001504Y0013948D01*
X0001515Y0013646D01*
X0001533Y0013345D01*
X0001558Y0013044D01*
X0001591Y0012743D01*
X0001631Y0012444D01*
X0001678Y0012146D01*
X0001733Y0011848D01*
X0001794Y0011553D01*
X0001863Y0011259D01*
X0001939Y0010966D01*
X0002022Y0010676D01*
X0002112Y0010387D01*
X0002209Y0010101D01*
X0002312Y0009817D01*
X0002423Y0009536D01*
X0002540Y0009258D01*
X0002664Y0008982D01*
X0002795Y0008710D01*
X0002932Y0008441D01*
X0003075Y0008175D01*
X0003225Y0007913D01*
X0003382Y0007654D01*
X0003544Y0007400D01*
X0003713Y0007149D01*
X0003887Y0006903D01*
X0004068Y0006660D01*
X0004254Y0006423D01*
X0004446Y0006189D01*
X0004644Y0005961D01*
X0004847Y0005737D01*
X0005055Y0005519D01*
X0005269Y0005305D01*
X0005487Y0005097D01*
X0005711Y0004894D01*
X0005939Y0004696D01*
X0006173Y0004504D01*
X0006410Y0004318D01*
X0006653Y0004137D01*
X0006899Y0003963D01*
X0007150Y0003794D01*
X0007404Y0003632D01*
X0007663Y0003475D01*
X0007925Y0003325D01*
X0008191Y0003182D01*
X0008460Y0003045D01*
X0008732Y0002914D01*
X0009008Y0002790D01*
X0009286Y0002673D01*
X0009567Y0002562D01*
X0009851Y0002459D01*
X0010137Y0002362D01*
X0010426Y0002272D01*
X0010716Y0002189D01*
X0011009Y0002113D01*
X0011303Y0002044D01*
X0011598Y0001983D01*
X0011896Y0001928D01*
X0012194Y0001881D01*
X0012493Y0001841D01*
X0012794Y0001808D01*
X0013095Y0001783D01*
X0013396Y0001765D01*
X0013698Y0001754D01*
X0014000Y0001750D01*
X0339000Y0001750D01*
X0339302Y0001754D01*
X0339604Y0001765D01*
X0339905Y0001783D01*
X0340206Y0001808D01*
X0340507Y0001841D01*
X0340806Y0001881D01*
X0341104Y0001928D01*
X0341402Y0001983D01*
X0341697Y0002044D01*
X0341991Y0002113D01*
X0342284Y0002189D01*
X0342574Y0002272D01*
X0342863Y0002362D01*
X0343149Y0002459D01*
X0343433Y0002562D01*
X0343714Y0002673D01*
X0343992Y0002790D01*
X0344268Y0002914D01*
X0344540Y0003045D01*
X0344809Y0003182D01*
X0345075Y0003325D01*
X0345337Y0003475D01*
X0345596Y0003632D01*
X0345850Y0003794D01*
X0346101Y0003963D01*
X0346347Y0004137D01*
X0346590Y0004318D01*
X0346827Y0004504D01*
X0347061Y0004696D01*
X0347289Y0004894D01*
X0347513Y0005097D01*
X0347731Y0005305D01*
X0347945Y0005519D01*
X0348153Y0005737D01*
X0348356Y0005961D01*
X0348554Y0006189D01*
X0348746Y0006423D01*
X0348932Y0006660D01*
X0349113Y0006903D01*
X0349287Y0007149D01*
X0349456Y0007400D01*
X0349618Y0007654D01*
X0349775Y0007913D01*
X0349925Y0008175D01*
X0350068Y0008441D01*
X0350205Y0008710D01*
X0350336Y0008982D01*
X0350460Y0009258D01*
X0350577Y0009536D01*
X0350688Y0009817D01*
X0350791Y0010101D01*
X0350888Y0010387D01*
X0350978Y0010676D01*
X0351061Y0010966D01*
X0351137Y0011259D01*
X0351206Y0011553D01*
X0351267Y0011848D01*
X0351322Y0012146D01*
X0351369Y0012444D01*
X0351409Y0012743D01*
X0351442Y0013044D01*
X0351467Y0013345D01*
X0351485Y0013646D01*
X0351496Y0013948D01*
X0351500Y0014250D01*
D14*
X0249531Y0023404D02*
X0243626Y0029309D01*
X0243626Y0023404D02*
X0249531Y0029309D01*
X0190476Y0056868D02*
X0172760Y0056868D01*
X0181618Y0064742D02*
X0181618Y0048994D01*
X0298744Y0076553D02*
X0304650Y0076553D01*
X0301697Y0079506D02*
X0301697Y0073600D01*
X0276106Y0128719D02*
X0276106Y0134624D01*
X0273154Y0131671D02*
X0279059Y0131671D01*
X0317445Y0136593D02*
X0325319Y0136593D01*
X0321382Y0140530D02*
X0321382Y0132656D01*
X0145201Y0137577D02*
X0137327Y0145451D01*
X0137327Y0137577D02*
X0145201Y0145451D01*
X0044807Y0171041D02*
X0036933Y0171041D01*
X0040870Y0168089D02*
X0040870Y0173994D01*
D15*
X0236854Y0086396D02*
X0236854Y0084624D01*
X0236854Y0068876D01*
X0236854Y0067104D01*
X0238626Y0067104D01*
X0254374Y0067104D01*
X0256146Y0067104D01*
X0256146Y0068876D01*
X0256146Y0084624D01*
X0256146Y0086396D01*
X0254374Y0086396D01*
X0238626Y0086396D01*
X0236854Y0086396D01*
D16*
X0239167Y0084083D03*
D17*
X0246500Y0080750D02*
X0246500Y0072750D01*
X0242500Y0076750D02*
X0250500Y0076750D01*
X0284000Y0048250D02*
X0284000Y0040250D01*
X0280000Y0044250D02*
X0288000Y0044250D01*
X0301500Y0050317D02*
X0301500Y0058183D01*
X0297567Y0054250D02*
X0305433Y0054250D01*
X0319000Y0048250D02*
X0319000Y0040250D01*
X0315000Y0044250D02*
X0323000Y0044250D01*
X0319000Y0028250D02*
X0319000Y0020250D01*
X0315000Y0024250D02*
X0323000Y0024250D01*
X0333709Y0016750D02*
X0339291Y0016750D01*
X0336500Y0013959D02*
X0336500Y0019541D01*
X0305433Y0014250D02*
X0297567Y0014250D01*
X0301500Y0010317D02*
X0301500Y0018183D01*
X0288000Y0024250D02*
X0280000Y0024250D01*
X0284000Y0020250D02*
X0284000Y0028250D01*
X0250579Y0026356D02*
X0242579Y0026356D01*
X0246579Y0022356D02*
X0246579Y0030356D01*
X0185618Y0056868D02*
X0177618Y0056868D01*
X0181618Y0052868D02*
X0181618Y0060868D01*
X0134167Y0071750D02*
X0128833Y0071750D01*
X0131500Y0069083D02*
X0131500Y0074417D01*
X0119167Y0071750D02*
X0113833Y0071750D01*
X0116500Y0069083D02*
X0116500Y0074417D01*
X0104167Y0071750D02*
X0098833Y0071750D01*
X0101500Y0069083D02*
X0101500Y0074417D01*
X0088167Y0071750D02*
X0082833Y0071750D01*
X0085500Y0069083D02*
X0085500Y0074417D01*
X0081500Y0078026D02*
X0081500Y0085474D01*
X0077776Y0081750D02*
X0085224Y0081750D01*
X0092750Y0089000D02*
X0092750Y0097000D01*
X0088750Y0093000D02*
X0096750Y0093000D01*
X0103214Y0099464D02*
X0103214Y0107464D01*
X0099214Y0103464D02*
X0107214Y0103464D01*
X0114000Y0110250D02*
X0114000Y0118250D01*
X0110000Y0114250D02*
X0118000Y0114250D01*
X0141264Y0137514D02*
X0141264Y0145514D01*
X0137264Y0141514D02*
X0145264Y0141514D01*
X0191250Y0131750D02*
X0199250Y0131750D01*
X0195250Y0127750D02*
X0195250Y0135750D01*
X0234500Y0131750D02*
X0242500Y0131750D01*
X0238500Y0127750D02*
X0238500Y0135750D01*
X0272106Y0131671D02*
X0280106Y0131671D01*
X0276106Y0127671D02*
X0276106Y0135671D01*
X0317382Y0136593D02*
X0325382Y0136593D01*
X0321382Y0132593D02*
X0321382Y0140593D01*
X0336500Y0183959D02*
X0336500Y0189541D01*
X0333709Y0186750D02*
X0339291Y0186750D01*
X0301697Y0080553D02*
X0301697Y0072553D01*
X0297697Y0076553D02*
X0305697Y0076553D01*
X0118000Y0029250D02*
X0110000Y0029250D01*
X0114000Y0025250D02*
X0114000Y0033250D01*
X0106964Y0040286D02*
X0098964Y0040286D01*
X0102964Y0036286D02*
X0102964Y0044286D01*
X0096750Y0050500D02*
X0088750Y0050500D01*
X0092750Y0046500D02*
X0092750Y0054500D01*
X0081500Y0058026D02*
X0081500Y0065474D01*
X0077776Y0061750D02*
X0085224Y0061750D01*
X0074167Y0057750D02*
X0068833Y0057750D01*
X0071500Y0055083D02*
X0071500Y0060417D01*
X0065224Y0061750D02*
X0057776Y0061750D01*
X0061500Y0058026D02*
X0061500Y0065474D01*
X0057500Y0069083D02*
X0057500Y0074417D01*
X0054833Y0071750D02*
X0060167Y0071750D01*
X0061500Y0078026D02*
X0061500Y0085474D01*
X0057776Y0081750D02*
X0065224Y0081750D01*
X0068833Y0085750D02*
X0074167Y0085750D01*
X0071500Y0083083D02*
X0071500Y0088417D01*
X0071500Y0099083D02*
X0071500Y0104417D01*
X0068833Y0101750D02*
X0074167Y0101750D01*
X0054500Y0093000D02*
X0046500Y0093000D01*
X0050500Y0089000D02*
X0050500Y0097000D01*
X0043786Y0103714D02*
X0035786Y0103714D01*
X0039786Y0099714D02*
X0039786Y0107714D01*
X0033000Y0114250D02*
X0025000Y0114250D01*
X0029000Y0110250D02*
X0029000Y0118250D01*
X0068833Y0116750D02*
X0074167Y0116750D01*
X0071500Y0114083D02*
X0071500Y0119417D01*
X0071500Y0129083D02*
X0071500Y0134417D01*
X0068833Y0131750D02*
X0074167Y0131750D01*
X0090083Y0167041D02*
X0090083Y0175041D01*
X0086083Y0171041D02*
X0094083Y0171041D01*
X0044870Y0171041D02*
X0036870Y0171041D01*
X0040870Y0167041D02*
X0040870Y0175041D01*
X0019291Y0186750D02*
X0013709Y0186750D01*
X0016500Y0183959D02*
X0016500Y0189541D01*
X0011500Y0074417D02*
X0011500Y0069083D01*
X0008833Y0071750D02*
X0014167Y0071750D01*
X0023833Y0071750D02*
X0029167Y0071750D01*
X0026500Y0069083D02*
X0026500Y0074417D01*
X0038833Y0071750D02*
X0044167Y0071750D01*
X0041500Y0069083D02*
X0041500Y0074417D01*
X0050250Y0054500D02*
X0050250Y0046500D01*
X0046250Y0050500D02*
X0054250Y0050500D01*
X0040036Y0044286D02*
X0040036Y0036286D01*
X0036036Y0040286D02*
X0044036Y0040286D01*
X0029000Y0033250D02*
X0029000Y0025250D01*
X0025000Y0029250D02*
X0033000Y0029250D01*
X0016500Y0019541D02*
X0016500Y0013959D01*
X0013709Y0016750D02*
X0019291Y0016750D01*
X0068833Y0011750D02*
X0074167Y0011750D01*
X0071500Y0009083D02*
X0071500Y0014417D01*
X0071500Y0024083D02*
X0071500Y0029417D01*
X0068833Y0026750D02*
X0074167Y0026750D01*
X0071500Y0039083D02*
X0071500Y0044417D01*
X0068833Y0041750D02*
X0074167Y0041750D01*
D18*
X0040870Y0181791D03*
X0040870Y0181791D03*
D19*
X0040870Y0160291D03*
X0040870Y0160291D03*
X0031770Y0160291D03*
X0031770Y0160291D03*
X0049970Y0160291D03*
X0049970Y0160291D03*
D20*
X0104683Y0162041D03*
X0104683Y0180041D03*
D21*
X0100483Y0171041D03*
D22*
X0074583Y0171337D02*
X0069983Y0171337D01*
X0069983Y0170552D02*
X0074583Y0170552D01*
X0074583Y0169767D02*
X0069983Y0169767D01*
X0069983Y0168982D02*
X0074583Y0168982D01*
X0074583Y0168197D02*
X0069983Y0168197D01*
X0069983Y0167411D02*
X0074583Y0167411D01*
X0074583Y0166626D02*
X0069983Y0166626D01*
X0069983Y0165841D02*
X0074583Y0165841D01*
X0074583Y0165056D02*
X0069983Y0165056D01*
X0069983Y0164271D02*
X0074583Y0164271D01*
X0074583Y0163486D02*
X0069983Y0163486D01*
X0069983Y0162741D02*
X0069983Y0179341D01*
X0071783Y0181141D01*
X0074583Y0181141D01*
X0074583Y0160941D01*
X0071783Y0160941D01*
X0069983Y0162741D01*
X0070023Y0162701D02*
X0074583Y0162701D01*
X0074583Y0161916D02*
X0070808Y0161916D01*
X0071594Y0161130D02*
X0074583Y0161130D01*
X0074583Y0172122D02*
X0069983Y0172122D01*
X0069983Y0172907D02*
X0074583Y0172907D01*
X0074583Y0173692D02*
X0069983Y0173692D01*
X0069983Y0174478D02*
X0074583Y0174478D01*
X0074583Y0175263D02*
X0069983Y0175263D01*
X0069983Y0176048D02*
X0074583Y0176048D01*
X0074583Y0176833D02*
X0069983Y0176833D01*
X0069983Y0177618D02*
X0074583Y0177618D01*
X0074583Y0178403D02*
X0069983Y0178403D01*
X0069983Y0179188D02*
X0074583Y0179188D01*
X0074583Y0179973D02*
X0070615Y0179973D01*
X0071400Y0180759D02*
X0074583Y0180759D01*
D23*
X0306520Y0154093D03*
X0306520Y0149093D03*
X0306520Y0144093D03*
X0306520Y0139093D03*
X0306520Y0134093D03*
X0306520Y0129093D03*
X0306520Y0124093D03*
X0306520Y0119093D03*
X0336244Y0119093D03*
X0336244Y0124093D03*
X0336244Y0129093D03*
X0336244Y0134093D03*
X0336244Y0139093D03*
X0336244Y0144093D03*
X0336244Y0149093D03*
X0336244Y0154093D03*
D24*
X0286307Y0139970D02*
X0265906Y0139970D01*
X0265906Y0123470D01*
X0286307Y0123470D01*
X0286307Y0139970D01*
X0284106Y0140372D02*
X0268106Y0140372D01*
X0268106Y0123073D02*
X0284106Y0123073D01*
X0289238Y0085541D02*
X0289238Y0067566D01*
X0314156Y0067566D01*
X0314156Y0085541D01*
X0289238Y0085541D01*
X0290938Y0071753D02*
X0290940Y0071837D01*
X0290946Y0071922D01*
X0290956Y0072005D01*
X0290970Y0072089D01*
X0290987Y0072171D01*
X0291009Y0072253D01*
X0291034Y0072333D01*
X0291063Y0072412D01*
X0291096Y0072490D01*
X0291132Y0072566D01*
X0291172Y0072641D01*
X0291216Y0072713D01*
X0291262Y0072784D01*
X0291312Y0072852D01*
X0291365Y0072917D01*
X0291421Y0072980D01*
X0291480Y0073041D01*
X0291542Y0073098D01*
X0291606Y0073153D01*
X0291673Y0073204D01*
X0291742Y0073253D01*
X0291814Y0073298D01*
X0291887Y0073339D01*
X0291962Y0073377D01*
X0292039Y0073412D01*
X0292118Y0073443D01*
X0292198Y0073470D01*
X0292279Y0073493D01*
X0292361Y0073513D01*
X0292444Y0073529D01*
X0292527Y0073541D01*
X0292612Y0073549D01*
X0292696Y0073553D01*
X0292780Y0073553D01*
X0292864Y0073549D01*
X0292949Y0073541D01*
X0293032Y0073529D01*
X0293115Y0073513D01*
X0293197Y0073493D01*
X0293278Y0073470D01*
X0293358Y0073443D01*
X0293437Y0073412D01*
X0293514Y0073377D01*
X0293589Y0073339D01*
X0293662Y0073298D01*
X0293734Y0073253D01*
X0293803Y0073204D01*
X0293870Y0073153D01*
X0293934Y0073098D01*
X0293996Y0073041D01*
X0294055Y0072980D01*
X0294111Y0072917D01*
X0294164Y0072852D01*
X0294214Y0072784D01*
X0294260Y0072713D01*
X0294304Y0072641D01*
X0294344Y0072566D01*
X0294380Y0072490D01*
X0294413Y0072412D01*
X0294442Y0072333D01*
X0294467Y0072253D01*
X0294489Y0072171D01*
X0294506Y0072089D01*
X0294520Y0072005D01*
X0294530Y0071922D01*
X0294536Y0071837D01*
X0294538Y0071753D01*
X0294536Y0071669D01*
X0294530Y0071584D01*
X0294520Y0071501D01*
X0294506Y0071417D01*
X0294489Y0071335D01*
X0294467Y0071253D01*
X0294442Y0071173D01*
X0294413Y0071094D01*
X0294380Y0071016D01*
X0294344Y0070940D01*
X0294304Y0070865D01*
X0294260Y0070793D01*
X0294214Y0070722D01*
X0294164Y0070654D01*
X0294111Y0070589D01*
X0294055Y0070526D01*
X0293996Y0070465D01*
X0293934Y0070408D01*
X0293870Y0070353D01*
X0293803Y0070302D01*
X0293734Y0070253D01*
X0293662Y0070208D01*
X0293589Y0070167D01*
X0293514Y0070129D01*
X0293437Y0070094D01*
X0293358Y0070063D01*
X0293278Y0070036D01*
X0293197Y0070013D01*
X0293115Y0069993D01*
X0293032Y0069977D01*
X0292949Y0069965D01*
X0292864Y0069957D01*
X0292780Y0069953D01*
X0292696Y0069953D01*
X0292612Y0069957D01*
X0292527Y0069965D01*
X0292444Y0069977D01*
X0292361Y0069993D01*
X0292279Y0070013D01*
X0292198Y0070036D01*
X0292118Y0070063D01*
X0292039Y0070094D01*
X0291962Y0070129D01*
X0291887Y0070167D01*
X0291814Y0070208D01*
X0291742Y0070253D01*
X0291673Y0070302D01*
X0291606Y0070353D01*
X0291542Y0070408D01*
X0291480Y0070465D01*
X0291421Y0070526D01*
X0291365Y0070589D01*
X0291312Y0070654D01*
X0291262Y0070722D01*
X0291216Y0070793D01*
X0291172Y0070865D01*
X0291132Y0070940D01*
X0291096Y0071016D01*
X0291063Y0071094D01*
X0291034Y0071173D01*
X0291009Y0071253D01*
X0290987Y0071335D01*
X0290970Y0071417D01*
X0290956Y0071501D01*
X0290946Y0071584D01*
X0290940Y0071669D01*
X0290938Y0071753D01*
X0295900Y0055431D02*
X0295900Y0051650D01*
X0299009Y0051650D01*
X0304089Y0051650D02*
X0307100Y0051650D01*
X0307100Y0055431D01*
X0313948Y0047800D02*
X0317223Y0049690D01*
X0313948Y0047800D02*
X0315503Y0045107D01*
X0318043Y0040708D02*
X0319548Y0038100D01*
X0322823Y0039991D01*
X0319548Y0030400D02*
X0317994Y0027707D01*
X0319548Y0030400D02*
X0322823Y0028509D01*
X0315454Y0023308D02*
X0313948Y0020700D01*
X0317223Y0018810D01*
X0307100Y0016850D02*
X0307100Y0013069D01*
X0307100Y0016850D02*
X0303991Y0016850D01*
X0298911Y0016850D02*
X0295900Y0016850D01*
X0295900Y0013069D01*
X0289052Y0020700D02*
X0285777Y0018810D01*
X0289052Y0020700D02*
X0287497Y0023393D01*
X0284957Y0027792D02*
X0283452Y0030400D01*
X0280177Y0028509D01*
X0283452Y0038100D02*
X0285006Y0040793D01*
X0283452Y0038100D02*
X0280177Y0039991D01*
X0287546Y0045192D02*
X0289052Y0047800D01*
X0285777Y0049690D01*
X0258316Y0026779D02*
X0247002Y0038093D01*
X0245165Y0039368D02*
X0259591Y0024942D01*
X0247923Y0013275D01*
X0233497Y0027701D01*
X0245165Y0039368D01*
X0234769Y0025861D02*
X0246083Y0014547D01*
X0208677Y0029809D02*
X0208677Y0080974D01*
X0205724Y0083927D01*
X0154559Y0083927D01*
X0154559Y0029809D01*
X0208677Y0029809D01*
X0134700Y0067950D02*
X0134700Y0075500D01*
X0128300Y0075500D02*
X0128300Y0067950D01*
X0119000Y0070136D02*
X0119000Y0073364D01*
X0114000Y0073364D02*
X0114000Y0070136D01*
X0102902Y0070049D02*
X0102902Y0073451D01*
X0100098Y0073451D02*
X0100098Y0070049D01*
X0086465Y0070868D02*
X0084535Y0070868D01*
X0084535Y0072632D02*
X0086465Y0072632D01*
X0081442Y0080444D02*
X0082806Y0081808D01*
X0081558Y0083056D02*
X0080194Y0081692D01*
X0072382Y0084785D02*
X0072382Y0086715D01*
X0070618Y0086715D02*
X0070618Y0084785D01*
X0062806Y0081692D02*
X0061442Y0083056D01*
X0060194Y0081808D02*
X0061558Y0080444D01*
X0058465Y0072632D02*
X0056535Y0072632D01*
X0056535Y0070868D02*
X0058465Y0070868D01*
X0061558Y0063056D02*
X0060194Y0061692D01*
X0061442Y0060444D02*
X0062806Y0061808D01*
X0070618Y0058715D02*
X0070618Y0056785D01*
X0072382Y0056785D02*
X0072382Y0058715D01*
X0080194Y0061808D02*
X0081558Y0060444D01*
X0082806Y0061692D02*
X0081442Y0063056D01*
X0092962Y0052694D02*
X0090556Y0050288D01*
X0092538Y0048306D02*
X0094944Y0050712D01*
X0102338Y0043195D02*
X0100055Y0040912D01*
X0103591Y0037376D02*
X0105874Y0039659D01*
X0114424Y0034200D02*
X0109086Y0028861D01*
X0113611Y0024336D02*
X0118950Y0029674D01*
X0075300Y0014950D02*
X0067750Y0014950D01*
X0067750Y0008550D02*
X0075300Y0008550D01*
X0073114Y0024250D02*
X0069886Y0024250D01*
X0069886Y0029250D02*
X0073114Y0029250D01*
X0073201Y0040348D02*
X0069799Y0040348D01*
X0069799Y0043152D02*
X0073201Y0043152D01*
X0052444Y0050288D02*
X0050038Y0052694D01*
X0048056Y0050712D02*
X0050462Y0048306D01*
X0042945Y0040912D02*
X0040662Y0043195D01*
X0037126Y0039659D02*
X0039409Y0037376D01*
X0033914Y0028861D02*
X0028576Y0034200D01*
X0024050Y0029674D02*
X0029389Y0024336D01*
X0014700Y0068000D02*
X0014700Y0075550D01*
X0008300Y0075550D02*
X0008300Y0068000D01*
X0024000Y0070136D02*
X0024000Y0073364D01*
X0029000Y0073364D02*
X0029000Y0070136D01*
X0040098Y0070049D02*
X0040098Y0073451D01*
X0042902Y0073451D02*
X0042902Y0070049D01*
X0050288Y0090806D02*
X0052694Y0093212D01*
X0050712Y0095194D02*
X0048306Y0092788D01*
X0040412Y0100805D02*
X0042695Y0103088D01*
X0039159Y0106624D02*
X0036876Y0104341D01*
X0028576Y0109300D02*
X0033914Y0114639D01*
X0029389Y0119164D02*
X0024050Y0113826D01*
X0069886Y0114250D02*
X0073114Y0114250D01*
X0073114Y0119250D02*
X0069886Y0119250D01*
X0067700Y0128550D02*
X0075250Y0128550D01*
X0075250Y0134950D02*
X0067700Y0134950D01*
X0109086Y0114639D02*
X0114424Y0109300D01*
X0118950Y0113826D02*
X0113611Y0119164D01*
X0103841Y0106374D02*
X0106124Y0104091D01*
X0102588Y0100555D02*
X0100305Y0102838D01*
X0092538Y0095194D02*
X0094944Y0092788D01*
X0092962Y0090806D02*
X0090556Y0093212D01*
X0073201Y0100348D02*
X0069799Y0100348D01*
X0069799Y0103152D02*
X0073201Y0103152D01*
X0122737Y0140525D02*
X0122737Y0142502D01*
X0141264Y0161029D01*
X0160779Y0141514D01*
X0141264Y0121999D01*
X0122737Y0140525D01*
X0124576Y0141514D02*
X0124578Y0141589D01*
X0124584Y0141663D01*
X0124594Y0141737D01*
X0124607Y0141810D01*
X0124625Y0141883D01*
X0124646Y0141954D01*
X0124671Y0142025D01*
X0124700Y0142094D01*
X0124733Y0142161D01*
X0124769Y0142226D01*
X0124808Y0142290D01*
X0124850Y0142351D01*
X0124896Y0142410D01*
X0124945Y0142467D01*
X0124997Y0142520D01*
X0125051Y0142571D01*
X0125108Y0142620D01*
X0125168Y0142664D01*
X0125230Y0142706D01*
X0125294Y0142745D01*
X0125360Y0142780D01*
X0125427Y0142811D01*
X0125497Y0142839D01*
X0125567Y0142863D01*
X0125639Y0142884D01*
X0125712Y0142900D01*
X0125785Y0142913D01*
X0125860Y0142922D01*
X0125934Y0142927D01*
X0126009Y0142928D01*
X0126083Y0142925D01*
X0126158Y0142918D01*
X0126231Y0142907D01*
X0126305Y0142893D01*
X0126377Y0142874D01*
X0126448Y0142852D01*
X0126518Y0142826D01*
X0126587Y0142796D01*
X0126653Y0142763D01*
X0126718Y0142726D01*
X0126781Y0142686D01*
X0126842Y0142642D01*
X0126900Y0142596D01*
X0126956Y0142546D01*
X0127009Y0142494D01*
X0127060Y0142439D01*
X0127107Y0142381D01*
X0127151Y0142321D01*
X0127192Y0142258D01*
X0127230Y0142194D01*
X0127264Y0142128D01*
X0127295Y0142059D01*
X0127322Y0141990D01*
X0127345Y0141919D01*
X0127364Y0141847D01*
X0127380Y0141774D01*
X0127392Y0141700D01*
X0127400Y0141626D01*
X0127404Y0141551D01*
X0127404Y0141477D01*
X0127400Y0141402D01*
X0127392Y0141328D01*
X0127380Y0141254D01*
X0127364Y0141181D01*
X0127345Y0141109D01*
X0127322Y0141038D01*
X0127295Y0140969D01*
X0127264Y0140900D01*
X0127230Y0140834D01*
X0127192Y0140770D01*
X0127151Y0140707D01*
X0127107Y0140647D01*
X0127060Y0140589D01*
X0127009Y0140534D01*
X0126956Y0140482D01*
X0126900Y0140432D01*
X0126842Y0140386D01*
X0126781Y0140342D01*
X0126718Y0140302D01*
X0126653Y0140265D01*
X0126587Y0140232D01*
X0126518Y0140202D01*
X0126448Y0140176D01*
X0126377Y0140154D01*
X0126305Y0140135D01*
X0126231Y0140121D01*
X0126158Y0140110D01*
X0126083Y0140103D01*
X0126009Y0140100D01*
X0125934Y0140101D01*
X0125860Y0140106D01*
X0125785Y0140115D01*
X0125712Y0140128D01*
X0125639Y0140144D01*
X0125567Y0140165D01*
X0125497Y0140189D01*
X0125427Y0140217D01*
X0125360Y0140248D01*
X0125294Y0140283D01*
X0125230Y0140322D01*
X0125168Y0140364D01*
X0125108Y0140408D01*
X0125051Y0140457D01*
X0124997Y0140508D01*
X0124945Y0140561D01*
X0124896Y0140618D01*
X0124850Y0140677D01*
X0124808Y0140738D01*
X0124769Y0140802D01*
X0124733Y0140867D01*
X0124700Y0140934D01*
X0124671Y0141003D01*
X0124646Y0141074D01*
X0124625Y0141145D01*
X0124607Y0141218D01*
X0124594Y0141291D01*
X0124584Y0141365D01*
X0124578Y0141439D01*
X0124576Y0141514D01*
X0195398Y0074585D02*
X0195400Y0074710D01*
X0195406Y0074835D01*
X0195416Y0074959D01*
X0195430Y0075083D01*
X0195447Y0075207D01*
X0195469Y0075330D01*
X0195495Y0075452D01*
X0195524Y0075574D01*
X0195557Y0075694D01*
X0195595Y0075813D01*
X0195635Y0075932D01*
X0195680Y0076048D01*
X0195728Y0076163D01*
X0195780Y0076277D01*
X0195836Y0076389D01*
X0195895Y0076499D01*
X0195957Y0076607D01*
X0196023Y0076714D01*
X0196092Y0076818D01*
X0196165Y0076919D01*
X0196240Y0077019D01*
X0196319Y0077116D01*
X0196401Y0077210D01*
X0196486Y0077302D01*
X0196573Y0077391D01*
X0196664Y0077477D01*
X0196757Y0077560D01*
X0196853Y0077641D01*
X0196951Y0077718D01*
X0197051Y0077792D01*
X0197154Y0077863D01*
X0197259Y0077930D01*
X0197367Y0077995D01*
X0197476Y0078055D01*
X0197587Y0078113D01*
X0197700Y0078166D01*
X0197814Y0078216D01*
X0197930Y0078263D01*
X0198047Y0078305D01*
X0198166Y0078344D01*
X0198286Y0078380D01*
X0198407Y0078411D01*
X0198529Y0078439D01*
X0198651Y0078462D01*
X0198775Y0078482D01*
X0198899Y0078498D01*
X0199023Y0078510D01*
X0199148Y0078518D01*
X0199273Y0078522D01*
X0199397Y0078522D01*
X0199522Y0078518D01*
X0199647Y0078510D01*
X0199771Y0078498D01*
X0199895Y0078482D01*
X0200019Y0078462D01*
X0200141Y0078439D01*
X0200263Y0078411D01*
X0200384Y0078380D01*
X0200504Y0078344D01*
X0200623Y0078305D01*
X0200740Y0078263D01*
X0200856Y0078216D01*
X0200970Y0078166D01*
X0201083Y0078113D01*
X0201194Y0078055D01*
X0201304Y0077995D01*
X0201411Y0077930D01*
X0201516Y0077863D01*
X0201619Y0077792D01*
X0201719Y0077718D01*
X0201817Y0077641D01*
X0201913Y0077560D01*
X0202006Y0077477D01*
X0202097Y0077391D01*
X0202184Y0077302D01*
X0202269Y0077210D01*
X0202351Y0077116D01*
X0202430Y0077019D01*
X0202505Y0076919D01*
X0202578Y0076818D01*
X0202647Y0076714D01*
X0202713Y0076607D01*
X0202775Y0076499D01*
X0202834Y0076389D01*
X0202890Y0076277D01*
X0202942Y0076163D01*
X0202990Y0076048D01*
X0203035Y0075932D01*
X0203075Y0075813D01*
X0203113Y0075694D01*
X0203146Y0075574D01*
X0203175Y0075452D01*
X0203201Y0075330D01*
X0203223Y0075207D01*
X0203240Y0075083D01*
X0203254Y0074959D01*
X0203264Y0074835D01*
X0203270Y0074710D01*
X0203272Y0074585D01*
X0203270Y0074460D01*
X0203264Y0074335D01*
X0203254Y0074211D01*
X0203240Y0074087D01*
X0203223Y0073963D01*
X0203201Y0073840D01*
X0203175Y0073718D01*
X0203146Y0073596D01*
X0203113Y0073476D01*
X0203075Y0073357D01*
X0203035Y0073238D01*
X0202990Y0073122D01*
X0202942Y0073007D01*
X0202890Y0072893D01*
X0202834Y0072781D01*
X0202775Y0072671D01*
X0202713Y0072563D01*
X0202647Y0072456D01*
X0202578Y0072352D01*
X0202505Y0072251D01*
X0202430Y0072151D01*
X0202351Y0072054D01*
X0202269Y0071960D01*
X0202184Y0071868D01*
X0202097Y0071779D01*
X0202006Y0071693D01*
X0201913Y0071610D01*
X0201817Y0071529D01*
X0201719Y0071452D01*
X0201619Y0071378D01*
X0201516Y0071307D01*
X0201411Y0071240D01*
X0201303Y0071175D01*
X0201194Y0071115D01*
X0201083Y0071057D01*
X0200970Y0071004D01*
X0200856Y0070954D01*
X0200740Y0070907D01*
X0200623Y0070865D01*
X0200504Y0070826D01*
X0200384Y0070790D01*
X0200263Y0070759D01*
X0200141Y0070731D01*
X0200019Y0070708D01*
X0199895Y0070688D01*
X0199771Y0070672D01*
X0199647Y0070660D01*
X0199522Y0070652D01*
X0199397Y0070648D01*
X0199273Y0070648D01*
X0199148Y0070652D01*
X0199023Y0070660D01*
X0198899Y0070672D01*
X0198775Y0070688D01*
X0198651Y0070708D01*
X0198529Y0070731D01*
X0198407Y0070759D01*
X0198286Y0070790D01*
X0198166Y0070826D01*
X0198047Y0070865D01*
X0197930Y0070907D01*
X0197814Y0070954D01*
X0197700Y0071004D01*
X0197587Y0071057D01*
X0197476Y0071115D01*
X0197366Y0071175D01*
X0197259Y0071240D01*
X0197154Y0071307D01*
X0197051Y0071378D01*
X0196951Y0071452D01*
X0196853Y0071529D01*
X0196757Y0071610D01*
X0196664Y0071693D01*
X0196573Y0071779D01*
X0196486Y0071868D01*
X0196401Y0071960D01*
X0196319Y0072054D01*
X0196240Y0072151D01*
X0196165Y0072251D01*
X0196092Y0072352D01*
X0196023Y0072456D01*
X0195957Y0072563D01*
X0195895Y0072671D01*
X0195836Y0072781D01*
X0195780Y0072893D01*
X0195728Y0073007D01*
X0195680Y0073122D01*
X0195635Y0073238D01*
X0195595Y0073357D01*
X0195557Y0073476D01*
X0195524Y0073596D01*
X0195495Y0073718D01*
X0195469Y0073840D01*
X0195447Y0073963D01*
X0195430Y0074087D01*
X0195416Y0074211D01*
X0195406Y0074335D01*
X0195400Y0074460D01*
X0195398Y0074585D01*
D25*
X0290138Y0068466D02*
X0290138Y0084641D01*
X0313256Y0084641D01*
X0313256Y0068466D01*
X0290138Y0068466D01*
D26*
X0290181Y0065916D03*
X0292740Y0065916D03*
X0295299Y0065916D03*
X0297858Y0065916D03*
X0300417Y0065916D03*
X0302976Y0065916D03*
X0305535Y0065916D03*
X0308094Y0065916D03*
X0310654Y0065916D03*
X0313213Y0065916D03*
X0313213Y0087191D03*
X0310654Y0087191D03*
X0308094Y0087191D03*
X0305535Y0087191D03*
X0302976Y0087191D03*
X0300417Y0087191D03*
X0297858Y0087191D03*
X0295299Y0087191D03*
X0292740Y0087191D03*
X0290181Y0087191D03*
D27*
X0205240Y0085886D03*
X0203272Y0085886D03*
X0201303Y0085886D03*
X0199335Y0085886D03*
X0197366Y0085886D03*
X0195398Y0085886D03*
X0193429Y0085886D03*
X0191461Y0085886D03*
X0189492Y0085886D03*
X0187524Y0085886D03*
X0185555Y0085886D03*
X0183587Y0085886D03*
X0181618Y0085886D03*
X0179650Y0085886D03*
X0177681Y0085886D03*
X0175713Y0085886D03*
X0173744Y0085886D03*
X0171776Y0085886D03*
X0169807Y0085886D03*
X0167839Y0085886D03*
X0165870Y0085886D03*
X0163902Y0085886D03*
X0161933Y0085886D03*
X0159965Y0085886D03*
X0157996Y0085886D03*
X0157996Y0027850D03*
X0159965Y0027850D03*
X0161933Y0027850D03*
X0163902Y0027850D03*
X0165870Y0027850D03*
X0167839Y0027850D03*
X0169807Y0027850D03*
X0171776Y0027850D03*
X0173744Y0027850D03*
X0175713Y0027850D03*
X0177681Y0027850D03*
X0179650Y0027850D03*
X0181618Y0027850D03*
X0183587Y0027850D03*
X0185555Y0027850D03*
X0187524Y0027850D03*
X0189492Y0027850D03*
X0191461Y0027850D03*
X0193429Y0027850D03*
X0195398Y0027850D03*
X0197366Y0027850D03*
X0199335Y0027850D03*
X0201303Y0027850D03*
X0203272Y0027850D03*
X0205240Y0027850D03*
D28*
X0210656Y0033246D03*
X0210656Y0035215D03*
X0210656Y0037183D03*
X0210656Y0039152D03*
X0210656Y0041120D03*
X0210656Y0043089D03*
X0210656Y0045057D03*
X0210656Y0047026D03*
X0210656Y0048994D03*
X0210656Y0050963D03*
X0210656Y0052931D03*
X0210656Y0054900D03*
X0210656Y0056868D03*
X0210656Y0058837D03*
X0210656Y0060805D03*
X0210656Y0062774D03*
X0210656Y0064742D03*
X0210656Y0066711D03*
X0210656Y0068679D03*
X0210656Y0070648D03*
X0210656Y0072616D03*
X0210656Y0074585D03*
X0210656Y0076553D03*
X0210656Y0078522D03*
X0210656Y0080490D03*
X0152581Y0080490D03*
X0152581Y0078522D03*
X0152581Y0076553D03*
X0152581Y0074585D03*
X0152581Y0072616D03*
X0152581Y0070648D03*
X0152581Y0068679D03*
X0152581Y0066711D03*
X0152581Y0064742D03*
X0152581Y0062774D03*
X0152581Y0060805D03*
X0152581Y0058837D03*
X0152581Y0056868D03*
X0152581Y0054900D03*
X0152581Y0052931D03*
X0152581Y0050963D03*
X0152581Y0048994D03*
X0152581Y0047026D03*
X0152581Y0045057D03*
X0152581Y0043089D03*
X0152581Y0041120D03*
X0152581Y0039152D03*
X0152581Y0037183D03*
X0152581Y0035215D03*
X0152581Y0033246D03*
D29*
X0071519Y0056159D03*
X0071519Y0059359D03*
X0071481Y0084141D03*
X0071481Y0087341D03*
D30*
G36*
X0063055Y0081891D02*
X0063890Y0081056D01*
X0062221Y0079387D01*
X0061386Y0080222D01*
X0063055Y0081891D01*
G37*
G36*
X0060792Y0084154D02*
X0061627Y0083319D01*
X0059958Y0081650D01*
X0059123Y0082485D01*
X0060792Y0084154D01*
G37*
G36*
X0081641Y0080195D02*
X0080806Y0079360D01*
X0079137Y0081029D01*
X0079972Y0081864D01*
X0081641Y0080195D01*
G37*
G36*
X0083904Y0082458D02*
X0083069Y0081623D01*
X0081400Y0083292D01*
X0082235Y0084127D01*
X0083904Y0082458D01*
G37*
X0083909Y0071731D03*
X0087109Y0071731D03*
G36*
X0080792Y0064154D02*
X0081627Y0063319D01*
X0079958Y0061650D01*
X0079123Y0062485D01*
X0080792Y0064154D01*
G37*
G36*
X0083055Y0061891D02*
X0083890Y0061056D01*
X0082221Y0059387D01*
X0081386Y0060222D01*
X0083055Y0061891D01*
G37*
G36*
X0063904Y0062458D02*
X0063069Y0061623D01*
X0061400Y0063292D01*
X0062235Y0064127D01*
X0063904Y0062458D01*
G37*
G36*
X0061641Y0060195D02*
X0060806Y0059360D01*
X0059137Y0061029D01*
X0059972Y0061864D01*
X0061641Y0060195D01*
G37*
X0059091Y0071769D03*
X0055891Y0071769D03*
D31*
G36*
X0050499Y0090596D02*
X0049368Y0089465D01*
X0046965Y0091868D01*
X0048096Y0092999D01*
X0050499Y0090596D01*
G37*
G36*
X0054035Y0094132D02*
X0052904Y0093001D01*
X0050501Y0095404D01*
X0051632Y0096535D01*
X0054035Y0094132D01*
G37*
X0069000Y0101750D03*
X0074000Y0101750D03*
G36*
X0091618Y0096535D02*
X0092749Y0095404D01*
X0090346Y0093001D01*
X0089215Y0094132D01*
X0091618Y0096535D01*
G37*
G36*
X0095154Y0092999D02*
X0096285Y0091868D01*
X0093882Y0089465D01*
X0092751Y0090596D01*
X0095154Y0092999D01*
G37*
G36*
X0092751Y0052904D02*
X0093882Y0054035D01*
X0096285Y0051632D01*
X0095154Y0050501D01*
X0092751Y0052904D01*
G37*
G36*
X0089215Y0049368D02*
X0090346Y0050499D01*
X0092749Y0048096D01*
X0091618Y0046965D01*
X0089215Y0049368D01*
G37*
X0074000Y0041750D03*
X0069000Y0041750D03*
G36*
X0051382Y0046965D02*
X0050251Y0048096D01*
X0052654Y0050499D01*
X0053785Y0049368D01*
X0051382Y0046965D01*
G37*
G36*
X0047846Y0050501D02*
X0046715Y0051632D01*
X0049118Y0054035D01*
X0050249Y0052904D01*
X0047846Y0050501D01*
G37*
D32*
X0041500Y0069250D03*
X0041500Y0074250D03*
X0101500Y0074250D03*
X0101500Y0069250D03*
D33*
G36*
X0102181Y0043390D02*
X0103990Y0045199D01*
X0107887Y0041302D01*
X0106078Y0039493D01*
X0102181Y0043390D01*
G37*
G36*
X0098080Y0039289D02*
X0099889Y0041098D01*
X0103786Y0037201D01*
X0101977Y0035392D01*
X0098080Y0039289D01*
G37*
X0074380Y0026756D03*
X0068580Y0026756D03*
G36*
X0043140Y0041069D02*
X0044949Y0039260D01*
X0041052Y0035363D01*
X0039243Y0037172D01*
X0043140Y0041069D01*
G37*
G36*
X0039039Y0045170D02*
X0040848Y0043361D01*
X0036951Y0039464D01*
X0035142Y0041273D01*
X0039039Y0045170D01*
G37*
G36*
X0040569Y0100610D02*
X0038760Y0098801D01*
X0034863Y0102698D01*
X0036672Y0104507D01*
X0040569Y0100610D01*
G37*
G36*
X0044670Y0104711D02*
X0042861Y0102902D01*
X0038964Y0106799D01*
X0040773Y0108608D01*
X0044670Y0104711D01*
G37*
X0068620Y0116744D03*
X0074420Y0116744D03*
G36*
X0100110Y0102681D02*
X0098301Y0104490D01*
X0102198Y0108387D01*
X0104007Y0106578D01*
X0100110Y0102681D01*
G37*
G36*
X0104211Y0098580D02*
X0102402Y0100389D01*
X0106299Y0104286D01*
X0108108Y0102477D01*
X0104211Y0098580D01*
G37*
D34*
X0116506Y0074670D03*
X0116506Y0068870D03*
X0026494Y0068830D03*
X0026494Y0074630D03*
D35*
G36*
X0028787Y0109159D02*
X0026737Y0107109D01*
X0021859Y0111987D01*
X0023909Y0114037D01*
X0028787Y0109159D01*
G37*
G36*
X0036141Y0116513D02*
X0034091Y0114463D01*
X0029213Y0119341D01*
X0031263Y0121391D01*
X0036141Y0116513D01*
G37*
X0066300Y0131750D03*
X0076700Y0131750D03*
G36*
X0111737Y0121391D02*
X0113787Y0119341D01*
X0108909Y0114463D01*
X0106859Y0116513D01*
X0111737Y0121391D01*
G37*
G36*
X0119091Y0114037D02*
X0121141Y0111987D01*
X0116263Y0107109D01*
X0114213Y0109159D01*
X0119091Y0114037D01*
G37*
G36*
X0114213Y0034341D02*
X0116263Y0036391D01*
X0121141Y0031513D01*
X0119091Y0029463D01*
X0114213Y0034341D01*
G37*
G36*
X0106859Y0026987D02*
X0108909Y0029037D01*
X0113787Y0024159D01*
X0111737Y0022109D01*
X0106859Y0026987D01*
G37*
X0076700Y0011750D03*
X0066300Y0011750D03*
G36*
X0031263Y0022109D02*
X0029213Y0024159D01*
X0034091Y0029037D01*
X0036141Y0026987D01*
X0031263Y0022109D01*
G37*
G36*
X0023909Y0029463D02*
X0021859Y0031513D01*
X0026737Y0036391D01*
X0028787Y0034341D01*
X0023909Y0029463D01*
G37*
D36*
X0011500Y0066550D03*
X0011500Y0076950D03*
X0131500Y0076950D03*
X0131500Y0066550D03*
D37*
G36*
X0139795Y0123183D02*
X0137038Y0120426D01*
X0135765Y0121699D01*
X0138522Y0124456D01*
X0139795Y0123183D01*
G37*
G36*
X0137568Y0125410D02*
X0134811Y0122653D01*
X0133538Y0123926D01*
X0136295Y0126683D01*
X0137568Y0125410D01*
G37*
G36*
X0135341Y0127637D02*
X0132584Y0124880D01*
X0131311Y0126153D01*
X0134068Y0128910D01*
X0135341Y0127637D01*
G37*
G36*
X0133114Y0129864D02*
X0130357Y0127107D01*
X0129084Y0128380D01*
X0131841Y0131137D01*
X0133114Y0129864D01*
G37*
G36*
X0130887Y0132091D02*
X0128130Y0129334D01*
X0126857Y0130607D01*
X0129614Y0133364D01*
X0130887Y0132091D01*
G37*
G36*
X0128660Y0134318D02*
X0125903Y0131561D01*
X0124630Y0132834D01*
X0127387Y0135591D01*
X0128660Y0134318D01*
G37*
G36*
X0126433Y0136545D02*
X0123676Y0133788D01*
X0122403Y0135061D01*
X0125160Y0137818D01*
X0126433Y0136545D01*
G37*
G36*
X0124206Y0138772D02*
X0121449Y0136015D01*
X0120176Y0137288D01*
X0122933Y0140045D01*
X0124206Y0138772D01*
G37*
G36*
X0153444Y0154648D02*
X0150687Y0151891D01*
X0149414Y0153164D01*
X0152171Y0155921D01*
X0153444Y0154648D01*
G37*
G36*
X0155671Y0152421D02*
X0152914Y0149664D01*
X0151641Y0150937D01*
X0154398Y0153694D01*
X0155671Y0152421D01*
G37*
G36*
X0157898Y0150193D02*
X0155141Y0147436D01*
X0153868Y0148709D01*
X0156625Y0151466D01*
X0157898Y0150193D01*
G37*
G36*
X0160125Y0147966D02*
X0157368Y0145209D01*
X0156095Y0146482D01*
X0158852Y0149239D01*
X0160125Y0147966D01*
G37*
G36*
X0162352Y0145739D02*
X0159595Y0142982D01*
X0158322Y0144255D01*
X0161079Y0147012D01*
X0162352Y0145739D01*
G37*
G36*
X0151216Y0156875D02*
X0148459Y0154118D01*
X0147186Y0155391D01*
X0149943Y0158148D01*
X0151216Y0156875D01*
G37*
G36*
X0148989Y0159102D02*
X0146232Y0156345D01*
X0144959Y0157618D01*
X0147716Y0160375D01*
X0148989Y0159102D01*
G37*
G36*
X0146762Y0161329D02*
X0144005Y0158572D01*
X0142732Y0159845D01*
X0145489Y0162602D01*
X0146762Y0161329D01*
G37*
D38*
G36*
X0139795Y0159845D02*
X0138522Y0158572D01*
X0135765Y0161329D01*
X0137038Y0162602D01*
X0139795Y0159845D01*
G37*
G36*
X0137568Y0157618D02*
X0136295Y0156345D01*
X0133538Y0159102D01*
X0134811Y0160375D01*
X0137568Y0157618D01*
G37*
G36*
X0135341Y0155391D02*
X0134068Y0154118D01*
X0131311Y0156875D01*
X0132584Y0158148D01*
X0135341Y0155391D01*
G37*
G36*
X0133114Y0153164D02*
X0131841Y0151891D01*
X0129084Y0154648D01*
X0130357Y0155921D01*
X0133114Y0153164D01*
G37*
G36*
X0130887Y0150937D02*
X0129614Y0149664D01*
X0126857Y0152421D01*
X0128130Y0153694D01*
X0130887Y0150937D01*
G37*
G36*
X0128660Y0148709D02*
X0127387Y0147436D01*
X0124630Y0150193D01*
X0125903Y0151466D01*
X0128660Y0148709D01*
G37*
G36*
X0126433Y0146482D02*
X0125160Y0145209D01*
X0122403Y0147966D01*
X0123676Y0149239D01*
X0126433Y0146482D01*
G37*
G36*
X0124206Y0144255D02*
X0122933Y0142982D01*
X0120176Y0145739D01*
X0121449Y0147012D01*
X0124206Y0144255D01*
G37*
G36*
X0153444Y0128380D02*
X0152171Y0127107D01*
X0149414Y0129864D01*
X0150687Y0131137D01*
X0153444Y0128380D01*
G37*
G36*
X0151216Y0126153D02*
X0149943Y0124880D01*
X0147186Y0127637D01*
X0148459Y0128910D01*
X0151216Y0126153D01*
G37*
G36*
X0148989Y0123926D02*
X0147716Y0122653D01*
X0144959Y0125410D01*
X0146232Y0126683D01*
X0148989Y0123926D01*
G37*
G36*
X0146762Y0121699D02*
X0145489Y0120426D01*
X0142732Y0123183D01*
X0144005Y0124456D01*
X0146762Y0121699D01*
G37*
G36*
X0155671Y0130607D02*
X0154398Y0129334D01*
X0151641Y0132091D01*
X0152914Y0133364D01*
X0155671Y0130607D01*
G37*
G36*
X0157898Y0132834D02*
X0156625Y0131561D01*
X0153868Y0134318D01*
X0155141Y0135591D01*
X0157898Y0132834D01*
G37*
G36*
X0160125Y0135061D02*
X0158852Y0133788D01*
X0156095Y0136545D01*
X0157368Y0137818D01*
X0160125Y0135061D01*
G37*
G36*
X0162352Y0137288D02*
X0161079Y0136015D01*
X0158322Y0138772D01*
X0159595Y0140045D01*
X0162352Y0137288D01*
G37*
M02*
