G75*
%MOIN*%
%OFA0B0*%
%FSLAX25Y25*%
%IPPOS*%
%LPD*%
%AMOC8*
5,1,8,0,0,1.08239X$1,22.5*
%
%ADD10C,0.01000*%
%ADD11C,0.00551*%
%ADD12R,0.02756X0.01102*%
%ADD13R,0.01102X0.02756*%
%ADD14R,0.13780X0.13780*%
%ADD15R,0.00984X0.00984*%
%ADD16R,0.04800X0.08800*%
%ADD17R,0.14173X0.08661*%
%ADD18R,0.06299X0.03937*%
%ADD19R,0.24409X0.21260*%
%ADD20R,0.08661X0.02362*%
%ADD21R,0.01200X0.03900*%
%ADD22R,0.01063X0.05906*%
%ADD23R,0.05906X0.01063*%
%ADD24R,0.03543X0.02756*%
%ADD25R,0.03150X0.01574*%
%ADD26R,0.02756X0.03543*%
%ADD27R,0.01574X0.03150*%
%ADD28R,0.03937X0.04331*%
%ADD29R,0.04331X0.03937*%
%ADD30R,0.05118X0.05906*%
%ADD31R,0.01574X0.03938*%
%ADD32R,0.05906X0.05118*%
%ADD33R,0.03938X0.01574*%
%ADD34R,0.03150X0.03543*%
%ADD35R,0.06299X0.07098*%
%ADD36R,0.02362X0.05512*%
%ADD37R,0.07098X0.06299*%
%ADD38R,0.05512X0.02362*%
%ADD39C,0.03937*%
%ADD40R,0.05000X0.02200*%
%ADD41R,0.02200X0.05000*%
%ADD42R,0.07500X0.15000*%
%ADD43R,0.15748X0.07087*%
%ADD44R,0.07874X0.03938*%
%ADD45R,0.07087X0.15748*%
%ADD46R,0.03938X0.07874*%
%ADD47R,0.01693X0.01102*%
%ADD48R,0.01102X0.01693*%
%ADD49C,0.00606*%
%ADD50R,0.03562X0.03562*%
D10*
X0014000Y0001750D02*
X0339000Y0001750D01*
X0339302Y0001754D01*
X0339604Y0001765D01*
X0339905Y0001783D01*
X0340206Y0001808D01*
X0340507Y0001841D01*
X0340806Y0001881D01*
X0341104Y0001928D01*
X0341402Y0001983D01*
X0341697Y0002044D01*
X0341991Y0002113D01*
X0342284Y0002189D01*
X0342574Y0002272D01*
X0342863Y0002362D01*
X0343149Y0002459D01*
X0343433Y0002562D01*
X0343714Y0002673D01*
X0343992Y0002790D01*
X0344268Y0002914D01*
X0344540Y0003045D01*
X0344809Y0003182D01*
X0345075Y0003325D01*
X0345337Y0003475D01*
X0345596Y0003632D01*
X0345850Y0003794D01*
X0346101Y0003963D01*
X0346347Y0004137D01*
X0346590Y0004318D01*
X0346827Y0004504D01*
X0347061Y0004696D01*
X0347289Y0004894D01*
X0347513Y0005097D01*
X0347731Y0005305D01*
X0347945Y0005519D01*
X0348153Y0005737D01*
X0348356Y0005961D01*
X0348554Y0006189D01*
X0348746Y0006423D01*
X0348932Y0006660D01*
X0349113Y0006903D01*
X0349287Y0007149D01*
X0349456Y0007400D01*
X0349618Y0007654D01*
X0349775Y0007913D01*
X0349925Y0008175D01*
X0350068Y0008441D01*
X0350205Y0008710D01*
X0350336Y0008982D01*
X0350460Y0009258D01*
X0350577Y0009536D01*
X0350688Y0009817D01*
X0350791Y0010101D01*
X0350888Y0010387D01*
X0350978Y0010676D01*
X0351061Y0010966D01*
X0351137Y0011259D01*
X0351206Y0011553D01*
X0351267Y0011848D01*
X0351322Y0012146D01*
X0351369Y0012444D01*
X0351409Y0012743D01*
X0351442Y0013044D01*
X0351467Y0013345D01*
X0351485Y0013646D01*
X0351496Y0013948D01*
X0351500Y0014250D01*
X0351500Y0189250D01*
X0351496Y0189552D01*
X0351485Y0189854D01*
X0351467Y0190155D01*
X0351442Y0190456D01*
X0351409Y0190757D01*
X0351369Y0191056D01*
X0351322Y0191354D01*
X0351267Y0191652D01*
X0351206Y0191947D01*
X0351137Y0192241D01*
X0351061Y0192534D01*
X0350978Y0192824D01*
X0350888Y0193113D01*
X0350791Y0193399D01*
X0350688Y0193683D01*
X0350577Y0193964D01*
X0350460Y0194242D01*
X0350336Y0194518D01*
X0350205Y0194790D01*
X0350068Y0195059D01*
X0349925Y0195325D01*
X0349775Y0195587D01*
X0349618Y0195846D01*
X0349456Y0196100D01*
X0349287Y0196351D01*
X0349113Y0196597D01*
X0348932Y0196840D01*
X0348746Y0197077D01*
X0348554Y0197311D01*
X0348356Y0197539D01*
X0348153Y0197763D01*
X0347945Y0197981D01*
X0347731Y0198195D01*
X0347513Y0198403D01*
X0347289Y0198606D01*
X0347061Y0198804D01*
X0346827Y0198996D01*
X0346590Y0199182D01*
X0346347Y0199363D01*
X0346101Y0199537D01*
X0345850Y0199706D01*
X0345596Y0199868D01*
X0345337Y0200025D01*
X0345075Y0200175D01*
X0344809Y0200318D01*
X0344540Y0200455D01*
X0344268Y0200586D01*
X0343992Y0200710D01*
X0343714Y0200827D01*
X0343433Y0200938D01*
X0343149Y0201041D01*
X0342863Y0201138D01*
X0342574Y0201228D01*
X0342284Y0201311D01*
X0341991Y0201387D01*
X0341697Y0201456D01*
X0341402Y0201517D01*
X0341104Y0201572D01*
X0340806Y0201619D01*
X0340507Y0201659D01*
X0340206Y0201692D01*
X0339905Y0201717D01*
X0339604Y0201735D01*
X0339302Y0201746D01*
X0339000Y0201750D01*
X0014000Y0201750D01*
X0013698Y0201746D01*
X0013396Y0201735D01*
X0013095Y0201717D01*
X0012794Y0201692D01*
X0012493Y0201659D01*
X0012194Y0201619D01*
X0011896Y0201572D01*
X0011598Y0201517D01*
X0011303Y0201456D01*
X0011009Y0201387D01*
X0010716Y0201311D01*
X0010426Y0201228D01*
X0010137Y0201138D01*
X0009851Y0201041D01*
X0009567Y0200938D01*
X0009286Y0200827D01*
X0009008Y0200710D01*
X0008732Y0200586D01*
X0008460Y0200455D01*
X0008191Y0200318D01*
X0007925Y0200175D01*
X0007663Y0200025D01*
X0007404Y0199868D01*
X0007150Y0199706D01*
X0006899Y0199537D01*
X0006653Y0199363D01*
X0006410Y0199182D01*
X0006173Y0198996D01*
X0005939Y0198804D01*
X0005711Y0198606D01*
X0005487Y0198403D01*
X0005269Y0198195D01*
X0005055Y0197981D01*
X0004847Y0197763D01*
X0004644Y0197539D01*
X0004446Y0197311D01*
X0004254Y0197077D01*
X0004068Y0196840D01*
X0003887Y0196597D01*
X0003713Y0196351D01*
X0003544Y0196100D01*
X0003382Y0195846D01*
X0003225Y0195587D01*
X0003075Y0195325D01*
X0002932Y0195059D01*
X0002795Y0194790D01*
X0002664Y0194518D01*
X0002540Y0194242D01*
X0002423Y0193964D01*
X0002312Y0193683D01*
X0002209Y0193399D01*
X0002112Y0193113D01*
X0002022Y0192824D01*
X0001939Y0192534D01*
X0001863Y0192241D01*
X0001794Y0191947D01*
X0001733Y0191652D01*
X0001678Y0191354D01*
X0001631Y0191056D01*
X0001591Y0190757D01*
X0001558Y0190456D01*
X0001533Y0190155D01*
X0001515Y0189854D01*
X0001504Y0189552D01*
X0001500Y0189250D01*
X0001500Y0014250D01*
X0001504Y0013948D01*
X0001515Y0013646D01*
X0001533Y0013345D01*
X0001558Y0013044D01*
X0001591Y0012743D01*
X0001631Y0012444D01*
X0001678Y0012146D01*
X0001733Y0011848D01*
X0001794Y0011553D01*
X0001863Y0011259D01*
X0001939Y0010966D01*
X0002022Y0010676D01*
X0002112Y0010387D01*
X0002209Y0010101D01*
X0002312Y0009817D01*
X0002423Y0009536D01*
X0002540Y0009258D01*
X0002664Y0008982D01*
X0002795Y0008710D01*
X0002932Y0008441D01*
X0003075Y0008175D01*
X0003225Y0007913D01*
X0003382Y0007654D01*
X0003544Y0007400D01*
X0003713Y0007149D01*
X0003887Y0006903D01*
X0004068Y0006660D01*
X0004254Y0006423D01*
X0004446Y0006189D01*
X0004644Y0005961D01*
X0004847Y0005737D01*
X0005055Y0005519D01*
X0005269Y0005305D01*
X0005487Y0005097D01*
X0005711Y0004894D01*
X0005939Y0004696D01*
X0006173Y0004504D01*
X0006410Y0004318D01*
X0006653Y0004137D01*
X0006899Y0003963D01*
X0007150Y0003794D01*
X0007404Y0003632D01*
X0007663Y0003475D01*
X0007925Y0003325D01*
X0008191Y0003182D01*
X0008460Y0003045D01*
X0008732Y0002914D01*
X0009008Y0002790D01*
X0009286Y0002673D01*
X0009567Y0002562D01*
X0009851Y0002459D01*
X0010137Y0002362D01*
X0010426Y0002272D01*
X0010716Y0002189D01*
X0011009Y0002113D01*
X0011303Y0002044D01*
X0011598Y0001983D01*
X0011896Y0001928D01*
X0012194Y0001881D01*
X0012493Y0001841D01*
X0012794Y0001808D01*
X0013095Y0001783D01*
X0013396Y0001765D01*
X0013698Y0001754D01*
X0014000Y0001750D01*
D11*
X0236145Y0075883D02*
X0238351Y0075883D01*
X0236145Y0075883D02*
X0236145Y0076435D01*
X0238351Y0076435D01*
X0238351Y0075883D01*
X0238351Y0076433D02*
X0236145Y0076433D01*
X0239334Y0072694D02*
X0239886Y0072694D01*
X0239334Y0072694D02*
X0239334Y0074900D01*
X0239886Y0074900D01*
X0239886Y0072694D01*
X0239886Y0073244D02*
X0239334Y0073244D01*
X0239334Y0073794D02*
X0239886Y0073794D01*
X0239886Y0074344D02*
X0239334Y0074344D01*
X0239334Y0074894D02*
X0239886Y0074894D01*
X0253114Y0072694D02*
X0253666Y0072694D01*
X0253114Y0072694D02*
X0253114Y0074900D01*
X0253666Y0074900D01*
X0253666Y0072694D01*
X0253666Y0073244D02*
X0253114Y0073244D01*
X0253114Y0073794D02*
X0253666Y0073794D01*
X0253666Y0074344D02*
X0253114Y0074344D01*
X0253114Y0074894D02*
X0253666Y0074894D01*
X0254649Y0075883D02*
X0256855Y0075883D01*
X0254649Y0075883D02*
X0254649Y0076435D01*
X0256855Y0076435D01*
X0256855Y0075883D01*
X0256855Y0076433D02*
X0254649Y0076433D01*
X0254649Y0089663D02*
X0256855Y0089663D01*
X0254649Y0089663D02*
X0254649Y0090215D01*
X0256855Y0090215D01*
X0256855Y0089663D01*
X0256855Y0090213D02*
X0254649Y0090213D01*
X0253666Y0091198D02*
X0253114Y0091198D01*
X0253114Y0093404D01*
X0253666Y0093404D01*
X0253666Y0091198D01*
X0253666Y0091748D02*
X0253114Y0091748D01*
X0253114Y0092298D02*
X0253666Y0092298D01*
X0253666Y0092848D02*
X0253114Y0092848D01*
X0253114Y0093398D02*
X0253666Y0093398D01*
X0239886Y0091198D02*
X0239334Y0091198D01*
X0239334Y0093404D01*
X0239886Y0093404D01*
X0239886Y0091198D01*
X0239886Y0091748D02*
X0239334Y0091748D01*
X0239334Y0092298D02*
X0239886Y0092298D01*
X0239886Y0092848D02*
X0239334Y0092848D01*
X0239334Y0093398D02*
X0239886Y0093398D01*
X0238351Y0089663D02*
X0236145Y0089663D01*
X0236145Y0090215D01*
X0238351Y0090215D01*
X0238351Y0089663D01*
X0238351Y0090213D02*
X0236145Y0090213D01*
D12*
X0237248Y0087970D03*
X0237248Y0086002D03*
X0237248Y0084033D03*
X0237248Y0082065D03*
X0237248Y0080096D03*
X0237248Y0078128D03*
X0255752Y0078128D03*
X0255752Y0080096D03*
X0255752Y0082065D03*
X0255752Y0084033D03*
X0255752Y0086002D03*
X0255752Y0087970D03*
D13*
X0251421Y0092301D03*
X0249453Y0092301D03*
X0247484Y0092301D03*
X0245516Y0092301D03*
X0243547Y0092301D03*
X0241579Y0092301D03*
X0241579Y0073797D03*
X0243547Y0073797D03*
X0245516Y0073797D03*
X0247484Y0073797D03*
X0249453Y0073797D03*
X0251421Y0073797D03*
D14*
X0246500Y0083049D03*
D15*
X0236992Y0092557D03*
D16*
X0049970Y0158841D03*
X0040870Y0158841D03*
X0031770Y0158841D03*
D17*
X0040870Y0183242D03*
D18*
X0108980Y0180018D03*
X0108980Y0162065D03*
D19*
X0080240Y0171041D03*
D20*
X0294610Y0149762D03*
X0294610Y0144762D03*
X0294610Y0139762D03*
X0294610Y0134762D03*
X0294610Y0129762D03*
X0294610Y0124762D03*
X0294610Y0119762D03*
X0294610Y0114762D03*
X0322957Y0114762D03*
X0322957Y0119762D03*
X0322957Y0124762D03*
X0322957Y0129762D03*
X0322957Y0134762D03*
X0322957Y0139762D03*
X0322957Y0144762D03*
X0322957Y0149762D03*
D21*
X0313213Y0088041D03*
X0310654Y0088041D03*
X0308094Y0088041D03*
X0305535Y0088041D03*
X0302976Y0088041D03*
X0300417Y0088041D03*
X0297858Y0088041D03*
X0295299Y0088041D03*
X0292740Y0088041D03*
X0290181Y0088041D03*
X0290181Y0065066D03*
X0292740Y0065066D03*
X0295299Y0065066D03*
X0297858Y0065066D03*
X0300417Y0065066D03*
X0302976Y0065066D03*
X0305535Y0065066D03*
X0308094Y0065066D03*
X0310654Y0065066D03*
X0313213Y0065066D03*
D22*
X0205240Y0087380D03*
X0203272Y0087380D03*
X0201303Y0087380D03*
X0199335Y0087380D03*
X0197366Y0087380D03*
X0195398Y0087380D03*
X0193429Y0087380D03*
X0191461Y0087380D03*
X0189492Y0087380D03*
X0187524Y0087380D03*
X0185555Y0087380D03*
X0183587Y0087380D03*
X0181618Y0087380D03*
X0179650Y0087380D03*
X0177681Y0087380D03*
X0175713Y0087380D03*
X0173744Y0087380D03*
X0171776Y0087380D03*
X0169807Y0087380D03*
X0167839Y0087380D03*
X0165870Y0087380D03*
X0163902Y0087380D03*
X0161933Y0087380D03*
X0159965Y0087380D03*
X0157996Y0087380D03*
X0157996Y0026356D03*
X0159965Y0026356D03*
X0161933Y0026356D03*
X0163902Y0026356D03*
X0165870Y0026356D03*
X0167839Y0026356D03*
X0169807Y0026356D03*
X0171776Y0026356D03*
X0173744Y0026356D03*
X0175713Y0026356D03*
X0177681Y0026356D03*
X0179650Y0026356D03*
X0181618Y0026356D03*
X0183587Y0026356D03*
X0185555Y0026356D03*
X0187524Y0026356D03*
X0189492Y0026356D03*
X0191461Y0026356D03*
X0193429Y0026356D03*
X0195398Y0026356D03*
X0197366Y0026356D03*
X0199335Y0026356D03*
X0201303Y0026356D03*
X0203272Y0026356D03*
X0205240Y0026356D03*
D23*
X0212130Y0033246D03*
X0212130Y0035215D03*
X0212130Y0037183D03*
X0212130Y0039152D03*
X0212130Y0041120D03*
X0212130Y0043089D03*
X0212130Y0045057D03*
X0212130Y0047026D03*
X0212130Y0048994D03*
X0212130Y0050963D03*
X0212130Y0052931D03*
X0212130Y0054900D03*
X0212130Y0056868D03*
X0212130Y0058837D03*
X0212130Y0060805D03*
X0212130Y0062774D03*
X0212130Y0064742D03*
X0212130Y0066711D03*
X0212130Y0068679D03*
X0212130Y0070648D03*
X0212130Y0072616D03*
X0212130Y0074585D03*
X0212130Y0076553D03*
X0212130Y0078522D03*
X0212130Y0080490D03*
X0151106Y0080490D03*
X0151106Y0078522D03*
X0151106Y0076553D03*
X0151106Y0074585D03*
X0151106Y0072616D03*
X0151106Y0070648D03*
X0151106Y0068679D03*
X0151106Y0066711D03*
X0151106Y0064742D03*
X0151106Y0062774D03*
X0151106Y0060805D03*
X0151106Y0058837D03*
X0151106Y0056868D03*
X0151106Y0054900D03*
X0151106Y0052931D03*
X0151106Y0050963D03*
X0151106Y0048994D03*
X0151106Y0047026D03*
X0151106Y0045057D03*
X0151106Y0043089D03*
X0151106Y0041120D03*
X0151106Y0039152D03*
X0151106Y0037183D03*
X0151106Y0035215D03*
X0151106Y0033246D03*
D24*
X0071500Y0055191D03*
X0071500Y0060309D03*
X0071500Y0083191D03*
X0071500Y0088309D03*
D25*
X0071500Y0085750D03*
X0101500Y0071750D03*
X0071500Y0057750D03*
X0041500Y0071750D03*
D26*
X0054941Y0071750D03*
X0060059Y0071750D03*
G36*
X0065536Y0063283D02*
X0063587Y0061334D01*
X0061084Y0063837D01*
X0063033Y0065786D01*
X0065536Y0063283D01*
G37*
G36*
X0061916Y0059663D02*
X0059967Y0057714D01*
X0057464Y0060217D01*
X0059413Y0062166D01*
X0061916Y0059663D01*
G37*
G36*
X0079967Y0065786D02*
X0081916Y0063837D01*
X0079413Y0061334D01*
X0077464Y0063283D01*
X0079967Y0065786D01*
G37*
X0082941Y0071750D03*
X0088059Y0071750D03*
G36*
X0081916Y0079663D02*
X0079967Y0077714D01*
X0077464Y0080217D01*
X0079413Y0082166D01*
X0081916Y0079663D01*
G37*
G36*
X0085536Y0083283D02*
X0083587Y0081334D01*
X0081084Y0083837D01*
X0083033Y0085786D01*
X0085536Y0083283D01*
G37*
G36*
X0063587Y0082166D02*
X0065536Y0080217D01*
X0063033Y0077714D01*
X0061084Y0079663D01*
X0063587Y0082166D01*
G37*
G36*
X0059967Y0085786D02*
X0061916Y0083837D01*
X0059413Y0081334D01*
X0057464Y0083283D01*
X0059967Y0085786D01*
G37*
G36*
X0083587Y0062166D02*
X0085536Y0060217D01*
X0083033Y0057714D01*
X0081084Y0059663D01*
X0083587Y0062166D01*
G37*
D27*
G36*
X0082057Y0063420D02*
X0083170Y0062307D01*
X0080943Y0060080D01*
X0079830Y0061193D01*
X0082057Y0063420D01*
G37*
X0085500Y0071750D03*
G36*
X0083170Y0081193D02*
X0082057Y0080080D01*
X0079830Y0082307D01*
X0080943Y0083420D01*
X0083170Y0081193D01*
G37*
G36*
X0093307Y0094670D02*
X0094420Y0093557D01*
X0092193Y0091330D01*
X0091080Y0092443D01*
X0093307Y0094670D01*
G37*
X0071500Y0101750D03*
G36*
X0052170Y0092443D02*
X0051057Y0091330D01*
X0048830Y0093557D01*
X0049943Y0094670D01*
X0052170Y0092443D01*
G37*
G36*
X0062057Y0083420D02*
X0063170Y0082307D01*
X0060943Y0080080D01*
X0059830Y0081193D01*
X0062057Y0083420D01*
G37*
X0057500Y0071750D03*
G36*
X0063170Y0061193D02*
X0062057Y0060080D01*
X0059830Y0062307D01*
X0060943Y0063420D01*
X0063170Y0061193D01*
G37*
G36*
X0049693Y0048830D02*
X0048580Y0049943D01*
X0050807Y0052170D01*
X0051920Y0051057D01*
X0049693Y0048830D01*
G37*
X0071500Y0041750D03*
G36*
X0091080Y0051057D02*
X0092193Y0052170D01*
X0094420Y0049943D01*
X0093307Y0048830D01*
X0091080Y0051057D01*
G37*
D28*
G36*
X0087462Y0048273D02*
X0090245Y0051056D01*
X0093306Y0047995D01*
X0090523Y0045212D01*
X0087462Y0048273D01*
G37*
G36*
X0092194Y0053005D02*
X0094977Y0055788D01*
X0098038Y0052727D01*
X0095255Y0049944D01*
X0092194Y0053005D01*
G37*
X0074846Y0041750D03*
X0068154Y0041750D03*
G36*
X0052477Y0045212D02*
X0049694Y0047995D01*
X0052755Y0051056D01*
X0055538Y0048273D01*
X0052477Y0045212D01*
G37*
G36*
X0047745Y0049944D02*
X0044962Y0052727D01*
X0048023Y0055788D01*
X0050806Y0053005D01*
X0047745Y0049944D01*
G37*
G36*
X0051056Y0090495D02*
X0048273Y0087712D01*
X0045212Y0090773D01*
X0047995Y0093556D01*
X0051056Y0090495D01*
G37*
G36*
X0055788Y0095227D02*
X0053005Y0092444D01*
X0049944Y0095505D01*
X0052727Y0098288D01*
X0055788Y0095227D01*
G37*
X0068154Y0101750D03*
X0074846Y0101750D03*
G36*
X0090523Y0098288D02*
X0093306Y0095505D01*
X0090245Y0092444D01*
X0087462Y0095227D01*
X0090523Y0098288D01*
G37*
G36*
X0095255Y0093556D02*
X0098038Y0090773D01*
X0094977Y0087712D01*
X0092194Y0090495D01*
X0095255Y0093556D01*
G37*
D29*
X0101500Y0075096D03*
X0101500Y0068404D03*
X0041500Y0068404D03*
X0041500Y0075096D03*
D30*
G36*
X0041038Y0100792D02*
X0037419Y0097173D01*
X0033244Y0101348D01*
X0036863Y0104967D01*
X0041038Y0100792D01*
G37*
G36*
X0046327Y0106081D02*
X0042708Y0102462D01*
X0038533Y0106637D01*
X0042152Y0110256D01*
X0046327Y0106081D01*
G37*
X0067760Y0116750D03*
X0075240Y0116750D03*
G36*
X0100292Y0102212D02*
X0096673Y0105831D01*
X0100848Y0110006D01*
X0104467Y0106387D01*
X0100292Y0102212D01*
G37*
G36*
X0105581Y0096923D02*
X0101962Y0100542D01*
X0106137Y0104717D01*
X0109756Y0101098D01*
X0105581Y0096923D01*
G37*
G36*
X0101712Y0043208D02*
X0105331Y0046827D01*
X0109506Y0042652D01*
X0105887Y0039033D01*
X0101712Y0043208D01*
G37*
G36*
X0096423Y0037919D02*
X0100042Y0041538D01*
X0104217Y0037363D01*
X0100598Y0033744D01*
X0096423Y0037919D01*
G37*
X0075240Y0026750D03*
X0067760Y0026750D03*
G36*
X0042958Y0041538D02*
X0046577Y0037919D01*
X0042402Y0033744D01*
X0038783Y0037363D01*
X0042958Y0041538D01*
G37*
G36*
X0037669Y0046827D02*
X0041288Y0043208D01*
X0037113Y0039033D01*
X0033494Y0042652D01*
X0037669Y0046827D01*
G37*
D31*
G36*
X0040871Y0042234D02*
X0041984Y0041121D01*
X0039201Y0038338D01*
X0038088Y0039451D01*
X0040871Y0042234D01*
G37*
X0071500Y0026750D03*
G36*
X0101016Y0041121D02*
X0102129Y0042234D01*
X0104912Y0039451D01*
X0103799Y0038338D01*
X0101016Y0041121D01*
G37*
G36*
X0102379Y0101516D02*
X0101266Y0102629D01*
X0104049Y0105412D01*
X0105162Y0104299D01*
X0102379Y0101516D01*
G37*
X0071500Y0116750D03*
G36*
X0041734Y0102879D02*
X0040621Y0101766D01*
X0037838Y0104549D01*
X0038951Y0105662D01*
X0041734Y0102879D01*
G37*
D32*
X0026500Y0075490D03*
X0026500Y0068010D03*
X0116500Y0068010D03*
X0116500Y0075490D03*
D33*
X0116500Y0071750D03*
X0026500Y0071750D03*
D34*
G36*
X0276399Y0042501D02*
X0277974Y0045228D01*
X0281041Y0043457D01*
X0279466Y0040730D01*
X0276399Y0042501D01*
G37*
G36*
X0285089Y0041803D02*
X0286664Y0044530D01*
X0289731Y0042759D01*
X0288156Y0040032D01*
X0285089Y0041803D01*
G37*
G36*
X0280140Y0048980D02*
X0281715Y0051707D01*
X0284782Y0049936D01*
X0283207Y0047209D01*
X0280140Y0048980D01*
G37*
X0297760Y0058187D03*
X0305240Y0058187D03*
X0301500Y0050313D03*
G36*
X0316336Y0044530D02*
X0317911Y0041803D01*
X0314844Y0040032D01*
X0313269Y0042759D01*
X0316336Y0044530D01*
G37*
G36*
X0325026Y0045228D02*
X0326601Y0042501D01*
X0323534Y0040730D01*
X0321959Y0043457D01*
X0325026Y0045228D01*
G37*
G36*
X0321285Y0051707D02*
X0322860Y0048980D01*
X0319793Y0047209D01*
X0318218Y0049936D01*
X0321285Y0051707D01*
G37*
G36*
X0317911Y0026697D02*
X0316336Y0023970D01*
X0313269Y0025741D01*
X0314844Y0028468D01*
X0317911Y0026697D01*
G37*
G36*
X0326601Y0025999D02*
X0325026Y0023272D01*
X0321959Y0025043D01*
X0323534Y0027770D01*
X0326601Y0025999D01*
G37*
G36*
X0322860Y0019520D02*
X0321285Y0016793D01*
X0318218Y0018564D01*
X0319793Y0021291D01*
X0322860Y0019520D01*
G37*
X0305240Y0010313D03*
X0297760Y0010313D03*
X0301500Y0018187D03*
G36*
X0286664Y0023970D02*
X0285089Y0026697D01*
X0288156Y0028468D01*
X0289731Y0025741D01*
X0286664Y0023970D01*
G37*
G36*
X0281715Y0016793D02*
X0280140Y0019520D01*
X0283207Y0021291D01*
X0284782Y0018564D01*
X0281715Y0016793D01*
G37*
G36*
X0277974Y0023272D02*
X0276399Y0025999D01*
X0279466Y0027770D01*
X0281041Y0025043D01*
X0277974Y0023272D01*
G37*
D35*
G36*
X0113223Y0033491D02*
X0117677Y0037945D01*
X0122695Y0032927D01*
X0118241Y0028473D01*
X0113223Y0033491D01*
G37*
G36*
X0105305Y0025573D02*
X0109759Y0030027D01*
X0114777Y0025009D01*
X0110323Y0020555D01*
X0105305Y0025573D01*
G37*
X0077098Y0011750D03*
X0065902Y0011750D03*
G36*
X0032677Y0020555D02*
X0028223Y0025009D01*
X0033241Y0030027D01*
X0037695Y0025573D01*
X0032677Y0020555D01*
G37*
G36*
X0024759Y0028473D02*
X0020305Y0032927D01*
X0025323Y0037945D01*
X0029777Y0033491D01*
X0024759Y0028473D01*
G37*
G36*
X0029777Y0110009D02*
X0025323Y0105555D01*
X0020305Y0110573D01*
X0024759Y0115027D01*
X0029777Y0110009D01*
G37*
G36*
X0037695Y0117927D02*
X0033241Y0113473D01*
X0028223Y0118491D01*
X0032677Y0122945D01*
X0037695Y0117927D01*
G37*
X0065902Y0131750D03*
X0077098Y0131750D03*
G36*
X0110323Y0122945D02*
X0114777Y0118491D01*
X0109759Y0113473D01*
X0105305Y0117927D01*
X0110323Y0122945D01*
G37*
G36*
X0118241Y0115027D02*
X0122695Y0110573D01*
X0117677Y0105555D01*
X0113223Y0110009D01*
X0118241Y0115027D01*
G37*
D36*
G36*
X0115113Y0117033D02*
X0116783Y0115363D01*
X0112887Y0111467D01*
X0111217Y0113137D01*
X0115113Y0117033D01*
G37*
X0071500Y0131750D03*
G36*
X0031783Y0113137D02*
X0030113Y0111467D01*
X0026217Y0115363D01*
X0027887Y0117033D01*
X0031783Y0113137D01*
G37*
G36*
X0027887Y0026467D02*
X0026217Y0028137D01*
X0030113Y0032033D01*
X0031783Y0030363D01*
X0027887Y0026467D01*
G37*
X0071500Y0011750D03*
G36*
X0111217Y0030363D02*
X0112887Y0032033D01*
X0116783Y0028137D01*
X0115113Y0026467D01*
X0111217Y0030363D01*
G37*
D37*
X0131500Y0066152D03*
X0131500Y0077348D03*
X0011500Y0077348D03*
X0011500Y0066152D03*
D38*
X0011500Y0071750D03*
X0131500Y0071750D03*
D39*
X0016500Y0016750D03*
X0016500Y0186750D03*
X0324689Y0174939D03*
X0336500Y0016750D03*
D40*
G36*
X0139654Y0122758D02*
X0136120Y0119224D01*
X0134564Y0120780D01*
X0138098Y0124314D01*
X0139654Y0122758D01*
G37*
G36*
X0137426Y0124985D02*
X0133892Y0121451D01*
X0132336Y0123007D01*
X0135870Y0126541D01*
X0137426Y0124985D01*
G37*
G36*
X0135199Y0127212D02*
X0131665Y0123678D01*
X0130109Y0125234D01*
X0133643Y0128768D01*
X0135199Y0127212D01*
G37*
G36*
X0132972Y0129439D02*
X0129438Y0125905D01*
X0127882Y0127461D01*
X0131416Y0130995D01*
X0132972Y0129439D01*
G37*
G36*
X0130745Y0131666D02*
X0127211Y0128132D01*
X0125655Y0129688D01*
X0129189Y0133222D01*
X0130745Y0131666D01*
G37*
G36*
X0128518Y0133893D02*
X0124984Y0130359D01*
X0123428Y0131915D01*
X0126962Y0135449D01*
X0128518Y0133893D01*
G37*
G36*
X0126291Y0136120D02*
X0122757Y0132586D01*
X0121201Y0134142D01*
X0124735Y0137676D01*
X0126291Y0136120D01*
G37*
G36*
X0124064Y0138348D02*
X0120530Y0134814D01*
X0118974Y0136370D01*
X0122508Y0139904D01*
X0124064Y0138348D01*
G37*
G36*
X0154645Y0155566D02*
X0151111Y0152032D01*
X0149555Y0153588D01*
X0153089Y0157122D01*
X0154645Y0155566D01*
G37*
G36*
X0156872Y0153339D02*
X0153338Y0149805D01*
X0151782Y0151361D01*
X0155316Y0154895D01*
X0156872Y0153339D01*
G37*
G36*
X0159100Y0151112D02*
X0155566Y0147578D01*
X0154010Y0149134D01*
X0157544Y0152668D01*
X0159100Y0151112D01*
G37*
G36*
X0161327Y0148885D02*
X0157793Y0145351D01*
X0156237Y0146907D01*
X0159771Y0150441D01*
X0161327Y0148885D01*
G37*
G36*
X0163554Y0146658D02*
X0160020Y0143124D01*
X0158464Y0144680D01*
X0161998Y0148214D01*
X0163554Y0146658D01*
G37*
G36*
X0152418Y0157794D02*
X0148884Y0154260D01*
X0147328Y0155816D01*
X0150862Y0159350D01*
X0152418Y0157794D01*
G37*
G36*
X0150191Y0160021D02*
X0146657Y0156487D01*
X0145101Y0158043D01*
X0148635Y0161577D01*
X0150191Y0160021D01*
G37*
G36*
X0147964Y0162248D02*
X0144430Y0158714D01*
X0142874Y0160270D01*
X0146408Y0163804D01*
X0147964Y0162248D01*
G37*
D41*
G36*
X0139654Y0160270D02*
X0138098Y0158714D01*
X0134564Y0162248D01*
X0136120Y0163804D01*
X0139654Y0160270D01*
G37*
G36*
X0137426Y0158043D02*
X0135870Y0156487D01*
X0132336Y0160021D01*
X0133892Y0161577D01*
X0137426Y0158043D01*
G37*
G36*
X0135199Y0155816D02*
X0133643Y0154260D01*
X0130109Y0157794D01*
X0131665Y0159350D01*
X0135199Y0155816D01*
G37*
G36*
X0132972Y0153588D02*
X0131416Y0152032D01*
X0127882Y0155566D01*
X0129438Y0157122D01*
X0132972Y0153588D01*
G37*
G36*
X0130745Y0151361D02*
X0129189Y0149805D01*
X0125655Y0153339D01*
X0127211Y0154895D01*
X0130745Y0151361D01*
G37*
G36*
X0128518Y0149134D02*
X0126962Y0147578D01*
X0123428Y0151112D01*
X0124984Y0152668D01*
X0128518Y0149134D01*
G37*
G36*
X0126291Y0146907D02*
X0124735Y0145351D01*
X0121201Y0148885D01*
X0122757Y0150441D01*
X0126291Y0146907D01*
G37*
G36*
X0124064Y0144680D02*
X0122508Y0143124D01*
X0118974Y0146658D01*
X0120530Y0148214D01*
X0124064Y0144680D01*
G37*
G36*
X0154645Y0127461D02*
X0153089Y0125905D01*
X0149555Y0129439D01*
X0151111Y0130995D01*
X0154645Y0127461D01*
G37*
G36*
X0156872Y0129688D02*
X0155316Y0128132D01*
X0151782Y0131666D01*
X0153338Y0133222D01*
X0156872Y0129688D01*
G37*
G36*
X0159100Y0131915D02*
X0157544Y0130359D01*
X0154010Y0133893D01*
X0155566Y0135449D01*
X0159100Y0131915D01*
G37*
G36*
X0161327Y0134142D02*
X0159771Y0132586D01*
X0156237Y0136120D01*
X0157793Y0137676D01*
X0161327Y0134142D01*
G37*
G36*
X0163554Y0136370D02*
X0161998Y0134814D01*
X0158464Y0138348D01*
X0160020Y0139904D01*
X0163554Y0136370D01*
G37*
G36*
X0152418Y0125234D02*
X0150862Y0123678D01*
X0147328Y0127212D01*
X0148884Y0128768D01*
X0152418Y0125234D01*
G37*
G36*
X0150191Y0123007D02*
X0148635Y0121451D01*
X0145101Y0124985D01*
X0146657Y0126541D01*
X0150191Y0123007D01*
G37*
G36*
X0147964Y0120780D02*
X0146408Y0119224D01*
X0142874Y0122758D01*
X0144430Y0124314D01*
X0147964Y0120780D01*
G37*
D42*
X0190919Y0118250D03*
X0231413Y0118250D03*
X0231413Y0145250D03*
X0190919Y0145250D03*
D43*
X0267051Y0141514D03*
X0267051Y0121829D03*
D44*
X0267051Y0131671D03*
D45*
G36*
X0261611Y0030254D02*
X0256600Y0025243D01*
X0245465Y0036378D01*
X0250476Y0041389D01*
X0261611Y0030254D01*
G37*
G36*
X0247692Y0016335D02*
X0242681Y0011324D01*
X0231546Y0022459D01*
X0236557Y0027470D01*
X0247692Y0016335D01*
G37*
D46*
G36*
X0250755Y0024965D02*
X0247970Y0022180D01*
X0242403Y0027747D01*
X0245188Y0030532D01*
X0250755Y0024965D01*
G37*
D47*
X0250516Y0049959D03*
X0250516Y0051967D03*
X0246579Y0051967D03*
X0246579Y0049959D03*
X0242642Y0049959D03*
X0242642Y0051967D03*
X0238705Y0051967D03*
X0238705Y0049959D03*
X0234768Y0049959D03*
X0234768Y0051967D03*
X0230831Y0051967D03*
X0230831Y0049959D03*
X0230831Y0063738D03*
X0230831Y0065746D03*
X0234768Y0065746D03*
X0234768Y0063738D03*
X0238705Y0063738D03*
X0238705Y0065746D03*
X0242642Y0065746D03*
X0242642Y0063738D03*
X0246579Y0063738D03*
X0246579Y0065746D03*
X0250516Y0065746D03*
X0250516Y0063738D03*
X0254453Y0063738D03*
X0254453Y0065746D03*
X0258390Y0065746D03*
X0258390Y0063738D03*
X0262327Y0063738D03*
X0262327Y0065746D03*
X0266264Y0065746D03*
X0266264Y0063738D03*
X0266264Y0051967D03*
X0266264Y0049959D03*
X0262327Y0049959D03*
X0262327Y0051967D03*
X0258390Y0051967D03*
X0258390Y0049959D03*
X0254453Y0049959D03*
X0254453Y0051967D03*
D48*
G36*
X0256355Y0056161D02*
X0257134Y0055382D01*
X0255939Y0054187D01*
X0255160Y0054966D01*
X0256355Y0056161D01*
G37*
G36*
X0254935Y0057581D02*
X0255714Y0056802D01*
X0254519Y0055607D01*
X0253740Y0056386D01*
X0254935Y0057581D01*
G37*
X0254433Y0059821D03*
X0256441Y0059821D03*
X0259354Y0059821D03*
X0261362Y0059821D03*
X0264276Y0059821D03*
X0266283Y0059821D03*
G36*
X0264778Y0057581D02*
X0265557Y0056802D01*
X0264362Y0055607D01*
X0263583Y0056386D01*
X0264778Y0057581D01*
G37*
G36*
X0266197Y0056161D02*
X0266976Y0055382D01*
X0265781Y0054187D01*
X0265002Y0054966D01*
X0266197Y0056161D01*
G37*
G36*
X0262055Y0056386D02*
X0261276Y0055607D01*
X0260081Y0056802D01*
X0260860Y0057581D01*
X0262055Y0056386D01*
G37*
G36*
X0260635Y0054966D02*
X0259856Y0054187D01*
X0258661Y0055382D01*
X0259440Y0056161D01*
X0260635Y0054966D01*
G37*
G36*
X0252213Y0056386D02*
X0251434Y0055607D01*
X0250239Y0056802D01*
X0251018Y0057581D01*
X0252213Y0056386D01*
G37*
G36*
X0250793Y0054966D02*
X0250014Y0054187D01*
X0248819Y0055382D01*
X0249598Y0056161D01*
X0250793Y0054966D01*
G37*
G36*
X0246512Y0056161D02*
X0247291Y0055382D01*
X0246096Y0054187D01*
X0245317Y0054966D01*
X0246512Y0056161D01*
G37*
G36*
X0245093Y0057581D02*
X0245872Y0056802D01*
X0244677Y0055607D01*
X0243898Y0056386D01*
X0245093Y0057581D01*
G37*
X0244591Y0059821D03*
X0246598Y0059821D03*
X0249512Y0059821D03*
X0251520Y0059821D03*
X0241677Y0059821D03*
X0239669Y0059821D03*
X0236756Y0059821D03*
X0234748Y0059821D03*
X0231835Y0059821D03*
X0229827Y0059821D03*
G36*
X0232528Y0056386D02*
X0231749Y0055607D01*
X0230554Y0056802D01*
X0231333Y0057581D01*
X0232528Y0056386D01*
G37*
G36*
X0235250Y0057581D02*
X0236029Y0056802D01*
X0234834Y0055607D01*
X0234055Y0056386D01*
X0235250Y0057581D01*
G37*
G36*
X0236670Y0056161D02*
X0237449Y0055382D01*
X0236254Y0054187D01*
X0235475Y0054966D01*
X0236670Y0056161D01*
G37*
G36*
X0240950Y0054966D02*
X0240171Y0054187D01*
X0238976Y0055382D01*
X0239755Y0056161D01*
X0240950Y0054966D01*
G37*
G36*
X0242370Y0056386D02*
X0241591Y0055607D01*
X0240396Y0056802D01*
X0241175Y0057581D01*
X0242370Y0056386D01*
G37*
G36*
X0231108Y0054966D02*
X0230329Y0054187D01*
X0229134Y0055382D01*
X0229913Y0056161D01*
X0231108Y0054966D01*
G37*
D49*
X0332209Y0076553D02*
X0344020Y0076553D01*
X0344020Y0198600D01*
X0340083Y0198600D02*
X0340083Y0192301D01*
X0341657Y0190726D02*
X0347957Y0190726D01*
X0347957Y0188758D02*
X0340083Y0188758D01*
X0338114Y0190726D02*
X0338114Y0198600D01*
X0336146Y0198600D02*
X0336146Y0189152D01*
X0336146Y0186789D02*
X0347957Y0186789D01*
X0347957Y0184821D02*
X0340083Y0184821D01*
X0336146Y0182852D02*
X0347957Y0182852D01*
X0347957Y0180884D02*
X0340083Y0180884D01*
X0336146Y0178915D02*
X0347957Y0178915D01*
X0347957Y0176947D02*
X0340083Y0176947D01*
X0340083Y0173010D02*
X0347957Y0173010D01*
X0347957Y0174978D02*
X0332209Y0174978D01*
X0336146Y0171041D02*
X0347957Y0171041D01*
X0347957Y0169073D02*
X0340083Y0169073D01*
X0336146Y0167104D02*
X0347957Y0167104D01*
X0347957Y0165136D02*
X0340083Y0165136D01*
X0336146Y0163167D02*
X0347957Y0163167D01*
X0347957Y0161199D02*
X0340083Y0161199D01*
X0336146Y0159230D02*
X0347957Y0159230D01*
X0347957Y0157262D02*
X0340083Y0157262D01*
X0340083Y0153325D02*
X0347957Y0153325D01*
X0347957Y0155293D02*
X0332209Y0155293D01*
X0336146Y0151356D02*
X0347957Y0151356D01*
X0347957Y0149388D02*
X0340083Y0149388D01*
X0336146Y0147419D02*
X0347957Y0147419D01*
X0347957Y0145451D02*
X0340083Y0145451D01*
X0340083Y0141514D02*
X0347957Y0141514D01*
X0347957Y0143482D02*
X0336146Y0143482D01*
X0336146Y0139545D02*
X0347957Y0139545D01*
X0347957Y0137577D02*
X0340083Y0137577D01*
X0340083Y0133640D02*
X0347957Y0133640D01*
X0347957Y0135608D02*
X0332209Y0135608D01*
X0336146Y0131671D02*
X0347957Y0131671D01*
X0347957Y0129703D02*
X0340083Y0129703D01*
X0336146Y0127734D02*
X0347957Y0127734D01*
X0347957Y0125766D02*
X0340083Y0125766D01*
X0336146Y0123797D02*
X0347957Y0123797D01*
X0347957Y0121829D02*
X0340083Y0121829D01*
X0336146Y0119860D02*
X0347957Y0119860D01*
X0347957Y0117892D02*
X0340083Y0117892D01*
X0340083Y0113955D02*
X0347957Y0113955D01*
X0347957Y0115923D02*
X0332209Y0115923D01*
X0336146Y0111986D02*
X0347957Y0111986D01*
X0347957Y0110018D02*
X0340083Y0110018D01*
X0336146Y0108049D02*
X0347957Y0108049D01*
X0347957Y0106081D02*
X0340083Y0106081D01*
X0336146Y0104112D02*
X0347957Y0104112D01*
X0347957Y0102144D02*
X0340083Y0102144D01*
X0336146Y0100175D02*
X0347957Y0100175D01*
X0347957Y0098207D02*
X0340083Y0098207D01*
X0340083Y0094270D02*
X0347957Y0094270D01*
X0347957Y0096238D02*
X0332209Y0096238D01*
X0336146Y0092301D02*
X0347957Y0092301D01*
X0347957Y0090333D02*
X0340083Y0090333D01*
X0336146Y0088364D02*
X0347957Y0088364D01*
X0347957Y0086396D02*
X0340083Y0086396D01*
X0336146Y0084427D02*
X0347957Y0084427D01*
X0347957Y0082459D02*
X0340083Y0082459D01*
X0336146Y0080490D02*
X0347957Y0080490D01*
X0347957Y0078522D02*
X0340083Y0078522D01*
X0344020Y0076553D02*
X0347957Y0076553D01*
X0324335Y0182852D02*
X0324335Y0198600D01*
X0326303Y0198600D02*
X0326303Y0190726D01*
X0322366Y0190726D02*
X0322366Y0198600D01*
X0320398Y0198600D02*
X0320398Y0186789D01*
X0316461Y0186789D02*
X0316461Y0198600D01*
X0318429Y0198600D02*
X0318429Y0190726D01*
X0314492Y0190726D02*
X0314492Y0198600D01*
X0312524Y0198600D02*
X0312524Y0186789D01*
X0308587Y0186789D02*
X0308587Y0198600D01*
X0310555Y0198600D02*
X0310555Y0190726D01*
X0306618Y0190726D02*
X0306618Y0198600D01*
X0304650Y0198600D02*
X0304650Y0182852D01*
X0300713Y0186789D02*
X0300713Y0198600D01*
X0302681Y0198600D02*
X0302681Y0190726D01*
X0298744Y0190726D02*
X0298744Y0198600D01*
X0296776Y0198600D02*
X0296776Y0186789D01*
X0292839Y0186789D02*
X0292839Y0198600D01*
X0294807Y0198600D02*
X0294807Y0190726D01*
X0290870Y0190726D02*
X0290870Y0198600D01*
X0288902Y0198600D02*
X0288902Y0186789D01*
X0286933Y0190726D02*
X0286933Y0198600D01*
X0284965Y0198600D02*
X0284965Y0182852D01*
X0281028Y0186789D02*
X0281028Y0198600D01*
X0282996Y0198600D02*
X0282996Y0190726D01*
X0279059Y0190726D02*
X0279059Y0198600D01*
X0277091Y0198600D02*
X0277091Y0186789D01*
X0273154Y0186789D02*
X0273154Y0198600D01*
X0275122Y0198600D02*
X0275122Y0190726D01*
X0271185Y0190726D02*
X0271185Y0198600D01*
X0269217Y0198600D02*
X0269217Y0186789D01*
X0267248Y0190726D02*
X0267248Y0198600D01*
X0265280Y0198600D02*
X0265280Y0182852D01*
X0261343Y0186789D02*
X0261343Y0198600D01*
X0263311Y0198600D02*
X0263311Y0190726D01*
X0259374Y0190726D02*
X0259374Y0198600D01*
X0257406Y0198600D02*
X0257406Y0186789D01*
X0253469Y0186789D02*
X0253469Y0198600D01*
X0255437Y0198600D02*
X0255437Y0190726D01*
X0251500Y0190726D02*
X0251500Y0198600D01*
X0249531Y0198600D02*
X0249531Y0186789D01*
X0247563Y0190726D02*
X0247563Y0198600D01*
X0245594Y0198600D02*
X0245594Y0182852D01*
X0241657Y0186789D02*
X0241657Y0198600D01*
X0239689Y0198600D02*
X0239689Y0190726D01*
X0235752Y0190726D02*
X0235752Y0198600D01*
X0237720Y0198600D02*
X0237720Y0186789D01*
X0233783Y0186789D02*
X0233783Y0198600D01*
X0231815Y0198600D02*
X0231815Y0190726D01*
X0227878Y0190726D02*
X0227878Y0198600D01*
X0229846Y0198600D02*
X0229846Y0186789D01*
X0225909Y0182852D02*
X0225909Y0198600D01*
X0223941Y0198600D02*
X0223941Y0190726D01*
X0220004Y0190726D02*
X0220004Y0198600D01*
X0221972Y0198600D02*
X0221972Y0186789D01*
X0218035Y0186789D02*
X0218035Y0198600D01*
X0216067Y0198600D02*
X0216067Y0190726D01*
X0212130Y0190726D02*
X0212130Y0198600D01*
X0214098Y0198600D02*
X0214098Y0186789D01*
X0210161Y0186789D02*
X0210161Y0198600D01*
X0208193Y0198600D02*
X0208193Y0190726D01*
X0204256Y0190726D02*
X0204256Y0198600D01*
X0206224Y0198600D02*
X0206224Y0182852D01*
X0202287Y0186789D02*
X0202287Y0198600D01*
X0200319Y0198600D02*
X0200319Y0190726D01*
X0196382Y0190726D02*
X0196382Y0198600D01*
X0198350Y0198600D02*
X0198350Y0186789D01*
X0194413Y0186789D02*
X0194413Y0198600D01*
X0192445Y0198600D02*
X0192445Y0190726D01*
X0188508Y0190726D02*
X0188508Y0198600D01*
X0190476Y0198600D02*
X0190476Y0186789D01*
X0186539Y0182852D02*
X0186539Y0198600D01*
X0184571Y0198600D02*
X0184571Y0190726D01*
X0180634Y0190726D02*
X0180634Y0198600D01*
X0182602Y0198600D02*
X0182602Y0186789D01*
X0178665Y0186789D02*
X0178665Y0198600D01*
X0176697Y0198600D02*
X0176697Y0190726D01*
X0172760Y0190726D02*
X0172760Y0198600D01*
X0174728Y0198600D02*
X0174728Y0186789D01*
X0170791Y0186789D02*
X0170791Y0198600D01*
X0168823Y0198600D02*
X0168823Y0190726D01*
X0164886Y0190726D02*
X0164886Y0198600D01*
X0166854Y0198600D02*
X0166854Y0182852D01*
X0162917Y0186789D02*
X0162917Y0198600D01*
X0160949Y0198600D02*
X0160949Y0190726D01*
X0157012Y0190726D02*
X0157012Y0198600D01*
X0158980Y0198600D02*
X0158980Y0186789D01*
X0155043Y0186789D02*
X0155043Y0198600D01*
X0153075Y0198600D02*
X0153075Y0190726D01*
X0149138Y0190726D02*
X0149138Y0198600D01*
X0151106Y0198600D02*
X0151106Y0186789D01*
X0147169Y0182852D02*
X0147169Y0198600D01*
X0145201Y0198600D02*
X0145201Y0190726D01*
X0141264Y0190726D02*
X0141264Y0198600D01*
X0143232Y0198600D02*
X0143232Y0186789D01*
X0139295Y0186789D02*
X0139295Y0198600D01*
X0137327Y0198600D02*
X0137327Y0190726D01*
X0133390Y0190726D02*
X0133390Y0198600D01*
X0135358Y0198600D02*
X0135358Y0186789D01*
X0131421Y0186789D02*
X0131421Y0198600D01*
X0129453Y0198600D02*
X0129453Y0190726D01*
X0127878Y0194663D02*
X0347957Y0194663D01*
X0334177Y0198600D02*
X0334177Y0190726D01*
X0330240Y0190726D02*
X0330240Y0198600D01*
X0328272Y0198600D02*
X0328272Y0186789D01*
X0332209Y0186789D02*
X0332209Y0198600D01*
X0243626Y0198600D02*
X0243626Y0190726D01*
X0127484Y0198600D02*
X0127484Y0182852D01*
D50*
X0071579Y0072222D03*
M02*
