G75*
%MOIN*%
%OFA0B0*%
%FSLAX25Y25*%
%IPPOS*%
%LPD*%
%AMOC8*
5,1,8,0,0,1.08239X$1,22.5*
%
%ADD10C,0.01000*%
%ADD11R,0.01384X0.01384*%
%ADD12R,0.13780X0.13780*%
%ADD13R,0.02953X0.01378*%
%ADD14R,0.01378X0.02953*%
%ADD15R,0.05200X0.09200*%
%ADD16R,0.14573X0.09061*%
%ADD17R,0.06699X0.04337*%
%ADD18R,0.24809X0.21660*%
%ADD19R,0.09061X0.02762*%
%ADD20R,0.01600X0.04300*%
%ADD21R,0.01463X0.06306*%
%ADD22R,0.06306X0.01463*%
%ADD23R,0.03943X0.03156*%
%ADD24R,0.03156X0.03943*%
%ADD25R,0.04337X0.04731*%
%ADD26R,0.04731X0.04337*%
%ADD27R,0.05518X0.06306*%
%ADD28R,0.06306X0.05518*%
%ADD29R,0.03550X0.03943*%
%ADD30R,0.06699X0.07498*%
%ADD31R,0.07498X0.06699*%
%ADD32C,0.00500*%
%ADD33R,0.05400X0.02600*%
%ADD34R,0.02600X0.05400*%
%ADD35R,0.07900X0.15400*%
%ADD36R,0.16148X0.07487*%
%ADD37R,0.07487X0.16148*%
D10*
X0014000Y0001750D02*
X0339000Y0001750D01*
X0339302Y0001754D01*
X0339604Y0001765D01*
X0339905Y0001783D01*
X0340206Y0001808D01*
X0340507Y0001841D01*
X0340806Y0001881D01*
X0341104Y0001928D01*
X0341402Y0001983D01*
X0341697Y0002044D01*
X0341991Y0002113D01*
X0342284Y0002189D01*
X0342574Y0002272D01*
X0342863Y0002362D01*
X0343149Y0002459D01*
X0343433Y0002562D01*
X0343714Y0002673D01*
X0343992Y0002790D01*
X0344268Y0002914D01*
X0344540Y0003045D01*
X0344809Y0003182D01*
X0345075Y0003325D01*
X0345337Y0003475D01*
X0345596Y0003632D01*
X0345850Y0003794D01*
X0346101Y0003963D01*
X0346347Y0004137D01*
X0346590Y0004318D01*
X0346827Y0004504D01*
X0347061Y0004696D01*
X0347289Y0004894D01*
X0347513Y0005097D01*
X0347731Y0005305D01*
X0347945Y0005519D01*
X0348153Y0005737D01*
X0348356Y0005961D01*
X0348554Y0006189D01*
X0348746Y0006423D01*
X0348932Y0006660D01*
X0349113Y0006903D01*
X0349287Y0007149D01*
X0349456Y0007400D01*
X0349618Y0007654D01*
X0349775Y0007913D01*
X0349925Y0008175D01*
X0350068Y0008441D01*
X0350205Y0008710D01*
X0350336Y0008982D01*
X0350460Y0009258D01*
X0350577Y0009536D01*
X0350688Y0009817D01*
X0350791Y0010101D01*
X0350888Y0010387D01*
X0350978Y0010676D01*
X0351061Y0010966D01*
X0351137Y0011259D01*
X0351206Y0011553D01*
X0351267Y0011848D01*
X0351322Y0012146D01*
X0351369Y0012444D01*
X0351409Y0012743D01*
X0351442Y0013044D01*
X0351467Y0013345D01*
X0351485Y0013646D01*
X0351496Y0013948D01*
X0351500Y0014250D01*
X0351500Y0189250D01*
X0351496Y0189552D01*
X0351485Y0189854D01*
X0351467Y0190155D01*
X0351442Y0190456D01*
X0351409Y0190757D01*
X0351369Y0191056D01*
X0351322Y0191354D01*
X0351267Y0191652D01*
X0351206Y0191947D01*
X0351137Y0192241D01*
X0351061Y0192534D01*
X0350978Y0192824D01*
X0350888Y0193113D01*
X0350791Y0193399D01*
X0350688Y0193683D01*
X0350577Y0193964D01*
X0350460Y0194242D01*
X0350336Y0194518D01*
X0350205Y0194790D01*
X0350068Y0195059D01*
X0349925Y0195325D01*
X0349775Y0195587D01*
X0349618Y0195846D01*
X0349456Y0196100D01*
X0349287Y0196351D01*
X0349113Y0196597D01*
X0348932Y0196840D01*
X0348746Y0197077D01*
X0348554Y0197311D01*
X0348356Y0197539D01*
X0348153Y0197763D01*
X0347945Y0197981D01*
X0347731Y0198195D01*
X0347513Y0198403D01*
X0347289Y0198606D01*
X0347061Y0198804D01*
X0346827Y0198996D01*
X0346590Y0199182D01*
X0346347Y0199363D01*
X0346101Y0199537D01*
X0345850Y0199706D01*
X0345596Y0199868D01*
X0345337Y0200025D01*
X0345075Y0200175D01*
X0344809Y0200318D01*
X0344540Y0200455D01*
X0344268Y0200586D01*
X0343992Y0200710D01*
X0343714Y0200827D01*
X0343433Y0200938D01*
X0343149Y0201041D01*
X0342863Y0201138D01*
X0342574Y0201228D01*
X0342284Y0201311D01*
X0341991Y0201387D01*
X0341697Y0201456D01*
X0341402Y0201517D01*
X0341104Y0201572D01*
X0340806Y0201619D01*
X0340507Y0201659D01*
X0340206Y0201692D01*
X0339905Y0201717D01*
X0339604Y0201735D01*
X0339302Y0201746D01*
X0339000Y0201750D01*
X0014000Y0201750D01*
X0013698Y0201746D01*
X0013396Y0201735D01*
X0013095Y0201717D01*
X0012794Y0201692D01*
X0012493Y0201659D01*
X0012194Y0201619D01*
X0011896Y0201572D01*
X0011598Y0201517D01*
X0011303Y0201456D01*
X0011009Y0201387D01*
X0010716Y0201311D01*
X0010426Y0201228D01*
X0010137Y0201138D01*
X0009851Y0201041D01*
X0009567Y0200938D01*
X0009286Y0200827D01*
X0009008Y0200710D01*
X0008732Y0200586D01*
X0008460Y0200455D01*
X0008191Y0200318D01*
X0007925Y0200175D01*
X0007663Y0200025D01*
X0007404Y0199868D01*
X0007150Y0199706D01*
X0006899Y0199537D01*
X0006653Y0199363D01*
X0006410Y0199182D01*
X0006173Y0198996D01*
X0005939Y0198804D01*
X0005711Y0198606D01*
X0005487Y0198403D01*
X0005269Y0198195D01*
X0005055Y0197981D01*
X0004847Y0197763D01*
X0004644Y0197539D01*
X0004446Y0197311D01*
X0004254Y0197077D01*
X0004068Y0196840D01*
X0003887Y0196597D01*
X0003713Y0196351D01*
X0003544Y0196100D01*
X0003382Y0195846D01*
X0003225Y0195587D01*
X0003075Y0195325D01*
X0002932Y0195059D01*
X0002795Y0194790D01*
X0002664Y0194518D01*
X0002540Y0194242D01*
X0002423Y0193964D01*
X0002312Y0193683D01*
X0002209Y0193399D01*
X0002112Y0193113D01*
X0002022Y0192824D01*
X0001939Y0192534D01*
X0001863Y0192241D01*
X0001794Y0191947D01*
X0001733Y0191652D01*
X0001678Y0191354D01*
X0001631Y0191056D01*
X0001591Y0190757D01*
X0001558Y0190456D01*
X0001533Y0190155D01*
X0001515Y0189854D01*
X0001504Y0189552D01*
X0001500Y0189250D01*
X0001500Y0014250D01*
X0001504Y0013948D01*
X0001515Y0013646D01*
X0001533Y0013345D01*
X0001558Y0013044D01*
X0001591Y0012743D01*
X0001631Y0012444D01*
X0001678Y0012146D01*
X0001733Y0011848D01*
X0001794Y0011553D01*
X0001863Y0011259D01*
X0001939Y0010966D01*
X0002022Y0010676D01*
X0002112Y0010387D01*
X0002209Y0010101D01*
X0002312Y0009817D01*
X0002423Y0009536D01*
X0002540Y0009258D01*
X0002664Y0008982D01*
X0002795Y0008710D01*
X0002932Y0008441D01*
X0003075Y0008175D01*
X0003225Y0007913D01*
X0003382Y0007654D01*
X0003544Y0007400D01*
X0003713Y0007149D01*
X0003887Y0006903D01*
X0004068Y0006660D01*
X0004254Y0006423D01*
X0004446Y0006189D01*
X0004644Y0005961D01*
X0004847Y0005737D01*
X0005055Y0005519D01*
X0005269Y0005305D01*
X0005487Y0005097D01*
X0005711Y0004894D01*
X0005939Y0004696D01*
X0006173Y0004504D01*
X0006410Y0004318D01*
X0006653Y0004137D01*
X0006899Y0003963D01*
X0007150Y0003794D01*
X0007404Y0003632D01*
X0007663Y0003475D01*
X0007925Y0003325D01*
X0008191Y0003182D01*
X0008460Y0003045D01*
X0008732Y0002914D01*
X0009008Y0002790D01*
X0009286Y0002673D01*
X0009567Y0002562D01*
X0009851Y0002459D01*
X0010137Y0002362D01*
X0010426Y0002272D01*
X0010716Y0002189D01*
X0011009Y0002113D01*
X0011303Y0002044D01*
X0011598Y0001983D01*
X0011896Y0001928D01*
X0012194Y0001881D01*
X0012493Y0001841D01*
X0012794Y0001808D01*
X0013095Y0001783D01*
X0013396Y0001765D01*
X0013698Y0001754D01*
X0014000Y0001750D01*
D11*
X0236992Y0086258D03*
D12*
X0246500Y0076750D03*
D13*
X0237248Y0075766D03*
X0237248Y0077734D03*
X0237248Y0079703D03*
X0237248Y0081671D03*
X0237248Y0083640D03*
X0237248Y0073797D03*
X0237248Y0071829D03*
X0237248Y0069860D03*
X0255752Y0069860D03*
X0255752Y0071829D03*
X0255752Y0073797D03*
X0255752Y0075766D03*
X0255752Y0077734D03*
X0255752Y0079703D03*
X0255752Y0081671D03*
X0255752Y0083640D03*
D14*
X0253390Y0086002D03*
X0251421Y0086002D03*
X0249453Y0086002D03*
X0247484Y0086002D03*
X0245516Y0086002D03*
X0243547Y0086002D03*
X0241579Y0086002D03*
X0239610Y0086002D03*
X0239610Y0067498D03*
X0241579Y0067498D03*
X0243547Y0067498D03*
X0245516Y0067498D03*
X0247484Y0067498D03*
X0249453Y0067498D03*
X0251421Y0067498D03*
X0253390Y0067498D03*
D15*
X0050600Y0159550D03*
X0041500Y0159550D03*
X0032400Y0159550D03*
D16*
X0041500Y0183951D03*
D17*
X0110398Y0180726D03*
X0110398Y0162774D03*
D18*
X0081657Y0171750D03*
D19*
X0307327Y0154250D03*
X0307327Y0149250D03*
X0307327Y0144250D03*
X0307327Y0139250D03*
X0307327Y0134250D03*
X0307327Y0129250D03*
X0307327Y0124250D03*
X0307327Y0119250D03*
X0335673Y0119250D03*
X0335673Y0124250D03*
X0335673Y0129250D03*
X0335673Y0134250D03*
X0335673Y0139250D03*
X0335673Y0144250D03*
X0335673Y0149250D03*
X0335673Y0154250D03*
D20*
X0313016Y0088237D03*
X0310457Y0088237D03*
X0307898Y0088237D03*
X0305339Y0088237D03*
X0302780Y0088237D03*
X0300220Y0088237D03*
X0297661Y0088237D03*
X0295102Y0088237D03*
X0292543Y0088237D03*
X0289984Y0088237D03*
X0289984Y0065263D03*
X0292543Y0065263D03*
X0295102Y0065263D03*
X0297661Y0065263D03*
X0300220Y0065263D03*
X0302780Y0065263D03*
X0305339Y0065263D03*
X0307898Y0065263D03*
X0310457Y0065263D03*
X0313016Y0065263D03*
D21*
X0205122Y0087262D03*
X0203154Y0087262D03*
X0201185Y0087262D03*
X0199217Y0087262D03*
X0197248Y0087262D03*
X0195280Y0087262D03*
X0193311Y0087262D03*
X0191343Y0087262D03*
X0189374Y0087262D03*
X0187406Y0087262D03*
X0185437Y0087262D03*
X0183469Y0087262D03*
X0181500Y0087262D03*
X0179531Y0087262D03*
X0177563Y0087262D03*
X0175594Y0087262D03*
X0173626Y0087262D03*
X0171657Y0087262D03*
X0169689Y0087262D03*
X0167720Y0087262D03*
X0165752Y0087262D03*
X0163783Y0087262D03*
X0161815Y0087262D03*
X0159846Y0087262D03*
X0157878Y0087262D03*
X0157878Y0026238D03*
X0159846Y0026238D03*
X0161815Y0026238D03*
X0163783Y0026238D03*
X0165752Y0026238D03*
X0167720Y0026238D03*
X0169689Y0026238D03*
X0171657Y0026238D03*
X0173626Y0026238D03*
X0175594Y0026238D03*
X0177563Y0026238D03*
X0179531Y0026238D03*
X0181500Y0026238D03*
X0183469Y0026238D03*
X0185437Y0026238D03*
X0187406Y0026238D03*
X0189374Y0026238D03*
X0191343Y0026238D03*
X0193311Y0026238D03*
X0195280Y0026238D03*
X0197248Y0026238D03*
X0199217Y0026238D03*
X0201185Y0026238D03*
X0203154Y0026238D03*
X0205122Y0026238D03*
D22*
X0212012Y0033128D03*
X0212012Y0035096D03*
X0212012Y0037065D03*
X0212012Y0039033D03*
X0212012Y0041002D03*
X0212012Y0042970D03*
X0212012Y0044939D03*
X0212012Y0046907D03*
X0212012Y0048876D03*
X0212012Y0050844D03*
X0212012Y0052813D03*
X0212012Y0054781D03*
X0212012Y0056750D03*
X0212012Y0058719D03*
X0212012Y0060687D03*
X0212012Y0062656D03*
X0212012Y0064624D03*
X0212012Y0066593D03*
X0212012Y0068561D03*
X0212012Y0070530D03*
X0212012Y0072498D03*
X0212012Y0074467D03*
X0212012Y0076435D03*
X0212012Y0078404D03*
X0212012Y0080372D03*
X0150988Y0080372D03*
X0150988Y0078404D03*
X0150988Y0076435D03*
X0150988Y0074467D03*
X0150988Y0072498D03*
X0150988Y0070530D03*
X0150988Y0068561D03*
X0150988Y0066593D03*
X0150988Y0064624D03*
X0150988Y0062656D03*
X0150988Y0060687D03*
X0150988Y0058719D03*
X0150988Y0056750D03*
X0150988Y0054781D03*
X0150988Y0052813D03*
X0150988Y0050844D03*
X0150988Y0048876D03*
X0150988Y0046907D03*
X0150988Y0044939D03*
X0150988Y0042970D03*
X0150988Y0041002D03*
X0150988Y0039033D03*
X0150988Y0037065D03*
X0150988Y0035096D03*
X0150988Y0033128D03*
D23*
X0071500Y0055191D03*
X0071500Y0060309D03*
X0071500Y0083191D03*
X0071500Y0088309D03*
D24*
G36*
X0085819Y0083283D02*
X0083587Y0081051D01*
X0080801Y0083837D01*
X0083033Y0086069D01*
X0085819Y0083283D01*
G37*
G36*
X0082199Y0079663D02*
X0079967Y0077431D01*
X0077181Y0080217D01*
X0079413Y0082449D01*
X0082199Y0079663D01*
G37*
X0082941Y0071750D03*
X0088059Y0071750D03*
G36*
X0079967Y0066069D02*
X0082199Y0063837D01*
X0079413Y0061051D01*
X0077181Y0063283D01*
X0079967Y0066069D01*
G37*
G36*
X0083587Y0062449D02*
X0085819Y0060217D01*
X0083033Y0057431D01*
X0080801Y0059663D01*
X0083587Y0062449D01*
G37*
G36*
X0065819Y0063283D02*
X0063587Y0061051D01*
X0060801Y0063837D01*
X0063033Y0066069D01*
X0065819Y0063283D01*
G37*
G36*
X0062199Y0059663D02*
X0059967Y0057431D01*
X0057181Y0060217D01*
X0059413Y0062449D01*
X0062199Y0059663D01*
G37*
X0060059Y0071750D03*
X0054941Y0071750D03*
G36*
X0063587Y0082449D02*
X0065819Y0080217D01*
X0063033Y0077431D01*
X0060801Y0079663D01*
X0063587Y0082449D01*
G37*
G36*
X0059967Y0086069D02*
X0062199Y0083837D01*
X0059413Y0081051D01*
X0057181Y0083283D01*
X0059967Y0086069D01*
G37*
D25*
G36*
X0051339Y0090495D02*
X0048273Y0087429D01*
X0044929Y0090773D01*
X0047995Y0093839D01*
X0051339Y0090495D01*
G37*
G36*
X0056071Y0095227D02*
X0053005Y0092161D01*
X0049661Y0095505D01*
X0052727Y0098571D01*
X0056071Y0095227D01*
G37*
X0068154Y0101750D03*
X0074846Y0101750D03*
G36*
X0090523Y0098571D02*
X0093589Y0095505D01*
X0090245Y0092161D01*
X0087179Y0095227D01*
X0090523Y0098571D01*
G37*
G36*
X0095255Y0093839D02*
X0098321Y0090773D01*
X0094977Y0087429D01*
X0091911Y0090495D01*
X0095255Y0093839D01*
G37*
G36*
X0091911Y0053005D02*
X0094977Y0056071D01*
X0098321Y0052727D01*
X0095255Y0049661D01*
X0091911Y0053005D01*
G37*
G36*
X0087179Y0048273D02*
X0090245Y0051339D01*
X0093589Y0047995D01*
X0090523Y0044929D01*
X0087179Y0048273D01*
G37*
X0074846Y0041750D03*
X0068154Y0041750D03*
G36*
X0052477Y0044929D02*
X0049411Y0047995D01*
X0052755Y0051339D01*
X0055821Y0048273D01*
X0052477Y0044929D01*
G37*
G36*
X0047745Y0049661D02*
X0044679Y0052727D01*
X0048023Y0056071D01*
X0051089Y0053005D01*
X0047745Y0049661D01*
G37*
D26*
X0041500Y0068404D03*
X0041500Y0075096D03*
X0101500Y0075096D03*
X0101500Y0068404D03*
D27*
G36*
X0101429Y0043208D02*
X0105331Y0047110D01*
X0109789Y0042652D01*
X0105887Y0038750D01*
X0101429Y0043208D01*
G37*
G36*
X0096140Y0037919D02*
X0100042Y0041821D01*
X0104500Y0037363D01*
X0100598Y0033461D01*
X0096140Y0037919D01*
G37*
X0075240Y0026750D03*
X0067760Y0026750D03*
G36*
X0042958Y0041821D02*
X0046860Y0037919D01*
X0042402Y0033461D01*
X0038500Y0037363D01*
X0042958Y0041821D01*
G37*
G36*
X0037669Y0047110D02*
X0041571Y0043208D01*
X0037113Y0038750D01*
X0033211Y0042652D01*
X0037669Y0047110D01*
G37*
G36*
X0041321Y0100792D02*
X0037419Y0096890D01*
X0032961Y0101348D01*
X0036863Y0105250D01*
X0041321Y0100792D01*
G37*
G36*
X0046610Y0106081D02*
X0042708Y0102179D01*
X0038250Y0106637D01*
X0042152Y0110539D01*
X0046610Y0106081D01*
G37*
X0067760Y0116750D03*
X0075240Y0116750D03*
G36*
X0100292Y0101929D02*
X0096390Y0105831D01*
X0100848Y0110289D01*
X0104750Y0106387D01*
X0100292Y0101929D01*
G37*
G36*
X0105581Y0096640D02*
X0101679Y0100542D01*
X0106137Y0105000D01*
X0110039Y0101098D01*
X0105581Y0096640D01*
G37*
D28*
X0116500Y0075490D03*
X0116500Y0068010D03*
X0026500Y0068010D03*
X0026500Y0075490D03*
D29*
G36*
X0276126Y0042428D02*
X0277901Y0045501D01*
X0281314Y0043530D01*
X0279539Y0040457D01*
X0276126Y0042428D01*
G37*
G36*
X0284816Y0041730D02*
X0286591Y0044803D01*
X0290004Y0042832D01*
X0288229Y0039759D01*
X0284816Y0041730D01*
G37*
G36*
X0279867Y0048907D02*
X0281642Y0051980D01*
X0285055Y0050009D01*
X0283280Y0046936D01*
X0279867Y0048907D01*
G37*
X0297760Y0058187D03*
X0305240Y0058187D03*
X0301500Y0050313D03*
G36*
X0316409Y0044803D02*
X0318184Y0041730D01*
X0314771Y0039759D01*
X0312996Y0042832D01*
X0316409Y0044803D01*
G37*
G36*
X0321358Y0051980D02*
X0323133Y0048907D01*
X0319720Y0046936D01*
X0317945Y0050009D01*
X0321358Y0051980D01*
G37*
G36*
X0325099Y0045501D02*
X0326874Y0042428D01*
X0323461Y0040457D01*
X0321686Y0043530D01*
X0325099Y0045501D01*
G37*
G36*
X0326874Y0026072D02*
X0325099Y0022999D01*
X0321686Y0024970D01*
X0323461Y0028043D01*
X0326874Y0026072D01*
G37*
G36*
X0323133Y0019593D02*
X0321358Y0016520D01*
X0317945Y0018491D01*
X0319720Y0021564D01*
X0323133Y0019593D01*
G37*
G36*
X0318184Y0026770D02*
X0316409Y0023697D01*
X0312996Y0025668D01*
X0314771Y0028741D01*
X0318184Y0026770D01*
G37*
X0301500Y0018187D03*
X0297760Y0010313D03*
X0305240Y0010313D03*
G36*
X0281642Y0016520D02*
X0279867Y0019593D01*
X0283280Y0021564D01*
X0285055Y0018491D01*
X0281642Y0016520D01*
G37*
G36*
X0277901Y0022999D02*
X0276126Y0026072D01*
X0279539Y0028043D01*
X0281314Y0024970D01*
X0277901Y0022999D01*
G37*
G36*
X0286591Y0023697D02*
X0284816Y0026770D01*
X0288229Y0028741D01*
X0290004Y0025668D01*
X0286591Y0023697D01*
G37*
D30*
G36*
X0112940Y0033491D02*
X0117677Y0038228D01*
X0122978Y0032927D01*
X0118241Y0028190D01*
X0112940Y0033491D01*
G37*
G36*
X0105022Y0025573D02*
X0109759Y0030310D01*
X0115060Y0025009D01*
X0110323Y0020272D01*
X0105022Y0025573D01*
G37*
X0077098Y0011750D03*
X0065902Y0011750D03*
G36*
X0032677Y0020272D02*
X0027940Y0025009D01*
X0033241Y0030310D01*
X0037978Y0025573D01*
X0032677Y0020272D01*
G37*
G36*
X0024759Y0028190D02*
X0020022Y0032927D01*
X0025323Y0038228D01*
X0030060Y0033491D01*
X0024759Y0028190D01*
G37*
G36*
X0030060Y0110009D02*
X0025323Y0105272D01*
X0020022Y0110573D01*
X0024759Y0115310D01*
X0030060Y0110009D01*
G37*
G36*
X0037978Y0117927D02*
X0033241Y0113190D01*
X0027940Y0118491D01*
X0032677Y0123228D01*
X0037978Y0117927D01*
G37*
X0065902Y0131750D03*
X0077098Y0131750D03*
G36*
X0110323Y0123228D02*
X0115060Y0118491D01*
X0109759Y0113190D01*
X0105022Y0117927D01*
X0110323Y0123228D01*
G37*
G36*
X0118241Y0115310D02*
X0122978Y0110573D01*
X0117677Y0105272D01*
X0112940Y0110009D01*
X0118241Y0115310D01*
G37*
D31*
X0131500Y0077348D03*
X0131500Y0066152D03*
X0011500Y0066152D03*
X0011500Y0077348D03*
D32*
X0016500Y0020687D02*
X0015816Y0020627D01*
X0015153Y0020450D01*
X0014531Y0020160D01*
X0013969Y0019766D01*
X0013484Y0019281D01*
X0013090Y0018719D01*
X0012800Y0018097D01*
X0012623Y0017434D01*
X0012563Y0016750D01*
X0012623Y0016066D01*
X0012800Y0015403D01*
X0013090Y0014781D01*
X0013484Y0014219D01*
X0013969Y0013734D01*
X0014531Y0013340D01*
X0015153Y0013050D01*
X0015816Y0012873D01*
X0016500Y0012813D01*
X0017184Y0012873D01*
X0017847Y0013050D01*
X0018469Y0013340D01*
X0019031Y0013734D01*
X0019516Y0014219D01*
X0019910Y0014781D01*
X0020200Y0015403D01*
X0020377Y0016066D01*
X0020437Y0016750D01*
X0020377Y0017434D01*
X0020200Y0018097D01*
X0019910Y0018719D01*
X0019516Y0019281D01*
X0019031Y0019766D01*
X0018469Y0020160D01*
X0017847Y0020450D01*
X0017184Y0020627D01*
X0016500Y0020687D01*
X0014607Y0020195D02*
X0018393Y0020195D01*
X0019100Y0019696D02*
X0013900Y0019696D01*
X0013426Y0019198D02*
X0019574Y0019198D01*
X0019918Y0018699D02*
X0013082Y0018699D01*
X0012849Y0018201D02*
X0020151Y0018201D01*
X0020305Y0017702D02*
X0012695Y0017702D01*
X0012603Y0017204D02*
X0020397Y0017204D01*
X0020433Y0016705D02*
X0012567Y0016705D01*
X0012611Y0016207D02*
X0020389Y0016207D01*
X0020281Y0015708D02*
X0012719Y0015708D01*
X0012891Y0015210D02*
X0020109Y0015210D01*
X0019860Y0014711D02*
X0013140Y0014711D01*
X0013491Y0014213D02*
X0019509Y0014213D01*
X0019002Y0013714D02*
X0013998Y0013714D01*
X0014799Y0013216D02*
X0018201Y0013216D01*
X0016500Y0182813D02*
X0017184Y0182873D01*
X0017847Y0183050D01*
X0018469Y0183340D01*
X0019031Y0183734D01*
X0019516Y0184219D01*
X0019910Y0184781D01*
X0020200Y0185403D01*
X0020377Y0186066D01*
X0020437Y0186750D01*
X0020377Y0187434D01*
X0020200Y0188097D01*
X0019910Y0188719D01*
X0019516Y0189281D01*
X0019031Y0189766D01*
X0018469Y0190160D01*
X0017847Y0190450D01*
X0017184Y0190627D01*
X0016500Y0190687D01*
X0015816Y0190627D01*
X0015153Y0190450D01*
X0014531Y0190160D01*
X0013969Y0189766D01*
X0013484Y0189281D01*
X0013090Y0188719D01*
X0012800Y0188097D01*
X0012623Y0187434D01*
X0012563Y0186750D01*
X0012623Y0186066D01*
X0012800Y0185403D01*
X0013090Y0184781D01*
X0013484Y0184219D01*
X0013969Y0183734D01*
X0014531Y0183340D01*
X0015153Y0183050D01*
X0015816Y0182873D01*
X0016500Y0182813D01*
X0014815Y0183208D02*
X0018185Y0183208D01*
X0018991Y0183707D02*
X0014009Y0183707D01*
X0013498Y0184205D02*
X0019502Y0184205D01*
X0019855Y0184704D02*
X0013145Y0184704D01*
X0012894Y0185202D02*
X0020106Y0185202D01*
X0020279Y0185701D02*
X0012721Y0185701D01*
X0012611Y0186199D02*
X0020389Y0186199D01*
X0020432Y0186698D02*
X0012568Y0186698D01*
X0012602Y0187196D02*
X0020398Y0187196D01*
X0020307Y0187695D02*
X0012693Y0187695D01*
X0012846Y0188193D02*
X0020154Y0188193D01*
X0019922Y0188692D02*
X0013078Y0188692D01*
X0013421Y0189190D02*
X0019579Y0189190D01*
X0019108Y0189689D02*
X0013892Y0189689D01*
X0014591Y0190187D02*
X0018409Y0190187D01*
X0016514Y0190686D02*
X0016486Y0190686D01*
X0332563Y0186750D02*
X0332623Y0187434D01*
X0332800Y0188097D01*
X0333090Y0188719D01*
X0333484Y0189281D01*
X0333969Y0189766D01*
X0334531Y0190160D01*
X0335153Y0190450D01*
X0335816Y0190627D01*
X0336500Y0190687D01*
X0337184Y0190627D01*
X0337847Y0190450D01*
X0338469Y0190160D01*
X0339031Y0189766D01*
X0339516Y0189281D01*
X0339910Y0188719D01*
X0340200Y0188097D01*
X0340377Y0187434D01*
X0340437Y0186750D01*
X0340377Y0186066D01*
X0340200Y0185403D01*
X0339910Y0184781D01*
X0339516Y0184219D01*
X0339031Y0183734D01*
X0338469Y0183340D01*
X0337847Y0183050D01*
X0337184Y0182873D01*
X0336500Y0182813D01*
X0335816Y0182873D01*
X0335153Y0183050D01*
X0334531Y0183340D01*
X0333969Y0183734D01*
X0333484Y0184219D01*
X0333090Y0184781D01*
X0332800Y0185403D01*
X0332623Y0186066D01*
X0332563Y0186750D01*
X0332568Y0186698D02*
X0340432Y0186698D01*
X0340398Y0187196D02*
X0332602Y0187196D01*
X0332693Y0187695D02*
X0340307Y0187695D01*
X0340154Y0188193D02*
X0332846Y0188193D01*
X0333078Y0188692D02*
X0339922Y0188692D01*
X0339579Y0189190D02*
X0333421Y0189190D01*
X0333892Y0189689D02*
X0339108Y0189689D01*
X0338409Y0190187D02*
X0334591Y0190187D01*
X0336486Y0190686D02*
X0336514Y0190686D01*
X0340389Y0186199D02*
X0332611Y0186199D01*
X0332721Y0185701D02*
X0340279Y0185701D01*
X0340106Y0185202D02*
X0332894Y0185202D01*
X0333145Y0184704D02*
X0339855Y0184704D01*
X0339502Y0184205D02*
X0333498Y0184205D01*
X0334009Y0183707D02*
X0338991Y0183707D01*
X0338185Y0183208D02*
X0334815Y0183208D01*
X0336500Y0020687D02*
X0335816Y0020627D01*
X0335153Y0020450D01*
X0334531Y0020160D01*
X0333969Y0019766D01*
X0333484Y0019281D01*
X0333090Y0018719D01*
X0332800Y0018097D01*
X0332623Y0017434D01*
X0332563Y0016750D01*
X0332623Y0016066D01*
X0332800Y0015403D01*
X0333090Y0014781D01*
X0333484Y0014219D01*
X0333969Y0013734D01*
X0334531Y0013340D01*
X0335153Y0013050D01*
X0335816Y0012873D01*
X0336500Y0012813D01*
X0337184Y0012873D01*
X0337847Y0013050D01*
X0338469Y0013340D01*
X0339031Y0013734D01*
X0339516Y0014219D01*
X0339910Y0014781D01*
X0340200Y0015403D01*
X0340377Y0016066D01*
X0340437Y0016750D01*
X0340377Y0017434D01*
X0340200Y0018097D01*
X0339910Y0018719D01*
X0339516Y0019281D01*
X0339031Y0019766D01*
X0338469Y0020160D01*
X0337847Y0020450D01*
X0337184Y0020627D01*
X0336500Y0020687D01*
X0334607Y0020195D02*
X0338393Y0020195D01*
X0339100Y0019696D02*
X0333900Y0019696D01*
X0333426Y0019198D02*
X0339574Y0019198D01*
X0339918Y0018699D02*
X0333082Y0018699D01*
X0332849Y0018201D02*
X0340151Y0018201D01*
X0340305Y0017702D02*
X0332695Y0017702D01*
X0332603Y0017204D02*
X0340397Y0017204D01*
X0340433Y0016705D02*
X0332567Y0016705D01*
X0332611Y0016207D02*
X0340389Y0016207D01*
X0340281Y0015708D02*
X0332719Y0015708D01*
X0332891Y0015210D02*
X0340109Y0015210D01*
X0339860Y0014711D02*
X0333140Y0014711D01*
X0333491Y0014213D02*
X0339509Y0014213D01*
X0339002Y0013714D02*
X0333998Y0013714D01*
X0334799Y0013216D02*
X0338201Y0013216D01*
D33*
G36*
X0140173Y0122994D02*
X0136356Y0119177D01*
X0134517Y0121016D01*
X0138334Y0124833D01*
X0140173Y0122994D01*
G37*
G36*
X0137946Y0125221D02*
X0134129Y0121404D01*
X0132290Y0123243D01*
X0136107Y0127060D01*
X0137946Y0125221D01*
G37*
G36*
X0135719Y0127448D02*
X0131902Y0123631D01*
X0130063Y0125470D01*
X0133880Y0129287D01*
X0135719Y0127448D01*
G37*
G36*
X0133491Y0129675D02*
X0129674Y0125858D01*
X0127835Y0127697D01*
X0131652Y0131514D01*
X0133491Y0129675D01*
G37*
G36*
X0131264Y0131902D02*
X0127447Y0128085D01*
X0125608Y0129924D01*
X0129425Y0133741D01*
X0131264Y0131902D01*
G37*
G36*
X0129037Y0134130D02*
X0125220Y0130313D01*
X0123381Y0132152D01*
X0127198Y0135969D01*
X0129037Y0134130D01*
G37*
G36*
X0126810Y0136357D02*
X0122993Y0132540D01*
X0121154Y0134379D01*
X0124971Y0138196D01*
X0126810Y0136357D01*
G37*
G36*
X0124583Y0138584D02*
X0120766Y0134767D01*
X0118927Y0136606D01*
X0122744Y0140423D01*
X0124583Y0138584D01*
G37*
G36*
X0155165Y0155803D02*
X0151348Y0151986D01*
X0149509Y0153825D01*
X0153326Y0157642D01*
X0155165Y0155803D01*
G37*
G36*
X0157392Y0153576D02*
X0153575Y0149759D01*
X0151736Y0151598D01*
X0155553Y0155415D01*
X0157392Y0153576D01*
G37*
G36*
X0159619Y0151348D02*
X0155802Y0147531D01*
X0153963Y0149370D01*
X0157780Y0153187D01*
X0159619Y0151348D01*
G37*
G36*
X0161846Y0149121D02*
X0158029Y0145304D01*
X0156190Y0147143D01*
X0160007Y0150960D01*
X0161846Y0149121D01*
G37*
G36*
X0164073Y0146894D02*
X0160256Y0143077D01*
X0158417Y0144916D01*
X0162234Y0148733D01*
X0164073Y0146894D01*
G37*
G36*
X0152937Y0158030D02*
X0149120Y0154213D01*
X0147281Y0156052D01*
X0151098Y0159869D01*
X0152937Y0158030D01*
G37*
G36*
X0150710Y0160257D02*
X0146893Y0156440D01*
X0145054Y0158279D01*
X0148871Y0162096D01*
X0150710Y0160257D01*
G37*
G36*
X0148483Y0162484D02*
X0144666Y0158667D01*
X0142827Y0160506D01*
X0146644Y0164323D01*
X0148483Y0162484D01*
G37*
D34*
G36*
X0140173Y0160506D02*
X0138334Y0158667D01*
X0134517Y0162484D01*
X0136356Y0164323D01*
X0140173Y0160506D01*
G37*
G36*
X0137946Y0158279D02*
X0136107Y0156440D01*
X0132290Y0160257D01*
X0134129Y0162096D01*
X0137946Y0158279D01*
G37*
G36*
X0135719Y0156052D02*
X0133880Y0154213D01*
X0130063Y0158030D01*
X0131902Y0159869D01*
X0135719Y0156052D01*
G37*
G36*
X0133491Y0153825D02*
X0131652Y0151986D01*
X0127835Y0155803D01*
X0129674Y0157642D01*
X0133491Y0153825D01*
G37*
G36*
X0131264Y0151598D02*
X0129425Y0149759D01*
X0125608Y0153576D01*
X0127447Y0155415D01*
X0131264Y0151598D01*
G37*
G36*
X0129037Y0149370D02*
X0127198Y0147531D01*
X0123381Y0151348D01*
X0125220Y0153187D01*
X0129037Y0149370D01*
G37*
G36*
X0126810Y0147143D02*
X0124971Y0145304D01*
X0121154Y0149121D01*
X0122993Y0150960D01*
X0126810Y0147143D01*
G37*
G36*
X0124583Y0144916D02*
X0122744Y0143077D01*
X0118927Y0146894D01*
X0120766Y0148733D01*
X0124583Y0144916D01*
G37*
G36*
X0155165Y0127697D02*
X0153326Y0125858D01*
X0149509Y0129675D01*
X0151348Y0131514D01*
X0155165Y0127697D01*
G37*
G36*
X0152937Y0125470D02*
X0151098Y0123631D01*
X0147281Y0127448D01*
X0149120Y0129287D01*
X0152937Y0125470D01*
G37*
G36*
X0150710Y0123243D02*
X0148871Y0121404D01*
X0145054Y0125221D01*
X0146893Y0127060D01*
X0150710Y0123243D01*
G37*
G36*
X0148483Y0121016D02*
X0146644Y0119177D01*
X0142827Y0122994D01*
X0144666Y0124833D01*
X0148483Y0121016D01*
G37*
G36*
X0157392Y0129924D02*
X0155553Y0128085D01*
X0151736Y0131902D01*
X0153575Y0133741D01*
X0157392Y0129924D01*
G37*
G36*
X0159619Y0132152D02*
X0157780Y0130313D01*
X0153963Y0134130D01*
X0155802Y0135969D01*
X0159619Y0132152D01*
G37*
G36*
X0161846Y0134379D02*
X0160007Y0132540D01*
X0156190Y0136357D01*
X0158029Y0138196D01*
X0161846Y0134379D01*
G37*
G36*
X0164073Y0136606D02*
X0162234Y0134767D01*
X0158417Y0138584D01*
X0160256Y0140423D01*
X0164073Y0136606D01*
G37*
D35*
X0195250Y0145250D03*
X0238500Y0145250D03*
X0238500Y0118250D03*
X0195250Y0118250D03*
D36*
X0276500Y0121907D03*
X0276500Y0141593D03*
D37*
G36*
X0261815Y0030648D02*
X0256522Y0025355D01*
X0245105Y0036772D01*
X0250398Y0042065D01*
X0261815Y0030648D01*
G37*
G36*
X0247895Y0016728D02*
X0242602Y0011435D01*
X0231185Y0022852D01*
X0236478Y0028145D01*
X0247895Y0016728D01*
G37*
M02*
