G75*
%MOIN*%
%OFA0B0*%
%FSLAX24Y24*%
%IPPOS*%
%LPD*%
%AMOC8*
5,1,8,0,0,1.08239X$1,22.5*
%
%ADD10C,0.0040*%
%ADD11C,0.0080*%
%ADD12C,0.0000*%
%ADD13C,0.0050*%
%ADD14R,0.0089X0.0089*%
%ADD15R,0.0300X0.0340*%
%ADD16C,0.0060*%
%ADD17C,0.0020*%
D10*
X016773Y009620D02*
X016773Y010080D01*
X016620Y010080D02*
X016927Y010080D01*
X017080Y010004D02*
X017157Y010080D01*
X017311Y010080D01*
X017387Y010004D01*
X017387Y009697D01*
X017311Y009620D01*
X017157Y009620D01*
X017080Y009697D01*
X017080Y010004D01*
X017234Y009773D02*
X017387Y009620D01*
X017541Y009620D02*
X017541Y010080D01*
X017848Y010080D01*
X018001Y010080D02*
X018231Y010080D01*
X018308Y010004D01*
X018308Y009850D01*
X018231Y009773D01*
X018001Y009773D01*
X018001Y009620D02*
X018001Y010080D01*
X017694Y009850D02*
X017541Y009850D01*
X018462Y009927D02*
X018615Y010080D01*
X018615Y009620D01*
X018462Y009620D02*
X018768Y009620D01*
X018922Y009697D02*
X018999Y009620D01*
X019152Y009620D01*
X019229Y009697D01*
X019229Y010004D01*
X018922Y009697D01*
X018922Y010004D01*
X018999Y010080D01*
X019152Y010080D01*
X019229Y010004D01*
X019382Y010004D02*
X019382Y009697D01*
X019689Y010004D01*
X019689Y009697D01*
X019613Y009620D01*
X019459Y009620D01*
X019382Y009697D01*
X019382Y010004D02*
X019459Y010080D01*
X019613Y010080D01*
X019689Y010004D01*
X023620Y010004D02*
X023620Y009697D01*
X023697Y009620D01*
X023850Y009620D01*
X023927Y009697D01*
X023927Y010004D01*
X023850Y010080D01*
X023697Y010080D01*
X023620Y010004D01*
X023773Y009773D02*
X023927Y009620D01*
X024080Y009620D02*
X024080Y010080D01*
X024387Y010080D01*
X024541Y010080D02*
X024848Y009620D01*
X024848Y010080D01*
X025001Y009850D02*
X025308Y009850D01*
X025462Y009697D02*
X025538Y009620D01*
X025692Y009620D01*
X025768Y009697D01*
X025768Y009773D01*
X025692Y009850D01*
X025615Y009850D01*
X025692Y009850D02*
X025768Y009927D01*
X025768Y010004D01*
X025692Y010080D01*
X025538Y010080D01*
X025462Y010004D01*
X025922Y010004D02*
X025999Y010080D01*
X026152Y010080D01*
X026229Y010004D01*
X026229Y009927D01*
X025922Y009620D01*
X026229Y009620D01*
X024541Y009620D02*
X024541Y010080D01*
X024234Y009850D02*
X024080Y009850D01*
X028620Y010080D02*
X028927Y010080D01*
X028773Y010080D02*
X028773Y009620D01*
X029080Y009697D02*
X029157Y009620D01*
X029311Y009620D01*
X029387Y009697D01*
X029387Y009773D01*
X029311Y009850D01*
X029157Y009850D01*
X029080Y009927D01*
X029080Y010004D01*
X029157Y010080D01*
X029311Y010080D01*
X029387Y010004D01*
X029541Y010004D02*
X029541Y009927D01*
X029618Y009850D01*
X029771Y009850D01*
X029848Y009773D01*
X029848Y009697D01*
X029771Y009620D01*
X029618Y009620D01*
X029541Y009697D01*
X029541Y010004D02*
X029618Y010080D01*
X029771Y010080D01*
X029848Y010004D01*
X030001Y010004D02*
X030001Y009697D01*
X030078Y009620D01*
X030231Y009620D01*
X030308Y009697D01*
X030308Y010004D01*
X030231Y010080D01*
X030078Y010080D01*
X030001Y010004D01*
X030462Y010080D02*
X030692Y010080D01*
X030768Y010004D01*
X030768Y009850D01*
X030692Y009773D01*
X030462Y009773D01*
X030462Y009620D02*
X030462Y010080D01*
X030922Y009850D02*
X031229Y009850D01*
X031382Y010004D02*
X031459Y010080D01*
X031613Y010080D01*
X031689Y010004D01*
X031689Y009927D01*
X031382Y009620D01*
X031689Y009620D01*
X031843Y009697D02*
X031919Y009620D01*
X032073Y009620D01*
X032150Y009697D01*
X032150Y010004D01*
X031843Y009697D01*
X031843Y010004D01*
X031919Y010080D01*
X032073Y010080D01*
X032150Y010004D01*
X030080Y012120D02*
X030080Y012427D01*
X030080Y012273D02*
X029620Y012273D01*
X029773Y012120D01*
X026580Y013120D02*
X026580Y013427D01*
X026580Y013273D02*
X026120Y013273D01*
X026273Y013120D01*
X026311Y016120D02*
X026387Y016197D01*
X026387Y016504D01*
X026311Y016580D01*
X026157Y016580D01*
X026080Y016504D01*
X026080Y016197D01*
X026157Y016120D01*
X026311Y016120D01*
X026541Y016120D02*
X026541Y016580D01*
X026771Y016580D01*
X026848Y016504D01*
X026848Y016350D01*
X026771Y016273D01*
X026541Y016273D01*
X027001Y016350D02*
X027308Y016350D01*
X027462Y016197D02*
X027538Y016120D01*
X027692Y016120D01*
X027768Y016197D01*
X027768Y016504D01*
X027462Y016197D01*
X027462Y016504D01*
X027538Y016580D01*
X027692Y016580D01*
X027768Y016504D01*
X027922Y016504D02*
X027999Y016580D01*
X028152Y016580D01*
X028229Y016504D01*
X028229Y016427D01*
X028152Y016350D01*
X027999Y016350D01*
X027922Y016427D01*
X027922Y016504D01*
X027999Y016350D02*
X027922Y016273D01*
X027922Y016197D01*
X027999Y016120D01*
X028152Y016120D01*
X028229Y016197D01*
X028229Y016273D01*
X028152Y016350D01*
X030120Y016427D02*
X030197Y016350D01*
X030350Y016350D01*
X030427Y016273D01*
X030427Y016197D01*
X030350Y016120D01*
X030197Y016120D01*
X030120Y016197D01*
X030120Y016427D02*
X030120Y016504D01*
X030197Y016580D01*
X030350Y016580D01*
X030427Y016504D01*
X030580Y016504D02*
X030580Y016197D01*
X030657Y016120D01*
X030811Y016120D01*
X030887Y016197D01*
X030887Y016504D01*
X030811Y016580D01*
X030657Y016580D01*
X030580Y016504D01*
X031041Y016580D02*
X031041Y016120D01*
X031041Y016273D02*
X031271Y016273D01*
X031348Y016350D01*
X031348Y016504D01*
X031271Y016580D01*
X031041Y016580D01*
X031501Y016350D02*
X031808Y016350D01*
X031962Y016427D02*
X032115Y016580D01*
X032115Y016120D01*
X031962Y016120D02*
X032268Y016120D01*
X032422Y016197D02*
X032499Y016120D01*
X032652Y016120D01*
X032729Y016197D01*
X032729Y016273D01*
X032652Y016350D01*
X032422Y016350D01*
X032422Y016197D01*
X032422Y016350D02*
X032575Y016504D01*
X032729Y016580D01*
X025927Y016504D02*
X025850Y016580D01*
X025697Y016580D01*
X025620Y016504D01*
X025620Y016427D01*
X025697Y016350D01*
X025850Y016350D01*
X025927Y016273D01*
X025927Y016197D01*
X025850Y016120D01*
X025697Y016120D01*
X025620Y016197D01*
X024189Y016197D02*
X024113Y016120D01*
X023959Y016120D01*
X023882Y016197D01*
X023882Y016273D01*
X023959Y016350D01*
X024113Y016350D01*
X024189Y016273D01*
X024189Y016197D01*
X024113Y016350D02*
X024189Y016427D01*
X024189Y016504D01*
X024113Y016580D01*
X023959Y016580D01*
X023882Y016504D01*
X023882Y016427D01*
X023959Y016350D01*
X023729Y016350D02*
X023422Y016350D01*
X023652Y016580D01*
X023652Y016120D01*
X023268Y016350D02*
X022962Y016350D01*
X022808Y016350D02*
X022808Y016504D01*
X022731Y016580D01*
X022501Y016580D01*
X022501Y016120D01*
X022501Y016273D02*
X022731Y016273D01*
X022808Y016350D01*
X022194Y016350D02*
X022041Y016350D01*
X021887Y016197D02*
X021811Y016120D01*
X021657Y016120D01*
X021580Y016197D01*
X021580Y016504D01*
X021657Y016580D01*
X021811Y016580D01*
X021887Y016504D01*
X021887Y016197D01*
X021887Y016120D02*
X021734Y016273D01*
X022041Y016120D02*
X022041Y016580D01*
X022348Y016580D01*
X021427Y016580D02*
X021120Y016580D01*
X021273Y016580D02*
X021273Y016120D01*
X019189Y016120D02*
X018882Y016120D01*
X019189Y016427D01*
X019189Y016504D01*
X019113Y016580D01*
X018959Y016580D01*
X018882Y016504D01*
X018729Y016504D02*
X018729Y016427D01*
X018652Y016350D01*
X018729Y016273D01*
X018729Y016197D01*
X018652Y016120D01*
X018499Y016120D01*
X018422Y016197D01*
X018575Y016350D02*
X018652Y016350D01*
X018729Y016504D02*
X018652Y016580D01*
X018499Y016580D01*
X018422Y016504D01*
X018268Y016350D02*
X017962Y016350D01*
X017808Y016350D02*
X017808Y016504D01*
X017731Y016580D01*
X017501Y016580D01*
X017501Y016120D01*
X017501Y016273D02*
X017731Y016273D01*
X017808Y016350D01*
X017348Y016580D02*
X017041Y016580D01*
X017041Y016120D01*
X016887Y016120D02*
X016734Y016273D01*
X016887Y016197D02*
X016811Y016120D01*
X016657Y016120D01*
X016580Y016197D01*
X016580Y016504D01*
X016657Y016580D01*
X016811Y016580D01*
X016887Y016504D01*
X016887Y016197D01*
X017041Y016350D02*
X017194Y016350D01*
X016427Y016580D02*
X016120Y016580D01*
X016273Y016580D02*
X016273Y016120D01*
X016766Y017467D02*
X016766Y017927D01*
X016996Y017927D01*
X017073Y017850D01*
X017073Y017697D01*
X016996Y017620D01*
X016766Y017620D01*
X016613Y017697D02*
X016613Y017850D01*
X016536Y017927D01*
X016382Y017927D01*
X016306Y017850D01*
X016306Y017697D01*
X016382Y017620D01*
X016536Y017620D01*
X016613Y017697D01*
X017226Y017697D02*
X017226Y017850D01*
X017303Y017927D01*
X017457Y017927D01*
X017533Y017850D01*
X017533Y017773D01*
X017226Y017773D01*
X017226Y017697D02*
X017303Y017620D01*
X017457Y017620D01*
X017687Y017620D02*
X017687Y017927D01*
X017917Y017927D01*
X017994Y017850D01*
X017994Y017620D01*
X018147Y017620D02*
X018377Y017620D01*
X018454Y017697D01*
X018454Y017850D01*
X018377Y017927D01*
X018147Y017927D01*
X018147Y017467D01*
X018608Y017620D02*
X018608Y017927D01*
X018838Y017927D01*
X018915Y017850D01*
X018915Y017620D01*
X019068Y017620D02*
X019298Y017620D01*
X019375Y017697D01*
X019375Y017850D01*
X019298Y017927D01*
X019068Y017927D01*
X019068Y017467D01*
X019528Y017620D02*
X019605Y017620D01*
X019605Y017697D01*
X019528Y017697D01*
X019528Y017620D01*
X019759Y017697D02*
X019759Y017850D01*
X019835Y017927D01*
X019989Y017927D01*
X020065Y017850D01*
X020065Y017697D01*
X019989Y017620D01*
X019835Y017620D01*
X019759Y017697D01*
X020219Y017773D02*
X020372Y017927D01*
X020449Y017927D01*
X020603Y017850D02*
X020603Y017697D01*
X020679Y017620D01*
X020910Y017620D01*
X020910Y017543D02*
X020910Y017927D01*
X020679Y017927D01*
X020603Y017850D01*
X020219Y017927D02*
X020219Y017620D01*
X020756Y017467D02*
X020833Y017467D01*
X020910Y017543D01*
X016152Y018080D02*
X015845Y017620D01*
X015385Y017620D02*
X015692Y018080D01*
X015231Y017927D02*
X015231Y017850D01*
X015155Y017850D01*
X015155Y017927D01*
X015231Y017927D01*
X015231Y017697D02*
X015231Y017620D01*
X015155Y017620D01*
X015155Y017697D01*
X015231Y017697D01*
X015001Y017697D02*
X015001Y017850D01*
X014924Y017927D01*
X014694Y017927D01*
X014694Y017467D01*
X014694Y017620D02*
X014924Y017620D01*
X015001Y017697D01*
X014541Y017620D02*
X014464Y017697D01*
X014464Y018004D01*
X014387Y017927D02*
X014541Y017927D01*
X014234Y017927D02*
X014080Y017927D01*
X014157Y018004D02*
X014157Y017697D01*
X014234Y017620D01*
X013927Y017620D02*
X013927Y017850D01*
X013850Y017927D01*
X013697Y017927D01*
X013620Y017850D01*
X013620Y018080D02*
X013620Y017620D01*
X010689Y019120D02*
X010382Y019120D01*
X010689Y019427D01*
X010689Y019504D01*
X010613Y019580D01*
X010459Y019580D01*
X010382Y019504D01*
X010229Y019580D02*
X009922Y019580D01*
X009922Y019350D01*
X010075Y019427D01*
X010152Y019427D01*
X010229Y019350D01*
X010229Y019197D01*
X010152Y019120D01*
X009999Y019120D01*
X009922Y019197D01*
X009768Y019120D02*
X009462Y019120D01*
X009768Y019427D01*
X009768Y019504D01*
X009692Y019580D01*
X009538Y019580D01*
X009462Y019504D01*
X009308Y019350D02*
X009001Y019350D01*
X008848Y019580D02*
X008541Y019580D01*
X008694Y019580D02*
X008694Y019120D01*
X008387Y019197D02*
X008387Y019504D01*
X008311Y019580D01*
X008157Y019580D01*
X008080Y019504D01*
X008080Y019197D01*
X008157Y019120D01*
X008311Y019120D01*
X008387Y019197D01*
X007927Y019197D02*
X007850Y019120D01*
X007697Y019120D01*
X007620Y019197D01*
X007697Y019350D02*
X007850Y019350D01*
X007927Y019273D01*
X007927Y019197D01*
X007697Y019350D02*
X007620Y019427D01*
X007620Y019504D01*
X007697Y019580D01*
X007850Y019580D01*
X007927Y019504D01*
X006189Y019504D02*
X006189Y019427D01*
X006113Y019350D01*
X006189Y019273D01*
X006189Y019197D01*
X006113Y019120D01*
X005959Y019120D01*
X005882Y019197D01*
X005729Y019120D02*
X005422Y019120D01*
X005729Y019427D01*
X005729Y019504D01*
X005652Y019580D01*
X005499Y019580D01*
X005422Y019504D01*
X005268Y019504D02*
X005192Y019580D01*
X005038Y019580D01*
X004962Y019504D01*
X004808Y019350D02*
X004501Y019350D01*
X004348Y019580D02*
X004041Y019580D01*
X004194Y019580D02*
X004194Y019120D01*
X003887Y019197D02*
X003887Y019504D01*
X003811Y019580D01*
X003657Y019580D01*
X003580Y019504D01*
X003580Y019197D01*
X003657Y019120D01*
X003811Y019120D01*
X003887Y019197D01*
X003427Y019197D02*
X003350Y019120D01*
X003197Y019120D01*
X003120Y019197D01*
X003197Y019350D02*
X003120Y019427D01*
X003120Y019504D01*
X003197Y019580D01*
X003350Y019580D01*
X003427Y019504D01*
X003350Y019350D02*
X003427Y019273D01*
X003427Y019197D01*
X003350Y019350D02*
X003197Y019350D01*
X004962Y019120D02*
X005268Y019427D01*
X005268Y019504D01*
X005268Y019120D02*
X004962Y019120D01*
X005882Y019504D02*
X005959Y019580D01*
X006113Y019580D01*
X006189Y019504D01*
X006113Y019350D02*
X006036Y019350D01*
X006118Y014580D02*
X006271Y014580D01*
X006348Y014504D01*
X006041Y014197D01*
X006118Y014120D01*
X006271Y014120D01*
X006348Y014197D01*
X006348Y014504D01*
X006501Y014504D02*
X006578Y014580D01*
X006731Y014580D01*
X006808Y014504D01*
X006808Y014427D01*
X006731Y014350D01*
X006808Y014273D01*
X006808Y014197D01*
X006731Y014120D01*
X006578Y014120D01*
X006501Y014197D01*
X006655Y014350D02*
X006731Y014350D01*
X006118Y014580D02*
X006041Y014504D01*
X006041Y014197D01*
X005887Y014197D02*
X005811Y014120D01*
X005657Y014120D01*
X005580Y014197D01*
X005580Y014350D01*
X005811Y014350D01*
X005887Y014273D01*
X005887Y014197D01*
X005734Y014504D02*
X005580Y014350D01*
X005427Y014197D02*
X005427Y014504D01*
X005120Y014197D01*
X005197Y014120D01*
X005350Y014120D01*
X005427Y014197D01*
X005427Y014504D02*
X005350Y014580D01*
X005197Y014580D01*
X005120Y014504D01*
X005120Y014197D01*
X005734Y014504D02*
X005887Y014580D01*
X004308Y014504D02*
X004231Y014580D01*
X004078Y014580D01*
X004001Y014504D01*
X003848Y014504D02*
X003541Y014197D01*
X003618Y014120D01*
X003771Y014120D01*
X003848Y014197D01*
X003848Y014504D01*
X003771Y014580D01*
X003618Y014580D01*
X003541Y014504D01*
X003541Y014197D01*
X003387Y014350D02*
X003080Y014350D01*
X003311Y014580D01*
X003311Y014120D01*
X002927Y014197D02*
X002850Y014120D01*
X002697Y014120D01*
X002620Y014197D01*
X002927Y014504D01*
X002927Y014197D01*
X002927Y014504D02*
X002850Y014580D01*
X002697Y014580D01*
X002620Y014504D01*
X002620Y014197D01*
X004001Y014120D02*
X004308Y014427D01*
X004308Y014504D01*
X004308Y014120D02*
X004001Y014120D01*
X007620Y014197D02*
X007697Y014120D01*
X007850Y014120D01*
X007927Y014197D01*
X007927Y014504D01*
X007620Y014197D01*
X007620Y014504D01*
X007697Y014580D01*
X007850Y014580D01*
X007927Y014504D01*
X008080Y014504D02*
X008080Y014427D01*
X008157Y014350D01*
X008311Y014350D01*
X008387Y014273D01*
X008387Y014197D01*
X008311Y014120D01*
X008157Y014120D01*
X008080Y014197D01*
X008080Y014273D01*
X008157Y014350D01*
X008311Y014350D02*
X008387Y014427D01*
X008387Y014504D01*
X008311Y014580D01*
X008157Y014580D01*
X008080Y014504D01*
X008541Y014504D02*
X008541Y014197D01*
X008848Y014504D01*
X008848Y014197D01*
X008771Y014120D01*
X008618Y014120D01*
X008541Y014197D01*
X008541Y014504D02*
X008618Y014580D01*
X008771Y014580D01*
X008848Y014504D01*
X009001Y014580D02*
X009001Y014350D01*
X009155Y014427D01*
X009231Y014427D01*
X009308Y014350D01*
X009308Y014197D01*
X009231Y014120D01*
X009078Y014120D01*
X009001Y014197D01*
X009001Y014580D02*
X009308Y014580D01*
X010120Y014427D02*
X010273Y014580D01*
X010273Y014120D01*
X010120Y014120D02*
X010427Y014120D01*
X010580Y014120D02*
X010887Y014427D01*
X010887Y014504D01*
X010811Y014580D01*
X010657Y014580D01*
X010580Y014504D01*
X011041Y014504D02*
X011041Y014197D01*
X011348Y014504D01*
X011348Y014197D01*
X011271Y014120D01*
X011118Y014120D01*
X011041Y014197D01*
X010887Y014120D02*
X010580Y014120D01*
X011041Y014504D02*
X011118Y014580D01*
X011271Y014580D01*
X011348Y014504D01*
X011501Y014350D02*
X011731Y014350D01*
X011808Y014273D01*
X011808Y014197D01*
X011731Y014120D01*
X011578Y014120D01*
X011501Y014197D01*
X011501Y014350D01*
X011655Y014504D01*
X011808Y014580D01*
X023620Y005580D02*
X023620Y005350D01*
X023773Y005427D01*
X023850Y005427D01*
X023927Y005350D01*
X023927Y005197D01*
X023850Y005120D01*
X023697Y005120D01*
X023620Y005197D01*
X024080Y005197D02*
X024387Y005504D01*
X024387Y005197D01*
X024311Y005120D01*
X024157Y005120D01*
X024080Y005197D01*
X024080Y005504D01*
X024157Y005580D01*
X024311Y005580D01*
X024387Y005504D01*
X024541Y005580D02*
X024541Y005350D01*
X024694Y005427D01*
X024771Y005427D01*
X024848Y005350D01*
X024848Y005197D01*
X024771Y005120D01*
X024618Y005120D01*
X024541Y005197D01*
X024541Y005580D02*
X024848Y005580D01*
X025001Y005504D02*
X025078Y005580D01*
X025231Y005580D01*
X025308Y005504D01*
X025001Y005197D01*
X025078Y005120D01*
X025231Y005120D01*
X025308Y005197D01*
X025308Y005504D01*
X025001Y005504D02*
X025001Y005197D01*
X023927Y005580D02*
X023620Y005580D01*
X029120Y003504D02*
X029120Y003427D01*
X029197Y003350D01*
X029350Y003350D01*
X029427Y003273D01*
X029427Y003197D01*
X029350Y003120D01*
X029197Y003120D01*
X029120Y003197D01*
X029120Y003504D02*
X029197Y003580D01*
X029350Y003580D01*
X029427Y003504D01*
X029580Y003504D02*
X029580Y003197D01*
X029657Y003120D01*
X029811Y003120D01*
X029887Y003197D01*
X029887Y003504D01*
X029811Y003580D01*
X029657Y003580D01*
X029580Y003504D01*
X030041Y003580D02*
X030348Y003580D01*
X030194Y003580D02*
X030194Y003120D01*
X030501Y003120D02*
X030808Y003427D01*
X030808Y003504D01*
X030731Y003580D01*
X030578Y003580D01*
X030501Y003504D01*
X030962Y003504D02*
X031038Y003580D01*
X031192Y003580D01*
X031268Y003504D01*
X031268Y003427D01*
X031192Y003350D01*
X031268Y003273D01*
X031268Y003197D01*
X031192Y003120D01*
X031038Y003120D01*
X030962Y003197D01*
X030808Y003120D02*
X030501Y003120D01*
X031115Y003350D02*
X031192Y003350D01*
D11*
X025600Y003280D02*
X025600Y003950D01*
X025588Y004513D02*
X025588Y004620D01*
X025568Y004620D01*
X025568Y004621D01*
X023612Y004621D01*
X023612Y004532D01*
X023600Y003600D02*
X024600Y004600D01*
X023600Y003940D02*
X023600Y003600D01*
X023600Y003260D01*
X023611Y002663D02*
X023611Y002572D01*
X025560Y002572D01*
X025560Y002570D01*
X025580Y002570D01*
X025580Y002670D01*
X010450Y015810D02*
X008090Y015810D01*
X005890Y016450D02*
X003310Y016450D01*
X003310Y017750D01*
X005890Y017750D01*
X005890Y016450D01*
X008090Y018390D02*
X010450Y018390D01*
X010450Y015810D01*
X014561Y018333D02*
X014561Y019254D01*
X015021Y019254D01*
X015175Y019100D01*
X015175Y018793D01*
X015021Y018640D01*
X014561Y018640D01*
X014254Y018793D02*
X014254Y019407D01*
X014100Y019561D01*
X013793Y019561D01*
X013640Y019407D01*
X013640Y018793D01*
X013793Y018640D01*
X014100Y018640D01*
X014254Y018793D01*
X015482Y018793D02*
X015482Y019100D01*
X015635Y019254D01*
X015942Y019254D01*
X016095Y019100D01*
X016095Y018947D01*
X015482Y018947D01*
X015482Y018793D02*
X015635Y018640D01*
X015942Y018640D01*
X016402Y018640D02*
X016402Y019254D01*
X016863Y019254D01*
X017016Y019100D01*
X017016Y018640D01*
X017323Y018640D02*
X017323Y019561D01*
X017784Y019561D01*
X017937Y019407D01*
X017937Y019100D01*
X017784Y018947D01*
X017323Y018947D01*
X018244Y019254D02*
X018704Y019254D01*
X018858Y019100D01*
X018858Y018640D01*
X019165Y018640D02*
X019165Y019561D01*
X019625Y019561D01*
X019779Y019407D01*
X019779Y019100D01*
X019625Y018947D01*
X019165Y018947D01*
X018244Y018640D02*
X018244Y019254D01*
X021006Y019561D02*
X021006Y018640D01*
X021467Y018640D01*
X021620Y018793D01*
X021620Y019407D01*
X021467Y019561D01*
X021006Y019561D01*
X021927Y019100D02*
X021927Y018793D01*
X022081Y018640D01*
X022387Y018640D01*
X022541Y018947D02*
X021927Y018947D01*
X021927Y019100D02*
X022081Y019254D01*
X022387Y019254D01*
X022541Y019100D01*
X022541Y018947D01*
X022848Y018640D02*
X022848Y019254D01*
X023001Y019254D01*
X023155Y019100D01*
X023308Y019254D01*
X023462Y019100D01*
X023462Y018640D01*
X023155Y018640D02*
X023155Y019100D01*
X023769Y019100D02*
X023769Y018793D01*
X023922Y018640D01*
X024229Y018640D01*
X024383Y018793D01*
X024383Y019100D01*
X024229Y019254D01*
X023922Y019254D01*
X023769Y019100D01*
X025610Y019100D02*
X026071Y019100D01*
X026224Y018947D01*
X026224Y018793D01*
X026071Y018640D01*
X025610Y018640D01*
X025610Y019561D01*
X026071Y019561D01*
X026224Y019407D01*
X026224Y019254D01*
X026071Y019100D01*
X026531Y019100D02*
X026531Y018793D01*
X026684Y018640D01*
X026991Y018640D01*
X027145Y018793D01*
X027145Y019100D01*
X026991Y019254D01*
X026684Y019254D01*
X026531Y019100D01*
X027452Y018793D02*
X027605Y018947D01*
X028066Y018947D01*
X028066Y019100D02*
X028066Y018640D01*
X027605Y018640D01*
X027452Y018793D01*
X027605Y019254D02*
X027912Y019254D01*
X028066Y019100D01*
X028373Y018947D02*
X028680Y019254D01*
X028833Y019254D01*
X029140Y019100D02*
X029293Y019254D01*
X029754Y019254D01*
X029754Y019561D02*
X029754Y018640D01*
X029293Y018640D01*
X029140Y018793D01*
X029140Y019100D01*
X028373Y019254D02*
X028373Y018640D01*
X030981Y019254D02*
X031288Y018640D01*
X031595Y019254D01*
X031902Y019254D02*
X032209Y019561D01*
X032209Y018640D01*
X031902Y018640D02*
X032516Y018640D01*
D12*
X033850Y000100D02*
X001350Y000100D01*
X001282Y000102D01*
X001215Y000107D01*
X001148Y000116D01*
X001081Y000129D01*
X001016Y000146D01*
X000951Y000165D01*
X000887Y000189D01*
X000825Y000216D01*
X000764Y000246D01*
X000706Y000279D01*
X000649Y000315D01*
X000594Y000355D01*
X000541Y000397D01*
X000490Y000443D01*
X000443Y000490D01*
X000397Y000541D01*
X000355Y000594D01*
X000315Y000649D01*
X000279Y000706D01*
X000246Y000764D01*
X000216Y000825D01*
X000189Y000887D01*
X000165Y000951D01*
X000146Y001016D01*
X000129Y001081D01*
X000116Y001148D01*
X000107Y001215D01*
X000102Y001282D01*
X000100Y001350D01*
X000100Y018850D01*
X000102Y018918D01*
X000107Y018985D01*
X000116Y019052D01*
X000129Y019119D01*
X000146Y019184D01*
X000165Y019249D01*
X000189Y019313D01*
X000216Y019375D01*
X000246Y019436D01*
X000279Y019494D01*
X000315Y019551D01*
X000355Y019606D01*
X000397Y019659D01*
X000443Y019710D01*
X000490Y019757D01*
X000541Y019803D01*
X000594Y019845D01*
X000649Y019885D01*
X000706Y019921D01*
X000764Y019954D01*
X000825Y019984D01*
X000887Y020011D01*
X000951Y020035D01*
X001016Y020054D01*
X001081Y020071D01*
X001148Y020084D01*
X001215Y020093D01*
X001282Y020098D01*
X001350Y020100D01*
X033850Y020100D01*
X033918Y020098D01*
X033985Y020093D01*
X034052Y020084D01*
X034119Y020071D01*
X034184Y020054D01*
X034249Y020035D01*
X034313Y020011D01*
X034375Y019984D01*
X034436Y019954D01*
X034494Y019921D01*
X034551Y019885D01*
X034606Y019845D01*
X034659Y019803D01*
X034710Y019757D01*
X034757Y019710D01*
X034803Y019659D01*
X034845Y019606D01*
X034885Y019551D01*
X034921Y019494D01*
X034954Y019436D01*
X034984Y019375D01*
X035011Y019313D01*
X035035Y019249D01*
X035054Y019184D01*
X035071Y019119D01*
X035084Y019052D01*
X035093Y018985D01*
X035098Y018918D01*
X035100Y018850D01*
X035100Y001350D01*
X035098Y001282D01*
X035093Y001215D01*
X035084Y001148D01*
X035071Y001081D01*
X035054Y001016D01*
X035035Y000951D01*
X035011Y000887D01*
X034984Y000825D01*
X034954Y000764D01*
X034921Y000706D01*
X034885Y000649D01*
X034845Y000594D01*
X034803Y000541D01*
X034757Y000490D01*
X034710Y000443D01*
X034659Y000397D01*
X034606Y000355D01*
X034551Y000315D01*
X034494Y000279D01*
X034436Y000246D01*
X034375Y000216D01*
X034313Y000189D01*
X034249Y000165D01*
X034184Y000146D01*
X034119Y000129D01*
X034052Y000116D01*
X033985Y000107D01*
X033918Y000102D01*
X033850Y000100D01*
D13*
X025565Y006635D02*
X025565Y006813D01*
X025565Y006635D02*
X025387Y006635D01*
X023813Y006635D02*
X023635Y006635D01*
X023635Y006813D01*
X023635Y008387D02*
X023635Y008565D01*
X023813Y008565D01*
X025387Y008565D02*
X025565Y008565D01*
X025565Y008387D01*
D14*
X023867Y008333D03*
D15*
X010640Y017100D03*
D16*
X016220Y014840D02*
X016360Y014980D01*
X018980Y014980D01*
X018980Y012220D01*
X016220Y012220D01*
X016220Y014840D01*
X016379Y014680D02*
X016381Y014703D01*
X016387Y014726D01*
X016396Y014747D01*
X016409Y014767D01*
X016425Y014784D01*
X016443Y014798D01*
X016463Y014809D01*
X016485Y014817D01*
X016508Y014821D01*
X016532Y014821D01*
X016555Y014817D01*
X016577Y014809D01*
X016597Y014798D01*
X016615Y014784D01*
X016631Y014767D01*
X016644Y014747D01*
X016653Y014726D01*
X016659Y014703D01*
X016661Y014680D01*
X016659Y014657D01*
X016653Y014634D01*
X016644Y014613D01*
X016631Y014593D01*
X016615Y014576D01*
X016597Y014562D01*
X016577Y014551D01*
X016555Y014543D01*
X016532Y014539D01*
X016508Y014539D01*
X016485Y014543D01*
X016463Y014551D01*
X016443Y014562D01*
X016425Y014576D01*
X016409Y014593D01*
X016396Y014613D01*
X016387Y014634D01*
X016381Y014657D01*
X016379Y014680D01*
X021272Y014731D02*
X021272Y012469D01*
X021469Y012272D01*
X023731Y012272D01*
X023928Y012469D01*
X023928Y014731D01*
X023731Y014928D01*
X021469Y014928D01*
X021272Y014731D01*
X021419Y014584D02*
X021421Y014611D01*
X021427Y014638D01*
X021436Y014664D01*
X021449Y014688D01*
X021465Y014711D01*
X021484Y014730D01*
X021506Y014747D01*
X021530Y014761D01*
X021555Y014771D01*
X021582Y014778D01*
X021609Y014781D01*
X021637Y014780D01*
X021664Y014775D01*
X021690Y014767D01*
X021714Y014755D01*
X021737Y014739D01*
X021758Y014721D01*
X021775Y014700D01*
X021790Y014676D01*
X021801Y014651D01*
X021809Y014625D01*
X021813Y014598D01*
X021813Y014570D01*
X021809Y014543D01*
X021801Y014517D01*
X021790Y014492D01*
X021775Y014468D01*
X021758Y014447D01*
X021737Y014429D01*
X021715Y014413D01*
X021690Y014401D01*
X021664Y014393D01*
X021637Y014388D01*
X021609Y014387D01*
X021582Y014390D01*
X021555Y014397D01*
X021530Y014407D01*
X021506Y014421D01*
X021484Y014438D01*
X021465Y014457D01*
X021449Y014480D01*
X021436Y014504D01*
X021427Y014530D01*
X021421Y014557D01*
X021419Y014584D01*
X028854Y008499D02*
X028854Y006701D01*
X031346Y006701D01*
X031346Y008499D01*
X028854Y008499D01*
X029024Y007120D02*
X029026Y007146D01*
X029032Y007172D01*
X029041Y007196D01*
X029054Y007219D01*
X029070Y007240D01*
X029089Y007258D01*
X029110Y007274D01*
X029134Y007286D01*
X029158Y007294D01*
X029184Y007299D01*
X029211Y007300D01*
X029237Y007297D01*
X029262Y007290D01*
X029286Y007280D01*
X029309Y007266D01*
X029329Y007250D01*
X029346Y007230D01*
X029361Y007208D01*
X029372Y007184D01*
X029380Y007159D01*
X029384Y007133D01*
X029384Y007107D01*
X029380Y007081D01*
X029372Y007056D01*
X029361Y007032D01*
X029346Y007010D01*
X029329Y006990D01*
X029309Y006974D01*
X029286Y006960D01*
X029262Y006950D01*
X029237Y006943D01*
X029211Y006940D01*
X029184Y006941D01*
X029158Y006946D01*
X029134Y006954D01*
X029110Y006966D01*
X029089Y006982D01*
X029070Y007000D01*
X029054Y007021D01*
X029041Y007044D01*
X029032Y007068D01*
X029026Y007094D01*
X029024Y007120D01*
X029540Y005468D02*
X029540Y005090D01*
X029851Y005090D01*
X030359Y005090D02*
X030660Y005090D01*
X030660Y005468D01*
X031345Y004705D02*
X031672Y004894D01*
X031345Y004705D02*
X031500Y004436D01*
X031754Y003996D02*
X031905Y003735D01*
X032232Y003924D01*
X031905Y002965D02*
X031749Y002696D01*
X031905Y002965D02*
X032232Y002776D01*
X031495Y002256D02*
X031345Y001995D01*
X031672Y001806D01*
X030660Y001610D02*
X030660Y001232D01*
X030660Y001610D02*
X030349Y001610D01*
X029841Y001610D02*
X029540Y001610D01*
X029540Y001232D01*
X028855Y001995D02*
X028528Y001806D01*
X028855Y001995D02*
X028700Y002264D01*
X028446Y002704D02*
X028295Y002965D01*
X027968Y002776D01*
X028295Y003735D02*
X028451Y004004D01*
X028295Y003735D02*
X027968Y003924D01*
X028705Y004444D02*
X028855Y004705D01*
X028528Y004894D01*
X020806Y002894D02*
X020806Y008011D01*
X020511Y008306D01*
X015394Y008306D01*
X015394Y002894D01*
X020806Y002894D01*
X019478Y007372D02*
X019480Y007411D01*
X019486Y007450D01*
X019496Y007488D01*
X019509Y007525D01*
X019526Y007560D01*
X019546Y007594D01*
X019570Y007625D01*
X019597Y007654D01*
X019626Y007680D01*
X019658Y007703D01*
X019692Y007723D01*
X019728Y007739D01*
X019765Y007751D01*
X019804Y007760D01*
X019843Y007765D01*
X019882Y007766D01*
X019921Y007763D01*
X019960Y007756D01*
X019997Y007745D01*
X020034Y007731D01*
X020069Y007713D01*
X020102Y007692D01*
X020133Y007667D01*
X020161Y007640D01*
X020186Y007610D01*
X020208Y007577D01*
X020227Y007543D01*
X020242Y007507D01*
X020254Y007469D01*
X020262Y007431D01*
X020266Y007392D01*
X020266Y007352D01*
X020262Y007313D01*
X020254Y007275D01*
X020242Y007237D01*
X020227Y007201D01*
X020208Y007167D01*
X020186Y007134D01*
X020161Y007104D01*
X020133Y007077D01*
X020102Y007052D01*
X020069Y007031D01*
X020034Y007013D01*
X019997Y006999D01*
X019960Y006988D01*
X019921Y006981D01*
X019882Y006978D01*
X019843Y006979D01*
X019804Y006984D01*
X019765Y006993D01*
X019728Y007005D01*
X019692Y007021D01*
X019658Y007041D01*
X019626Y007064D01*
X019597Y007090D01*
X019570Y007119D01*
X019546Y007150D01*
X019526Y007184D01*
X019509Y007219D01*
X019496Y007256D01*
X019486Y007294D01*
X019480Y007333D01*
X019478Y007372D01*
D17*
X028944Y006791D02*
X028944Y008409D01*
X031256Y008409D01*
X031256Y006791D01*
X028944Y006791D01*
M02*
