<?xml version="1.0" encoding="UTF-8" standalone="no"?>
<svg
   xmlns:sketch="http://www.bohemiancoding.com/sketch/ns"
   xmlns:dc="http://purl.org/dc/elements/1.1/"
   xmlns:cc="http://creativecommons.org/ns#"
   xmlns:rdf="http://www.w3.org/1999/02/22-rdf-syntax-ns#"
   xmlns:svg="http://www.w3.org/2000/svg"
   xmlns="http://www.w3.org/2000/svg"
   xmlns:sodipodi="http://sodipodi.sourceforge.net/DTD/sodipodi-0.dtd"
   xmlns:inkscape="http://www.inkscape.org/namespaces/inkscape"
   width="24px"
   height="24px"
   viewBox="0 0 24 24"
   version="1.1"
   id="svg2"
   inkscape:version="0.91 r13725"
   sodipodi:docname="position-camera.svg">
  <metadata
     id="metadata15">
    <rdf:RDF>
      <cc:Work
         rdf:about="">
        <dc:format>image/svg+xml</dc:format>
        <dc:type
           rdf:resource="http://purl.org/dc/dcmitype/StillImage" />
        <dc:title>position-nozzle</dc:title>
      </cc:Work>
    </rdf:RDF>
  </metadata>
  <sodipodi:namedview
     pagecolor="#ffffff"
     bordercolor="#666666"
     borderopacity="1"
     objecttolerance="10"
     gridtolerance="10"
     guidetolerance="10"
     inkscape:pageopacity="0"
     inkscape:pageshadow="2"
     inkscape:window-width="1920"
     inkscape:window-height="1051"
     id="namedview13"
     showgrid="false"
     inkscape:zoom="46.833333"
     inkscape:cx="11.865012"
     inkscape:cy="11.865012"
     inkscape:window-x="0"
     inkscape:window-y="420"
     inkscape:window-maximized="1"
     inkscape:current-layer="svg2" />
  <!-- Generator: Sketch 3.2.2 (9983) - http://www.bohemiancoding.com/sketch -->
  <title
     id="title4">position-nozzle</title>
  <g
     sketch:type="MSPage"
     id="g4942"
     style="fill:none;fill-rule:evenodd;stroke:none;stroke-width:1"
     transform="translate(-0.13498791,0.13498791)">
    <g
       sketch:type="MSLayerGroup"
       id="g4944"
       style="fill:#bd0404;fill-opacity:1">
      <path
         style="fill:#ff5757;fill-opacity:1"
         sodipodi:nodetypes="ccssccccccccssccccccccccsccccccsscccc"
         sketch:type="MSShapeGroup"
         id="path4946"
         d="m 5,15 -2,0 0,4 c 0,1.1 0.9,2 2,2 l 4,0 0,-2 -4,0 0,-4 z M 5,5 9,5 9,3 5,3 C 3.9,3 3,3.9 3,5 L 3,9 5,9 5,5 Z m 14,-2 -4,0 0,2 4,0 0,4 2,0 0,-4 C 21,3.9 20.1,3 19,3 l 0,0 z m 0,16 -4,0 0,2 4,0 c 1.1,0 2,-0.9 2,-2 l 0,-4 -2,0 0,4 z"
         inkscape:connector-curvature="0" />
    </g>
    <g
       id="g4148">
      <path
         sodipodi:open="true"
         d="M 16.134988,11.865012 A 4,4 0 0 1 12.15454,15.864964 4,4 0 0 1 8.135179,11.904115 4,4 0 0 1 12.076335,7.8654422 4,4 0 0 1 16.134223,11.78681"
         sodipodi:end="6.2636335"
         sodipodi:start="0"
         sodipodi:ry="4"
         sodipodi:rx="4"
         sodipodi:cy="11.865012"
         sodipodi:cx="12.134988"
         sodipodi:type="arc"
         id="path4950"
         style="fill:#005bdb;fill-opacity:0.99215686;fill-rule:evenodd;stroke:none;stroke-width:1.99999976;stroke-linecap:round;stroke-linejoin:round;stroke-miterlimit:4;stroke-dasharray:none;stroke-opacity:0.99215686" />
    </g>
  </g>
  <desc
     id="desc6">Created with Sketch.</desc>
  <defs
     id="defs8" />
</svg>
