G75*
%MOIN*%
%OFA0B0*%
%FSLAX25Y25*%
%IPPOS*%
%LPD*%
%AMOC8*
5,1,8,0,0,1.08239X$1,22.5*
%
%ADD10C,0.00600*%
%ADD11C,0.00300*%
%ADD12C,0.00400*%
%ADD13R,0.01181X0.01181*%
%ADD14R,0.01181X0.01181*%
D10*
X0046576Y0041738D02*
X0050846Y0046008D01*
X0050846Y0041738D01*
X0049778Y0040670D01*
X0047643Y0040670D01*
X0046576Y0041738D01*
X0046576Y0046008D01*
X0047643Y0047076D01*
X0049778Y0047076D01*
X0050846Y0046008D01*
X0053021Y0043873D02*
X0056224Y0043873D01*
X0057291Y0042805D01*
X0057291Y0041738D01*
X0056224Y0040670D01*
X0054089Y0040670D01*
X0053021Y0041738D01*
X0053021Y0043873D01*
X0055156Y0046008D01*
X0057291Y0047076D01*
X0059467Y0046008D02*
X0060534Y0047076D01*
X0062669Y0047076D01*
X0063737Y0046008D01*
X0059467Y0041738D01*
X0060534Y0040670D01*
X0062669Y0040670D01*
X0063737Y0041738D01*
X0063737Y0046008D01*
X0065912Y0046008D02*
X0066980Y0047076D01*
X0069115Y0047076D01*
X0070182Y0046008D01*
X0070182Y0044940D01*
X0069115Y0043873D01*
X0070182Y0042805D01*
X0070182Y0041738D01*
X0069115Y0040670D01*
X0066980Y0040670D01*
X0065912Y0041738D01*
X0068047Y0043873D02*
X0069115Y0043873D01*
X0059467Y0041738D02*
X0059467Y0046008D01*
X0142131Y0180434D02*
X0141064Y0181501D01*
X0145334Y0185772D01*
X0145334Y0181501D01*
X0144267Y0180434D01*
X0142131Y0180434D01*
X0141064Y0181501D02*
X0141064Y0185772D01*
X0142131Y0186839D01*
X0144267Y0186839D01*
X0145334Y0185772D01*
X0147509Y0185772D02*
X0147509Y0184704D01*
X0148577Y0183637D01*
X0150712Y0183637D01*
X0151780Y0182569D01*
X0151780Y0181501D01*
X0150712Y0180434D01*
X0148577Y0180434D01*
X0147509Y0181501D01*
X0147509Y0182569D01*
X0148577Y0183637D01*
X0150712Y0183637D02*
X0151780Y0184704D01*
X0151780Y0185772D01*
X0150712Y0186839D01*
X0148577Y0186839D01*
X0147509Y0185772D01*
X0153955Y0185772D02*
X0153955Y0181501D01*
X0158225Y0185772D01*
X0158225Y0181501D01*
X0157158Y0180434D01*
X0155022Y0180434D01*
X0153955Y0181501D01*
X0153955Y0185772D02*
X0155022Y0186839D01*
X0157158Y0186839D01*
X0158225Y0185772D01*
X0160400Y0186839D02*
X0160400Y0183637D01*
X0162535Y0184704D01*
X0163603Y0184704D01*
X0164671Y0183637D01*
X0164671Y0181501D01*
X0163603Y0180434D01*
X0161468Y0180434D01*
X0160400Y0181501D01*
X0160400Y0186839D02*
X0164671Y0186839D01*
X0232683Y0255237D02*
X0231615Y0256305D01*
X0235885Y0260575D01*
X0235885Y0256305D01*
X0234818Y0255237D01*
X0232683Y0255237D01*
X0231615Y0256305D02*
X0231615Y0260575D01*
X0232683Y0261642D01*
X0234818Y0261642D01*
X0235885Y0260575D01*
X0238060Y0258440D02*
X0242331Y0258440D01*
X0244506Y0260575D02*
X0245574Y0261642D01*
X0247709Y0261642D01*
X0248776Y0260575D01*
X0244506Y0256305D01*
X0245574Y0255237D01*
X0247709Y0255237D01*
X0248776Y0256305D01*
X0248776Y0260575D01*
X0250951Y0260575D02*
X0252019Y0261642D01*
X0254154Y0261642D01*
X0255222Y0260575D01*
X0255222Y0259507D01*
X0250951Y0255237D01*
X0255222Y0255237D01*
X0244506Y0256305D02*
X0244506Y0260575D01*
X0241263Y0261642D02*
X0238060Y0258440D01*
X0241263Y0255237D02*
X0241263Y0261642D01*
X0070182Y0255237D02*
X0065912Y0255237D01*
X0068047Y0255237D02*
X0068047Y0261642D01*
X0065912Y0259507D01*
X0063737Y0260575D02*
X0063737Y0256305D01*
X0062669Y0255237D01*
X0060534Y0255237D01*
X0059467Y0256305D01*
X0063737Y0260575D01*
X0062669Y0261642D01*
X0060534Y0261642D01*
X0059467Y0260575D01*
X0059467Y0256305D01*
X0057291Y0255237D02*
X0053021Y0255237D01*
X0057291Y0259507D01*
X0057291Y0260575D01*
X0056224Y0261642D01*
X0054089Y0261642D01*
X0053021Y0260575D01*
X0050846Y0260575D02*
X0046576Y0256305D01*
X0047643Y0255237D01*
X0049778Y0255237D01*
X0050846Y0256305D01*
X0050846Y0260575D01*
X0049778Y0261642D01*
X0047643Y0261642D01*
X0046576Y0260575D01*
X0046576Y0256305D01*
D11*
X0021150Y0014853D02*
X0021150Y0011150D01*
X0021150Y0013002D02*
X0022384Y0013002D01*
X0021150Y0014853D02*
X0023619Y0014853D01*
X0024833Y0014853D02*
X0026068Y0014853D01*
X0025450Y0014853D02*
X0025450Y0011150D01*
X0024833Y0011150D02*
X0026068Y0011150D01*
X0027289Y0011150D02*
X0029140Y0011150D01*
X0029757Y0011767D01*
X0029757Y0014236D01*
X0029140Y0014853D01*
X0027289Y0014853D01*
X0027289Y0011150D01*
X0030972Y0011150D02*
X0033440Y0011150D01*
X0032206Y0011150D02*
X0032206Y0014853D01*
X0030972Y0013619D01*
X0271150Y0013002D02*
X0272384Y0013002D01*
X0271150Y0014853D02*
X0273619Y0014853D01*
X0274833Y0014853D02*
X0276068Y0014853D01*
X0275450Y0014853D02*
X0275450Y0011150D01*
X0274833Y0011150D02*
X0276068Y0011150D01*
X0277289Y0011150D02*
X0279140Y0011150D01*
X0279757Y0011767D01*
X0279757Y0014236D01*
X0279140Y0014853D01*
X0277289Y0014853D01*
X0277289Y0011150D01*
X0280972Y0011150D02*
X0283440Y0013619D01*
X0283440Y0014236D01*
X0282823Y0014853D01*
X0281589Y0014853D01*
X0280972Y0014236D01*
X0280972Y0011150D02*
X0283440Y0011150D01*
X0271150Y0011150D02*
X0271150Y0014853D01*
X0271150Y0291150D02*
X0271150Y0294853D01*
X0273619Y0294853D01*
X0274833Y0294853D02*
X0276068Y0294853D01*
X0275450Y0294853D02*
X0275450Y0291150D01*
X0274833Y0291150D02*
X0276068Y0291150D01*
X0277289Y0291150D02*
X0279140Y0291150D01*
X0279757Y0291767D01*
X0279757Y0294236D01*
X0279140Y0294853D01*
X0277289Y0294853D01*
X0277289Y0291150D01*
X0280972Y0291767D02*
X0281589Y0291150D01*
X0282823Y0291150D01*
X0283440Y0291767D01*
X0283440Y0292384D01*
X0282823Y0293002D01*
X0282206Y0293002D01*
X0282823Y0293002D02*
X0283440Y0293619D01*
X0283440Y0294236D01*
X0282823Y0294853D01*
X0281589Y0294853D01*
X0280972Y0294236D01*
X0272384Y0293002D02*
X0271150Y0293002D01*
X0033440Y0293002D02*
X0030972Y0293002D01*
X0032823Y0294853D01*
X0032823Y0291150D01*
X0029757Y0291767D02*
X0029757Y0294236D01*
X0029140Y0294853D01*
X0027289Y0294853D01*
X0027289Y0291150D01*
X0029140Y0291150D01*
X0029757Y0291767D01*
X0026068Y0291150D02*
X0024833Y0291150D01*
X0025450Y0291150D02*
X0025450Y0294853D01*
X0024833Y0294853D02*
X0026068Y0294853D01*
X0023619Y0294853D02*
X0021150Y0294853D01*
X0021150Y0291150D01*
X0021150Y0293002D02*
X0022384Y0293002D01*
D12*
X0022322Y0283894D02*
X0024624Y0283894D01*
X0025391Y0283127D01*
X0025391Y0281593D01*
X0024624Y0280825D01*
X0022322Y0280825D01*
X0022322Y0279291D02*
X0022322Y0283894D01*
X0023857Y0280825D02*
X0025391Y0279291D01*
X0026926Y0280058D02*
X0027693Y0279291D01*
X0029228Y0279291D01*
X0029995Y0280058D01*
X0029995Y0280825D01*
X0029228Y0281593D01*
X0028461Y0281593D01*
X0029228Y0281593D02*
X0029995Y0282360D01*
X0029995Y0283127D01*
X0029228Y0283894D01*
X0027693Y0283894D01*
X0026926Y0283127D01*
X0031530Y0281593D02*
X0031530Y0280058D01*
X0032297Y0279291D01*
X0033832Y0279291D01*
X0034599Y0280058D01*
X0034599Y0280825D01*
X0033832Y0281593D01*
X0031530Y0281593D01*
X0033065Y0283127D01*
X0034599Y0283894D01*
X0043626Y0275225D02*
X0045796Y0275225D01*
X0042541Y0271970D01*
X0041456Y0273055D02*
X0043626Y0270885D01*
X0044711Y0269800D02*
X0047967Y0273055D01*
X0046882Y0270885D02*
X0046882Y0267629D01*
X0045796Y0270885D02*
X0050137Y0270885D01*
X0055038Y0273615D02*
X0055580Y0274158D01*
X0059921Y0274158D01*
X0060464Y0274700D01*
X0058293Y0276871D01*
X0056666Y0277413D02*
X0056123Y0276871D01*
X0055038Y0276871D01*
X0055038Y0275785D01*
X0054495Y0275243D01*
X0053410Y0275243D01*
X0052325Y0276328D01*
X0052325Y0277413D01*
X0050697Y0277956D02*
X0050697Y0280126D01*
X0051240Y0279584D02*
X0049612Y0281211D01*
X0048527Y0280126D02*
X0051782Y0283382D01*
X0053410Y0281754D01*
X0053410Y0280669D01*
X0052325Y0279584D01*
X0051240Y0279584D01*
X0054495Y0279583D02*
X0055580Y0279584D01*
X0056666Y0278498D01*
X0056666Y0277413D01*
X0055038Y0276871D02*
X0054495Y0277413D01*
X0029995Y0273894D02*
X0026926Y0270825D01*
X0027693Y0271593D02*
X0029995Y0269291D01*
X0026926Y0269291D02*
X0026926Y0273894D01*
X0023857Y0273894D02*
X0023857Y0269291D01*
X0025391Y0269291D02*
X0022322Y0269291D01*
X0022322Y0272360D02*
X0023857Y0273894D01*
X0021922Y0254134D02*
X0019620Y0251832D01*
X0020387Y0251065D02*
X0017318Y0254134D01*
X0017318Y0251065D02*
X0021922Y0251065D01*
X0021922Y0249530D02*
X0021922Y0246461D01*
X0021922Y0247995D02*
X0017318Y0247995D01*
X0018853Y0246461D01*
X0027318Y0247228D02*
X0028085Y0246461D01*
X0027318Y0247228D02*
X0027318Y0248763D01*
X0028085Y0249530D01*
X0028853Y0249530D01*
X0029620Y0248763D01*
X0030387Y0249530D01*
X0031155Y0249530D01*
X0031922Y0248763D01*
X0031922Y0247228D01*
X0031155Y0246461D01*
X0031922Y0244926D02*
X0030387Y0243391D01*
X0030387Y0244159D02*
X0030387Y0241857D01*
X0031922Y0241857D02*
X0027318Y0241857D01*
X0027318Y0244159D01*
X0028085Y0244926D01*
X0029620Y0244926D01*
X0030387Y0244159D01*
X0029620Y0247995D02*
X0029620Y0248763D01*
X0028853Y0251065D02*
X0028085Y0251065D01*
X0027318Y0251832D01*
X0027318Y0253367D01*
X0028085Y0254134D01*
X0028853Y0254134D01*
X0029620Y0253367D01*
X0029620Y0251832D01*
X0028853Y0251065D01*
X0029620Y0251832D02*
X0030387Y0251065D01*
X0031155Y0251065D01*
X0031922Y0251832D01*
X0031922Y0253367D01*
X0031155Y0254134D01*
X0030387Y0254134D01*
X0029620Y0253367D01*
X0069006Y0218347D02*
X0072262Y0221603D01*
X0073889Y0219975D01*
X0073889Y0218890D01*
X0072804Y0217805D01*
X0071719Y0217805D01*
X0070091Y0219432D01*
X0071176Y0218347D02*
X0071176Y0216177D01*
X0072262Y0215092D02*
X0074432Y0212921D01*
X0075517Y0211836D02*
X0077687Y0209666D01*
X0076602Y0210751D02*
X0079858Y0214006D01*
X0077687Y0214006D01*
X0076602Y0217262D02*
X0074432Y0217262D01*
X0076602Y0217262D02*
X0073347Y0214006D01*
X0069372Y0208827D02*
X0067070Y0204840D01*
X0065741Y0205608D02*
X0068399Y0204073D01*
X0069728Y0203306D02*
X0072030Y0207293D01*
X0071544Y0204916D02*
X0072386Y0201771D01*
X0070496Y0204635D02*
X0074688Y0205758D01*
X0069372Y0208827D02*
X0067276Y0208266D01*
X0058550Y0197755D02*
X0056556Y0198906D01*
X0054254Y0194919D01*
X0055021Y0196248D02*
X0057015Y0195097D01*
X0058063Y0195378D01*
X0058830Y0196707D01*
X0058550Y0197755D01*
X0059776Y0195275D02*
X0061872Y0195837D01*
X0059570Y0191850D01*
X0058241Y0192617D02*
X0060899Y0191083D01*
X0062228Y0190315D02*
X0066421Y0191439D01*
X0066805Y0192103D01*
X0066524Y0193151D01*
X0065195Y0193919D01*
X0064147Y0193638D01*
X0062228Y0190315D02*
X0064886Y0188781D01*
X0063001Y0184230D02*
X0059242Y0182060D01*
X0060181Y0182602D02*
X0061809Y0179783D01*
X0058845Y0180577D02*
X0060036Y0185024D01*
X0057071Y0185819D02*
X0055880Y0181372D01*
X0057362Y0180974D02*
X0054397Y0181769D01*
X0055192Y0184733D02*
X0057071Y0185819D01*
X0056912Y0193385D02*
X0056350Y0195481D01*
X0049483Y0172323D02*
X0050026Y0171383D01*
X0049629Y0169901D01*
X0048689Y0169358D01*
X0046465Y0169954D01*
X0046068Y0168471D02*
X0047260Y0172919D01*
X0049483Y0172323D01*
X0051310Y0170245D02*
X0053189Y0171330D01*
X0051997Y0166883D01*
X0050515Y0167280D02*
X0053480Y0166486D01*
X0055161Y0166829D02*
X0055703Y0165890D01*
X0057186Y0165493D01*
X0058125Y0166035D01*
X0058324Y0166776D01*
X0057782Y0167716D01*
X0057040Y0167915D01*
X0057782Y0167716D02*
X0058721Y0168259D01*
X0058920Y0169000D01*
X0058377Y0169940D01*
X0056895Y0170337D01*
X0055955Y0169794D01*
X0049033Y0167677D02*
X0047948Y0169557D01*
X0051145Y0160410D02*
X0051145Y0155806D01*
X0049610Y0155806D02*
X0052680Y0155806D01*
X0054214Y0155806D02*
X0054214Y0160410D01*
X0054981Y0158108D02*
X0057283Y0155806D01*
X0054214Y0157341D02*
X0057283Y0160410D01*
X0051145Y0160410D02*
X0049610Y0158876D01*
X0051145Y0145410D02*
X0051145Y0140806D01*
X0049610Y0140806D02*
X0052680Y0140806D01*
X0054214Y0143108D02*
X0057283Y0143108D01*
X0056516Y0140806D02*
X0056516Y0145410D01*
X0054214Y0143108D01*
X0051145Y0145410D02*
X0049610Y0143876D01*
X0048076Y0144643D02*
X0048076Y0143108D01*
X0047308Y0142341D01*
X0045006Y0142341D01*
X0045006Y0140806D02*
X0045006Y0145410D01*
X0047308Y0145410D01*
X0048076Y0144643D01*
X0046541Y0142341D02*
X0048076Y0140806D01*
X0051996Y0134334D02*
X0053188Y0129887D01*
X0051706Y0129489D02*
X0054670Y0130284D01*
X0056153Y0130681D02*
X0054961Y0135128D01*
X0056298Y0133103D02*
X0059117Y0131475D01*
X0055756Y0132163D02*
X0057926Y0135922D01*
X0051996Y0134334D02*
X0050911Y0132454D01*
X0058843Y0120639D02*
X0059439Y0118416D01*
X0060723Y0119554D01*
X0061464Y0119753D01*
X0062404Y0119210D01*
X0062801Y0117728D01*
X0062259Y0116788D01*
X0060776Y0116391D01*
X0059836Y0116933D01*
X0058553Y0115795D02*
X0055588Y0115000D01*
X0054106Y0114603D02*
X0052226Y0115688D01*
X0052967Y0115887D02*
X0050744Y0115291D01*
X0051141Y0113809D02*
X0049949Y0118256D01*
X0052173Y0118852D01*
X0053113Y0118309D01*
X0053510Y0116827D01*
X0052967Y0115887D01*
X0054794Y0117965D02*
X0055879Y0119845D01*
X0057070Y0115398D01*
X0058843Y0120639D02*
X0061808Y0121434D01*
X0064884Y0112435D02*
X0063761Y0108243D01*
X0064042Y0109291D02*
X0067186Y0108448D01*
X0064528Y0106914D02*
X0062226Y0110901D01*
X0059568Y0109366D02*
X0059006Y0107270D01*
X0059568Y0109366D02*
X0061870Y0105379D01*
X0060541Y0104612D02*
X0063199Y0106146D01*
X0072384Y0099445D02*
X0071439Y0098013D01*
X0070877Y0095917D01*
X0072871Y0097068D01*
X0073919Y0096787D01*
X0074303Y0096122D01*
X0074022Y0095074D01*
X0072693Y0094307D01*
X0071645Y0094588D01*
X0070877Y0095917D01*
X0070699Y0093156D02*
X0068041Y0091621D01*
X0066712Y0090854D02*
X0064616Y0091416D01*
X0065280Y0091799D02*
X0063287Y0090648D01*
X0064054Y0089319D02*
X0061752Y0093306D01*
X0063746Y0094457D01*
X0064794Y0094176D01*
X0065561Y0092847D01*
X0065280Y0091799D01*
X0066506Y0094279D02*
X0067068Y0096376D01*
X0069370Y0092389D01*
X0073344Y0087209D02*
X0076599Y0083953D01*
X0075514Y0082868D02*
X0077685Y0085039D01*
X0078770Y0086124D02*
X0075514Y0089379D01*
X0077685Y0088294D02*
X0080940Y0088294D01*
X0077685Y0087209D02*
X0077685Y0091549D01*
X0073344Y0087209D02*
X0073344Y0085039D01*
X0083951Y0076602D02*
X0087206Y0073347D01*
X0086121Y0072262D02*
X0088291Y0074432D01*
X0089376Y0075517D02*
X0088834Y0076060D01*
X0088834Y0080400D01*
X0088291Y0080943D01*
X0086121Y0078773D01*
X0083951Y0076602D02*
X0083951Y0074432D01*
X0083408Y0072804D02*
X0083408Y0071719D01*
X0081780Y0070091D01*
X0082865Y0069006D02*
X0079610Y0072262D01*
X0081238Y0073889D01*
X0082323Y0073889D01*
X0083408Y0072804D01*
X0082865Y0071176D02*
X0085036Y0071176D01*
X0092385Y0069372D02*
X0092947Y0067276D01*
X0092385Y0069372D02*
X0096372Y0067070D01*
X0095605Y0065741D02*
X0097140Y0068399D01*
X0097907Y0069728D02*
X0093920Y0072030D01*
X0096297Y0071544D02*
X0099442Y0072386D01*
X0096578Y0070496D02*
X0095454Y0074688D01*
X0108061Y0066524D02*
X0109109Y0066805D01*
X0109774Y0066421D01*
X0110055Y0065373D01*
X0109287Y0064044D01*
X0108239Y0063763D01*
X0107575Y0064147D01*
X0107294Y0065195D01*
X0108061Y0066524D01*
X0110055Y0065373D02*
X0111103Y0065654D01*
X0111767Y0065270D01*
X0112048Y0064222D01*
X0111281Y0062893D01*
X0110233Y0062612D01*
X0109568Y0062996D01*
X0109287Y0064044D01*
X0110130Y0060899D02*
X0108595Y0058241D01*
X0107828Y0056912D02*
X0105732Y0056350D01*
X0106115Y0057015D02*
X0104964Y0055021D01*
X0106293Y0054254D02*
X0102306Y0056556D01*
X0103457Y0058550D01*
X0104505Y0058830D01*
X0105834Y0058063D01*
X0106115Y0057015D01*
X0105937Y0059776D02*
X0105375Y0061872D01*
X0109363Y0059570D01*
X0115394Y0057071D02*
X0119841Y0055880D01*
X0120238Y0057362D02*
X0119444Y0054397D01*
X0116479Y0055192D02*
X0115394Y0057071D01*
X0116188Y0060036D02*
X0120635Y0058845D01*
X0119153Y0059242D02*
X0116983Y0063001D01*
X0118610Y0060181D02*
X0121430Y0061809D01*
X0131273Y0058377D02*
X0130876Y0056895D01*
X0131418Y0055955D01*
X0132160Y0055757D01*
X0133099Y0056299D01*
X0133695Y0058523D01*
X0132213Y0058920D02*
X0131273Y0058377D01*
X0132213Y0058920D02*
X0135177Y0058125D01*
X0135720Y0057186D01*
X0135323Y0055703D01*
X0134383Y0055161D01*
X0134727Y0053480D02*
X0133933Y0050515D01*
X0133535Y0049033D02*
X0131656Y0047948D01*
X0131855Y0048689D02*
X0131259Y0046465D01*
X0132741Y0046068D02*
X0128294Y0047260D01*
X0128890Y0049483D01*
X0129830Y0050026D01*
X0131312Y0049629D01*
X0131855Y0048689D01*
X0130968Y0051310D02*
X0129883Y0053189D01*
X0134330Y0051997D01*
X0140802Y0051145D02*
X0145406Y0051145D01*
X0145406Y0049610D02*
X0145406Y0052680D01*
X0145406Y0054214D02*
X0140802Y0054214D01*
X0143104Y0054981D02*
X0145406Y0057283D01*
X0143872Y0054214D02*
X0140802Y0057283D01*
X0140802Y0051145D02*
X0142337Y0049610D01*
X0155802Y0050378D02*
X0156570Y0049610D01*
X0155802Y0050378D02*
X0155802Y0051912D01*
X0156570Y0052680D01*
X0157337Y0052680D01*
X0160406Y0049610D01*
X0160406Y0052680D01*
X0159639Y0054214D02*
X0156570Y0057283D01*
X0159639Y0057283D01*
X0160406Y0056516D01*
X0160406Y0054981D01*
X0159639Y0054214D01*
X0156570Y0054214D01*
X0155802Y0054981D01*
X0155802Y0056516D01*
X0156570Y0057283D01*
X0165000Y0059023D02*
X0165795Y0056058D01*
X0166192Y0054576D02*
X0170639Y0055767D01*
X0168614Y0054430D02*
X0166986Y0051611D01*
X0167674Y0054973D02*
X0171433Y0052803D01*
X0169845Y0058732D02*
X0165397Y0057541D01*
X0167965Y0059817D02*
X0169845Y0058732D01*
X0180284Y0059941D02*
X0181369Y0061820D01*
X0181567Y0061079D02*
X0180971Y0063302D01*
X0179489Y0062905D02*
X0183936Y0064097D01*
X0184532Y0061873D01*
X0183989Y0060933D01*
X0182507Y0060536D01*
X0181567Y0061079D01*
X0180681Y0058458D02*
X0184440Y0056288D01*
X0185181Y0056486D01*
X0185724Y0057426D01*
X0185326Y0058909D01*
X0184387Y0059451D01*
X0180681Y0058458D02*
X0181475Y0055493D01*
X0181872Y0054011D02*
X0182667Y0051046D01*
X0182269Y0052529D02*
X0186717Y0053720D01*
X0184837Y0054805D01*
X0192050Y0059224D02*
X0192892Y0062368D01*
X0191844Y0062649D02*
X0196037Y0061526D01*
X0194502Y0064184D02*
X0190515Y0061882D01*
X0189748Y0063211D02*
X0188213Y0065869D01*
X0188981Y0064540D02*
X0192968Y0066842D01*
X0190871Y0067404D01*
X0201204Y0073369D02*
X0205191Y0075671D01*
X0206342Y0073677D01*
X0206061Y0072629D01*
X0204732Y0071862D01*
X0203684Y0072143D01*
X0202533Y0074136D01*
X0203300Y0072807D02*
X0202738Y0070711D01*
X0203506Y0069382D02*
X0207698Y0068258D01*
X0208363Y0068642D01*
X0208644Y0069690D01*
X0207876Y0071019D01*
X0206828Y0071300D01*
X0203506Y0069382D02*
X0205040Y0066724D01*
X0205808Y0065395D02*
X0210000Y0064271D01*
X0210665Y0064655D01*
X0210946Y0065703D01*
X0210178Y0067032D01*
X0209130Y0067313D01*
X0205808Y0065395D02*
X0207342Y0062737D01*
X0214289Y0073064D02*
X0214289Y0076319D01*
X0213204Y0076319D02*
X0217545Y0076319D01*
X0215374Y0078490D02*
X0212119Y0075234D01*
X0211034Y0076319D02*
X0208864Y0078490D01*
X0209949Y0077405D02*
X0213204Y0080660D01*
X0211034Y0080660D01*
X0221640Y0086926D02*
X0221640Y0089096D01*
X0222183Y0088554D02*
X0220555Y0090181D01*
X0219470Y0089096D02*
X0222726Y0092352D01*
X0224353Y0090724D01*
X0224353Y0089639D01*
X0223268Y0088554D01*
X0222183Y0088554D01*
X0222726Y0085841D02*
X0227066Y0085841D01*
X0227609Y0086383D01*
X0227609Y0087469D01*
X0226524Y0088554D01*
X0225438Y0088554D01*
X0222726Y0085841D02*
X0224896Y0083671D01*
X0226524Y0083128D02*
X0226524Y0082043D01*
X0227609Y0080958D01*
X0228694Y0080958D01*
X0229237Y0081500D01*
X0229237Y0082585D01*
X0228694Y0083128D01*
X0229237Y0082585D02*
X0230322Y0082585D01*
X0230864Y0083128D01*
X0230864Y0084213D01*
X0229779Y0085298D01*
X0228694Y0085298D01*
X0232189Y0092189D02*
X0231346Y0095333D01*
X0230298Y0095052D02*
X0234491Y0096176D01*
X0231833Y0097710D02*
X0229531Y0093723D01*
X0228202Y0094491D02*
X0225544Y0096025D01*
X0226873Y0095258D02*
X0229175Y0099245D01*
X0227078Y0098683D01*
X0235702Y0107481D02*
X0235140Y0109577D01*
X0235804Y0109194D02*
X0233811Y0110345D01*
X0233044Y0109016D02*
X0235346Y0113003D01*
X0237339Y0111852D01*
X0237620Y0110803D01*
X0236853Y0109474D01*
X0235804Y0109194D01*
X0237031Y0106714D02*
X0241223Y0107837D01*
X0241607Y0108502D01*
X0241326Y0109550D01*
X0239997Y0110317D01*
X0238949Y0110036D01*
X0237031Y0106714D02*
X0239689Y0105179D01*
X0242169Y0106405D02*
X0244827Y0104870D01*
X0243011Y0103261D02*
X0245313Y0107248D01*
X0242169Y0106405D01*
X0244529Y0115294D02*
X0242901Y0118113D01*
X0241961Y0117571D02*
X0245720Y0119741D01*
X0242755Y0120536D02*
X0241564Y0116089D01*
X0240081Y0116486D02*
X0237117Y0117280D01*
X0238599Y0116883D02*
X0239791Y0121330D01*
X0237911Y0120245D01*
X0250634Y0129187D02*
X0250092Y0130127D01*
X0250634Y0129187D02*
X0252117Y0128790D01*
X0253056Y0129333D01*
X0253454Y0130815D01*
X0252911Y0131755D01*
X0252170Y0131953D01*
X0250489Y0131609D01*
X0251085Y0133833D01*
X0254049Y0133039D01*
X0249404Y0133489D02*
X0248861Y0134429D01*
X0247379Y0134826D01*
X0246439Y0134283D01*
X0244957Y0134681D02*
X0244560Y0133198D01*
X0243620Y0132656D01*
X0241396Y0133251D01*
X0240999Y0131769D02*
X0242191Y0136216D01*
X0244414Y0135620D01*
X0244957Y0134681D01*
X0242879Y0132854D02*
X0243964Y0130975D01*
X0245446Y0130577D02*
X0249205Y0132748D01*
X0249404Y0133489D01*
X0248411Y0129783D02*
X0245446Y0130577D01*
X0245864Y0140806D02*
X0242794Y0140806D01*
X0244329Y0140806D02*
X0244329Y0145410D01*
X0242794Y0143876D01*
X0247398Y0145410D02*
X0247398Y0140806D01*
X0247398Y0142341D02*
X0250468Y0145410D01*
X0248166Y0143108D02*
X0250468Y0140806D01*
X0250468Y0155806D02*
X0247398Y0155806D01*
X0250468Y0158876D01*
X0250468Y0159643D01*
X0249700Y0160410D01*
X0248166Y0160410D01*
X0247398Y0159643D01*
X0245864Y0159643D02*
X0245864Y0158108D01*
X0245096Y0157341D01*
X0242794Y0157341D01*
X0242794Y0155806D02*
X0242794Y0160410D01*
X0245096Y0160410D01*
X0245864Y0159643D01*
X0244329Y0157341D02*
X0245864Y0155806D01*
X0243672Y0165397D02*
X0242480Y0169845D01*
X0241395Y0167965D01*
X0242190Y0165000D02*
X0245154Y0165795D01*
X0246637Y0166192D02*
X0245445Y0170639D01*
X0246782Y0168614D02*
X0249601Y0166986D01*
X0246240Y0167674D02*
X0248410Y0171433D01*
X0241272Y0180284D02*
X0239393Y0181369D01*
X0240134Y0181567D02*
X0237910Y0180971D01*
X0238307Y0179489D02*
X0237116Y0183936D01*
X0239339Y0184532D01*
X0240279Y0183989D01*
X0240676Y0182507D01*
X0240134Y0181567D01*
X0242556Y0181422D02*
X0243496Y0180879D01*
X0244978Y0181277D01*
X0245521Y0182216D01*
X0245322Y0182957D01*
X0244382Y0183500D01*
X0243641Y0183301D01*
X0244382Y0183500D02*
X0244925Y0184440D01*
X0244726Y0185181D01*
X0243786Y0185724D01*
X0242304Y0185326D01*
X0241761Y0184387D01*
X0238002Y0189748D02*
X0235344Y0188213D01*
X0236673Y0188981D02*
X0234371Y0192968D01*
X0233809Y0190871D01*
X0238563Y0191844D02*
X0239687Y0196037D01*
X0237029Y0194502D02*
X0239331Y0190515D01*
X0238844Y0192892D02*
X0241989Y0192050D01*
X0227844Y0201204D02*
X0225542Y0205191D01*
X0227535Y0206342D01*
X0228583Y0206061D01*
X0229351Y0204732D01*
X0229070Y0203684D01*
X0227076Y0202533D01*
X0228405Y0203300D02*
X0230502Y0202738D01*
X0230680Y0205499D02*
X0233338Y0207034D01*
X0231522Y0208644D02*
X0230680Y0205499D01*
X0233824Y0204657D02*
X0231522Y0208644D01*
X0225978Y0212119D02*
X0222723Y0215374D01*
X0224893Y0214289D02*
X0228149Y0214289D01*
X0224893Y0213204D02*
X0224893Y0217545D01*
X0220553Y0213204D02*
X0223808Y0209949D01*
X0222723Y0208864D02*
X0224893Y0211034D01*
X0220553Y0211034D02*
X0220553Y0213204D01*
X0212116Y0219470D02*
X0208861Y0222726D01*
X0210488Y0224353D01*
X0211574Y0224353D01*
X0212659Y0223268D01*
X0212659Y0222183D01*
X0211031Y0220555D01*
X0212116Y0221640D02*
X0214287Y0221640D01*
X0214829Y0223268D02*
X0215914Y0223268D01*
X0216999Y0224353D01*
X0216999Y0225438D01*
X0215914Y0226524D01*
X0214829Y0226524D01*
X0214287Y0225981D01*
X0213744Y0224353D01*
X0212116Y0225981D01*
X0214287Y0228151D01*
X0209024Y0232189D02*
X0205879Y0231346D01*
X0206160Y0230298D02*
X0205037Y0234491D01*
X0203502Y0231833D02*
X0207489Y0229531D01*
X0206722Y0228202D02*
X0205187Y0225544D01*
X0205955Y0226873D02*
X0201968Y0229175D01*
X0202529Y0227078D01*
X0192197Y0233044D02*
X0188210Y0235346D01*
X0189361Y0237339D01*
X0190409Y0237620D01*
X0191738Y0236853D01*
X0192019Y0235804D01*
X0190868Y0233811D01*
X0191635Y0235140D02*
X0193732Y0235702D01*
X0193834Y0237414D02*
X0194883Y0237695D01*
X0195650Y0239024D01*
X0195369Y0240072D01*
X0194705Y0240456D01*
X0193656Y0240175D01*
X0192505Y0238182D01*
X0193834Y0237414D01*
X0192505Y0238182D02*
X0191944Y0240278D01*
X0192047Y0241991D01*
X0185918Y0244529D02*
X0183099Y0242901D01*
X0183642Y0241961D02*
X0181471Y0245720D01*
X0180677Y0242755D02*
X0185124Y0241564D01*
X0184727Y0240081D02*
X0183932Y0237117D01*
X0184330Y0238599D02*
X0179883Y0239791D01*
X0180968Y0237911D01*
X0169444Y0240999D02*
X0164996Y0242191D01*
X0165592Y0244414D01*
X0166532Y0244957D01*
X0168014Y0244560D01*
X0168557Y0243620D01*
X0167961Y0241396D01*
X0168358Y0242879D02*
X0170238Y0243964D01*
X0170635Y0245446D02*
X0169894Y0245645D01*
X0167724Y0249404D01*
X0166982Y0249602D01*
X0166188Y0246638D01*
X0160406Y0247398D02*
X0155802Y0247398D01*
X0158104Y0248166D02*
X0160406Y0250468D01*
X0158872Y0247398D02*
X0155802Y0250468D01*
X0155802Y0244329D02*
X0160406Y0244329D01*
X0160406Y0242794D02*
X0160406Y0245864D01*
X0157337Y0242794D02*
X0155802Y0244329D01*
X0145406Y0242794D02*
X0140802Y0242794D01*
X0140802Y0245096D01*
X0141570Y0245864D01*
X0143104Y0245864D01*
X0143872Y0245096D01*
X0143872Y0242794D01*
X0143872Y0244329D02*
X0145406Y0245864D01*
X0144639Y0247398D02*
X0143872Y0247398D01*
X0143104Y0248166D01*
X0143104Y0249700D01*
X0143872Y0250468D01*
X0144639Y0250468D01*
X0145406Y0249700D01*
X0145406Y0248166D01*
X0144639Y0247398D01*
X0143104Y0248166D02*
X0142337Y0247398D01*
X0141570Y0247398D01*
X0140802Y0248166D01*
X0140802Y0249700D01*
X0141570Y0250468D01*
X0142337Y0250468D01*
X0143104Y0249700D01*
X0135128Y0246251D02*
X0130681Y0245060D01*
X0130284Y0246542D02*
X0129489Y0249507D01*
X0129887Y0248024D02*
X0134334Y0249216D01*
X0132454Y0250301D01*
X0132163Y0245457D02*
X0135922Y0243287D01*
X0133103Y0244914D02*
X0131475Y0242095D01*
X0121235Y0240146D02*
X0120838Y0241628D01*
X0119898Y0242170D01*
X0119157Y0241972D01*
X0118614Y0241032D01*
X0119210Y0238809D01*
X0117728Y0238411D02*
X0120692Y0239206D01*
X0121235Y0240146D01*
X0119501Y0243653D02*
X0118018Y0243256D01*
X0117079Y0243798D01*
X0116483Y0246022D01*
X0116880Y0244539D02*
X0115795Y0242660D01*
X0116933Y0241376D02*
X0116391Y0240436D01*
X0116788Y0238954D01*
X0117728Y0238411D01*
X0119501Y0243653D02*
X0120043Y0244593D01*
X0119448Y0246816D01*
X0115001Y0245625D01*
X0109366Y0241644D02*
X0105379Y0239342D01*
X0104612Y0240671D02*
X0106146Y0238013D01*
X0106914Y0236684D02*
X0110901Y0238986D01*
X0109291Y0237171D02*
X0108448Y0234026D01*
X0108243Y0237452D02*
X0112435Y0236328D01*
X0109366Y0241644D02*
X0107270Y0242206D01*
X0096376Y0234144D02*
X0094279Y0234706D01*
X0092847Y0235651D02*
X0091799Y0235932D01*
X0090648Y0237926D01*
X0089319Y0237159D02*
X0093306Y0239461D01*
X0094457Y0237467D01*
X0094176Y0236419D01*
X0092847Y0235651D01*
X0091416Y0236597D02*
X0090854Y0234500D01*
X0091621Y0233171D02*
X0093156Y0230513D01*
X0092389Y0231842D02*
X0096376Y0234144D01*
X0097246Y0231103D02*
X0094588Y0229568D01*
X0098780Y0228445D01*
X0096122Y0226910D01*
X0095074Y0227191D01*
X0094307Y0228520D01*
X0094588Y0229568D01*
X0097246Y0231103D02*
X0098294Y0230822D01*
X0099061Y0229493D01*
X0098780Y0228445D01*
X0091549Y0223528D02*
X0087209Y0223528D01*
X0088294Y0223528D02*
X0088294Y0220272D01*
X0086124Y0222443D02*
X0089379Y0225698D01*
X0087209Y0227869D02*
X0083953Y0224613D01*
X0082868Y0225698D02*
X0085039Y0223528D01*
X0085039Y0227869D02*
X0087209Y0227869D01*
X0148306Y0160410D02*
X0150608Y0160410D01*
X0151376Y0159643D01*
X0151376Y0158108D01*
X0150608Y0157341D01*
X0148306Y0157341D01*
X0148306Y0155806D02*
X0148306Y0160410D01*
X0149841Y0157341D02*
X0151376Y0155806D01*
X0152910Y0155806D02*
X0155980Y0155806D01*
X0154445Y0155806D02*
X0154445Y0160410D01*
X0152910Y0158876D01*
X0152910Y0145410D02*
X0152910Y0140806D01*
X0151376Y0140806D02*
X0148306Y0140806D01*
X0149841Y0140806D02*
X0149841Y0145410D01*
X0148306Y0143876D01*
X0152910Y0142341D02*
X0155980Y0145410D01*
X0153678Y0143108D02*
X0155980Y0140806D01*
X0031922Y0049409D02*
X0031922Y0046340D01*
X0028853Y0049409D01*
X0028085Y0049409D01*
X0027318Y0048642D01*
X0027318Y0047107D01*
X0028085Y0046340D01*
X0029620Y0044805D02*
X0029620Y0041736D01*
X0027318Y0044038D01*
X0031922Y0044038D01*
X0031922Y0040202D02*
X0030387Y0038667D01*
X0030387Y0039434D02*
X0030387Y0037132D01*
X0031922Y0037132D02*
X0027318Y0037132D01*
X0027318Y0039434D01*
X0028085Y0040202D01*
X0029620Y0040202D01*
X0030387Y0039434D01*
X0021922Y0041736D02*
X0021922Y0044806D01*
X0021922Y0046340D02*
X0017318Y0046340D01*
X0019620Y0047107D02*
X0021922Y0049409D01*
X0020387Y0046340D02*
X0017318Y0049409D01*
X0017318Y0043271D02*
X0021922Y0043271D01*
X0018853Y0041736D02*
X0017318Y0043271D01*
X0022322Y0031926D02*
X0024624Y0031926D01*
X0025391Y0031159D01*
X0025391Y0029624D01*
X0024624Y0028857D01*
X0022322Y0028857D01*
X0023857Y0028857D02*
X0025391Y0027322D01*
X0026926Y0029624D02*
X0029995Y0029624D01*
X0031530Y0029624D02*
X0034599Y0029624D01*
X0033832Y0027322D02*
X0033832Y0031926D01*
X0031530Y0029624D01*
X0029228Y0027322D02*
X0029228Y0031926D01*
X0026926Y0029624D01*
X0022322Y0027322D02*
X0022322Y0031926D01*
X0023857Y0021926D02*
X0023857Y0017322D01*
X0025391Y0017322D02*
X0022322Y0017322D01*
X0022322Y0020391D02*
X0023857Y0021926D01*
X0026926Y0021926D02*
X0026926Y0017322D01*
X0026926Y0018857D02*
X0029995Y0021926D01*
X0027693Y0019624D02*
X0029995Y0017322D01*
X0041456Y0021087D02*
X0043626Y0018916D01*
X0044711Y0017831D02*
X0047967Y0021086D01*
X0046882Y0018916D02*
X0046882Y0015661D01*
X0045796Y0018916D02*
X0050137Y0018916D01*
X0053410Y0023274D02*
X0056666Y0026530D01*
X0053410Y0026530D01*
X0055580Y0024360D01*
X0057751Y0024360D02*
X0058836Y0024360D01*
X0059921Y0023274D01*
X0059921Y0022189D01*
X0059378Y0021647D01*
X0058293Y0021647D01*
X0058293Y0020561D01*
X0057751Y0020019D01*
X0056666Y0020019D01*
X0055580Y0021104D01*
X0055580Y0022189D01*
X0057751Y0022189D02*
X0058293Y0021647D01*
X0050697Y0025987D02*
X0050697Y0028158D01*
X0051240Y0027615D02*
X0049612Y0029243D01*
X0048527Y0028158D02*
X0051782Y0031413D01*
X0053410Y0029785D01*
X0053410Y0028700D01*
X0052325Y0027615D01*
X0051240Y0027615D01*
X0045796Y0023257D02*
X0043626Y0023257D01*
X0045796Y0023257D02*
X0042541Y0020001D01*
X0155802Y0045006D02*
X0155802Y0047308D01*
X0156570Y0048076D01*
X0158104Y0048076D01*
X0158872Y0047308D01*
X0158872Y0045006D01*
X0160406Y0045006D02*
X0155802Y0045006D01*
X0158872Y0046541D02*
X0160406Y0048076D01*
X0269287Y0250669D02*
X0269287Y0252970D01*
X0270054Y0253738D01*
X0271589Y0253738D01*
X0272356Y0252970D01*
X0272356Y0250669D01*
X0272356Y0252203D02*
X0273891Y0253738D01*
X0271589Y0255272D02*
X0271589Y0258342D01*
X0270821Y0259876D02*
X0269287Y0261411D01*
X0273891Y0261411D01*
X0273891Y0259876D02*
X0273891Y0262946D01*
X0273891Y0257574D02*
X0269287Y0257574D01*
X0271589Y0255272D01*
X0273891Y0250669D02*
X0269287Y0250669D01*
X0279287Y0252203D02*
X0283891Y0252203D01*
X0283891Y0250669D02*
X0283891Y0253738D01*
X0283891Y0255272D02*
X0279287Y0255272D01*
X0281589Y0256040D02*
X0283891Y0258342D01*
X0282356Y0255272D02*
X0279287Y0258342D01*
X0279287Y0252203D02*
X0280821Y0250669D01*
X0281964Y0269291D02*
X0279662Y0271593D01*
X0278894Y0270825D02*
X0281964Y0273894D01*
X0278894Y0273894D02*
X0278894Y0269291D01*
X0277360Y0269291D02*
X0274291Y0269291D01*
X0275825Y0269291D02*
X0275825Y0273894D01*
X0274291Y0272360D01*
X0274291Y0279291D02*
X0274291Y0283894D01*
X0276593Y0283894D01*
X0277360Y0283127D01*
X0277360Y0281593D01*
X0276593Y0280825D01*
X0274291Y0280825D01*
X0275825Y0280825D02*
X0277360Y0279291D01*
X0278894Y0281593D02*
X0281964Y0281593D01*
X0283498Y0283127D02*
X0284266Y0283894D01*
X0285800Y0283894D01*
X0286568Y0283127D01*
X0283498Y0280058D01*
X0284266Y0279291D01*
X0285800Y0279291D01*
X0286568Y0280058D01*
X0286568Y0283127D01*
X0283498Y0283127D02*
X0283498Y0280058D01*
X0281196Y0279291D02*
X0281196Y0283894D01*
X0278894Y0281593D01*
X0261930Y0275228D02*
X0258674Y0275228D01*
X0258674Y0274143D02*
X0258674Y0278484D01*
X0256504Y0276313D02*
X0259759Y0273058D01*
X0258674Y0271973D02*
X0256504Y0269802D01*
X0257589Y0270887D02*
X0254334Y0274143D01*
X0254334Y0271973D01*
X0249433Y0276873D02*
X0246177Y0280129D01*
X0247805Y0281757D01*
X0248890Y0281757D01*
X0249976Y0280671D01*
X0249976Y0279586D01*
X0248348Y0277959D01*
X0249433Y0279044D02*
X0251603Y0279044D01*
X0252146Y0280671D02*
X0253231Y0280671D01*
X0254316Y0281757D01*
X0254316Y0282842D01*
X0253774Y0283384D01*
X0252688Y0283384D01*
X0252146Y0282842D01*
X0252688Y0283384D02*
X0252688Y0284469D01*
X0252146Y0285012D01*
X0251061Y0285012D01*
X0249976Y0283927D01*
X0249976Y0282842D01*
X0253231Y0286097D02*
X0253774Y0285555D01*
X0254859Y0285555D01*
X0256486Y0287182D01*
X0255401Y0288268D02*
X0254316Y0288268D01*
X0253231Y0287182D01*
X0253231Y0286097D01*
X0255401Y0283927D02*
X0256486Y0283927D01*
X0257572Y0285012D01*
X0257572Y0286097D01*
X0255401Y0288268D01*
D13*
X0024622Y0276591D03*
X0024622Y0252969D03*
D14*
G36*
X0048244Y0275757D02*
X0047410Y0276591D01*
X0048244Y0277425D01*
X0049078Y0276591D01*
X0048244Y0275757D01*
G37*
M02*
