G75*
%MOIN*%
%OFA0B0*%
%FSLAX25Y25*%
%IPPOS*%
%LPD*%
%AMOC8*
5,1,8,0,0,1.08239X$1,22.5*
%
%ADD10R,0.05918X0.06706*%
%ADD11R,0.06706X0.05918*%
%ADD12R,0.01902X0.02493*%
%ADD13R,0.02493X0.01902*%
%ADD14R,0.03556X0.04343*%
%ADD15R,0.04343X0.03556*%
%ADD16R,0.05131X0.04737*%
%ADD17R,0.04737X0.05131*%
%ADD18C,0.04737*%
D10*
G36*
X0097109Y0064652D02*
X0100068Y0069777D01*
X0105875Y0066424D01*
X0102916Y0061299D01*
X0097109Y0064652D01*
G37*
G36*
X0100849Y0071130D02*
X0103808Y0076255D01*
X0109615Y0072902D01*
X0106656Y0067777D01*
X0100849Y0071130D01*
G37*
G36*
X0076685Y0081426D02*
X0080870Y0085611D01*
X0085611Y0080870D01*
X0081426Y0076685D01*
X0076685Y0081426D01*
G37*
G36*
X0081975Y0086716D02*
X0086160Y0090901D01*
X0090901Y0086160D01*
X0086716Y0081975D01*
X0081975Y0086716D01*
G37*
G36*
X0061299Y0102916D02*
X0066424Y0105875D01*
X0069777Y0100068D01*
X0064652Y0097109D01*
X0061299Y0102916D01*
G37*
G36*
X0067777Y0106656D02*
X0072902Y0109615D01*
X0076255Y0103808D01*
X0071130Y0100849D01*
X0067777Y0106656D01*
G37*
G36*
X0052000Y0127655D02*
X0057715Y0129187D01*
X0059450Y0122711D01*
X0053735Y0121179D01*
X0052000Y0127655D01*
G37*
G36*
X0059225Y0129591D02*
X0064940Y0131123D01*
X0066675Y0124647D01*
X0060960Y0123115D01*
X0059225Y0129591D01*
G37*
X0059858Y0150606D03*
X0052378Y0150606D03*
G36*
X0060960Y0178098D02*
X0066675Y0176566D01*
X0064940Y0170090D01*
X0059225Y0171622D01*
X0060960Y0178098D01*
G37*
G36*
X0053735Y0180034D02*
X0059450Y0178502D01*
X0057715Y0172026D01*
X0052000Y0173558D01*
X0053735Y0180034D01*
G37*
G36*
X0071130Y0200363D02*
X0076255Y0197404D01*
X0072902Y0191597D01*
X0067777Y0194556D01*
X0071130Y0200363D01*
G37*
G36*
X0064652Y0204103D02*
X0069777Y0201144D01*
X0066424Y0195337D01*
X0061299Y0198296D01*
X0064652Y0204103D01*
G37*
G36*
X0086716Y0219238D02*
X0090901Y0215053D01*
X0086160Y0210312D01*
X0081975Y0214497D01*
X0086716Y0219238D01*
G37*
G36*
X0081426Y0224527D02*
X0085611Y0220342D01*
X0080870Y0215601D01*
X0076685Y0219786D01*
X0081426Y0224527D01*
G37*
G36*
X0102916Y0239914D02*
X0105875Y0234789D01*
X0100068Y0231436D01*
X0097109Y0236561D01*
X0102916Y0239914D01*
G37*
G36*
X0106656Y0233435D02*
X0109615Y0228310D01*
X0103808Y0224957D01*
X0100849Y0230082D01*
X0106656Y0233435D01*
G37*
G36*
X0129591Y0241987D02*
X0131123Y0236272D01*
X0124647Y0234537D01*
X0123115Y0240252D01*
X0129591Y0241987D01*
G37*
G36*
X0127655Y0249213D02*
X0129187Y0243498D01*
X0122711Y0241763D01*
X0121179Y0247478D01*
X0127655Y0249213D01*
G37*
G36*
X0178098Y0240252D02*
X0176566Y0234537D01*
X0170090Y0236272D01*
X0171622Y0241987D01*
X0178098Y0240252D01*
G37*
G36*
X0180034Y0247478D02*
X0178502Y0241763D01*
X0172026Y0243498D01*
X0173558Y0249213D01*
X0180034Y0247478D01*
G37*
G36*
X0204103Y0236561D02*
X0201144Y0231436D01*
X0195337Y0234789D01*
X0198296Y0239914D01*
X0204103Y0236561D01*
G37*
G36*
X0200363Y0230082D02*
X0197404Y0224957D01*
X0191597Y0228310D01*
X0194556Y0233435D01*
X0200363Y0230082D01*
G37*
G36*
X0224527Y0219786D02*
X0220342Y0215601D01*
X0215601Y0220342D01*
X0219786Y0224527D01*
X0224527Y0219786D01*
G37*
G36*
X0219238Y0214497D02*
X0215053Y0210312D01*
X0210312Y0215053D01*
X0214497Y0219238D01*
X0219238Y0214497D01*
G37*
G36*
X0239914Y0198296D02*
X0234789Y0195337D01*
X0231436Y0201144D01*
X0236561Y0204103D01*
X0239914Y0198296D01*
G37*
G36*
X0233435Y0194556D02*
X0228310Y0191597D01*
X0224957Y0197404D01*
X0230082Y0200363D01*
X0233435Y0194556D01*
G37*
G36*
X0249213Y0173558D02*
X0243498Y0172026D01*
X0241763Y0178502D01*
X0247478Y0180034D01*
X0249213Y0173558D01*
G37*
G36*
X0241987Y0171622D02*
X0236272Y0170090D01*
X0234537Y0176566D01*
X0240252Y0178098D01*
X0241987Y0171622D01*
G37*
X0241354Y0150606D03*
X0248835Y0150606D03*
G36*
X0240252Y0123115D02*
X0234537Y0124647D01*
X0236272Y0131123D01*
X0241987Y0129591D01*
X0240252Y0123115D01*
G37*
G36*
X0247478Y0121179D02*
X0241763Y0122711D01*
X0243498Y0129187D01*
X0249213Y0127655D01*
X0247478Y0121179D01*
G37*
G36*
X0230082Y0100849D02*
X0224957Y0103808D01*
X0228310Y0109615D01*
X0233435Y0106656D01*
X0230082Y0100849D01*
G37*
G36*
X0236561Y0097109D02*
X0231436Y0100068D01*
X0234789Y0105875D01*
X0239914Y0102916D01*
X0236561Y0097109D01*
G37*
G36*
X0214497Y0081975D02*
X0210312Y0086160D01*
X0215053Y0090901D01*
X0219238Y0086716D01*
X0214497Y0081975D01*
G37*
G36*
X0219786Y0076685D02*
X0215601Y0080870D01*
X0220342Y0085611D01*
X0224527Y0081426D01*
X0219786Y0076685D01*
G37*
G36*
X0198296Y0061299D02*
X0195337Y0066424D01*
X0201144Y0069777D01*
X0204103Y0064652D01*
X0198296Y0061299D01*
G37*
G36*
X0194556Y0067777D02*
X0191597Y0072902D01*
X0197404Y0076255D01*
X0200363Y0071130D01*
X0194556Y0067777D01*
G37*
G36*
X0173558Y0052000D02*
X0172026Y0057715D01*
X0178502Y0059450D01*
X0180034Y0053735D01*
X0173558Y0052000D01*
G37*
G36*
X0171622Y0059225D02*
X0170090Y0064940D01*
X0176566Y0066675D01*
X0178098Y0060960D01*
X0171622Y0059225D01*
G37*
G36*
X0123115Y0060960D02*
X0124647Y0066675D01*
X0131123Y0064940D01*
X0129591Y0059225D01*
X0123115Y0060960D01*
G37*
G36*
X0121179Y0053735D02*
X0122711Y0059450D01*
X0129187Y0057715D01*
X0127655Y0052000D01*
X0121179Y0053735D01*
G37*
X0146866Y0150606D03*
X0154346Y0150606D03*
D11*
X0150606Y0241354D03*
X0150606Y0248835D03*
X0150606Y0059858D03*
X0150606Y0052378D03*
D12*
G36*
X0048746Y0274328D02*
X0047401Y0275673D01*
X0049162Y0277434D01*
X0050507Y0276089D01*
X0048746Y0274328D01*
G37*
G36*
X0047326Y0275747D02*
X0045981Y0277092D01*
X0047742Y0278853D01*
X0049087Y0277508D01*
X0047326Y0275747D01*
G37*
X0025626Y0276591D03*
X0023618Y0276591D03*
D13*
X0024622Y0253972D03*
X0024622Y0251965D03*
D14*
G36*
X0253951Y0274504D02*
X0251436Y0271989D01*
X0248367Y0275058D01*
X0250882Y0277573D01*
X0253951Y0274504D01*
G37*
G36*
X0257570Y0278123D02*
X0255055Y0275608D01*
X0251986Y0278677D01*
X0254501Y0281192D01*
X0257570Y0278123D01*
G37*
X0274031Y0276591D03*
X0279150Y0276591D03*
D15*
X0276591Y0255528D03*
X0276591Y0250409D03*
D16*
X0024622Y0051591D03*
X0024622Y0044898D03*
D17*
X0021276Y0024622D03*
X0027969Y0024622D03*
G36*
X0045739Y0023500D02*
X0042390Y0026849D01*
X0046017Y0030476D01*
X0049366Y0027127D01*
X0045739Y0023500D01*
G37*
G36*
X0050471Y0018768D02*
X0047122Y0022117D01*
X0050749Y0025744D01*
X0054098Y0022395D01*
X0050471Y0018768D01*
G37*
D18*
X0010843Y0010843D03*
X0290370Y0010843D03*
X0290370Y0290370D03*
X0010843Y0290370D03*
M02*
