<?xml version="1.0" encoding="UTF-8" standalone="no"?>
<svg width="24px" height="24px" viewBox="0 0 24 24" version="1.1" xmlns="http://www.w3.org/2000/svg" xmlns:xlink="http://www.w3.org/1999/xlink" xmlns:sketch="http://www.bohemiancoding.com/sketch/ns">
    <!-- Generator: Sketch 3.2.2 (9983) - http://www.bohemiancoding.com/sketch -->
    <title>board-two-placement-locate</title>
    <desc>Created with Sketch.</desc>
    <defs></defs>
    <g id="Page-1" stroke="none" stroke-width="1" fill="none" fill-rule="evenodd" sketch:type="MSPage">
        <g id="feeder-show-part-outline" sketch:type="MSLayerGroup" transform="translate(0.250000, -23.750000)"></g>
        <g id="board-two-placement-locate" sketch:type="MSLayerGroup" fill="#000000">
            <path d="M18.3817594,8.2845074 L21.0004347,8.2845074 L21.0004347,6.62758707 L16.417753,3 L3.001,3 L3.001,6.17929713 L9.92477273,6.17929713 L9.92477273,8.30259728 C10.399662,8.47727772 10.7405647,8.92952483 10.7405647,9.46487233 C10.7405647,10.1511573 10.1842658,10.7079866 9.49737237,10.7079866 C8.81104429,10.7079866 8.25474541,10.1511573 8.25474541,9.46487233 C8.25474541,8.89560629 8.64087562,8.42074684 9.16325384,8.27376653 L9.16325384,6.89610879 L3.001,6.89610879 L3.001,8.27772369 L6.22176698,8.27772369 L6.22572439,9.29641029 C6.75997484,9.42134355 7.15910798,9.89846424 7.15910798,10.4705568 C7.15910798,11.1387519 6.61750806,11.6808831 5.94927099,11.6808831 C5.28103392,11.6808831 4.73886865,11.1393172 4.73886865,10.4705568 C4.73886865,9.94877673 5.07242184,9.50670519 5.53713493,9.33880845 L5.53713493,8.8893879 L3.001,8.8893879 L3.001,14.7539022 L11.1651383,14.7539022 L12.1754087,13.563927 C12.067428,13.3802016 12.0012827,13.1693414 12.0012827,12.939826 C12.0012827,12.253541 12.5570162,11.6972771 13.2439096,11.6972771 C13.9302377,11.6972771 14.4865366,12.2529757 14.4865366,12.939826 C14.4865366,13.6266763 13.9302377,14.1823749 13.2439096,14.1823749 C13.0562153,14.1823749 12.8798279,14.1377155 12.7215314,14.0642254 L11.4755124,15.5312019 L11.4308502,15.4921956 L3.001,15.4921956 L3.001,21 L21.001,21 L21.001,17.8093967 L18.4925669,17.8093967 C18.3455774,18.3311768 17.8706881,18.7167174 17.3019517,18.7167174 C16.6156236,18.7167174 16.05989,18.1598882 16.05989,17.4741685 C16.05989,16.7873182 16.6156236,16.230489 17.3019517,16.230489 C17.8961286,16.230489 18.390805,16.6476869 18.5134847,17.2050815 L21.001,17.2050815 L21.001,9.00018844 L18.3676258,9.00018844 C18.2048067,9.51801137 17.727656,9.8956377 17.1560928,9.8956377 C16.4516737,9.8956377 15.8801105,9.32411042 15.8801105,8.61917025 C15.8801105,7.91423008 16.4516737,7.34383342 17.1560928,7.34383342 C17.744051,7.34383342 18.2330739,7.74237618 18.3817594,8.2845074 Z" id="Shape" sketch:type="MSShapeGroup"></path>
        </g>
    </g>
</svg>