<?xml version="1.0" encoding="UTF-8" standalone="no"?>
<svg width="24px" height="24px" viewBox="0 0 24 24" version="1.1" xmlns="http://www.w3.org/2000/svg" xmlns:xlink="http://www.w3.org/1999/xlink" xmlns:sketch="http://www.bohemiancoding.com/sketch/ns">
    <!-- Generator: Sketch 3.2.2 (9983) - http://www.bohemiancoding.com/sketch -->
    <title>capture-camera</title>
    <desc>Created with Sketch.</desc>
    <defs></defs>
    <g id="Page-1" stroke="none" stroke-width="1" fill="none" fill-rule="evenodd" sketch:type="MSPage">
        <g id="capture-camera" sketch:type="MSLayerGroup" fill="#005BD9">
            <path d="M5,15 L3,15 L3,19 C3,20.1 3.9,21 5,21 L9,21 L9,19 L5,19 L5,15 L5,15 Z M5,5 L9,5 L9,3 L5,3 C3.9,3 3,3.9 3,5 L3,9 L5,9 L5,5 L5,5 Z M19,3 L15,3 L15,5 L19,5 L19,9 L21,9 L21,5 C21,3.9 20.1,3 19,3 L19,3 L19,3 Z M19,19 L15,19 L15,21 L19,21 C20.1,21 21,20.1 21,19 L21,15 L19,15 L19,19 L19,19 Z M12,8 C9.79,8 8,9.79 8,12 C8,14.21 9.79,16 12,16 C14.21,16 16,14.21 16,12 C16,9.79 14.21,8 12,8 L12,8 L12,8 Z M12,14 C10.9,14 10,13.1 10,12 C10,10.9 10.9,10 12,10 C13.1,10 14,10.9 14,12 C14,13.1 13.1,14 12,14 L12,14 L12,14 Z" id="Shape" sketch:type="MSShapeGroup"></path>
        </g>
    </g>
</svg>