<svg width="511.999" height="511.999" xmlns="http://www.w3.org/2000/svg">

 <g>
  <title>background</title>
  <rect fill="none" id="canvas_background" height="402" width="582" y="-1" x="-1"/>
 </g>
 <g>
  <title>Layer 1</title>
  <path id="svg_2" fill="#ffff56" d="m256,128.953c-175.727,3.127 -248.5,128.047 -248.5,128.047s72.773,124.919 248.5,128.046c175.727,-3.127 248.5,-128.047 248.5,-128.047s-72.773,-124.919 -248.5,-128.046z"/>
  <path id="svg_3" fill="#7fff00" d="m473.581,218.705c2.285,3.357 3.403,5.275 3.403,5.275s-72.773,124.92 -248.5,128.047c-111.228,-1.979 -181.194,-52.747 -217.581,-89.752c16.185,23.777 91.112,120.031 245.097,122.771c175.727,-3.127 248.5,-128.047 248.5,-128.047s-9.819,-16.835 -30.919,-38.294z"/>
  <circle id="svg_4" r="128.046997" fill="#ff00ff" cy="257" cx="256"/>
  <path id="svg_5" fill="#465a61" d="m256,328.54c-39.448,0 -71.541,-32.093 -71.541,-71.54c0,-39.448 32.093,-71.541 71.541,-71.541c39.447,0 71.54,32.093 71.54,71.541c0,39.447 -32.093,71.54 -71.54,71.54z"/>
  <path id="svg_6" fill="#d8ecfe" d="m298.729,248.881c-19.084,0 -34.611,-15.526 -34.611,-34.61c0,-19.085 15.526,-34.611 34.611,-34.611c19.084,0 34.61,15.526 34.61,34.611c0,19.084 -15.526,34.61 -34.61,34.61z"/>
  <path id="svg_7" fill="#ff00ff" d="m328.518,151.463c14.194,20.617 22.51,45.595 22.51,72.518c0,70.718 -57.328,128.047 -128.047,128.047c-26.923,0 -51.9,-8.316 -72.518,-22.51c23.089,33.538 61.742,55.529 105.537,55.529c70.718,0 128.047,-57.328 128.047,-128.047c0,-43.796 -21.992,-82.449 -55.529,-105.537z"/>
  <g id="svg_8">
   <path id="svg_9" d="m510.98,253.224c-0.772,-1.325 -19.382,-32.833 -60.193,-64.968c-23.906,-18.823 -50.528,-33.955 -79.128,-44.976c-37.729,-14.538 -80.566,-21.783 -115.479,-21.826c-0.016,0 -0.031,-0.001 -0.047,-0.001c-0.019,0 -0.038,0 -0.056,0c-0.026,0 -0.051,-0.001 -0.077,-0.001s-0.051,0.001 -0.077,0.001c-0.019,0 -0.038,0 -0.056,0c-0.019,0 -0.037,0.001 -0.056,0.001c-56.184,0.078 -117.679,16.06 -169.738,49.175c-3.495,2.223 -4.526,6.858 -2.303,10.354c2.223,3.494 6.858,4.525 10.354,2.303c25.412,-16.165 52.957,-28.186 82.393,-36.012c-33.945,24.658 -56.063,64.654 -56.063,109.725c0,44.945 21.994,84.844 55.779,109.518c-46.631,-12.525 -81.524,-33.583 -105.207,-52.14c-30.778,-24.117 -48.522,-48.281 -54.623,-57.377c5.8,-8.65 22.098,-30.888 50.076,-53.74c3.208,-2.62 3.684,-7.346 1.064,-10.553c-2.621,-3.208 -7.344,-3.685 -10.553,-1.064c-37.903,30.961 -55.25,60.347 -55.97,61.582c-1.359,2.333 -1.359,5.218 0,7.551c0.772,1.325 19.381,32.833 60.193,64.968c23.906,18.823 50.529,33.955 79.128,44.976c37.729,14.538 80.566,21.783 115.479,21.826c0.016,0 0.031,0.001 0.047,0.001c0.044,0.001 0.089,0.001 0.133,0.001s0.089,0 0.133,-0.001c0.014,0 0.029,-0.001 0.043,-0.001c14.393,-0.018 34.071,-2.178 34.071,-2.178c62.083,-6.929 117.12,-29.487 163.582,-67.05c3.222,-2.604 3.722,-7.326 1.117,-10.547c-2.603,-3.222 -7.325,-3.721 -10.547,-1.117c-32.147,25.988 -68.65,44.422 -108.938,55.09c33.958,-24.656 56.086,-64.661 56.086,-109.742c0,-44.945 -21.994,-84.844 -55.779,-109.518c46.63,12.525 81.523,33.583 105.206,52.14c30.781,24.119 48.525,48.285 54.625,57.381c-3.881,5.796 -12.451,17.671 -26.017,31.661c-2.884,2.974 -2.811,7.722 0.163,10.604c2.971,2.884 7.722,2.812 10.604,-0.163c20.407,-21.044 30.212,-37.615 30.619,-38.311c1.37,-2.337 1.376,-5.232 0.012,-7.572zm-134.433,3.776c0,62.82 -49.117,119.247 -120.547,120.546c-71.221,-1.292 -120.546,-57.548 -120.546,-120.546c0,-62.698 48.974,-119.248 120.546,-120.546c71.221,1.291 120.547,57.547 120.547,120.546z"/>
   <path id="svg_10" d="m256,177.959c-43.583,0 -79.041,35.458 -79.041,79.041s35.458,79.04 79.041,79.04s79.04,-35.457 79.04,-79.04c0,-6.11 -0.726,-12.202 -2.14,-18.166c4.988,-6.92 7.939,-15.401 7.939,-24.564c0,-23.22 -18.891,-42.11 -42.11,-42.11c-9.162,0 -17.643,2.95 -24.563,7.938c-5.962,-1.413 -12.054,-2.139 -18.166,-2.139zm0,143.081c-35.312,0 -64.041,-28.729 -64.041,-64.04c0,-35.313 28.729,-64.041 64.041,-64.041c2.089,0 4.176,0.104 6.253,0.309c-0.002,0.003 -0.004,0.007 -0.005,0.01c-3.842,6.65 -5.629,13.983 -5.629,20.993c0,15.963 8.929,29.88 22.055,37.02c13.142,7.148 28.715,6.575 41.025,-0.526c0.011,-0.006 0.023,-0.012 0.034,-0.018c0.205,2.078 0.309,4.165 0.309,6.253c-0.002,35.311 -28.73,64.04 -64.042,64.04zm63.117,-88.932c-0.014,0.015 -0.03,0.028 -0.043,0.043c-16.582,18.84 -47.456,6.916 -47.456,-17.88c0,-14.807 12.063,-27.111 27.11,-27.111c23.317,0 35.627,27.554 20.389,44.948z"/>
  </g>
 </g>
</svg>