<?xml version="1.0" encoding="UTF-8"?>
<!DOCTYPE svg PUBLIC "-//W3C//DTD SVG 1.1//EN" "http://www.w3.org/Graphics/SVG/1.1/DTD/svg11.dtd">
<svg version="1.1" xmlns="http://www.w3.org/2000/svg" xmlns:xlink="http://www.w3.org/1999/xlink" x="0" y="0" width="18" height="18" viewBox="0, 0, 18, 18">
  <g id="Layer_1" transform="translate(-492, -492)">
    <g id="ic_content_copy_black_18px">
      <path d="M504,492.75 L495,492.75 C494.175,492.75 493.5,493.425 493.5,494.25 L493.5,504.75 L495,504.75 L495,494.25 L504,494.25 L504,492.75 z M506.25,495.75 L498,495.75 C497.175,495.75 496.5,496.425 496.5,497.25 L496.5,507.75 C496.5,508.575 497.175,509.25 498,509.25 L506.25,509.25 C507.075,509.25 507.75,508.575 507.75,507.75 L507.75,497.25 C507.75,496.425 507.075,495.75 506.25,495.75 z M506.25,507.75 L498,507.75 L498,497.25 L506.25,497.25 L506.25,507.75 z" fill="#58AD01"/>
    </g>
  </g>
</svg>
