<?xml version="1.0" encoding="UTF-8"?>
<!DOCTYPE svg PUBLIC "-//W3C//DTD SVG 1.1//EN" "http://www.w3.org/Graphics/SVG/1.1/DTD/svg11.dtd">
<svg version="1.1" xmlns="http://www.w3.org/2000/svg" xmlns:xlink="http://www.w3.org/1999/xlink" x="0" y="0" width="24" height="24" viewBox="0, 0, 24, 24">
  <g id="Layer_1" transform="translate(-522.141, -488)">
    <g>
      <g id="ic_content_copy_black_18px">
        <path d="M537.141,491.75 L528.141,491.75 C527.316,491.75 526.641,492.425 526.641,493.25 L526.641,503.75 L528.141,503.75 L528.141,493.25 L537.141,493.25 L537.141,491.75 z M539.391,494.75 L531.141,494.75 C530.316,494.75 529.641,495.425 529.641,496.25 L529.641,506.75 C529.641,507.575 530.316,508.25 531.141,508.25 L539.391,508.25 C540.216,508.25 540.891,507.575 540.891,506.75 L540.891,496.25 C540.891,495.425 540.216,494.75 539.391,494.75 z M539.391,506.75 L531.141,506.75 L531.141,496.25 L539.391,496.25 L539.391,506.75 z" fill="#58AD01"/>
      </g>
    </g>
  </g>
</svg>
