<?xml version="1.0" encoding="UTF-8" standalone="no"?>
<svg
   xmlns:dc="http://purl.org/dc/elements/1.1/"
   xmlns:cc="http://creativecommons.org/ns#"
   xmlns:rdf="http://www.w3.org/1999/02/22-rdf-syntax-ns#"
   xmlns:svg="http://www.w3.org/2000/svg"
   xmlns="http://www.w3.org/2000/svg"
   xmlns:sodipodi="http://sodipodi.sourceforge.net/DTD/sodipodi-0.dtd"
   xmlns:inkscape="http://www.inkscape.org/namespaces/inkscape"
   width="24px"
   height="24px"
   viewBox="0 0 48 48"
   enable-background="new 0 0 48 48"
   version="1.1"
   id="svg6"
   sodipodi:docname="driver.svg"
   inkscape:version="0.92.4 (5da689c313, 2019-01-14)">
  <metadata
     id="metadata12">
    <rdf:RDF>
      <cc:Work
         rdf:about="">
        <dc:format>image/svg+xml</dc:format>
        <dc:type
           rdf:resource="http://purl.org/dc/dcmitype/StillImage" />
      </cc:Work>
    </rdf:RDF>
  </metadata>
  <defs
     id="defs10" />
  <sodipodi:namedview
     pagecolor="#ffffff"
     bordercolor="#666666"
     borderopacity="1"
     objecttolerance="10"
     gridtolerance="10"
     guidetolerance="10"
     inkscape:pageopacity="0"
     inkscape:pageshadow="2"
     inkscape:window-width="3840"
     inkscape:window-height="2056"
     id="namedview8"
     showgrid="false"
     inkscape:zoom="9.8333333"
     inkscape:cx="43.201812"
     inkscape:cy="10.43829"
     inkscape:window-x="-8"
     inkscape:window-y="-8"
     inkscape:window-maximized="1"
     inkscape:current-layer="svg6" />
  <path
     d="m 34.893924,26.534188 c 0.06974,-0.48815 0.139472,-0.976302 0.139472,-1.534188 0,-0.557886 -0.06974,-1.046038 -0.139472,-1.534189 l 3.138113,-2.231546 c 0.278943,-0.209209 0.418415,-0.627623 0.209206,-0.976302 L 35.172867,15.09751 C 34.96366,14.748831 34.61498,14.60936 34.266301,14.818567 l -3.486792,1.603924 c -0.83683,-0.627622 -1.67366,-1.115773 -2.649962,-1.534189 l -0.34868,-3.835471 c -0.06974,-0.348679 -0.348679,-0.627622 -0.697358,-0.627622 h -5.997283 c -0.348679,0 -0.697358,0.278943 -0.697358,0.627622 l -0.34868,3.835471 c -0.976301,0.418416 -1.882867,0.906567 -2.649961,1.534189 l -3.486792,-1.603924 c -0.348679,-0.139472 -0.767095,0 -0.906566,0.278943 l -2.9986415,5.160453 c -0.2092075,0.348679 -0.069736,0.767093 0.2092075,0.976302 l 3.138113,2.231546 C 13.27581,23.953962 13.206076,24.442114 13.206076,25 c 0,0.557886 0.06974,1.046038 0.139472,1.534188 l -3.277585,2.231547 C 9.78902,28.974943 9.6495483,29.393357 9.8587558,29.742037 l 2.9986422,5.160453 c 0.209206,0.348679 0.557886,0.48815 0.906565,0.278943 l 3.486792,-1.603924 c 0.83683,0.627622 1.67366,1.115773 2.649962,1.534188 l 0.34868,3.835472 c 0.06974,0.348679 0.348679,0.627622 0.697358,0.627622 h 5.997283 c 0.348679,0 0.697358,-0.278943 0.697358,-0.627622 l 0.348679,-3.835472 c 0.976302,-0.418415 1.882868,-0.906566 2.649962,-1.534188 l 3.486793,1.603924 c 0.348678,0.139472 0.767094,0 0.906566,-0.278943 l 2.998641,-5.160453 c 0.209206,-0.34868 0.06974,-0.767094 -0.209207,-0.976302 z m -10.878792,5.439396 c -3.835471,0 -6.973585,-3.138113 -6.973585,-6.973584 0,-3.835471 3.138114,-6.973585 6.973585,-6.973585 3.835471,0 6.973584,3.138114 6.973584,6.973585 0,3.835471 -3.138113,6.973584 -6.973584,6.973584 z"
     id="path2"
     style="fill:#0070FF;stroke-width:0;stroke-miterlimit:4;stroke-dasharray:none;fill-opacity:1"
     inkscape:connector-curvature="0" />
  <path
     d="m 24.015132,14.191021 c -5.944939,0 -10.808979,4.86404 -10.808979,10.808979 0,5.944939 4.86404,10.808979 10.808979,10.808979 5.944939,0 10.808979,-4.86404 10.808979,-10.808979 0,-5.944939 -4.86404,-10.808979 -10.808979,-10.808979 z m 0,15.31272 c -2.522094,0 -4.503741,-1.981647 -4.503741,-4.503741 0,-2.522094 1.981647,-4.503741 4.503741,-4.503741 2.522096,0 4.503741,1.981647 4.503741,4.503741 0,2.522094 -1.981645,4.503741 -4.503741,4.503741 z"
     id="path4"
     inkscape:connector-curvature="0"
     style="fill:#0070FF;stroke-width:0.90074825;fill-opacity:1" />
</svg>
