<?xml version="1.0" encoding="UTF-8" standalone="no"?>
<svg
   xmlns:sketch="http://www.bohemiancoding.com/sketch/ns"
   xmlns:dc="http://purl.org/dc/elements/1.1/"
   xmlns:cc="http://creativecommons.org/ns#"
   xmlns:rdf="http://www.w3.org/1999/02/22-rdf-syntax-ns#"
   xmlns:svg="http://www.w3.org/2000/svg"
   xmlns="http://www.w3.org/2000/svg"
   xmlns:sodipodi="http://sodipodi.sourceforge.net/DTD/sodipodi-0.dtd"
   xmlns:inkscape="http://www.inkscape.org/namespaces/inkscape"
   width="24px"
   height="24px"
   viewBox="0 0 24 24"
   version="1.1"
   id="svg2"
   inkscape:version="0.91 r13725"
   sodipodi:docname="feeder-feed.svg">
  <metadata
     id="metadata15">
    <rdf:RDF>
      <cc:Work
         rdf:about="">
        <dc:format>image/svg+xml</dc:format>
        <dc:type
           rdf:resource="http://purl.org/dc/dcmitype/StillImage" />
        <dc:title>feeder-edit</dc:title>
      </cc:Work>
    </rdf:RDF>
  </metadata>
  <sodipodi:namedview
     pagecolor="#ffffff"
     bordercolor="#666666"
     borderopacity="1"
     objecttolerance="10"
     gridtolerance="10"
     guidetolerance="10"
     inkscape:pageopacity="0"
     inkscape:pageshadow="2"
     inkscape:window-width="1920"
     inkscape:window-height="1051"
     id="namedview13"
     showgrid="false"
     inkscape:zoom="1"
     inkscape:cx="204.73939"
     inkscape:cy="-54.497487"
     inkscape:window-x="0"
     inkscape:window-y="420"
     inkscape:window-maximized="1"
     inkscape:current-layer="svg2" />
  <!-- Generator: Sketch 3.2.2 (9983) - http://www.bohemiancoding.com/sketch -->
  <title
     id="title4">feeder-edit</title>
  <desc
     id="desc6">Created with Sketch.</desc>
  <defs
     id="defs8" />
  <g
     id="Page-1"
     sketch:type="MSPage"
     transform="matrix(1.0000434,0,0,1,-1.3029361e-4,0)"
     style="fill:none;fill-rule:evenodd;stroke:none;stroke-width:1">
    <g
       id="feeder-edit"
       sketch:type="MSLayerGroup"
       style="fill:#000000">
      <path
         d="M 19.826061,3 4.1739386,3 C 3.5259245,3 3,3.5259359 3,4.1739641 L 3,19.826036 C 3,20.474064 3.5255332,21 4.1735473,21 l 15.6517317,0 c 0.648405,0 1.173938,-0.525936 1.173938,-1.173964 l 0,-15.6520719 C 21,3.5259359 20.474076,3 19.826061,3 l 0,0 z M 7.3420074,19.165877 c 0,0.365103 -0.3330072,0.650376 -0.6977108,0.650376 l -1.8098219,0 c -0.363921,0 -0.6499707,-0.285273 -0.6499707,-0.650376 l 0,-1.809861 c 0,-0.364712 0.2860497,-0.697727 0.6499707,-0.697727 l 1.8098219,0 c 0.3650949,0 0.6977108,0.333406 0.6977108,0.697727 l 0,1.809861 0,0 z m 0,-12.5215012 c 0,0.3647115 -0.3330072,0.6981173 -0.6977108,0.6981173 l -1.8098219,0 c -0.363921,0 -0.6499707,-0.3334058 -0.6499707,-0.6981173 l 0,-1.8102526 c 0,-0.3647115 0.2860497,-0.6499848 0.6499707,-0.6499848 l 1.8098219,0 c 0.3650949,0 0.6977108,0.2852733 0.6977108,0.6499848 l 0,1.8102526 0,0 z m 0,6.0000002 c 0,0.364711 -0.3330072,0.698117 -0.6977108,0.698117 l -1.8098219,0 c -0.363921,0 -0.6499707,-0.333406 -0.6499707,-0.698117 l 0,-1.810253 c 0,-0.364711 0.2860497,-0.649985 0.6499707,-0.649985 l 1.8098219,0 c 0.3650949,0 0.6977108,0.285274 0.6977108,0.649985 l 0,1.810253 0,0 z"
         id="Shape"
         sketch:type="MSShapeGroup"
         inkscape:connector-curvature="0" />
    </g>
  </g>
  <path
     inkscape:connector-curvature="0"
     d="m 9.5,7.533352 4.443886,4.475732 4.443883,-4.475732 z M 9.61223,13.524269 14.056114,18 18.5,13.524269 Z"
     id="Shape-6"
     sketch:type="MSShapeGroup"
     style="fill:#72b800;fill-opacity:1;fill-rule:evenodd;stroke:none;stroke-width:0.17142858;stroke-miterlimit:4;stroke-dasharray:none"
     sodipodi:nodetypes="cccccccc" />
</svg>
