<?xml version="1.0" encoding="UTF-8" standalone="no"?>
<svg width="24px" height="24px" viewBox="0 0 24 24" version="1.1" xmlns="http://www.w3.org/2000/svg" xmlns:xlink="http://www.w3.org/1999/xlink" xmlns:sketch="http://www.bohemiancoding.com/sketch/ns">
    <!-- Generator: Sketch 3.2.2 (9983) - http://www.bohemiancoding.com/sketch -->
    <title>feeder-edit</title>
    <desc>Created with Sketch.</desc>
    <defs></defs>
    <g id="Page-1" stroke="none" stroke-width="1" fill="none" fill-rule="evenodd" sketch:type="MSPage">
        <g id="feeder-edit" sketch:type="MSLayerGroup" fill="#000000">
            <path d="M19.8260614,3 L4.17393856,3 C3.52592448,3 3,3.52593591 3,4.17396409 L3,19.8260359 C3,20.4740641 3.52553316,21 4.17354725,21 L19.8252788,21 C20.4736842,21 20.9992174,20.4740641 20.9992174,19.8260359 L20.9992174,4.17396409 C21,3.52593591 20.4740755,3 19.8260614,3 L19.8260614,3 Z M7.34200743,19.1658768 C7.34200743,19.5309796 7.0090002,19.8162529 6.64429662,19.8162529 L4.83447466,19.8162529 C4.47055371,19.8162529 4.18450401,19.5309796 4.18450401,19.1658768 L4.18450401,17.3560155 C4.18450401,16.991304 4.47055371,16.6582895 4.83447466,16.6582895 L6.64429662,16.6582895 C7.00939151,16.6582895 7.34200743,16.9916953 7.34200743,17.3560155 L7.34200743,19.1658768 L7.34200743,19.1658768 Z M7.34200743,6.64437584 C7.34200743,7.00908735 7.0090002,7.34249315 6.64429662,7.34249315 L4.83447466,7.34249315 C4.47055371,7.34249315 4.18450401,7.00908735 4.18450401,6.64437584 L4.18450401,4.83412322 C4.18450401,4.46941171 4.47055371,4.18413844 4.83447466,4.18413844 L6.64429662,4.18413844 C7.00939151,4.18413844 7.34200743,4.46941171 7.34200743,4.83412322 L7.34200743,6.64437584 L7.34200743,6.64437584 Z M7.34200743,12.6443758 C7.34200743,13.0090874 7.0090002,13.3424932 6.64429662,13.3424932 L4.83447466,13.3424932 C4.47055371,13.3424932 4.18450401,13.0090874 4.18450401,12.6443758 L4.18450401,10.8341232 C4.18450401,10.4694117 4.47055371,10.1841384 4.83447466,10.1841384 L6.64429662,10.1841384 C7.00939151,10.1841384 7.34200743,10.4694117 7.34200743,10.8341232 L7.34200743,12.6443758 L7.34200743,12.6443758 Z" id="Shape" sketch:type="MSShapeGroup"></path>
        </g>
    </g>
</svg>