<?xml version="1.0" encoding="UTF-8"?>
<!DOCTYPE svg PUBLIC "-//W3C//DTD SVG 1.1//EN" "http://www.w3.org/Graphics/SVG/1.1/DTD/svg11.dtd">
<svg version="1.1" xmlns="http://www.w3.org/2000/svg" xmlns:xlink="http://www.w3.org/1999/xlink" x="0" y="0" width="18" height="18" viewBox="0, 0, 18, 18">
  <g id="Layer_1">
    <path d="M8.773,4.095 C7.235,4.078 5.696,4.639 4.511,5.798 C2.14,8.115 2.103,11.907 4.421,14.277 C6.738,16.647 10.53,16.695 12.9,14.378 C14.9,12.422 15.231,9.424 13.899,7.107 L12.784,8.198 C13.566,9.877 13.251,11.937 11.851,13.305 C10.076,15.041 7.223,15.009 5.488,13.234 C3.752,11.459 3.784,8.606 5.559,6.87 C6.449,6 7.605,5.594 8.756,5.612 L8.717,9.027 L12.471,5.357 L8.801,1.603 L8.773,4.095 z" fill="#000000"/>
  </g>
</svg>
