<?xml version="1.0" encoding="UTF-8"?>
<!DOCTYPE svg PUBLIC "-//W3C//DTD SVG 1.1//EN" "http://www.w3.org/Graphics/SVG/1.1/DTD/svg11.dtd">
<svg version="1.1" xmlns="http://www.w3.org/2000/svg" xmlns:xlink="http://www.w3.org/1999/xlink" x="0" y="0" width="1024" height="800" viewBox="0, 0, 1024, 800">
  <defs>
    <clipPath id="Clip_1">
      <path d="M508.826,462 L493.174,462 C492.526,462 492,462.526 492,463.174 L492,478.826 C492,479.474 492.526,480 493.174,480 L508.825,480 C509.474,480 509.999,479.474 509.999,478.826 L509.999,463.174 C510,462.526 509.474,462 508.826,462 L508.826,462 z M496.342,478.166 C496.342,478.531 496.009,478.816 495.644,478.816 L493.834,478.816 C493.471,478.816 493.185,478.531 493.185,478.166 L493.185,476.356 C493.185,475.991 493.471,475.658 493.834,475.658 L495.644,475.658 C496.009,475.658 496.342,475.992 496.342,476.356 L496.342,478.166 L496.342,478.166 z M496.342,465.644 C496.342,466.009 496.009,466.342 495.644,466.342 L493.834,466.342 C493.471,466.342 493.185,466.009 493.185,465.644 L493.185,463.834 C493.185,463.469 493.471,463.184 493.834,463.184 L495.644,463.184 C496.009,463.184 496.342,463.469 496.342,463.834 L496.342,465.644 L496.342,465.644 z M496.342,471.644 C496.342,472.009 496.009,472.342 495.644,472.342 L493.834,472.342 C493.471,472.342 493.185,472.009 493.185,471.644 L493.185,469.834 C493.185,469.469 493.471,469.184 493.834,469.184 L495.644,469.184 C496.009,469.184 496.342,469.469 496.342,469.834 L496.342,471.644 L496.342,471.644 z M496.342,471.644"/>
    </clipPath>
    <clipPath id="Clip_2">
      <path d="M517,429 L525.5,423 L517,417 L517,429 L517,429 z M526,417 L526,429 L534.5,423 L526,417 L526,417 z M526,417"/>
    </clipPath>
    <clipPath id="Clip_3">
      <path d="M504.75,425.25 L503.96,425.25 L503.68,424.98 C504.66,423.84 505.25,422.36 505.25,420.75 C505.25,417.16 502.34,414.25 498.75,414.25 C495.16,414.25 492.25,417.16 492.25,420.75 C492.25,424.34 495.16,427.25 498.75,427.25 C500.36,427.25 501.84,426.66 502.98,425.68 L503.25,425.96 L503.25,426.75 L508.25,431.74 L509.74,430.25 L504.75,425.25 L504.75,425.25 z M498.75,425.25 C496.26,425.25 494.25,423.24 494.25,420.75 C494.25,418.26 496.26,416.25 498.75,416.25 C501.24,416.25 503.25,418.26 503.25,420.75 C503.25,423.24 501.24,425.25 498.75,425.25 L498.75,425.25 z M498.75,425.25"/>
    </clipPath>
    <clipPath id="Clip_4">
      <path d="M516,438 L534,438 L534,456 L516,456 L516,438 z M516,438"/>
    </clipPath>
    <clipPath id="Clip_5">
      <path d="M525.07,453.07 C528.384,453.07 531.07,450.384 531.07,447.07 C531.07,443.757 528.384,441.07 525.07,441.07 C521.757,441.07 519.07,443.757 519.07,447.07 C519.07,450.384 521.757,453.07 525.07,453.07 z M525.07,453.07"/>
    </clipPath>
    <clipPath id="Clip_6">
      <path d="M525.141,450.141 C526.797,450.141 528.141,448.798 528.141,447.141 C528.141,445.484 526.797,444.141 525.141,444.141 C523.484,444.141 522.141,445.484 522.141,447.141 C522.141,448.798 523.484,450.141 525.141,450.141 z M525.141,450.141"/>
    </clipPath>
    <clipPath id="Clip_7">
      <path d="M492,438 L510,438 L510,456 L492,456 L492,438 z M492,438"/>
    </clipPath>
    <clipPath id="Clip_8">
      <path d="M493.271,443.025 L493.271,439.9 L496.071,439.9 L496.071,443.025 L493.271,443.025 z M493.271,443.025"/>
    </clipPath>
    <clipPath id="Clip_9">
      <path d="M497.323,443.025 L497.323,439.9 L500.123,439.9 L500.123,443.025 L497.323,443.025 z M497.323,443.025"/>
    </clipPath>
    <clipPath id="Clip_10">
      <path d="M501.112,453.568 L501.112,450.443 L503.912,450.443 L503.912,453.568 L501.112,453.568 z M501.112,453.568"/>
    </clipPath>
    <clipPath id="Clip_11">
      <path d="M505.164,453.568 L505.164,450.443 L507.964,450.443 L507.964,453.568 L505.164,453.568 z M505.164,453.568"/>
    </clipPath>
    <clipPath id="Clip_12">
      <path d="M532,372 L528,372 L528,366 L522,366 L522,372 L518,372 L525,379 L532,372 L532,372 z M518,381 L518,383 L532,383 L532,381 L518,381 L518,381 z M518,381"/>
    </clipPath>
    <clipPath id="Clip_13">
      <path d="M498,379 L504,379 L504,373 L508,373 L501,366 L494,373 L498,373 L498,379 z M494,381 L508,381 L508,383 L494,383 L494,381 z M494,381"/>
    </clipPath>
    <clipPath id="Clip_14">
      <path d="M621,347 C618.79,347 617,348.79 617,351 C617,353.21 618.79,355 621,355 C623.21,355 625,353.21 625,351 C625,348.79 623.21,347 621,347 L621,347 L621,347 z M621,347"/>
    </clipPath>
    <clipPath id="Clip_15">
      <path d="M576.273,348 L579,343 L567,343 L569.727,348 L576.273,348 z M572,349 L574,349 L574,358 L572,358 L572,349 z M572,349"/>
    </clipPath>
    <clipPath id="Clip_16">
      <path d="M518,354 L516,354 L516,358 C516,359.1 516.9,360 518,360 L522,360 L522,358 L518,358 L518,354 L518,354 z M518,344 L522,344 L522,342 L518,342 C516.9,342 516,342.9 516,344 L516,348 L518,348 L518,344 L518,344 z M532,342 L528,342 L528,344 L532,344 L532,348 L534,348 L534,344 C534,342.9 533.1,342 532,342 L532,342 L532,342 z M532,358 L528,358 L528,360 L532,360 C533.1,360 534,359.1 534,358 L534,354 L532,354 L532,358 L532,358 z M525,347 C522.79,347 521,348.79 521,351 C521,353.21 522.79,355 525,355 C527.21,355 529,353.21 529,351 C529,348.79 527.21,347 525,347 L525,347 L525,347 z M525,353 C523.9,353 523,352.1 523,351 C523,349.9 523.9,349 525,349 C526.1,349 527,349.9 527,351 C527,352.1 526.1,353 525,353 L525,353 L525,353 z M525,353"/>
    </clipPath>
    <clipPath id="Clip_17">
      <path d="M597,347 C594.79,347 593,348.79 593,351 C593,353.21 594.79,355 597,355 C599.21,355 601,353.21 601,351 C601,348.79 599.21,347 597,347 L597,347 L597,347 z M597,347"/>
    </clipPath>
    <clipPath id="Clip_18">
      <path d="M552.273,348 L555,343 L543,343 L545.727,348 L552.273,348 z M548,349 L550,349 L550,358 L548,358 L548,349 z M548,349"/>
    </clipPath>
    <clipPath id="Clip_19">
      <path d="M494,354 L492,354 L492,358 C492,359.1 492.9,360 494,360 L498,360 L498,358 L494,358 L494,354 L494,354 z M494,344 L498,344 L498,342 L494,342 C492.9,342 492,342.9 492,344 L492,348 L494,348 L494,344 L494,344 z M508,342 L504,342 L504,344 L508,344 L508,348 L510,348 L510,344 C510,342.9 509.1,342 508,342 L508,342 L508,342 z M508,358 L504,358 L504,360 L508,360 C509.1,360 510,359.1 510,358 L510,354 L508,354 L508,358 L508,358 z M501,347 C498.79,347 497,348.79 497,351 C497,353.21 498.79,355 501,355 C503.21,355 505,353.21 505,351 C505,348.79 503.21,347 501,347 L501,347 L501,347 z M501,353 C499.9,353 499,352.1 499,351 C499,349.9 499.9,349 501,349 C502.1,349 503,349.9 503,351 C503,352.1 502.1,353 501,353 L501,353 L501,353 z M501,353"/>
    </clipPath>
    <clipPath id="Clip_20">
      <path d="M549,400.414 L553.243,404.657 L554.657,403.243 L550.414,399 L554.657,394.757 L553.243,393.343 L549,397.586 L544.757,393.343 L543.343,394.757 L547.586,399 L543.343,403.243 L544.757,404.657 L549,400.414 z M549,400.414"/>
    </clipPath>
    <clipPath id="Clip_21">
      <path d="M532,400 L526,400 L526,406 L524,406 L524,400 L518,400 L518,398 L524,398 L524,392 L526,392 L526,398 L532,398 L532,400 L532,400 z M532,400"/>
    </clipPath>
    <clipPath id="Clip_22">
      <path d="M494,402.962 L494,406.15 L497.158,406.15 L506.472,396.749 L503.314,393.561 L494,402.962 L494,402.962 z M508.914,394.284 C509.242,393.952 509.242,393.417 508.914,393.085 L506.943,391.096 C506.615,390.765 506.084,390.765 505.756,391.096 L504.215,392.652 L507.373,395.84 L508.914,394.284 L508.914,394.284 z M508.914,394.284"/>
    </clipPath>
    <clipPath id="Clip_23">
      <path d="M567,321 L579,321 L579,333 L567,333 L567,321 z M567,321"/>
    </clipPath>
    <clipPath id="Clip_24">
      <path d="M551.5,327 L543,321 L543,333 L551.5,327 z M553,321 L553,333 L555,333 L555,321 L553,321 L553,321 z M553,321"/>
    </clipPath>
    <clipPath id="Clip_25">
      <path d="M519,334 L523,334 L523,320 L519,320 L519,334 L519,334 z M527,320 L527,334 L531,334 L531,320 L527,320 L527,320 z M527,320"/>
    </clipPath>
    <clipPath id="Clip_26">
      <path d="M497,320 L497,334 L508,327 L497,320 z M497,320"/>
    </clipPath>
  </defs>
  <g id="Layer_1">
    <text transform="matrix(1, 0, 0, 1, 475.664, 399)">
      <tspan x="-9.664" y="4" font-family="Helvetica" font-size="12" kerning="-0.002" fill="#000000">Fil</tspan>
      <tspan x="2.991" y="4" font-family="Helvetica" font-size="12" kerning="0" fill="#000000">e</tspan>
    </text>
    <text transform="matrix(1, 0, 0, 1, 468.013, 447)">
      <tspan x="-16.013" y="4" font-family="Helvetica" font-size="12" fill="#000000">B</tspan>
      <tspan x="-8.009" y="4" font-family="Helvetica" font-size="12" kerning="0.002" fill="#000000">oa</tspan>
      <tspan x="5.343" y="4" font-family="Helvetica" font-size="12" fill="#000000">r</tspan>
      <tspan x="9.339" y="4" font-family="Helvetica" font-size="12" kerning="0" fill="#000000">d</tspan>
    </text>
    <text transform="matrix(1, 0, 0, 1, 466.005, 422)">
      <tspan x="-19.005" y="4" font-family="Helvetica" font-size="12" kerning="-0.002" fill="#000000">Feede</tspan>
      <tspan x="15.009" y="4" font-family="Helvetica" font-size="12" kerning="0" fill="#000000">r</tspan>
    </text>
    <text transform="matrix(1, 0, 0, 1, 466.345, 327)">
      <tspan x="-19.345" y="4" font-family="Helvetica" font-size="12" kerning="0.002" fill="#000000">Con</tspan>
      <tspan x="2.675" y="4" font-family="Helvetica" font-size="12" kerning="-0.002" fill="#000000">t</tspan>
      <tspan x="6.007" y="4" font-family="Helvetica" font-size="12" fill="#000000">r</tspan>
      <tspan x="10.003" y="4" font-family="Helvetica" font-size="12" kerning="0.002" fill="#000000">o</tspan>
      <tspan x="16.679" y="4" font-family="Helvetica" font-size="12" kerning="0" fill="#000000">l</tspan>
    </text>
    <text transform="matrix(1, 0, 0, 1, 441.366, 350)">
      <tspan x="-44.366" y="4" font-family="Helvetica" font-size="12" kerning="0.002" fill="#000000">Cap</tspan>
      <tspan x="-22.345" y="4" font-family="Helvetica" font-size="12" kerning="-0.002" fill="#000000">t</tspan>
      <tspan x="-19.013" y="4" font-family="Helvetica" font-size="12" kerning="0.002" fill="#000000">u</tspan>
      <tspan x="-12.337" y="4" font-family="Helvetica" font-size="12" fill="#000000">r</tspan>
      <tspan x="-8.341" y="4" font-family="Helvetica" font-size="12" kerning="0.002" fill="#000000">e</tspan>
      <tspan x="-1.665" y="4" font-family="Helvetica" font-size="12" kerning="-0.002" fill="#000000">/</tspan>
      <tspan x="1.667" y="4" font-family="Helvetica" font-size="12" fill="#000000">P</tspan>
      <tspan x="9.671" y="4" font-family="Helvetica" font-size="12" kerning="0.002" fill="#000000">o</tspan>
      <tspan x="16.347" y="4" font-family="Helvetica" font-size="12" fill="#000000">s</tspan>
      <tspan x="22.347" y="4" font-family="Helvetica" font-size="12" kerning="0.002" fill="#000000">i</tspan>
      <tspan x="25.016" y="4" font-family="Helvetica" font-size="12" kerning="-0.002" fill="#000000">t</tspan>
      <tspan x="28.347" y="4" font-family="Helvetica" font-size="12" kerning="0.002" fill="#000000">io</tspan>
      <tspan x="37.692" y="4" font-family="Helvetica" font-size="12" kerning="0" fill="#000000">n</tspan>
    </text>
    <text transform="matrix(1, 0, 0, 1, 458.021, 375)">
      <tspan x="-28.021" y="4" font-family="Helvetica" font-size="12" kerning="0.002" fill="#000000">No</tspan>
      <tspan x="-12.676" y="4" font-family="Helvetica" font-size="12" fill="#000000">zz</tspan>
      <tspan x="-0.676" y="4" font-family="Helvetica" font-size="12" kerning="0.002" fill="#000000">le</tspan>
      <tspan x="8.668" y="4" font-family="Helvetica" font-size="12" kerning="-0.107" fill="#000000"> </tspan>
      <tspan x="11.685" y="4" font-family="Helvetica" font-size="12" kerning="-0.116" fill="#000000">T</tspan>
      <tspan x="18.459" y="4" font-family="Helvetica" font-size="12" kerning="0.222" fill="#000000">i</tspan>
      <tspan x="21.347" y="4" font-family="Helvetica" font-size="12" kerning="0" fill="#000000">p</tspan>
    </text>
    <g clip-path="url(#Clip_1)">
      <path d="M487,457 L514.999,457 L514.999,485 L487,485 z" fill="#000000"/>
    </g>
    <g clip-path="url(#Clip_2)">
      <path d="M512,412 L539.5,412 L539.5,434 L512,434 z" fill="#57AD00"/>
    </g>
    <g clip-path="url(#Clip_3)">
      <path d="M487.25,409.25 L514.74,409.25 L514.74,436.74 L487.25,436.74 z" fill="#000000"/>
    </g>
    <g clip-path="url(#Clip_4)">
      <path d="M511,433 L539,433 L539,461 L511,461 z" fill="#619410"/>
    </g>
    <g clip-path="url(#Clip_5)">
      <path d="M514.07,436.07 L536.07,436.07 L536.07,458.07 L514.07,458.07 z" fill="#E8A547"/>
    </g>
    <g clip-path="url(#Clip_6)">
      <path d="M517.141,439.141 L533.141,439.141 L533.141,455.141 L517.141,455.141 z" fill="#F1D44A"/>
    </g>
    <g clip-path="url(#Clip_7)">
      <path d="M487,433 L515,433 L515,461 L487,461 z" fill="#619410"/>
    </g>
    <g clip-path="url(#Clip_8)">
      <path d="M488.271,434.9 L501.071,434.9 L501.071,448.025 L488.271,448.025 z" fill="#F1D44A"/>
    </g>
    <g clip-path="url(#Clip_9)">
      <path d="M492.323,434.9 L505.123,434.9 L505.123,448.025 L492.323,448.025 z" fill="#F1D44A"/>
    </g>
    <g clip-path="url(#Clip_10)">
      <path d="M496.112,445.443 L508.912,445.443 L508.912,458.568 L496.112,458.568 z" fill="#F1D44A"/>
    </g>
    <g clip-path="url(#Clip_11)">
      <path d="M500.164,445.443 L512.964,445.443 L512.964,458.568 L500.164,458.568 z" fill="#F1D44A"/>
    </g>
    <g clip-path="url(#Clip_12)">
      <path d="M513,361 L537,361 L537,388 L513,388 z" fill="#BD0505"/>
    </g>
    <g clip-path="url(#Clip_13)">
      <path d="M489,361 L513,361 L513,388 L489,388 z" fill="#57AD00"/>
    </g>
    <g clip-path="url(#Clip_14)">
      <path d="M612,342 L630,342 L630,360 L612,360 z" fill="#BD0505"/>
    </g>
    <g clip-path="url(#Clip_15)">
      <path d="M562,338 L584,338 L584,363 L562,363 z" fill="#BD0505"/>
    </g>
    <g clip-path="url(#Clip_16)">
      <path d="M511,337 L539,337 L539,365 L511,365 z" fill="#BD0505"/>
    </g>
    <g clip-path="url(#Clip_17)">
      <path d="M588,342 L606,342 L606,360 L588,360 z" fill="#005BD9"/>
    </g>
    <g clip-path="url(#Clip_18)">
      <path d="M538,338 L560,338 L560,363 L538,363 z" fill="#005BD9"/>
    </g>
    <g clip-path="url(#Clip_19)">
      <path d="M487,337 L515,337 L515,365 L487,365 z" fill="#005BD9"/>
    </g>
    <g clip-path="url(#Clip_20)">
      <path d="M538.343,388.343 L559.657,388.343 L559.657,409.657 L538.343,409.657 z" fill="#BD0505"/>
    </g>
    <g clip-path="url(#Clip_21)">
      <path d="M513,387 L537,387 L537,411 L513,411 z" fill="#57AD00"/>
    </g>
    <g clip-path="url(#Clip_22)">
      <path d="M489,385.848 L514.16,385.848 L514.16,411.15 L489,411.15 z" fill="#57AD00"/>
    </g>
    <g clip-path="url(#Clip_23)">
      <path d="M562,316 L584,316 L584,338 L562,338 z" fill="#BD0505"/>
    </g>
    <g clip-path="url(#Clip_24)">
      <path d="M538,316 L560,316 L560,338 L538,338 z" fill="#E3BC00"/>
    </g>
    <g clip-path="url(#Clip_25)">
      <path d="M514,315 L536,315 L536,339 L514,339 z" fill="#E3BC00"/>
    </g>
    <g clip-path="url(#Clip_26)">
      <path d="M492,315 L513,315 L513,339 L492,339 z" fill="#57AD00"/>
    </g>
    <g id="ic_content_copy_black_18px">
      <path d="M504,492.75 L495,492.75 C494.175,492.75 493.5,493.425 493.5,494.25 L493.5,504.75 L495,504.75 L495,494.25 L504,494.25 L504,492.75 z M506.25,495.75 L498,495.75 C497.175,495.75 496.5,496.425 496.5,497.25 L496.5,507.75 C496.5,508.575 497.175,509.25 498,509.25 L506.25,509.25 C507.075,509.25 507.75,508.575 507.75,507.75 L507.75,497.25 C507.75,496.425 507.075,495.75 506.25,495.75 z M506.25,507.75 L498,507.75 L498,497.25 L506.25,497.25 L506.25,507.75 z" fill="#58AD01"/>
    </g>
    <g id="ic_content_paste_black_18px">
      <path d="M530.25,493.5 L527.115,493.5 C526.8,492.63 525.975,492 525,492 C524.025,492 523.2,492.63 522.885,493.5 L519.75,493.5 C518.925,493.5 518.25,494.175 518.25,495 L518.25,507 C518.25,507.825 518.925,508.5 519.75,508.5 L530.25,508.5 C531.075,508.5 531.75,507.825 531.75,507 L531.75,495 C531.75,494.175 531.075,493.5 530.25,493.5 z M525,493.5 C525.412,493.5 525.75,493.837 525.75,494.25 C525.75,494.663 525.412,495 525,495 C524.588,495 524.25,494.663 524.25,494.25 C524.25,493.837 524.588,493.5 525,493.5 z M530.25,507 L519.75,507 L519.75,495 L521.25,495 L521.25,497.25 L528.75,497.25 L528.75,495 L530.25,495 L530.25,507 z" fill="#58AD01"/>
    </g>
  </g>
</svg>
