<?xml version="1.0" encoding="UTF-8" standalone="no"?>
<!-- Created with Inkscape (http://www.inkscape.org/) -->
<svg xmlns:dc="http://purl.org/dc/elements/1.1/" xmlns:cc="http://creativecommons.org/ns#" xmlns:rdf="http://www.w3.org/1999/02/22-rdf-syntax-ns#" xmlns:svg="http://www.w3.org/2000/svg" xmlns="http://www.w3.org/2000/svg" xmlns:xlink="http://www.w3.org/1999/xlink" xmlns:sodipodi="http://sodipodi.sourceforge.net/DTD/sodipodi-0.dtd" xmlns:inkscape="http://www.inkscape.org/namespaces/inkscape" width="72.248886mm" height="58.068748mm" viewBox="0 0 255.99999 205.75541" id="svg2" version="1.1" inkscape:version="0.91 r13725" sodipodi:docname="openscad.svg">
  <defs id="defs4">
    <linearGradient id="linearGradient4618">
      <stop style="stop-color:#e47200;stop-opacity:0.40392157" offset="0" id="stop4620"/>
      <stop id="stop4630" offset="0.41530523" style="stop-color:#8f4200;stop-opacity:0.48235294"/>
      <stop id="stop4628" offset="0.64260215" style="stop-color:#2b1600;stop-opacity:0.60000002"/>
      <stop id="stop4626" offset="0.80695951" style="stop-color:#512800;stop-opacity:0.5529412"/>
      <stop style="stop-color:#b45600;stop-opacity:0.4509804" offset="1" id="stop4622"/>
    </linearGradient>
    <linearGradient id="linearGradient4575">
      <stop style="stop-color:#9a8649;stop-opacity:1" offset="0" id="stop4577"/>
      <stop id="stop4585" offset="0.25" style="stop-color:#7f6638;stop-opacity:1"/>
      <stop id="stop4583" offset="0.5" style="stop-color:#998649;stop-opacity:1"/>
      <stop style="stop-color:#baae5e;stop-opacity:1" offset="1" id="stop4579"/>
    </linearGradient>
    <linearGradient id="linearGradient4561">
      <stop style="stop-color:#cebb67;stop-opacity:1" offset="0" id="stop4563"/>
      <stop id="stop4573" offset="0.31986639" style="stop-color:#82683a;stop-opacity:1"/>
      <stop id="stop4571" offset="0.53119898" style="stop-color:#79733b;stop-opacity:1"/>
      <stop id="stop4569" offset="0.74940163" style="stop-color:#70753b;stop-opacity:1"/>
      <stop style="stop-color:#c9b965;stop-opacity:1" offset="1" id="stop4565"/>
    </linearGradient>
    <linearGradient inkscape:collect="always" id="linearGradient4553">
      <stop style="stop-color:#7f7a40;stop-opacity:1" offset="0" id="stop4555"/>
      <stop style="stop-color:#5c572b;stop-opacity:1" offset="1" id="stop4557"/>
    </linearGradient>
    <linearGradient inkscape:collect="always" id="linearGradient4545">
      <stop style="stop-color:#7f753e;stop-opacity:1" offset="0" id="stop4547"/>
      <stop style="stop-color:#bfb461;stop-opacity:1" offset="1" id="stop4549"/>
    </linearGradient>
    <linearGradient inkscape:collect="always" id="linearGradient4530">
      <stop style="stop-color:#8ca151;stop-opacity:1" offset="0" id="stop4532"/>
      <stop style="stop-color:#363f1c;stop-opacity:1" offset="1" id="stop4534"/>
    </linearGradient>
    <linearGradient inkscape:collect="always" id="linearGradient4522">
      <stop style="stop-color:#c5ae5a;stop-opacity:1" offset="0" id="stop4524"/>
      <stop style="stop-color:#a3854b;stop-opacity:1" offset="1" id="stop4526"/>
    </linearGradient>
    <linearGradient inkscape:collect="always" id="linearGradient4514">
      <stop style="stop-color:#cdba66;stop-opacity:1" offset="0" id="stop4516"/>
      <stop style="stop-color:#b29855;stop-opacity:1" offset="1" id="stop4518"/>
    </linearGradient>
    <linearGradient id="linearGradient4502">
      <stop style="stop-color:#8fa452;stop-opacity:1" offset="0" id="stop4504"/>
      <stop id="stop4512" offset="0.34782609" style="stop-color:#2c3516;stop-opacity:1"/>
      <stop id="stop4510" offset="0.5" style="stop-color:#525f2d;stop-opacity:1"/>
      <stop style="stop-color:#97ac57;stop-opacity:1" offset="1" id="stop4506"/>
    </linearGradient>
    <linearGradient id="linearGradient4464">
      <stop style="stop-color:#6a793b;stop-opacity:1" offset="0" id="stop4466"/>
      <stop id="stop4478" offset="0.0625" style="stop-color:#98ae58;stop-opacity:1"/>
      <stop id="stop4476" offset="0.46859029" style="stop-color:#cce878;stop-opacity:1"/>
      <stop id="stop4474" offset="0.78655064" style="stop-color:#9bb159;stop-opacity:1"/>
      <stop id="stop4472" offset="0.95406532" style="stop-color:#53602e;stop-opacity:1"/>
      <stop style="stop-color:#303818;stop-opacity:1" offset="1" id="stop4468"/>
    </linearGradient>
    <linearGradient inkscape:collect="always" id="linearGradient4456">
      <stop style="stop-color:#241000;stop-opacity:0.60784316" offset="0" id="stop4458"/>
      <stop style="stop-color:#7a3b00;stop-opacity:0.50980395" offset="1" id="stop4460"/>
    </linearGradient>
    <linearGradient inkscape:collect="always" id="linearGradient4439">
      <stop style="stop-color:#848544;stop-opacity:1" offset="0" id="stop4441"/>
      <stop style="stop-color:#c6b763;stop-opacity:1" offset="1" id="stop4443"/>
    </linearGradient>
    <linearGradient inkscape:collect="always" id="linearGradient4431">
      <stop style="stop-color:#8d8445;stop-opacity:1" offset="0" id="stop4433"/>
      <stop style="stop-color:#b9a35a;stop-opacity:1" offset="1" id="stop4435"/>
    </linearGradient>
    <linearGradient inkscape:collect="always" id="linearGradient4423">
      <stop style="stop-color:#8ea252;stop-opacity:1" offset="0" id="stop4425"/>
      <stop style="stop-color:#98ad58;stop-opacity:1" offset="1" id="stop4427"/>
    </linearGradient>
    <linearGradient id="linearGradient4290">
      <stop id="stop4294" offset="0" style="stop-color:#fdec50;stop-opacity:1"/>
      <stop id="stop4296" offset="0.79725945" style="stop-color:#a4932f;stop-opacity:1"/>
      <stop id="stop4298" offset="1" style="stop-color:#504611;stop-opacity:1"/>
    </linearGradient>
    <linearGradient id="linearGradient4192-3">
      <stop id="stop4202" offset="0" style="stop-color:#fff755;stop-opacity:1"/>
      <stop style="stop-color:#fdec50;stop-opacity:1" offset="0.30515701" id="stop4212"/>
      <stop style="stop-color:#a4932f;stop-opacity:1" offset="0.61031407" id="stop4210"/>
      <stop style="stop-color:#504611;stop-opacity:1" offset="0.76551503" id="stop4206"/>
      <stop id="stop4204" offset="1" style="stop-color:#dac442;stop-opacity:1"/>
    </linearGradient>
    <radialGradient inkscape:collect="always" xlink:href="#linearGradient4192-3" id="radialGradient4208" cx="800.66028" cy="396.00943" fx="800.66028" fy="396.00943" r="263.01758" gradientTransform="matrix(1.4739888,1.3405558,-1.3576034,1.4927332,177.52528,-1229.0575)" gradientUnits="userSpaceOnUse"/>
    <linearGradient inkscape:collect="always" xlink:href="#linearGradient4423" id="linearGradient4429" x1="1317.6228" y1="152.46321" x2="1350.8789" y2="100.06237" gradientUnits="userSpaceOnUse" gradientTransform="translate(1.5644462,-24.956191)"/>
    <linearGradient inkscape:collect="always" xlink:href="#linearGradient4431" id="linearGradient4437" x1="1312.5472" y1="55.150696" x2="1329.8943" y2="88.629005" gradientUnits="userSpaceOnUse" gradientTransform="translate(-1.3917451,0.69587253)"/>
    <linearGradient inkscape:collect="always" xlink:href="#linearGradient4439" id="linearGradient4445" x1="1367.9138" y1="3.0771544" x2="1400.5157" y2="63.483665" gradientUnits="userSpaceOnUse" gradientTransform="translate(-22,1.210989)"/>
    <linearGradient inkscape:collect="always" xlink:href="#linearGradient4456" id="linearGradient4462" x1="1378.4174" y1="-25.107294" x2="1406.8938" y2="22.130098" gradientUnits="userSpaceOnUse"/>
    <linearGradient inkscape:collect="always" xlink:href="#linearGradient4464" id="linearGradient4470" x1="1312.5433" y1="201.0098" x2="1448.7833" y2="-35.177166" gradientUnits="userSpaceOnUse"/>
    <linearGradient inkscape:collect="always" xlink:href="#linearGradient4502" id="linearGradient4508" x1="894.36328" y1="-374.12793" x2="1164.3008" y2="-374.12793" gradientUnits="userSpaceOnUse"/>
    <linearGradient inkscape:collect="always" xlink:href="#linearGradient4514" id="linearGradient4520" x1="1035.2528" y1="-315.27896" x2="1105.9778" y2="-315.27896" gradientUnits="userSpaceOnUse"/>
    <linearGradient inkscape:collect="always" xlink:href="#linearGradient4522" id="linearGradient4528" x1="994.68396" y1="-298.03348" x2="1035.9283" y2="-306.06403" gradientUnits="userSpaceOnUse"/>
    <linearGradient inkscape:collect="always" xlink:href="#linearGradient4530" id="linearGradient4536" x1="980.88141" y1="-300.03424" x2="1017.548" y2="-331.65445" gradientUnits="userSpaceOnUse" gradientTransform="translate(0,-0.08367056)"/>
    <linearGradient inkscape:collect="always" xlink:href="#linearGradient4545" id="linearGradient4551" x1="636.21613" y1="86.996841" x2="636.8562" y2="27.702536" gradientUnits="userSpaceOnUse"/>
    <linearGradient inkscape:collect="always" xlink:href="#linearGradient4553" id="linearGradient4559" x1="634.79633" y1="101.56287" x2="683.672" y2="127.43675" gradientUnits="userSpaceOnUse" gradientTransform="translate(0.19057913,0.57173738)"/>
    <linearGradient inkscape:collect="always" xlink:href="#linearGradient4561" id="linearGradient4567" x1="533.87988" y1="-19.653048" x2="657.53357" y2="215.90707" gradientUnits="userSpaceOnUse"/>
    <linearGradient inkscape:collect="always" xlink:href="#linearGradient4575" id="linearGradient4581" x1="511.55203" y1="24.141489" x2="602.62952" y2="210.11" gradientUnits="userSpaceOnUse"/>
    <linearGradient inkscape:collect="always" xlink:href="#linearGradient4618" id="linearGradient4624" x1="1190.1843" y1="9.4519663" x2="1303.675" y2="235.77924" gradientUnits="userSpaceOnUse" gradientTransform="translate(-2.5425363e-6,340.20087)"/>
  </defs>
  <sodipodi:namedview id="base" pagecolor="#ffffff" bordercolor="#666666" borderopacity="1.0" inkscape:pageopacity="0.0" inkscape:pageshadow="2" inkscape:zoom="0.28587908" inkscape:cx="707.43106" inkscape:cy="280.93662" inkscape:document-units="px" inkscape:current-layer="layer1" showgrid="false" inkscape:window-width="1600" inkscape:window-height="836" inkscape:window-x="0" inkscape:window-y="27" inkscape:window-maximized="1" fit-margin-top="0" fit-margin-left="0" fit-margin-right="0" fit-margin-bottom="0"/>
  <metadata id="metadata7">
    <rdf:RDF>
      <cc:Work rdf:about="">
        <dc:format>image/svg+xml</dc:format>
        <dc:type rdf:resource="http://purl.org/dc/dcmitype/StillImage"/>
        <dc:title/>
      </cc:Work>
    </rdf:RDF>
  </metadata>
  <g inkscape:label="Layer 1" inkscape:groupmode="layer" id="layer1" transform="translate(-106.67573,-705.67988)">
    <g id="g4637" transform="matrix(0.39171553,0,0,0.39171553,-168.04719,577.70557)">
      <path inkscape:connector-curvature="0" id="ellipse4178" d="m 1228.6309,334.02704 a 127.7091,76.630369 62.421701 0 0 -20.6836,4.34961 l -0.1973,0.0918 a 127.7091,76.630369 62.421701 0 0 -7.3145,4.30469 l -64.1386,33.71875 120.0176,223.19727 62.4824,-31.59961 a 127.7091,76.630369 62.421701 0 0 3.0801,-1.20117 127.7091,76.630369 62.421701 0 0 6.1171,-3.45117 l 1.9414,-0.98047 -0.1679,-0.31445 a 127.7091,76.630369 62.421701 0 0 4.8398,-141.39649 127.7091,76.630369 62.421701 0 0 -105.9765,-86.71875 z" style="fill:url(#linearGradient4624);fill-opacity:1;fill-rule:evenodd;stroke:none;stroke-width:1.05126798px;stroke-linecap:butt;stroke-linejoin:miter;stroke-opacity:1"/>
      <path sodipodi:nodetypes="sssss" inkscape:connector-curvature="0" id="circle4182" d="M 1027.3038,326.93443 C 882.31929,326.93425 764.78607,444.46748 764.78627,589.452 c -2e-4,144.98452 117.53302,262.51776 262.51753,262.51758 144.9845,2.2e-4 262.5178,-117.53303 262.5176,-262.51758 2e-4,-144.98454 -117.5331,-262.51779 -262.5176,-262.51757 z" style="fill:url(#radialGradient4208);fill-opacity:1;fill-rule:evenodd;stroke:none;stroke-width:1px;stroke-linecap:butt;stroke-linejoin:miter;stroke-opacity:1"/>
      <g transform="translate(-199.32262,603.00074)" id="g4492">
        <path style="fill:url(#linearGradient4445);fill-opacity:1;fill-rule:evenodd;stroke:none;stroke-width:1.05126798px;stroke-linecap:butt;stroke-linejoin:miter;stroke-opacity:1" d="m 1357.3906,-7.615211 c -16.6352,14.4179 -32.0074,33.1226 -44.3203,54.5332 -0.2162,0.377 -0.421,0.7571 -0.6348,1.1348 l 44.5704,24.9062 c 0,-0.114 -0.01,-0.4941 -0.01,-0.4941 0,0 32.9079,-12.7281 49.1758,-46.8321 -8.1994,-3.2053 -18.3296,-7.8933 -27.6836,-14.2988 -10.1336,-6.9393 -16.8847,-13.8189 -21.0977,-18.9492 z" id="path4255" inkscape:connector-curvature="0" sodipodi:nodetypes="ccccccsc"/>
        <path sodipodi:nodetypes="ccscsccscc" style="fill:url(#linearGradient4470);fill-opacity:1;fill-rule:evenodd;stroke:none;stroke-width:1.05126798px;stroke-linecap:butt;stroke-linejoin:miter;stroke-opacity:1" d="m 1430.2235,-39.061273 c -7.9452,-0.42743 -16.4281,0.700961 -25.2109,3.353515 5.6556,7.671439 13.0663,23.731472 6.4517,46.957031 -12.7082,44.621572 -54.4459,60.732422 -54.4459,60.732422 0,0 1.5012,32.864035 -15.6891,60.339845 -19.8168,31.67372 -48.1065,30.24583 -52.4046,29.85156 4.3861,18.57276 14.031,32.38405 27.7656,39.75977 39.2699,20.95008 101.3285,-14.70285 138.6113,-79.63281 37.2828,-64.929417 35.6721,-134.548265 -3.5976,-155.498052 -6.4281,-3.429505 -13.6541,-5.401902 -21.4805,-5.863281 z" id="path4257" inkscape:connector-curvature="0"/>
        <path style="fill:url(#linearGradient4462);fill-opacity:1;fill-rule:evenodd;stroke:none;stroke-width:1.05126798px;stroke-linecap:butt;stroke-linejoin:miter;stroke-opacity:1" d="m 1405.2199,-35.7201 c -16.1386,4.797762 -32.5948,14.535326 -47.961,27.9257813 0.029,0.14439 0.052,0.289655 0.07,0.435547 4.2144,5.127744 10.9586,11.995537 21.0762,18.9238277 9.344,6.398618 19.4615,11.083976 27.6563,14.289062 2.193,-4.493607 4.109,-9.349232 5.6093,-14.617187 6.6146,-23.22556 -0.7955,-39.285591 -6.4511,-46.957031 z" id="path4263" inkscape:connector-curvature="0" sodipodi:nodetypes="cccscsc"/>
        <path style="fill:url(#linearGradient4429);fill-opacity:1;fill-rule:evenodd;stroke:none;stroke-width:1.05126798px;stroke-linecap:butt;stroke-linejoin:miter;stroke-opacity:1" d="m 1360.447,70.742271 -2.8945,1.488281 c 0.4942,-0.203066 1.3038,-0.549572 2.8964,-1.322266 l 0,-0.166015 z m -3.5235,1.8125 -67.3632,34.634769 c -0.6427,3.04508 -1.2046,6.07032 -1.668,9.06641 6.3155,1.21822 14.1882,3.77546 23.5234,8.74414 13.3323,7.0961 20.2495,12.51155 23.8379,16.14648 2.0526,-2.48109 4.0558,-5.23545 5.9785,-8.30859 17.1072,-27.34297 15.7054,-59.967861 15.6914,-60.283209 z m -37.6523,82.500009 -13.9043,5.92773 c 4.2613,-1.15516 9.0162,-3.00312 13.9043,-5.92773 z" id="path4276" inkscape:connector-curvature="0"/>
        <path style="fill:url(#linearGradient4437);fill-opacity:1;fill-rule:evenodd;stroke:none;stroke-width:1.05126798px;stroke-linecap:butt;stroke-linejoin:miter;stroke-opacity:1" d="m 1312.8954,47.803295 c -11.0787,19.641337 -18.8173,40.149578 -22.8457,59.753905 l 67.5645,-35.166015 c -10e-5,-0.0024 0,-0.0094 0,-0.01172 l -44.7188,-24.576172 z" id="path4281" inkscape:connector-curvature="0"/>
      </g>
      <g transform="translate(2.1561567,757.39944)" id="g4538">
        <path style="color:#000000;clip-rule:nonzero;display:inline;overflow:visible;visibility:visible;opacity:1;isolation:auto;mix-blend-mode:normal;color-interpolation:sRGB;color-interpolation-filters:linearRGB;solid-color:#000000;solid-opacity:1;fill:url(#linearGradient4520);fill-opacity:1;fill-rule:evenodd;stroke:none;stroke-width:1;stroke-linecap:butt;stroke-linejoin:miter;stroke-miterlimit:4;stroke-dasharray:none;stroke-dashoffset:0;stroke-opacity:1;color-rendering:auto;image-rendering:auto;shape-rendering:auto;text-rendering:auto;enable-background:accumulate" d="m 1093.7235,-336.42623 c -17.488,-0.20054 -33.0899,6.68945 -33.0899,6.68945 l -25.3808,11.84766 0.7558,23.76172 c 25.4603,-0.5973 49.1355,-5.05524 69.0235,-12.20313 0.2372,-4.48179 0.6401,-9.38072 1.3535,-13.32812 0.9744,-5.39187 2.6661,-10.74631 4.1094,-14.7461 -3.9457,-0.87906 -8.333,-1.54666 -13.252,-1.88281 -1.1786,-0.0805 -2.3537,-0.1253 -3.5195,-0.13867 z" id="path4356" inkscape:connector-curvature="0"/>
        <path inkscape:connector-curvature="0" style="color:#000000;clip-rule:nonzero;display:inline;overflow:visible;visibility:visible;opacity:1;isolation:auto;mix-blend-mode:normal;color-interpolation:sRGB;color-interpolation-filters:linearRGB;solid-color:#000000;solid-opacity:1;fill:url(#linearGradient4508);fill-opacity:1;fill-rule:evenodd;stroke:none;stroke-width:1;stroke-linecap:butt;stroke-linejoin:miter;stroke-miterlimit:4;stroke-dasharray:none;stroke-dashoffset:0;stroke-opacity:1;color-rendering:auto;image-rendering:auto;shape-rendering:auto;text-rendering:auto;enable-background:accumulate" d="m 1031.082,-430.69727 c -73.57379,2.5e-4 -136.71882,29.59085 -136.71872,66.81055 -4e-5,15.60611 11.00344,30.45444 29.20117,42.43945 l 0.70117,-0.10742 c 3.36199,-3.42653 9.49823,-8.30163 20.10547,-12.6914 6.91696,-2.86257 15.53193,-3.76262 23.59961,-3.76953 13.44614,-0.0115 25.3711,2.45703 25.3711,2.45703 l 41.7832,18 25.8613,-12.07227 c 0,0 17.7525,-7.83942 36.6094,-6.55078 21.1875,1.4479 32.9173,8.84276 38.8184,14.31836 l 0.4961,0.15039 c 17.1637,-11.7568 27.3906,-26.25927 27.3906,-41.5918 10e-5,-37.22009 -59.6442,-67.39289 -133.2188,-67.39258 z" id="path4306"/>
        <path style="color:#000000;clip-rule:nonzero;display:inline;overflow:visible;visibility:visible;opacity:1;isolation:auto;mix-blend-mode:normal;color-interpolation:sRGB;color-interpolation-filters:linearRGB;solid-color:#000000;solid-opacity:1;fill:url(#linearGradient4528);fill-opacity:1;fill-rule:evenodd;stroke:none;stroke-width:1;stroke-linecap:butt;stroke-linejoin:miter;stroke-miterlimit:4;stroke-dasharray:none;stroke-dashoffset:0;stroke-opacity:1;color-rendering:auto;image-rendering:auto;shape-rendering:auto;text-rendering:auto;enable-background:accumulate" d="m 1035.1725,-317.98398 -0.4805,0.22461 -0.1797,-0.0781 -42.33787,20.72656 c 12.09077,1.92006 24.81417,2.96676 37.89057,2.9668 1.9656,1e-5 3.9178,-0.0325 5.8633,-0.0781 l -0.7558,-23.76172 z" id="path4343" inkscape:connector-curvature="0"/>
        <path id="path4341" d="m 968.83559,-338.23155 c 1.05617,3.31792 2.15025,7.61006 3.125,13.17188 1.96564,11.21567 2.25632,19.44446 2.18164,24.28515 5.84755,1.43235 11.90808,2.64821 18.13281,3.63672 l 42.33786,-20.72656 -41.60348,-17.92187 c 0,0 -11.22757,-2.31679 -24.17383,-2.44532 z" style="color:#000000;clip-rule:nonzero;display:inline;overflow:visible;visibility:visible;opacity:1;isolation:auto;mix-blend-mode:normal;color-interpolation:sRGB;color-interpolation-filters:linearRGB;solid-color:#000000;solid-opacity:1;fill:url(#linearGradient4536);fill-opacity:1;fill-rule:evenodd;stroke:none;stroke-width:1;stroke-linecap:butt;stroke-linejoin:miter;stroke-miterlimit:4;stroke-dasharray:none;stroke-dashoffset:0;stroke-opacity:1;color-rendering:auto;image-rendering:auto;shape-rendering:auto;text-rendering:auto;enable-background:accumulate" inkscape:connector-curvature="0"/>
        <path style="color:#000000;clip-rule:nonzero;display:inline;overflow:visible;visibility:visible;opacity:1;isolation:auto;mix-blend-mode:normal;color-interpolation:sRGB;color-interpolation-filters:linearRGB;solid-color:#000000;solid-opacity:1;fill:#dd6b00;fill-opacity:0.41176471;fill-rule:evenodd;stroke:none;stroke-width:1;stroke-linecap:butt;stroke-linejoin:miter;stroke-miterlimit:4;stroke-dasharray:none;stroke-dashoffset:0;stroke-opacity:1;color-rendering:auto;image-rendering:auto;shape-rendering:auto;text-rendering:auto;enable-background:accumulate" d="m 1110.5751,-334.37348 c -1.4433,3.99979 -3.135,9.35423 -4.1094,14.7461 -0.7134,3.9474 -1.1163,8.84633 -1.3535,13.32812 11.9034,-4.2782 22.45,-9.51984 31.2109,-15.47461 -4.5,-4.22821 -12.5316,-9.65507 -25.748,-12.59961 z" id="path4352" inkscape:connector-curvature="0"/>
      </g>
      <path inkscape:connector-curvature="0" id="path4370" d="m 800.32227,558.53906 -71.87696,32.19532 0.4668,0.96289 c -34.02717,18.3971 -37.04427,81.0807 -6.39453,149.9414 27.39417,61.54645 86.51888,109.49841 123.95898,93.69922 0.21014,-0.0887 0.4132,-0.18591 0.6211,-0.27734 l 0.5664,1.16797 79.2168,-40.78516 -0.31641,-0.61328 c -36.32084,13.8866 -82.29784,-11.07162 -123.45898,-90.86524 -31.01792,-60.13029 -30.86131,-121.91834 -2.7832,-145.42578 z" style="fill:#964700;fill-opacity:0.47843137;fill-rule:evenodd;stroke:none;stroke-width:1px;stroke-linecap:butt;stroke-linejoin:miter;stroke-opacity:1"/>
      <g transform="translate(263.05111,580.59459)" id="g4587">
        <path style="fill:url(#linearGradient4567);fill-opacity:1;fill-rule:evenodd;stroke:none;stroke-width:1px;stroke-linecap:butt;stroke-linejoin:miter;stroke-opacity:1" d="m 555.49423,-26.957765 c -6.24815,0.14838 -12.07345,1.45815 -17.35351,3.9082 -15.51667,7.19917 -25.12891,23.4313704 -28.51758,44.74024 29.53457,18.4024 59.70031,58.4745 73.6582,89.216795 17.18666,37.85368 24.18058,74.90765 20.46094,102.98242 19.64604,10.68004 38.55102,11.33389 55.23242,3.5957 13.94861,-6.47052 22.54026,-20.83174 25.96289,-39.74414 l -2.1582,1.84375 c 0,0 -27.68966,-16.51365 -38.84766,-38.27148 -8.7495,-17.06133 -6.43164,-52.826175 -6.43164,-52.826175 0,0 -48.65259,-28.41226 -54.89063,-64.47851 -5.10593,-29.5208396 4.75977,-41.71094 4.75977,-41.71094 l 1.0957,-0.32422 c -10.16347,-5.44927 -20.38666,-8.6373 -30.26757,-8.92383 -0.90947,-0.0263 -1.81054,-0.0288 -2.70313,-0.008 z m 32.9707,8.93164 c 0.78669,0.42179 1.57165,0.86176 2.35743,1.31055 -0.78568,-0.44876 -1.57085,-0.88882 -2.35743,-1.31055 z m 96.47266,195.767575 c 0.17201,-0.95048 0.33067,-1.91365 0.47656,-2.88672 -0.1459,0.97302 -0.30455,1.93627 -0.47656,2.88672 z M 591.20517,-16.496825 c 2.3859,1.37614 4.76667,2.87432 7.13672,4.48828 -2.37037,-1.61455 -4.75049,-3.11185 -7.13672,-4.48828 z m 7.45117,4.70117 c 0.75132,0.51506 1.50296,1.0422 2.25195,1.58008 -0.74933,-0.53827 -1.50029,-1.06467 -2.25195,-1.58008 z m 2.75195,1.9433604 c 2.24845,1.63096 4.48439,3.36457 6.70508,5.1914 -2.22103,-1.82776 -4.45627,-3.55972 -6.70508,-5.1914 z m 7.42774,5.78906 c 0.70565,0.58794 1.40919,1.18233 2.11133,1.78906 -0.70188,-0.60671 -1.40595,-1.20113 -2.11133,-1.78906 z m 2.4082,2.04883 c 1.40159,1.21727 2.79598,2.47233 4.18164,3.76172 -1.38591,-1.29012 -2.77979,-2.54379 -4.18164,-3.76172 z m 4.7168,4.25781 c 0.65532,0.61506 1.30769,1.24249 1.95898,1.87305 -0.65153,-0.63104 -1.30342,-1.25754 -1.95898,-1.87305 z m 2.79687,2.68945 c 0.63433,0.62224 1.26829,1.24629 1.89844,1.88282 -0.6302,-0.63682 -1.26406,-1.2603 -1.89844,-1.88282 z m 2.22852,2.22266 c 1.26494,1.28424 2.51911,2.59983 3.76562,3.9394496 -1.24612,-1.3396996 -2.50108,-2.6551096 -3.76562,-3.9394496 z m 4.74219,4.9921896 c 0.53824,0.58692 1.07493,1.18053 1.60937,1.77734 -0.53476,-0.5974 -1.0708,-1.18985 -1.60937,-1.77734 z m 2.86328,3.19336 c 0.48473,0.55141 0.96982,1.09888 1.45117,1.6582 -0.48118,-0.55932 -0.96661,-1.10679 -1.45117,-1.6582 z m 3.88672,4.53906 c 0.42306,0.50941 0.84157,1.02766 1.26171,1.54297 -0.42015,-0.5155 -0.83863,-1.03337 -1.26171,-1.54297 z m 2.73242,3.36719 c 0.4012,0.50277 0.80285,1.00567 1.20117,1.51367 -0.39842,-0.50829 -0.79987,-1.01062 -1.20117,-1.51367 z m 3.09179,3.96094 c 0.4213,0.55243 0.84004,1.10791 1.25782,1.66601 -0.41781,-0.5583 -0.8365,-1.11338 -1.25782,-1.66601 z m 3.2168,4.3164 c 0.32646,0.44899 0.6505,0.90118 0.97461,1.35352 -0.32404,-0.45237 -0.64822,-0.9045 -0.97461,-1.35352 z m 2.7461,3.86133 c 0.28116,0.40308 0.56254,0.80541 0.84179,1.21094 -0.27926,-0.40564 -0.56062,-0.80775 -0.84179,-1.21094 z m 3.24023,4.75586 c 0.24115,0.36349 0.47722,0.7324 0.7168,1.09766 -0.23957,-0.36531 -0.47566,-0.73412 -0.7168,-1.09766 z m 2.47851,3.8164 c 0.28066,0.44014 0.55958,0.88174 0.8379,1.32422 -0.27836,-0.44262 -0.5572,-0.88394 -0.8379,-1.32422 z m 2.91016,4.67383 c 0.0935,0.15395 0.188,0.30674 0.28125,0.46094 -0.0933,-0.15426 -0.18769,-0.30694 -0.28125,-0.46094 z m 2.61914,4.40821 c 0.2195,0.37807 0.43463,0.75921 0.65235,1.13867 -0.21774,-0.37951 -0.43284,-0.76054 -0.65235,-1.13867 z m 2.36914,4.17773 c 0.2051,0.36894 0.41185,0.7373 0.61524,1.10742 -0.20347,-0.37029 -0.41005,-0.7383 -0.61524,-1.10742 z m 5.65821,10.77539 c 0.17593,0.35569 0.35143,0.71241 0.52539,1.06836 -0.17407,-0.35616 -0.34935,-0.71246 -0.52539,-1.06836 z m 3.15039,6.60352 c 0.10378,0.22635 0.20365,0.45327 0.30664,0.67968 -0.10306,-0.22656 -0.20279,-0.45318 -0.30664,-0.67968 z m 2.61718,5.91797 c 0.10651,0.24938 0.21673,0.49864 0.32227,0.74804 -0.10557,-0.24946 -0.21573,-0.4986 -0.32227,-0.74804 z m 2.54297,6.18945 c 0.15893,0.40243 0.31627,0.8047 0.47266,1.20703 -0.15648,-0.40254 -0.31364,-0.80439 -0.47266,-1.20703 z m 2.54492,6.7168 c 0.0367,0.10169 0.0709,0.20301 0.10743,0.30468 -0.0365,-0.10171 -0.0707,-0.20296 -0.10743,-0.30468 z m 1.88672,5.46875 c 0.15001,0.45061 0.30245,0.90142 0.44922,1.351565 -0.14684,-0.450295 -0.29914,-0.900815 -0.44922,-1.351565 z m 2.08594,6.580075 c 0.11489,0.38342 0.22538,0.7655 0.33789,1.14844 -0.1126,-0.38317 -0.22291,-0.76479 -0.33789,-1.14844 z m 1.64258,5.77344 c 0.0925,0.34221 0.19067,0.68563 0.28125,1.02734 -0.0906,-0.34178 -0.18872,-0.68507 -0.28125,-1.02734 z m 1.54101,6.04688 c 0.12561,0.52507 0.24817,1.04863 0.36914,1.57226 -0.12098,-0.52354 -0.24353,-1.04729 -0.36914,-1.57226 z m 1.4668,6.58593 c 0.0569,0.27794 0.10852,0.55263 0.16406,0.83008 -0.0555,-0.2774 -0.10717,-0.55218 -0.16406,-0.83008 z m 1.01367,5.35547 c 0.0747,0.42506 0.15118,0.85167 0.22266,1.27539 -0.0716,-0.42398 -0.1479,-0.85007 -0.22266,-1.27539 z m 0.9668,6.06641 c 0.0725,0.51106 0.13741,1.01855 0.20508,1.52734 -0.0677,-0.50892 -0.13257,-1.01615 -0.20508,-1.52734 z m 0.68164,5.44141 c 0.0431,0.39187 0.0946,0.78738 0.13477,1.17773 -0.0402,-0.39045 -0.0916,-0.78576 -0.13477,-1.17773 z m 0.53711,5.79492 c 0.0531,0.71507 0.10743,1.43145 0.15039,2.14062 -0.043,-0.70958 -0.0972,-1.42514 -0.15039,-2.14062 z m 0.17578,2.57422 c 0.0631,1.09211 0.11546,2.17851 0.1543,3.25586 -0.0389,-1.07736 -0.0911,-2.16374 -0.1543,-3.25586 z m 0.1543,3.25586 c 0.081,2.24709 0.10869,4.45905 0.084,6.6367 0.0246,-2.17776 -0.003,-4.38948 -0.084,-6.6367 z m 0.082,6.80467 c -0.0125,0.99259 -0.0357,1.97804 -0.0703,2.95508 0.0345,-0.97717 0.0578,-1.96234 0.0703,-2.95508 z m -0.084,3.33789 c -0.12183,3.17088 -0.36078,6.25755 -0.71679,9.24805 0.35596,-2.99068 0.5951,-6.07692 0.71679,-9.24805 z m -0.72265,9.30078 c -0.11718,0.98015 -0.24818,1.9491 -0.39063,2.90821 0.14244,-0.95916 0.27346,-1.928 0.39063,-2.90821 z" id="path4378" inkscape:connector-curvature="0"/>
        <path style="fill:url(#linearGradient4559);fill-opacity:1;fill-rule:evenodd;stroke:none;stroke-width:1px;stroke-linecap:butt;stroke-linejoin:miter;stroke-opacity:1" d="m 667.3957,76.201274 -30.03125,12.12305 c 0.002,9e-4 0.0566,0.0332 0.0566,0.0332 0,0 -2.31787,35.764846 6.43164,52.826176 3.88212,7.57004 9.76901,14.4789 15.79102,20.30469 2.51464,-2.2039 5.36881,-4.49954 8.50976,-6.67383 7.19918,-4.98351 13.1962,-8.0324 17.86524,-9.91406 -1.78975,-21.33289 -8.04222,-45.145251 -18.62301,-68.699226 z" id="path4413" inkscape:connector-curvature="0"/>
        <path style="fill:url(#linearGradient4581);fill-opacity:1;fill-rule:evenodd;stroke:none;stroke-width:1px;stroke-linecap:butt;stroke-linejoin:miter;stroke-opacity:1" d="m 510.23425,21.834699 c -4.66178,29.31443 2.4548,68.23904 22.1875,106.492181 23.30832,45.18473 48.16226,72.78544 71.93164,85.70703 3.71964,-28.07477 -3.27428,-65.12874 -20.46094,-102.98242 -13.95789,-30.742291 -44.12363,-70.814391 -73.6582,-89.216791 z" id="path4364" inkscape:connector-curvature="0"/>
        <path style="fill:#c85e00;fill-opacity:0.43529412;fill-rule:evenodd;stroke:none;stroke-width:1px;stroke-linecap:butt;stroke-linejoin:miter;stroke-opacity:1" d="m 587.88143,-18.005184 -1.0957,0.32422 c 0,0 -9.8657,12.190101 -4.75977,41.71094 1.08021,6.2454 3.45249,12.25304 6.60352,17.93164 6.12542,-1.06185 13.32018,-2.79326 21.62695,-5.6211 10.61407,-3.6133 19.5389,-7.03992 26.7793,-10 -14.91148,-19.357779 -31.94523,-35.118859 -49.1543,-44.3457 z" id="path4373" inkscape:connector-curvature="0"/>
        <path style="fill:url(#linearGradient4551);fill-opacity:1;fill-rule:evenodd;stroke:none;stroke-width:1px;stroke-linecap:butt;stroke-linejoin:miter;stroke-opacity:1" d="m 637.18695,26.282306 c -7.24041,2.96008 -16.16524,6.3867 -26.7793,10 -8.30677,2.82784 -15.50153,4.55925 -21.62695,5.6211 14.97333,26.98402 47.91354,46.32797 48.23047,46.51367 l 30.03125,-12.12305 c -2.09144,-4.65577 -4.34325,-9.302 -6.77148,-13.91601 -6.75999,-12.84498 -14.57786,-25.05322 -23.08399,-36.09571 z" id="path4398" inkscape:connector-curvature="0"/>
        <path style="fill:#612f00;fill-opacity:0.54117647;fill-rule:evenodd;stroke:none;stroke-width:1px;stroke-linecap:butt;stroke-linejoin:miter;stroke-opacity:1" d="m 685.80985,145.11659 c -4.66903,1.88166 -10.66607,4.93055 -17.86524,9.91406 -3.14096,2.17429 -5.99511,4.46993 -8.50976,6.67383 11.28647,10.91874 23.05664,17.9668 23.05664,17.9668 l 2.1582,-1.84375 c 1.77867,-9.82828 2.15187,-20.89041 1.16016,-32.71094 z" id="path4409" inkscape:connector-curvature="0"/>
      </g>
    </g>
  </g>
</svg>