<svg width="85.03937" height="85.03937" xmlns="http://www.w3.org/2000/svg" version="1.1">
 <metadata id="metadata4148">image/svg+xml</metadata>

 <g>
  <title>Layer 1</title>
  <path stroke-dashoffset="0" stroke-miterlimit="4" stroke="#000000" fill-rule="nonzero" fill="#619410" id="path4762" d="m5.26579,48.75859c-0.01713,8.2439 -0.06042,16.4985 -0.06125,24.7358c11.03391,-0.03 22.07861,-0.034 33.1058,-0.08c-0.0065,-8.2204 0.01301,-16.4517 -0.0098,-24.6654c-11.01025,0 -22.03128,-0.013 -33.03479,0.012l0.00004,-0.0024z"/>
  <path stroke-dashoffset="0" stroke-miterlimit="4" stroke="#000000" fill-rule="nonzero" fill="#619410" id="path4762-3" d="m38.30834,48.68619c-0.01713,8.2439 -0.06042,16.4985 -0.06125,24.7358c11.03391,-0.03 22.07861,-0.034 33.1058,-0.08c-0.0065,-8.2204 0.01301,-16.4517 -0.0098,-24.6654c-11.01025,0 -22.03128,-0.013 -33.03479,0.012l0.00004,-0.0024z"/>
  <path stroke-dashoffset="0" stroke-miterlimit="4" stroke="#000000" fill-rule="nonzero" fill="#619410" id="path4762-36" d="m5.35211,23.9374c-0.01713,8.24391 -0.06042,16.49859 -0.06125,24.73589c11.03392,-0.03 22.07861,-0.034 33.1058,-0.08c-0.0065,-8.2204 0.01301,-16.45179 -0.0098,-24.66549c-11.01025,0 -22.03128,-0.013 -33.03479,0.012l0.00004,-0.0024z"/>
  <path stroke-dashoffset="0" stroke-miterlimit="4" stroke="#000000" fill-rule="nonzero" fill="#619410" id="path4762-36-8" d="m38.30834,23.93742c-0.01713,8.24395 -0.06042,16.49857 -0.06125,24.73597c11.03391,-0.03 22.0786,-0.034 33.10579,-0.08c-0.0065,-8.2205 0.01301,-16.45182 -0.0098,-24.66557c-11.01024,0 -22.03128,-0.013 -33.03479,0.012l0.00005,-0.0024z"/>
  <path id="svg_5" d="m59.99545,38.65951c-2.34338,0 -4.24152,-1.87853 -4.24152,-4.19766c0,-2.31917 1.89814,-4.1977 4.24152,-4.1977c2.34334,0 4.24148,1.87853 4.24148,4.1977c0,2.31913 -1.89814,4.19766 -4.24148,4.19766z" opacity="undefined" fill="none" stroke-width="8" stroke="#f20020"/>
 </g>
</svg>