<?xml version="1.0" encoding="UTF-8" standalone="no"?>
<!-- Created with Inkscape (http://www.inkscape.org/) -->

<svg
   xmlns:dc="http://purl.org/dc/elements/1.1/"
   xmlns:cc="http://creativecommons.org/ns#"
   xmlns:rdf="http://www.w3.org/1999/02/22-rdf-syntax-ns#"
   xmlns:svg="http://www.w3.org/2000/svg"
   xmlns="http://www.w3.org/2000/svg"
   xmlns:sodipodi="http://sodipodi.sourceforge.net/DTD/sodipodi-0.dtd"
   xmlns:inkscape="http://www.inkscape.org/namespaces/inkscape"
   width="85.039368"
   height="85.039368"
   viewBox="0 0 85.03937 85.03937"
   id="svg4143"
   version="1.1"
   inkscape:version="0.91 r13725"
   sodipodi:docname="panelize.svg">
  <defs
     id="defs4145" />
  <sodipodi:namedview
     id="base"
     pagecolor="#ffffff"
     bordercolor="#666666"
     borderopacity="1.0"
     inkscape:pageopacity="0.0"
     inkscape:pageshadow="2"
     inkscape:zoom="7.9195959"
     inkscape:cx="44.704856"
     inkscape:cy="33.422934"
     inkscape:document-units="px"
     inkscape:current-layer="layer1"
     showgrid="false"
     showborder="true"
     units="px"
     inkscape:window-width="1680"
     inkscape:window-height="987"
     inkscape:window-x="-8"
     inkscape:window-y="-8"
     inkscape:window-maximized="1" />
  <metadata
     id="metadata4148">
    <rdf:RDF>
      <cc:Work
         rdf:about="">
        <dc:format>image/svg+xml</dc:format>
        <dc:type
           rdf:resource="http://purl.org/dc/dcmitype/StillImage" />
        <dc:title></dc:title>
      </cc:Work>
    </rdf:RDF>
  </metadata>
  <g
     inkscape:label="Layer 1"
     inkscape:groupmode="layer"
     id="layer1"
     transform="translate(0,-967.32283)">
    <path
       style="opacity:1;fill:#619410;fill-opacity:1;fill-rule:nonzero;stroke:#000000;stroke-width:1;stroke-linejoin:miter;stroke-miterlimit:4;stroke-dasharray:none;stroke-dashoffset:0;stroke-opacity:1"
       d="m 5.2657934,1016.0814 c -0.01713,8.2439 -0.06042,16.4985 -0.061253,24.7358 11.0339136,-0.03 22.0786096,-0.034 33.1057966,-0.08 -0.0065,-8.2204 0.01301,-16.4517 -0.0098,-24.6654 -11.010245,0 -22.031279,-0.013 -33.0347901,0.012 z"
       id="path4762"
       inkscape:connector-curvature="0" />
    <path
       style="opacity:1;fill:#619410;fill-opacity:1;fill-rule:nonzero;stroke:#000000;stroke-width:1;stroke-linejoin:miter;stroke-miterlimit:4;stroke-dasharray:none;stroke-dashoffset:0;stroke-opacity:1"
       d="m 38.30834,1016.009 c -0.01713,8.2439 -0.06042,16.4985 -0.06125,24.7358 11.033913,-0.03 22.078609,-0.034 33.105796,-0.08 -0.0065,-8.2204 0.01301,-16.4517 -0.0098,-24.6654 -11.010245,0 -22.031279,-0.013 -33.034789,0.012 z"
       id="path4762-3"
       inkscape:connector-curvature="0" />
    <path
       style="opacity:1;fill:#619410;fill-opacity:1;fill-rule:nonzero;stroke:#000000;stroke-width:1;stroke-linejoin:miter;stroke-miterlimit:4;stroke-dasharray:none;stroke-dashoffset:0;stroke-opacity:1"
       d="m 5.3521129,991.26021 c -0.01713,8.24391 -0.06042,16.49859 -0.06125,24.73589 11.0339131,-0.03 22.0786091,-0.034 33.1057961,-0.08 -0.0065,-8.2204 0.01301,-16.45179 -0.0098,-24.66549 -11.010245,0 -22.031279,-0.013 -33.0347901,0.012 z"
       id="path4762-36"
       inkscape:connector-curvature="0" />
    <path
       style="opacity:1;fill:#619410;fill-opacity:1;fill-rule:nonzero;stroke:#000000;stroke-width:1;stroke-linejoin:miter;stroke-miterlimit:4;stroke-dasharray:none;stroke-dashoffset:0;stroke-opacity:1"
       d="m 47.147172,976.48675 c -0.01713,8.24395 -0.06042,16.49855 -0.06125,24.73595 11.033912,-0.03 22.078608,-0.034 33.105795,-0.08 -0.0065,-8.2205 0.01301,-16.4518 -0.0098,-24.66555 -11.010245,0 -22.031279,-0.013 -33.03479,0.012 z"
       id="path4762-36-8"
       inkscape:connector-curvature="0" />
  </g>
</svg>
