<svg width="85.03937" height="85.03937" xmlns="http://www.w3.org/2000/svg" version="1.1">
 <metadata id="metadata4148">image/svg+xml</metadata>

 <g>
  <title>Layer 1</title>
  <path stroke="#000000" stroke-dashoffset="0" stroke-miterlimit="4" fill-rule="nonzero" fill="#619410" id="path4762-36" d="m6.36756,9.26629c-0.01024,5.84777 -0.0361,11.70318 -0.0366,17.54627c6.59286,-0.02128 13.19215,-0.02412 19.78098,-0.05675c-0.00388,-5.8311 0.00777,-11.66999 -0.00586,-17.49633c-6.57871,0 -13.16387,-0.00922 -19.73856,0.00851l0.00002,-0.0017z"/>
  <ellipse stroke="#ffff00" stroke-width="5" ry="2.71226" rx="2.71226" id="svg_17" cy="15.62458" cx="12.67767" fill="#619410"/>
  <ellipse id="svg_18" cy="17.45241" cx="22.99606" stroke="#000000" fill="#619410"/>
  <ellipse id="svg_19" cy="22.28732" cx="11.91116" stroke="#000000" fill="#619410"/>
  <path stroke="#000000" stroke-dashoffset="0" stroke-miterlimit="4" fill-rule="nonzero" fill="#619410" id="svg_23" d="m31.83925,9.26629c-0.01024,5.84778 -0.0361,11.70319 -0.0366,17.54627c6.59286,-0.02128 13.19215,-0.02412 19.78098,-0.05674c-0.00388,-5.8311 0.00778,-11.66999 -0.00585,-17.49634c-6.57871,0 -13.16387,-0.00922 -19.73856,0.00852l0.00003,-0.00171z"/>
  <path stroke="#000000" stroke-dashoffset="0" stroke-miterlimit="4" fill-rule="nonzero" fill="#619410" id="svg_24" d="m57.31095,9.26629c-0.01024,5.84778 -0.0361,11.70319 -0.0366,17.54627c6.59286,-0.02128 13.19215,-0.02412 19.78098,-0.05674c-0.00388,-5.8311 0.00778,-11.66999 -0.00585,-17.49634c-6.57871,0 -13.16387,-0.00922 -19.73856,0.00852l0.00003,-0.00171z"/>
  <path stroke="#000000" stroke-dashoffset="0" stroke-miterlimit="4" fill-rule="nonzero" fill="#619410" id="svg_25" d="m6.36755,33.08704c-0.01023,5.84778 -0.0361,11.70319 -0.03659,17.54627c6.59285,-0.02128 13.19214,-0.02412 19.78098,-0.05674c-0.00388,-5.8311 0.00777,-11.66999 -0.00586,-17.49634c-6.57871,0 -13.16386,-0.00922 -19.73855,0.00852l0.00002,-0.00171z"/>
  <ellipse id="svg_27" cy="41.85557" cx="22.76021" stroke="#000000" fill="#619410"/>
  <ellipse id="svg_28" cy="41.85558" cx="11.67531" stroke="#000000" fill="#619410"/>
  <path stroke="#000000" stroke-dashoffset="0" stroke-miterlimit="4" fill-rule="nonzero" fill="#619410" id="svg_29" d="m31.83925,33.08704c-0.01024,5.84778 -0.0361,11.70319 -0.0366,17.54627c6.59286,-0.02128 13.19215,-0.02412 19.78098,-0.05674c-0.00388,-5.8311 0.00778,-11.66999 -0.00585,-17.49634c-6.57871,0 -13.16387,-0.00922 -19.73856,0.00852l0.00003,-0.00171z"/>
  <path stroke="#000000" stroke-dashoffset="0" stroke-miterlimit="4" fill-rule="nonzero" fill="#619410" id="svg_30" d="m57.31095,33.08704c-0.01024,5.84778 -0.0361,11.70319 -0.0366,17.54627c6.59286,-0.02128 13.19215,-0.02412 19.78098,-0.05674c-0.00388,-5.8311 0.00778,-11.66999 -0.00585,-17.49634c-6.57871,0 -13.16387,-0.00922 -19.73856,0.00852l0.00003,-0.00171z"/>
  <path stroke="#000000" stroke-dashoffset="0" stroke-miterlimit="4" fill-rule="nonzero" fill="#619410" id="svg_31" d="m6.36755,57.26157c-0.01023,5.84778 -0.0361,11.70319 -0.03659,17.54627c6.59285,-0.02128 13.19214,-0.02412 19.78098,-0.05674c-0.00388,-5.8311 0.00777,-11.66999 -0.00586,-17.49634c-6.57871,0 -13.16386,-0.00922 -19.73855,0.00852l0.00002,-0.00171z"/>
  <ellipse id="svg_33" cy="65.44769" cx="22.64229" stroke="#000000" fill="#619410"/>
  <ellipse id="svg_34" cy="70.2826" cx="11.55738" stroke="#000000" fill="#619410"/>
  <path stroke="#000000" stroke-dashoffset="0" stroke-miterlimit="4" fill-rule="nonzero" fill="#619410" id="svg_35" d="m31.83925,57.26157c-0.01024,5.84778 -0.0361,11.70319 -0.0366,17.54627c6.59286,-0.02128 13.19215,-0.02412 19.78098,-0.05674c-0.00388,-5.8311 0.00778,-11.66999 -0.00585,-17.49634c-6.57871,0 -13.16387,-0.00922 -19.73856,0.00852l0.00003,-0.00171z"/>
  <path stroke="#000000" stroke-dashoffset="0" stroke-miterlimit="4" fill-rule="nonzero" fill="#619410" id="svg_36" d="m57.31095,57.26157c-0.01024,5.84778 -0.0361,11.70319 -0.0366,17.54627c6.59286,-0.02128 13.19215,-0.02412 19.78098,-0.05674c-0.00388,-5.8311 0.00778,-11.66999 -0.00585,-17.49634c-6.57871,0 -13.16387,-0.00922 -19.73856,0.00852l0.00003,-0.00171z"/>
  <ellipse stroke="#ffff00" stroke-width="5" ry="2.71226" rx="2.71226" id="svg_37" cy="68.39581" cx="12.67767" fill="#619410"/>
  <ellipse stroke="#ffff00" stroke-width="5" ry="2.71226" rx="2.71226" id="svg_38" cy="15.62458" cx="70.63757" fill="#619410"/>
  <ellipse stroke="#ffff00" stroke-width="5" ry="2.71226" rx="2.71226" id="svg_39" cy="68.39581" cx="70.63757" fill="#619410"/>
 </g>
</svg>