<svg width="85.03937" height="85.03937" xmlns="http://www.w3.org/2000/svg" version="1.1">
 <metadata id="metadata4148">image/svg+xml</metadata>

 <g>
  <title>Layer 1</title>
  <path stroke="#000000" stroke-dashoffset="0" stroke-miterlimit="4" fill-rule="nonzero" fill="#619410" id="path4762-36" d="m5.3652,21.70306c-0.01024,3.13739 -0.0361,6.27887 -0.0366,9.41374c6.59286,-0.01142 13.19215,-0.01294 19.78098,-0.03045c-0.00388,-3.12844 0.00777,-6.26106 -0.00586,-9.38695c-6.57871,0 -13.16387,-0.00495 -19.73856,0.00457l0.00002,-0.00091z"/>
  <path stroke="#000000" stroke-dashoffset="0" stroke-miterlimit="4" fill-rule="nonzero" fill="#619410" id="svg_9" d="m31.07275,21.70306c-0.01024,3.13739 -0.0361,6.27887 -0.0366,9.41374c6.59286,-0.01141 13.19215,-0.01294 19.78098,-0.03044c-0.00388,-3.12844 0.00778,-6.26106 -0.00585,-9.38695c-6.57871,0 -13.16387,-0.00495 -19.73856,0.00456l0.00003,-0.00091z"/>
  <path stroke="#000000" stroke-dashoffset="0" stroke-miterlimit="4" fill-rule="nonzero" fill="#619410" id="svg_10" d="m56.54444,21.58514c-0.01024,3.13739 -0.0361,6.27887 -0.0366,9.41374c6.59286,-0.01141 13.19215,-0.01294 19.78098,-0.03044c-0.00388,-3.12844 0.00778,-6.26106 -0.00585,-9.38695c-6.57871,0 -13.16387,-0.00495 -19.73856,0.00456l0.00003,-0.00091z"/>
  <path stroke="#000000" stroke-dashoffset="0" stroke-miterlimit="4" fill-rule="nonzero" fill="#619410" id="svg_11" d="m5.12935,37.2691c-0.01024,3.13739 -0.0361,6.27887 -0.0366,9.41374c6.59286,-0.01141 13.19215,-0.01294 19.78098,-0.03044c-0.00388,-3.12844 0.00778,-6.26106 -0.00585,-9.38695c-6.57871,0 -13.16387,-0.00495 -19.73856,0.00456l0.00003,-0.00091z"/>
  <path stroke="#000000" stroke-dashoffset="0" stroke-miterlimit="4" fill-rule="nonzero" fill="#619410" id="svg_12" d="m30.8369,37.2691c-0.01024,3.13739 -0.0361,6.27887 -0.0366,9.41374c6.59286,-0.01141 13.19215,-0.01294 19.78098,-0.03044c-0.00388,-3.12844 0.00778,-6.26106 -0.00585,-9.38695c-6.57871,0 -13.16387,-0.00495 -19.73856,0.00456l0.00003,-0.00091z"/>
  <path stroke="#000000" stroke-dashoffset="0" stroke-miterlimit="4" fill-rule="nonzero" fill="#619410" id="svg_13" d="m56.30859,37.15118c-0.01024,3.13739 -0.0361,6.27887 -0.0366,9.41374c6.59286,-0.01141 13.19215,-0.01294 19.78098,-0.03044c-0.00388,-3.12844 0.00778,-6.26106 -0.00585,-9.38695c-6.57871,0 -13.16387,-0.00495 -19.73856,0.00456l0.00003,-0.00091z"/>
  <path stroke="#000000" stroke-dashoffset="0" stroke-miterlimit="4" fill-rule="nonzero" fill="#619410" id="svg_14" d="m5.24728,52.83513c-0.01024,3.13739 -0.0361,6.27887 -0.0366,9.41374c6.59286,-0.01141 13.19215,-0.01294 19.78098,-0.03044c-0.00388,-3.12844 0.00778,-6.26106 -0.00585,-9.38695c-6.57871,0 -13.16387,-0.00495 -19.73856,0.00456l0.00003,-0.00091z"/>
  <path stroke="#000000" stroke-dashoffset="0" stroke-miterlimit="4" fill-rule="nonzero" fill="#619410" id="svg_15" d="m30.95483,52.83513c-0.01024,3.13739 -0.0361,6.27887 -0.0366,9.41374c6.59286,-0.01141 13.19215,-0.01294 19.78098,-0.03044c-0.00388,-3.12844 0.00778,-6.26106 -0.00585,-9.38695c-6.57871,0 -13.16387,-0.00495 -19.73856,0.00456l0.00003,-0.00091z"/>
  <path stroke="#000000" stroke-dashoffset="0" stroke-miterlimit="4" fill-rule="nonzero" fill="#619410" id="svg_16" d="m56.42652,52.71721c-0.01024,3.13739 -0.0361,6.27887 -0.0366,9.41374c6.59286,-0.01141 13.19215,-0.01294 19.78098,-0.03044c-0.00388,-3.12844 0.00778,-6.26106 -0.00585,-9.38695c-6.57871,0 -13.16387,-0.00495 -19.73856,0.00456l0.00003,-0.00091z"/>
 </g>
</svg>