<?xml version="1.0" encoding="UTF-8"?>
<!DOCTYPE svg PUBLIC "-//W3C//DTD SVG 1.1//EN" "http://www.w3.org/Graphics/SVG/1.1/DTD/svg11.dtd">
<svg version="1.1" xmlns="http://www.w3.org/2000/svg" xmlns:xlink="http://www.w3.org/1999/xlink" x="0" y="0" width="128" height="128" viewBox="0, 0, 128, 128">
  <g id="Layer_1">
    <path d="M23.521,11.512 L68.451,11.512 C81.81,11.512 92.052,14.488 99.177,20.441 C106.349,26.348 109.935,34.785 109.935,45.754 C109.935,56.77 106.349,65.254 99.177,71.207 C92.052,77.113 81.81,80.066 68.451,80.066 L50.591,80.066 L50.591,116.488 L23.521,116.488 L23.521,11.512 M50.591,31.129 L50.591,60.449 L65.568,60.449 C70.818,60.449 74.872,59.184 77.732,56.652 C80.591,54.074 82.021,50.441 82.021,45.754 C82.021,41.066 80.591,37.457 77.732,34.926 C74.872,32.395 70.818,31.129 65.568,31.129 L50.591,31.129" fill="#000000" id="text1871"/>
  </g>
</svg>
