<?xml version="1.0" encoding="UTF-8"?>
<!DOCTYPE svg PUBLIC "-//W3C//DTD SVG 1.1//EN" "http://www.w3.org/Graphics/SVG/1.1/DTD/svg11.dtd">
<svg version="1.1" xmlns="http://www.w3.org/2000/svg" xmlns:xlink="http://www.w3.org/1999/xlink" x="0" y="0" width="24" height="24" viewBox="0, 0, 24, 24">
  <g id="Layer_1" transform="translate(-492, -488)">
    <g>
      <g id="ic_content_paste_black_18px">
        <path d="M509.25,492.5 L506.115,492.5 C505.8,491.63 504.975,491 504,491 C503.025,491 502.2,491.63 501.885,492.5 L498.75,492.5 C497.925,492.5 497.25,493.175 497.25,494 L497.25,506 C497.25,506.825 497.925,507.5 498.75,507.5 L509.25,507.5 C510.075,507.5 510.75,506.825 510.75,506 L510.75,494 C510.75,493.175 510.075,492.5 509.25,492.5 z M504,492.5 C504.413,492.5 504.75,492.837 504.75,493.25 C504.75,493.663 504.413,494 504,494 C503.587,494 503.25,493.663 503.25,493.25 C503.25,492.837 503.587,492.5 504,492.5 z M509.25,506 L498.75,506 L498.75,494 L500.25,494 L500.25,496.25 L507.75,496.25 L507.75,494 L509.25,494 L509.25,506 z" fill="#58AD01"/>
      </g>
    </g>
  </g>
</svg>
