<?xml version="1.0" encoding="UTF-8"?>
<!DOCTYPE svg PUBLIC "-//W3C//DTD SVG 1.1//EN" "http://www.w3.org/Graphics/SVG/1.1/DTD/svg11.dtd">
<svg version="1.1" xmlns="http://www.w3.org/2000/svg" xmlns:xlink="http://www.w3.org/1999/xlink" x="0" y="0" width="18" height="18" viewBox="0, 0, 18, 18">
  <g id="Layer_1" transform="translate(-516, -492)">
    <g id="ic_content_paste_black_18px">
      <path d="M530.25,493.5 L527.115,493.5 C526.8,492.63 525.975,492 525,492 C524.025,492 523.2,492.63 522.885,493.5 L519.75,493.5 C518.925,493.5 518.25,494.175 518.25,495 L518.25,507 C518.25,507.825 518.925,508.5 519.75,508.5 L530.25,508.5 C531.075,508.5 531.75,507.825 531.75,507 L531.75,495 C531.75,494.175 531.075,493.5 530.25,493.5 z M525,493.5 C525.412,493.5 525.75,493.837 525.75,494.25 C525.75,494.663 525.412,495 525,495 C524.588,495 524.25,494.663 524.25,494.25 C524.25,493.837 524.588,493.5 525,493.5 z M530.25,507 L519.75,507 L519.75,495 L521.25,495 L521.25,497.25 L528.75,497.25 L528.75,495 L530.25,495 L530.25,507 z" fill="#58AD01"/>
    </g>
  </g>
</svg>
