<?xml version="1.0" encoding="UTF-8" standalone="no"?>
<!DOCTYPE svg PUBLIC "-//W3C//DTD SVG 1.1//EN" "http://www.w3.org/Graphics/SVG/1.1/DTD/svg11.dtd">
<svg width="100%" height="100%" viewBox="0 0 100 100" version="1.1" xmlns="http://www.w3.org/2000/svg" xmlns:xlink="http://www.w3.org/1999/xlink" xml:space="preserve" style="fill-rule:evenodd;clip-rule:evenodd;stroke-linejoin:round;stroke-miterlimit:1.41421;">
    <rect id="Artboard1" x="0" y="0" width="100" height="100" style="fill:none;"/>
    <clipPath id="_clip1">
        <rect id="Artboard11" x="0" y="0" width="100" height="100"/>
    </clipPath>
    <g clip-path="url(#_clip1)">
        <g transform="matrix(-1,0,0,1,96.2816,0)">
            <path d="M71.495,81.652C71.695,81.397 71.805,81.081 71.8,80.756C71.799,80.681 71.771,80.607 71.757,80.531C71.741,80.442 71.739,80.353 71.706,80.266C71.706,80.265 71.705,80.265 71.705,80.264L71.705,80.263C71.612,80.025 71.418,79.49 71.181,78.834C70.824,77.847 70.359,76.568 69.918,75.439C69.697,74.873 69.483,74.345 69.285,73.898C69.186,73.673 69.092,73.469 68.997,73.284C68.9,73.096 68.812,72.932 68.683,72.749L68.683,72.75C67.728,71.409 66.951,70.124 66.049,68.732C65.286,67.556 64.421,66.3 63.319,64.922C63.344,64.902 63.37,64.884 63.396,64.863C64.45,64.054 65.584,63.143 66.614,61.963C68.742,59.525 70.557,56.175 70.558,52.075C70.558,51.258 70.486,50.414 70.331,49.549C70.091,48.197 69.618,47.007 68.96,46.003C67.973,44.493 66.581,43.428 65.054,42.76C63.523,42.09 61.854,41.796 60.199,41.776C59.021,41.762 58.168,41.752 57.494,41.752C55.934,41.748 55.237,41.82 54.021,42.011C54.005,41.991 53.991,41.972 53.976,41.952C52.92,40.55 51.854,39.108 51.302,38.227C50.845,37.503 50.219,36.638 49.525,35.722C47.928,33.618 45.975,31.272 45.149,30.288C45.254,29.373 45.428,27.589 45.428,25.702C45.427,24.581 45.36,23.432 45.17,22.362C45.172,22.304 45.185,22.248 45.185,22.189C45.193,21.02 44.765,19.801 43.9,18.774C43.254,17.991 42.422,17.482 41.591,17.206C40.757,16.926 39.923,16.85 39.138,16.849C38.486,16.849 37.865,16.904 37.296,16.962C36.013,17.097 34.38,17.492 32.555,18.232C30.732,18.973 28.727,20.061 26.764,21.592C26.754,21.6 26.75,21.612 26.741,21.619C26.732,21.626 26.719,21.628 26.71,21.637C24.521,23.514 23.746,24.576 22.617,26.21C22.185,26.831 21.735,27.588 21.38,28.449C21.027,29.31 20.765,30.281 20.763,31.328C20.762,32.033 20.888,32.774 21.193,33.49C21.475,34.164 21.911,34.708 22.41,35.144C22.538,35.264 22.695,35.415 22.898,35.61C23.772,36.445 25.232,37.752 27.433,38.544C28.518,38.935 29.633,39.177 30.493,39.331C30.807,39.387 31.069,39.427 31.299,39.46C33.426,42.634 35.94,46.533 38.027,49.772C38.548,50.58 39.038,51.341 39.493,52.044C38.612,53.248 38.056,54.664 37.691,56.084C37.244,57.855 37.086,59.633 37.085,61.042C37.085,61.435 37.098,61.799 37.122,62.131C37.226,63.561 37.758,65.354 39.073,67.015C40.384,68.674 42.484,70.142 45.512,70.878C46.652,71.157 47.785,71.28 48.889,71.279C51.233,71.279 53.44,70.73 55.397,69.959C56.353,69.581 57.248,69.149 58.075,68.697C58.693,69.614 59.5,70.747 60.338,71.873C61.469,73.391 62.625,74.861 63.475,75.769C65.463,77.878 67.577,79.692 69.316,81.702C69.655,82.093 70.166,82.258 70.65,82.166C70.665,82.163 70.678,82.152 70.693,82.149C70.839,82.117 70.982,82.068 71.116,81.988C71.264,81.899 71.39,81.787 71.494,81.658C71.492,81.659 71.492,81.655 71.495,81.652Z" style="fill:rgb(13,13,13);fill-rule:nonzero;"/>
        </g>
        <path d="M40.643,44.2C40.646,44.39 40.854,46.522 41.478,48.38C41.705,49.057 42.302,50.31 42.827,51.173C43.352,52.038 44.11,52.766 45.103,53.443C45.671,53.836 46.506,54.291 47.424,54.504C48.342,54.721 49.471,54.907 50.236,54.906C50.564,54.906 51.925,54.916 52.145,54.888C53.486,54.75 55.691,53.895 55.742,53.832C55.172,54.673 54.271,55.873 54.179,55.999L54.045,56.177L53.875,56.371C53.742,56.507 53.594,56.639 53.419,56.754C53.153,56.933 52.873,57.024 52.735,57.065C52.589,57.11 52.515,57.129 52.364,57.191C52.006,57.333 51.665,57.4 51.29,57.451C50.917,57.5 50.516,57.521 50.086,57.522C49.088,57.521 47.939,57.401 46.785,57.131C45.632,56.858 44.477,56.443 43.48,55.768C41.649,54.518 40.495,52.868 39.802,51.363C39.455,50.609 39.221,49.887 39.07,49.247C38.921,48.603 38.85,48.053 38.849,47.575C38.851,47.349 38.86,47.146 38.92,46.883C38.99,46.618 39.057,46.506 39.123,46.372C39.247,46.14 40.096,44.938 40.643,44.2ZM50.855,25.459C50.855,25.459 51.713,28.001 52.137,29.021C52.502,29.899 52.789,30.437 53.01,30.878C53.145,31.149 53.441,31.637 53.463,31.667C53.8,32.115 54.285,32.696 54.916,33.341C55.721,34.167 56.75,35.093 57.977,35.99C58.724,36.543 60.001,37.121 61.161,37.511C61.742,37.708 62.298,37.865 62.745,37.968C62.761,37.972 63.865,38.125 63.918,38.129C64.616,38.183 65.914,38.162 67.197,38.127C68.319,38.096 70.545,37.769 70.545,37.769C70.545,37.769 69.472,38.32 68.849,38.544C67.764,38.935 66.649,39.177 65.789,39.331C65.475,39.387 65.213,39.427 64.983,39.46C64.491,39.444 62.66,39.493 60.322,38.63C59.13,38.19 57.895,37.628 56.882,36.892C55.516,35.892 54.393,34.845 53.465,33.934C52.217,32.709 51.353,30.629 51.133,30.288C51.028,29.373 50.854,27.589 50.854,25.702C50.854,25.621 50.855,25.459 50.855,25.459ZM52.48,18.658C52.268,20.403 53.217,22.182 54.607,24.186C55.323,25.219 56.303,26.449 57.424,27.467C58.546,28.49 59.697,29.368 60.499,30.003C61.339,30.67 62.538,31.379 63.89,32C65.242,32.623 66.752,33.161 68.227,33.529C68.7,33.647 69.343,33.721 69.885,33.79C71.705,34.082 74.084,33.583 75.385,32.564C75.133,33.664 74.652,34.466 73.872,35.144C73.739,35.259 73.587,35.415 73.384,35.61C70.21,36.8 67.109,36.165 63.999,35.108C62.45,34.493 59.774,33.043 58.686,32.184C57.66,31.369 54.651,28.939 53.215,27.122C52.678,26.442 51.598,24.447 51.112,22.362C51.035,22.034 51.072,20.332 52.48,18.658Z" style="fill:white;"/>
    </g>
</svg>
