<?xml version="1.0" encoding="UTF-8" standalone="no"?>
<!DOCTYPE svg PUBLIC "-//W3C//DTD SVG 1.1//EN" "http://www.w3.org/Graphics/SVG/1.1/DTD/svg11.dtd">
<svg width="100%" height="100%" viewBox="0 0 100 100" version="1.1" xmlns="http://www.w3.org/2000/svg" xmlns:xlink="http://www.w3.org/1999/xlink" xml:space="preserve" style="fill-rule:evenodd;clip-rule:evenodd;stroke-linejoin:round;stroke-miterlimit:1.41421;">
    <rect id="Artboard1" x="0" y="0" width="100" height="100" style="fill:none;"/>
    <clipPath id="_clip1">
        <rect id="Artboard11" x="0" y="0" width="100" height="100"/>
    </clipPath>
    <g clip-path="url(#_clip1)">
        <g transform="matrix(-0.571106,-0.820877,-0.820877,0.571106,117.081,62.0608)">
            <path d="M71.495,81.652C71.695,81.397 71.805,81.081 71.8,80.756C71.799,80.681 71.771,80.607 71.757,80.531C71.741,80.442 71.739,80.353 71.706,80.266C71.706,80.265 71.705,80.265 71.705,80.264L71.705,80.263C71.612,80.025 71.418,79.49 71.181,78.834C70.824,77.847 70.359,76.568 69.918,75.439C69.697,74.873 69.483,74.345 69.285,73.898C69.186,73.673 69.092,73.469 68.997,73.284C68.9,73.096 68.812,72.932 68.683,72.749L68.683,72.75C67.728,71.409 66.951,70.124 66.049,68.732C65.286,67.556 64.421,66.3 63.319,64.922C63.344,64.902 63.37,64.884 63.396,64.863C64.45,64.054 65.584,63.143 66.614,61.963C68.742,59.525 70.557,56.175 70.558,52.075C70.558,51.258 70.486,50.414 70.331,49.549C70.091,48.197 69.618,47.007 68.96,46.003C67.973,44.493 66.581,43.428 65.054,42.76C63.523,42.09 61.854,41.796 60.199,41.776C59.021,41.762 58.168,41.752 57.494,41.752C55.934,41.748 55.237,41.82 54.021,42.011C54.005,41.991 53.991,41.972 53.976,41.952C52.92,40.55 51.854,39.108 51.302,38.227C50.845,37.503 50.219,36.638 49.525,35.722C47.928,33.618 45.975,31.272 45.149,30.288C45.254,29.373 45.428,27.589 45.428,25.702C45.427,24.581 45.36,23.432 45.17,22.362C45.172,22.304 45.185,22.248 45.185,22.189C45.193,21.02 44.765,19.801 43.9,18.774C43.254,17.991 42.422,17.482 41.591,17.206C40.757,16.926 39.923,16.85 39.138,16.849C38.486,16.849 37.865,16.904 37.296,16.962C36.013,17.097 34.38,17.492 32.555,18.232C30.732,18.973 28.727,20.061 26.764,21.592C26.754,21.6 26.75,21.612 26.741,21.619C26.732,21.626 26.719,21.628 26.71,21.637C24.521,23.514 23.746,24.576 22.617,26.21C22.185,26.831 21.735,27.588 21.38,28.449C21.027,29.31 20.765,30.281 20.763,31.328C20.762,32.033 20.888,32.774 21.193,33.49C21.475,34.164 21.911,34.708 22.41,35.144C22.538,35.264 22.695,35.415 22.898,35.61C23.772,36.445 25.232,37.752 27.433,38.544C28.518,38.935 29.633,39.177 30.493,39.331C30.807,39.387 31.069,39.427 31.299,39.46C33.426,42.634 35.94,46.533 38.027,49.772C38.548,50.58 39.038,51.341 39.493,52.044C38.612,53.248 38.056,54.664 37.691,56.084C37.244,57.855 37.086,59.633 37.085,61.042C37.085,61.435 37.098,61.799 37.122,62.131C37.226,63.561 37.758,65.354 39.073,67.015C40.384,68.674 42.484,70.142 45.512,70.878C46.652,71.157 47.785,71.28 48.889,71.279C51.233,71.279 53.44,70.73 55.397,69.959C56.353,69.581 57.248,69.149 58.075,68.697C58.693,69.614 59.5,70.747 60.338,71.873C61.469,73.391 62.625,74.861 63.475,75.769C65.463,77.878 67.577,79.692 69.316,81.702C69.655,82.093 70.166,82.258 70.65,82.166C70.665,82.163 70.678,82.152 70.693,82.149C70.839,82.117 70.982,82.068 71.116,81.988C71.264,81.899 71.39,81.787 71.494,81.658C71.492,81.659 71.492,81.655 71.495,81.652ZM24,29.53C24.252,28.915 24.602,28.32 24.94,27.834C26.097,26.189 26.482,25.599 28.529,23.813C30.258,22.467 32.03,21.506 33.62,20.861C35.214,20.212 36.635,19.882 37.587,19.784C38.118,19.729 38.645,19.686 39.136,19.686C39.728,19.685 40.261,19.75 40.683,19.894C41.108,20.041 41.424,20.24 41.717,20.587C42.201,21.184 42.339,21.657 42.348,22.191C42.35,22.747 42.146,23.416 41.727,24.145C41.107,25.238 40.031,26.408 38.91,27.426C37.788,28.449 36.637,29.327 35.835,29.962C34.995,30.629 33.796,31.338 32.444,31.959C31.092,32.582 29.582,33.12 28.107,33.488C27.634,33.606 27.073,33.683 26.526,33.682C25.858,33.684 25.218,33.565 24.757,33.345C24.627,33.281 24.514,33.213 24.41,33.14C24.312,33.047 24.215,32.955 24.115,32.867C24.112,32.864 24.108,32.864 24.104,32.861C23.986,32.726 23.883,32.575 23.799,32.384C23.658,32.052 23.595,31.709 23.595,31.332C23.595,30.775 23.746,30.146 24,29.53ZM29.18,36.131C30.713,35.723 32.234,35.175 33.63,34.534C35.026,33.841 36.508,33.043 37.596,32.184C38.622,31.369 40.447,29.999 42.05,28.327C42.21,28.16 42.366,27.987 42.521,27.813C42.493,28.261 42.46,28.686 42.427,29.052C42.385,29.505 42.344,29.88 42.312,30.139C42.309,30.163 42.308,30.172 42.305,30.194C41.967,30.653 41.46,31.268 40.787,31.956C39.982,32.782 38.953,33.708 37.726,34.605C36.979,35.158 35.702,35.736 34.542,36.126C33.961,36.323 33.405,36.48 32.958,36.583C32.734,36.634 32.538,36.672 32.387,36.695C32.281,36.712 32.21,36.718 32.167,36.721C31.842,36.685 30.494,36.504 29.18,36.131ZM34.471,39.112C34.943,38.977 35.442,38.819 35.96,38.63C37.151,38.189 38.387,37.628 39.4,36.892C40.766,35.892 41.909,34.865 42.817,33.934C43.145,33.598 43.431,33.281 43.697,32.975C44.253,33.644 44.958,34.503 45.687,35.415C46.93,36.968 48.244,38.689 48.903,39.738C49.309,40.384 49.864,41.164 50.481,42.006C51.405,43.265 52.465,44.65 53.303,45.775C53.721,46.336 54.084,46.834 54.336,47.202C54.452,47.371 54.54,47.508 54.598,47.602C54.596,47.788 54.557,48.156 54.452,48.597C54.289,49.292 53.971,50.177 53.446,51.04C52.921,51.905 52.197,52.749 51.204,53.426C50.636,53.819 49.767,54.158 48.849,54.371C47.931,54.588 46.961,54.687 46.196,54.686C45.868,54.686 45.578,54.667 45.358,54.639C45.14,54.613 44.986,54.566 44.98,54.561C44.733,54.462 44.534,54.401 44.423,54.368C44.396,54.331 44.36,54.283 44.317,54.221C44.009,53.786 43.401,52.866 42.624,51.668C40.573,48.513 37.301,43.38 34.471,39.112ZM54.354,67.326C52.649,68 50.783,68.45 48.887,68.449C47.992,68.449 47.091,68.349 46.185,68.128C43.687,67.511 42.214,66.41 41.291,65.256C40.372,64.103 40.011,62.836 39.947,61.932C39.929,61.677 39.918,61.377 39.918,61.046C39.917,59.855 40.062,58.262 40.438,56.784C40.628,56.02 40.887,55.297 41.197,54.666C41.418,55.001 41.621,55.307 41.784,55.544C41.907,55.724 42.011,55.873 42.103,55.999L42.237,56.177L42.407,56.371C42.54,56.507 42.688,56.639 42.863,56.754C43.129,56.933 43.409,57.024 43.547,57.065C43.693,57.11 43.767,57.129 43.918,57.191C44.276,57.333 44.617,57.4 44.992,57.451C45.365,57.5 45.766,57.521 46.196,57.522C47.194,57.521 48.343,57.401 49.497,57.131C50.65,56.858 51.805,56.443 52.802,55.768C54.633,54.518 55.787,52.868 56.48,51.363C56.827,50.609 57.061,49.887 57.212,49.247C57.361,48.603 57.432,48.053 57.433,47.575C57.431,47.349 57.422,47.146 57.362,46.883C57.292,46.618 57.225,46.506 57.159,46.372C57.035,46.14 56.891,45.919 56.712,45.653C56.511,45.359 56.255,45.003 55.978,44.626C56.367,44.6 56.805,44.59 57.495,44.588C58.141,44.588 58.989,44.598 60.167,44.611C61.956,44.63 63.67,45.061 64.957,45.922C65.603,46.354 66.151,46.888 66.591,47.557C67.029,48.227 67.362,49.037 67.542,50.047C67.667,50.751 67.725,51.425 67.725,52.076C67.725,55.31 66.301,58.004 64.479,60.101C63.656,61.045 62.687,61.838 61.674,62.614C60.703,63.36 59.694,64.087 58.767,64.955C57.547,65.788 56.031,66.664 54.354,67.326ZM62.609,70.185C61.824,69.131 61.059,68.057 60.483,67.206C60.517,67.18 60.549,67.151 60.581,67.123C60.59,67.115 60.602,67.113 60.61,67.104C60.759,66.96 60.923,66.818 61.089,66.674C62.122,67.963 62.928,69.13 63.669,70.274C64.539,71.616 65.344,72.946 66.371,74.392C66.388,74.414 66.473,74.568 66.567,74.771C66.596,74.833 66.629,74.905 66.66,74.975C66.279,74.595 65.898,74.216 65.536,73.83C64.85,73.102 63.698,71.65 62.609,70.185Z" style="fill-rule:nonzero;"/>
        </g>
    </g>
</svg>
