<?xml version="1.0" encoding="UTF-8" standalone="no"?>
<svg
   xmlns:sketch="http://www.bohemiancoding.com/sketch/ns"
   xmlns:dc="http://purl.org/dc/elements/1.1/"
   xmlns:cc="http://creativecommons.org/ns#"
   xmlns:rdf="http://www.w3.org/1999/02/22-rdf-syntax-ns#"
   xmlns:svg="http://www.w3.org/2000/svg"
   xmlns="http://www.w3.org/2000/svg"
   xmlns:sodipodi="http://sodipodi.sourceforge.net/DTD/sodipodi-0.dtd"
   xmlns:inkscape="http://www.inkscape.org/namespaces/inkscape"
   width="24px"
   height="24px"
   viewBox="0 0 24 24"
   version="1.1"
   id="svg2"
   inkscape:version="0.92.1 r15371"
   sodipodi:docname="position-camera-move-next.svg">
  <metadata
     id="metadata15">
    <rdf:RDF>
      <cc:Work
         rdf:about="">
        <dc:format>image/svg+xml</dc:format>
        <dc:type
           rdf:resource="http://purl.org/dc/dcmitype/StillImage" />
        <dc:title>position-camera-move-next</dc:title>
      </cc:Work>
    </rdf:RDF>
  </metadata>
  <sodipodi:namedview
     pagecolor="#ffffff"
     bordercolor="#666666"
     borderopacity="1"
     objecttolerance="10"
     gridtolerance="10"
     guidetolerance="10"
     inkscape:pageopacity="0"
     inkscape:pageshadow="2"
     inkscape:window-width="1600"
     inkscape:window-height="837"
     id="namedview13"
     showgrid="true"
     inkscape:zoom="22.627417"
     inkscape:cx="12.480456"
     inkscape:cy="11.286748"
     inkscape:window-x="1672"
     inkscape:window-y="-8"
     inkscape:window-maximized="1"
     inkscape:current-layer="g4942"
     showguides="true"
     inkscape:guide-bbox="true"
     inkscape:snap-midpoints="true"
     inkscape:snap-smooth-nodes="true"
     inkscape:object-nodes="true"
     inkscape:snap-intersection-paths="true"
     inkscape:object-paths="true"
     inkscape:snap-text-baseline="true"
     inkscape:snap-page="true"
     inkscape:snap-center="true"
     inkscape:snap-object-midpoints="true"
     inkscape:snap-bbox="true"
     showborder="false">
    <sodipodi:guide
       position="12,11.956522"
       orientation="1,0"
       id="guide4741"
       inkscape:label=""
       inkscape:color="rgb(0,0,255)"
       inkscape:locked="false" />
    <sodipodi:guide
       position="17.282609,12"
       orientation="0,1"
       id="guide4743"
       inkscape:label=""
       inkscape:color="rgb(0,0,255)"
       inkscape:locked="false" />
    <inkscape:grid
       type="xygrid"
       id="grid4141" />
  </sodipodi:namedview>
  <!-- Generator: Sketch 3.2.2 (9983) - http://www.bohemiancoding.com/sketch -->
  <title
     id="title4">position-camera-move-next</title>
  <g
     sketch:type="MSPage"
     id="g4942"
     style="fill:none;fill-rule:evenodd;stroke:none;stroke-width:1"
     transform="translate(-0.13498791,0.13498791)">
    <path
       inkscape:connector-curvature="0"
       d="m 5.1349878,14.865012 -2,0 0,4 c 0,1.1 0.9,2 2,2 l 4,0 0,-2 -4,0 0,-4 z m 0,-9.9999999 4,0 0,-2 -4,0 c -1.1,0 -2,0.9 -2,2 l 0,4 2,0 0,-4 z m 14.0000002,-2 -4,0 0,2 4,0 0,4 2,0 0,-4 c 0,-1.1 -0.9,-2 -2,-2 l 0,0 z m 0,15.9999999 -4,0 0,2 4,0 c 1.1,0 2,-0.9 2,-2 l 0,-4 -2,0 0,4 z"
       id="path4946"
       sketch:type="MSShapeGroup"
       sodipodi:nodetypes="ccssccccccccssccccccccccsccccccsscccc"
       style="fill:#bd0404;fill-opacity:1" />
    <g
       style="fill:none;fill-rule:evenodd;stroke:none;stroke-width:1"
       id="g4148"
       transform="matrix(1.109493,0,0,1.1094922,-1.07981,-1.4840876)">
      <ellipse
         style="fill:none;fill-opacity:0.99215686;fill-rule:evenodd;stroke:#005bdb;stroke-width:1.35196924;stroke-linecap:round;stroke-linejoin:round;stroke-miterlimit:4;stroke-dasharray:none;stroke-opacity:0.99215686"
         id="path4948"
         cx="11.910664"
         cy="12.03172"
         rx="4.2812347"
         ry="4.2812381" />
      <path
         sodipodi:open="true"
         d="m 13.713289,12.03172 a 1.8026252,1.8026206 0 0 1 -1.793814,1.802599 1.8026252,1.8026206 0 0 1 -1.81135,-1.784977 1.8026252,1.8026206 0 0 1 1.776106,-1.820049 1.8026252,1.8026206 0 0 1 1.828713,1.767185"
         sodipodi:end="6.2636335"
         sodipodi:start="0"
         sodipodi:ry="1.8026206"
         sodipodi:rx="1.8026252"
         sodipodi:cy="12.03172"
         sodipodi:cx="11.910664"
         sodipodi:type="arc"
         id="path4950"
         style="fill:#005bdb;fill-opacity:0.99215686;fill-rule:evenodd;stroke:none;stroke-width:1.99999976;stroke-linecap:round;stroke-linejoin:round;stroke-miterlimit:4;stroke-dasharray:none;stroke-opacity:0.99215686" />
    </g>
    <path
       style="opacity:1;fill:#000000;fill-rule:evenodd;stroke:#000000;stroke-width:0.99999994px;stroke-linecap:butt;stroke-linejoin:miter;stroke-opacity:1"
       d="M 13.972197,4.3953424 V 19.218564 l 6.325581,-7.411612 z"
       id="path4143"
       inkscape:connector-curvature="0" />
  </g>
  <desc
     id="desc6">Created with Sketch.</desc>
  <defs
     id="defs8" />
</svg>
