<?xml version="1.0" encoding="UTF-8"?>
<!DOCTYPE svg PUBLIC "-//W3C//DTD SVG 1.1//EN" "http://www.w3.org/Graphics/SVG/1.1/DTD/svg11.dtd">
<svg version="1.1" xmlns="http://www.w3.org/2000/svg" xmlns:xlink="http://www.w3.org/1999/xlink" x="0" y="0" width="64" height="64" viewBox="0, 0, 64, 64">
  <g id="Layer_1">
    <path d="M37.687,7.87 C51.027,10.441 58.963,21.665 59.625,34.769 C59.625,50.025 47.257,62.394 32,62.394 C16.743,62.394 4.375,50.025 4.375,34.769 C4.63,22.52 12.895,10.606 25.312,8.074 L25.312,16.386 C17.334,19.316 12.795,26.453 12.375,34.769 C12.375,45.607 21.161,54.394 32,54.394 C43.1,54.213 51.079,45.579 51.625,34.769 C51.497,27.611 47.712,20.954 41.354,17.512 C40.182,17.017 39.009,16.521 37.836,16.026 C37.786,16.016 37.737,16.006 37.687,15.996 L37.687,7.87 z" fill="#BD0404"/>
    <path d="M36,1.606 L36,36.106 L28,36.106 L28,1.606 L36,1.606 z" fill="#BD0404"/>
  </g>
</svg>
