<?xml version="1.0" encoding="UTF-8" standalone="no"?>
<svg
   xmlns:dc="http://purl.org/dc/elements/1.1/"
   xmlns:cc="http://creativecommons.org/ns#"
   xmlns:rdf="http://www.w3.org/1999/02/22-rdf-syntax-ns#"
   xmlns:svg="http://www.w3.org/2000/svg"
   xmlns="http://www.w3.org/2000/svg"
   xmlns:sodipodi="http://sodipodi.sourceforge.net/DTD/sodipodi-0.dtd"
   xmlns:inkscape="http://www.inkscape.org/namespaces/inkscape"
   version="1.1"
   x="0"
   y="0"
   width="64"
   height="64"
   viewBox="0, 0, 64, 64"
   id="svg2"
   inkscape:version="0.91 r13725"
   sodipodi:docname="power_button_off.svg">
  <metadata
     id="metadata13">
    <rdf:RDF>
      <cc:Work
         rdf:about="">
        <dc:format>image/svg+xml</dc:format>
        <dc:type
           rdf:resource="http://purl.org/dc/dcmitype/StillImage" />
        <dc:title></dc:title>
      </cc:Work>
    </rdf:RDF>
  </metadata>
  <defs
     id="defs11" />
  <sodipodi:namedview
     pagecolor="#ffffff"
     bordercolor="#666666"
     borderopacity="1"
     objecttolerance="10"
     gridtolerance="10"
     guidetolerance="10"
     inkscape:pageopacity="0"
     inkscape:pageshadow="2"
     inkscape:window-width="1920"
     inkscape:window-height="1051"
     id="namedview9"
     showgrid="false"
     inkscape:zoom="13.867869"
     inkscape:cx="-11.085207"
     inkscape:cy="32"
     inkscape:window-x="0"
     inkscape:window-y="420"
     inkscape:window-maximized="1"
     inkscape:current-layer="svg2" />
  <g
     id="Layer_1"
     style="fill:#ff5757;fill-opacity:1">
    <path
       d="M 37.687,7.87 C 51.027,10.441 58.963,21.665 59.625,34.769 59.625,50.025 47.257,62.394 32,62.394 16.743,62.394 4.375,50.025 4.375,34.769 4.63,22.52 12.895,10.606 25.312,8.074 l 0,8.312 c -7.978,2.93 -12.517,10.067 -12.937,18.383 0,10.838 8.786,19.625 19.625,19.625 11.1,-0.181 19.079,-8.815 19.625,-19.625 -0.128,-7.158 -3.913,-13.815 -10.271,-17.257 -1.172,-0.495 -2.345,-0.991 -3.518,-1.486 -0.05,-0.01 -0.099,-0.02 -0.149,-0.03 l 0,-8.126 z"
       id="path5"
       style="fill:#ff5757;fill-opacity:1"
       inkscape:connector-curvature="0" />
    <path
       d="m 36,1.606 0,34.5 -8,0 0,-34.5 8,0 z"
       id="path7"
       style="fill:#ff5757;fill-opacity:1"
       inkscape:connector-curvature="0" />
  </g>
</svg>
