<?xml version="1.0" encoding="UTF-8"?>
<!DOCTYPE svg PUBLIC "-//W3C//DTD SVG 1.1//EN" "http://www.w3.org/Graphics/SVG/1.1/DTD/svg11.dtd">
<svg version="1.1" xmlns="http://www.w3.org/2000/svg" xmlns:xlink="http://www.w3.org/1999/xlink" x="0" y="0" width="18" height="18" viewBox="0, 0, 18, 18">
  <g id="Layer_1">
    <path d="M9.227,4.095 C10.765,4.078 12.304,4.639 13.489,5.798 C15.86,8.115 15.897,11.907 13.579,14.277 C11.262,16.647 7.47,16.695 5.1,14.378 C3.1,12.422 2.769,9.424 4.101,7.107 L5.216,8.198 C4.434,9.877 4.749,11.937 6.149,13.305 C7.924,15.041 10.777,15.009 12.512,13.234 C14.248,11.459 14.216,8.606 12.441,6.87 C11.551,6 10.395,5.594 9.244,5.612 L9.283,9.027 L5.529,5.357 L9.199,1.603 L9.227,4.095 z" fill="#000000"/>
  </g>
</svg>
