<?xml version="1.0" encoding="UTF-8" standalone="no"?>
<svg
   xmlns:dc="http://purl.org/dc/elements/1.1/"
   xmlns:cc="http://creativecommons.org/ns#"
   xmlns:rdf="http://www.w3.org/1999/02/22-rdf-syntax-ns#"
   xmlns:svg="http://www.w3.org/2000/svg"
   xmlns="http://www.w3.org/2000/svg"
   xmlns:sodipodi="http://sodipodi.sourceforge.net/DTD/sodipodi-0.dtd"
   xmlns:inkscape="http://www.inkscape.org/namespaces/inkscape"
   width="24px"
   height="24px"
   viewBox="0 0 24 24"
   version="1.1"
   xml:space="preserve"
   style="fill-rule:evenodd;clip-rule:evenodd;stroke-linejoin:round;stroke-miterlimit:1.41421;"
   id="svg2"
   inkscape:version="0.91 r13725"
   sodipodi:docname="tip-add1.svg"><metadata
     id="metadata14"><rdf:RDF><cc:Work
         rdf:about=""><dc:format>image/svg+xml</dc:format><dc:type
           rdf:resource="http://purl.org/dc/dcmitype/StillImage" /><dc:title></dc:title></cc:Work></rdf:RDF></metadata><defs
     id="defs12" /><sodipodi:namedview
     pagecolor="#ffffff"
     bordercolor="#666666"
     borderopacity="1"
     objecttolerance="10"
     gridtolerance="10"
     guidetolerance="10"
     inkscape:pageopacity="0"
     inkscape:pageshadow="2"
     inkscape:window-width="1738"
     inkscape:window-height="1013"
     id="namedview10"
     showgrid="false"
     inkscape:zoom="3.4766083"
     inkscape:cx="176.98095"
     inkscape:cy="49.882473"
     inkscape:window-x="174"
     inkscape:window-y="458"
     inkscape:window-maximized="0"
     inkscape:current-layer="svg2"
     showguides="false"
     inkscape:guide-bbox="true"
     inkscape:snap-to-guides="false"
     inkscape:snap-grids="false" /><g
     id="Shape"
     transform="matrix(0.723244,0,0,0.723244,9.64507,8.758364)"><path
       d="m 19,13 -6,0 0,6 -2,0 0,-6 -6,0 0,-2 6,0 0,-6 2,0 0,6 6,0 0,2 z"
       style="fill:#57ae00"
       id="path8"
       inkscape:connector-curvature="0" /></g><path
     style="fill:#bd0404;fill-opacity:1;fill-rule:evenodd;stroke:none;stroke-width:0.1;stroke-linecap:round;stroke-linejoin:miter;stroke-miterlimit:4;stroke-dasharray:none;stroke-opacity:1"
     d="m 9.4663333,22 1.3573987,-3.881412 0,-1.244736 -1.0392763,0 0,-2.864607 2.1797043,0 0,-2.960931 3.035841,0 0,-2.3195936 -3.029833,0 0,-2.3350767 -0.881335,0 L 10.985666,2.5885026 10.402691,1.9651913 7.4929785,1.91 6.8407852,2.6073096 l 0.030861,3.7880703 -0.8593039,0 0,2.2956065 -3.0123423,0 0,2.3405296 3.0506295,0 0,2.977689 2.0769209,0 0,2.889148 -1.0392763,0 0,1.219302 1.4101322,3.882305"
     id="path4138"
     inkscape:connector-curvature="0"
     sodipodi:nodetypes="cccccccccccccccccccccccccccc" /></svg>